<svg width="1957" height="1356" xmlns="http://www.w3.org/2000/svg" xmlns:xlink="http://www.w3.org/1999/xlink" overflow="hidden"><defs><clipPath id="clip0"><rect x="-21" y="-7" width="1957" height="1356"/></clipPath></defs><g clip-path="url(#clip0)" transform="translate(21 7)"><rect x="48.5" y="258.5" width="908" height="271" stroke="#AE5A21" stroke-width="4.58333" stroke-miterlimit="8" fill="#ED7D31"/><rect x="1110" y="306" width="825" height="155" stroke="#000000" stroke-width="2.29167" stroke-linejoin="round" stroke-miterlimit="10" fill="#FFFFFF"/><path d="M1219.04 342.492 1221.39 342.492 1214.42 370.577 1214.9 370.739C1217.47 367.335 1219.9 364.87 1222.18 363.343 1224.46 361.816 1226.76 361.053 1229.09 361.053 1231.6 361.053 1233.53 361.776 1234.88 363.221 1236.23 364.667 1236.91 366.673 1236.91 369.24 1236.91 370.942 1236.52 373.36 1235.73 376.494L1233.1 387.112C1232.37 390.057 1232.01 392.138 1232.01 393.354 1232.01 394.434 1232.18 395.218 1232.53 395.704 1232.88 396.19 1233.44 396.434 1234.19 396.434 1235.01 396.434 1235.87 396.103 1236.79 395.441 1237.71 394.779 1239 393.516 1240.68 391.651L1242.99 393.921C1240.4 396.65 1238.27 398.527 1236.61 399.554 1234.94 400.581 1233.07 401.094 1230.99 401.094 1229.24 401.094 1227.84 400.473 1226.8 399.23 1225.76 397.987 1225.24 396.38 1225.24 394.407 1225.24 392.651 1225.68 390.071 1226.58 386.667L1228.32 379.655C1228.94 377.143 1229.36 375.258 1229.57 374.002 1229.79 372.745 1229.9 371.766 1229.9 371.063 1229.9 369.145 1229.59 367.788 1228.97 366.99 1228.35 366.193 1227.33 365.795 1225.93 365.795 1224.82 365.795 1223.59 366.254 1222.24 367.173 1220.89 368.091 1219.47 369.49 1217.98 371.367 1216.5 373.245 1215.32 375.042 1214.44 376.758 1213.56 378.473 1212.86 380.52 1212.35 382.897L1208.66 400.446 1201.65 400.446 1212.07 354.123C1212.72 351.232 1213.04 349.233 1213.04 348.125 1213.04 346.99 1212.69 346.193 1212.01 345.734 1211.32 345.275 1210.08 345.018 1208.3 344.964L1208.78 342.856Z" fill-rule="evenodd"/><text fill="#000000" fill-opacity="0" font-family="Arial,Arial_MSFontService,sans-serif" font-size="58.6025" x="1201.65" y="393.769">â„</text><text font-family="Arial,Arial_MSFontService,sans-serif" font-weight="400" font-size="83" transform="matrix(1 0 0 1 1268.02 400)">= <tspan font-size="64" x="71.0875" y="0">hauteur de couche</tspan></text><path d="M168.38 629.5 846.62 629.5C935.472 629.5 1007.5 690.389 1007.5 765.5 1007.5 840.611 935.472 901.5 846.62 901.5L168.38 901.5C79.5283 901.5 7.50007 840.611 7.50007 765.5 7.50007 690.389 79.5283 629.5 168.38 629.5Z" stroke="#507E32" stroke-width="4.58333" stroke-miterlimit="8" fill="#70AD47" fill-rule="evenodd"/><path d="M952 378 1010.44 749.25" stroke="#000000" stroke-width="2.29167" stroke-miterlimit="8" fill="none" fill-rule="evenodd"/><path d="M0 0 48.125 388.438" stroke="#000000" stroke-width="2.29167" stroke-miterlimit="8" fill="none" fill-rule="evenodd" transform="matrix(-1 0 0 1 48.125 375)"/><path d="M0 0 0.000360892 113.438" stroke="#000000" stroke-width="2.29167" stroke-miterlimit="8" fill="none" fill-rule="evenodd" transform="matrix(1 0 0 -1 956 264.437)"/><path d="M0 0 0.000360892 113.438" stroke="#000000" stroke-width="2.29167" stroke-miterlimit="8" fill="none" fill-rule="evenodd" transform="matrix(1 0 0 -1 48.0001 268.438)"/><path d="M77.9167 177.854 929.271 177.855 929.271 180.146 77.9167 180.146ZM82.5 192.75 55 179 82.5 165.25ZM924.688 165.25 952.188 179 924.688 192.75Z"/><path d="M1082.62 526 952 526" stroke="#000000" stroke-width="2.29167" stroke-miterlimit="8" fill="none" fill-rule="evenodd"/><path d="M1072.62 258 942 258" stroke="#000000" stroke-width="2.29167" stroke-miterlimit="8" fill="none" fill-rule="evenodd"/><path d="M1067.46 287.899 1070.27 496.445 1067.98 496.476 1065.16 287.93ZM1052.62 292.683 1066 265 1080.12 292.312ZM1082.81 491.692 1069.44 519.375 1055.32 492.063Z"/><path d="M0 0 3.4375 340.313" stroke="#000000" stroke-width="2.29167" stroke-miterlimit="8" fill="none" fill-rule="evenodd" transform="matrix(1 0 0 -1 1007 1079.31)"/><path d="M3.4375 1086.56-2.38419e-07 760" stroke="#000000" stroke-width="2.29167" stroke-miterlimit="8" fill="none" fill-rule="evenodd"/><path d="M29.9166 1050.85 987.833 1050.85 987.833 1053.15 29.9166 1053.15ZM34.4999 1065.75 6.99987 1052 34.4999 1038.25ZM983.25 1038.25 1010.75 1052 983.25 1065.75Z"/><rect x="598" y="1103" width="756" height="245" stroke="#000000" stroke-width="2.29167" stroke-linejoin="round" stroke-miterlimit="10" fill="#FFFFFF"/><path d="M659.956 1205.51C661.658 1205.51 663.002 1206.08 663.988 1207.2 664.974 1208.32 665.467 1209.78 665.467 1211.59 665.467 1213.03 665.143 1214.62 664.495 1216.38L664.981 1216.54C667.629 1212.81 670.148 1210.05 672.539 1208.25 674.931 1206.45 677.396 1205.56 679.936 1205.56 682.448 1205.56 684.38 1206.28 685.731 1207.72 687.082 1209.17 687.757 1211.18 687.757 1213.74 687.757 1215.44 687.366 1217.86 686.582 1221L683.948 1231.61C683.218 1234.56 682.854 1236.64 682.854 1237.86 682.854 1238.94 683.029 1239.72 683.38 1240.21 683.732 1240.69 684.286 1240.94 685.042 1240.94 685.853 1240.94 686.717 1240.6 687.636 1239.94 688.555 1239.28 689.851 1238.02 691.526 1236.15L693.837 1238.42C691.513 1240.91 689.487 1242.73 687.757 1243.87 686.028 1245.02 684.056 1245.6 681.84 1245.6 680.084 1245.6 678.679 1244.97 677.626 1243.71 676.572 1242.46 676.045 1240.85 676.045 1238.91 676.045 1237.15 676.491 1234.57 677.382 1231.17L679.166 1224.16C679.814 1221.62 680.24 1219.74 680.442 1218.52 680.645 1217.31 680.746 1216.32 680.746 1215.57 680.746 1213.7 680.435 1212.36 679.814 1211.53 679.193 1210.71 678.18 1210.3 676.775 1210.3 675.64 1210.3 674.417 1210.75 673.107 1211.65 671.796 1212.56 670.405 1213.92 668.932 1215.75 667.46 1217.57 666.278 1219.34 665.386 1221.06 664.495 1222.77 663.765 1224.89 663.198 1227.4L659.348 1244.95 652.337 1244.95 658.254 1219.25C658.848 1216.66 659.145 1214.66 659.145 1213.26 659.145 1212.17 658.97 1211.39 658.618 1210.9 658.267 1210.42 657.713 1210.18 656.957 1210.18 656.119 1210.18 655.234 1210.52 654.302 1211.21 653.37 1211.9 652.093 1213.15 650.472 1214.96L648.162 1212.69C650.648 1210.09 652.715 1208.25 654.363 1207.16 656.011 1206.06 657.875 1205.51 659.956 1205.51Z" fill-rule="evenodd"/><text fill="#000000" fill-opacity="0" font-family="Arial,Arial_MSFontService,sans-serif" font-size="40.0815" x="648.162" y="1240.59">ğ‘›</text><path d="M731.653 1205.92 737.002 1205.92 735.827 1218.61 746.243 1211.27 748.877 1215.81 737.327 1221.2 748.877 1226.63 746.243 1231.13 735.827 1223.79 737.002 1236.48 731.653 1236.48 732.869 1223.79 722.413 1231.13 719.738 1226.63 731.329 1221.2 719.738 1215.81 722.413 1211.27 732.869 1218.61Z" fill-rule="evenodd"/><text fill="#000000" fill-opacity="0" font-family="Arial,Arial_MSFontService,sans-serif" font-size="30.5576" x="719.738" y="1232.66">âˆ—</text><path d="M793.301 1186.99 795.692 1186.99 785.722 1231.86C785.128 1234.53 784.831 1236.53 784.831 1237.86 784.831 1238.94 785.006 1239.72 785.357 1240.21 785.709 1240.69 786.262 1240.94 787.019 1240.94 787.83 1240.94 788.694 1240.6 789.613 1239.94 790.531 1239.28 791.828 1238.02 793.503 1236.15L795.813 1238.42C793.193 1241.18 791.051 1243.06 789.39 1244.08 787.728 1245.09 785.871 1245.6 783.817 1245.6 782.061 1245.6 780.656 1244.95 779.602 1243.67 778.549 1242.39 778.022 1240.75 778.022 1238.75 778.022 1236.94 778.4 1234.32 779.157 1230.88L786.411 1198.42C786.735 1196.99 786.965 1195.85 787.1 1195 787.235 1194.15 787.303 1193.36 787.303 1192.63 787.303 1191.82 787.154 1191.2 786.857 1190.78 786.56 1190.36 786.134 1190.06 785.58 1189.87 785.026 1189.68 784.033 1189.55 782.602 1189.47L783.088 1187.36Z" fill-rule="evenodd"/><text fill="#000000" fill-opacity="0" font-family="Arial,Arial_MSFontService,sans-serif" font-size="58.6025" x="778.022" y="1238.27">ğ‘™</text><path d="M847.557 1195.18 853.312 1195.18 853.312 1218.52 875.399 1218.52 875.399 1223.91 853.312 1223.91 853.312 1247.26 847.557 1247.26 847.557 1223.91 825.47 1223.91 825.47 1218.52 847.557 1218.52Z" fill-rule="evenodd"/><text fill="#000000" fill-opacity="0" font-family="Arial,Arial_MSFontService,sans-serif" font-size="52.0776" x="825.47" y="1240.75">+</text><path d="M920.502 1186.99 922.853 1186.99 915.882 1215.08 916.368 1215.24C918.935 1211.84 921.36 1209.37 923.643 1207.85 925.926 1206.32 928.229 1205.56 930.553 1205.56 933.066 1205.56 934.997 1206.28 936.348 1207.72 937.699 1209.17 938.375 1211.18 938.375 1213.74 938.375 1215.44 937.983 1217.86 937.199 1221L934.565 1231.61C933.836 1234.56 933.471 1236.64 933.471 1237.86 933.471 1238.94 933.647 1239.72 933.998 1240.21 934.349 1240.69 934.903 1240.94 935.659 1240.94 936.47 1240.94 937.335 1240.6 938.253 1239.94 939.172 1239.28 940.469 1238.02 942.144 1236.15L944.454 1238.42C941.86 1241.15 939.732 1243.03 938.071 1244.06 936.409 1245.08 934.538 1245.6 932.458 1245.6 930.702 1245.6 929.303 1244.97 928.263 1243.73 927.223 1242.49 926.703 1240.88 926.703 1238.91 926.703 1237.15 927.149 1234.57 928.04 1231.17L929.783 1224.16C930.404 1221.64 930.823 1219.76 931.039 1218.5 931.255 1217.25 931.364 1216.27 931.364 1215.57 931.364 1213.65 931.053 1212.29 930.431 1211.49 929.81 1210.7 928.797 1210.3 927.392 1210.3 926.284 1210.3 925.055 1210.76 923.704 1211.67 922.353 1212.59 920.935 1213.99 919.448 1215.87 917.962 1217.75 916.78 1219.54 915.902 1221.26 915.024 1222.98 914.329 1225.02 913.815 1227.4L910.127 1244.95 903.116 1244.95 913.531 1198.63C914.18 1195.73 914.504 1193.73 914.504 1192.63 914.504 1191.49 914.16 1190.7 913.471 1190.24 912.782 1189.78 911.546 1189.52 909.762 1189.47L910.249 1187.36Z" fill-rule="evenodd"/><text fill="#000000" fill-opacity="0" font-family="Arial,Arial_MSFontService,sans-serif" font-size="58.6025" x="903.116" y="1238.27">â„</text><path d="M976.335 1199.03 994.694 1217.35 1013.05 1199.03 1016.86 1202.8 998.706 1221.28 1016.9 1239.68 1012.85 1243.73 994.694 1225.21 975.97 1243.57 972.201 1239.76 990.722 1221.28 972.282 1203.08Z" fill-rule="evenodd"/><text fill="#000000" fill-opacity="0" font-family="Arial,Arial_MSFontService,sans-serif" font-size="44.7017" x="972.201" y="1238.14">Ã—</text><path d="M1074 1186.39 1075.09 1189.51C1068.77 1191.59 1064.09 1195.65 1061.05 1201.68 1058.01 1207.72 1056.49 1215.31 1056.49 1224.44 1056.49 1233.9 1058.01 1241.69 1061.05 1247.83 1064.09 1253.96 1068.73 1258.07 1074.97 1260.15L1074 1263.27C1066.08 1261.19 1060.01 1256.71 1055.8 1249.83 1051.58 1242.96 1049.48 1234.63 1049.48 1224.85 1049.48 1215.09 1051.59 1206.76 1055.82 1199.86 1060.05 1192.96 1066.11 1188.47 1074 1186.39Z" fill-rule="evenodd"/><text fill="#000000" fill-opacity="0" font-family="Arial,Arial_MSFontService,sans-serif" font-size="76.8804" x="1049.48" y="1253.66">(</text><path d="M1102.6 1188.98 1104.83 1188.98C1104.67 1191.57 1104.59 1195.17 1104.59 1199.76L1104.59 1234.37C1104.59 1235.94 1104.67 1237.12 1104.85 1237.92 1105.02 1238.71 1105.33 1239.36 1105.78 1239.86 1106.23 1240.36 1106.87 1240.75 1107.71 1241.04 1108.54 1241.32 1109.6 1241.54 1110.87 1241.69 1112.14 1241.83 1113.81 1241.94 1115.89 1241.99L1115.89 1244.95 1085.94 1244.95 1085.94 1241.99C1088.94 1241.85 1091.08 1241.67 1092.37 1241.44 1093.65 1241.21 1094.63 1240.87 1095.3 1240.41 1095.98 1239.95 1096.47 1239.3 1096.78 1238.46 1097.09 1237.63 1097.25 1236.26 1097.25 1234.37L1097.25 1201.5C1097.25 1200.42 1097.06 1199.63 1096.68 1199.13 1096.3 1198.63 1095.75 1198.38 1095.02 1198.38 1094.16 1198.38 1092.93 1198.83 1091.33 1199.72 1089.74 1200.61 1087.77 1201.84 1085.42 1203.41L1083.63 1200.29Z" fill-rule="evenodd"/><text fill="#000000" fill-opacity="0" font-family="Arial,Arial_MSFontService,sans-serif" font-size="55.9683" x="1083.63" y="1237.95">1</text><path d="M1146.46 1218.52 1196.39 1218.52 1196.39 1223.91 1146.46 1223.91Z" fill-rule="evenodd"/><text fill="#000000" fill-opacity="0" font-family="Arial,Arial_MSFontService,sans-serif" font-size="5.39014" x="1146.46" y="1223.24">âˆ’</text><path d="M1235.7 1143.76 1268.97 1143.76 1267.8 1149.11 1258.15 1149.11 1253.57 1169.41C1252.98 1172.06 1252.68 1174.06 1252.68 1175.41 1252.68 1176.49 1252.86 1177.27 1253.21 1177.76 1253.56 1178.24 1254.11 1178.49 1254.87 1178.49 1256.49 1178.49 1258.4 1177.19 1260.58 1174.6L1262.93 1176.79C1260.88 1179.03 1259.01 1180.65 1257.32 1181.65 1255.63 1182.65 1253.83 1183.15 1251.91 1183.15 1250.07 1183.15 1248.63 1182.52 1247.58 1181.26 1246.52 1180.01 1245.99 1178.35 1245.99 1176.3 1245.99 1174.49 1246.37 1171.87 1247.13 1168.44L1248.02 1164.34C1248.48 1162.18 1249.14 1159.57 1249.99 1156.52 1250.84 1153.47 1251.57 1151.12 1252.2 1149.47L1251.99 1149.11 1240.08 1149.11 1235.09 1172.17C1234.69 1173.98 1234.21 1175.93 1233.67 1178.02 1233.13 1180.12 1232.72 1181.61 1232.42 1182.5L1223.83 1182.5 1224.23 1180.51C1227.1 1177.68 1229.74 1171.03 1232.17 1160.57L1234.85 1149.11 1233.55 1149.11C1231.63 1149.11 1230.01 1149.43 1228.69 1150.08 1227.37 1150.73 1225.92 1152.02 1224.35 1153.97L1221.8 1151.82C1223.2 1150.12 1224.35 1148.82 1225.24 1147.93 1226.14 1147.04 1227.07 1146.28 1228.06 1145.66 1229.05 1145.04 1230.16 1144.57 1231.38 1144.24 1232.61 1143.92 1234.05 1143.76 1235.7 1143.76Z" fill-rule="evenodd"/><text fill="#000000" fill-opacity="0" font-family="Arial,Arial_MSFontService,sans-serif" font-size="39.3926" x="1221.8" y="1178.22">ğœ‹</text><path d="M1248.53 1253.69 1232.69 1278.85 1232.69 1279.42 1248.53 1279.42 1248.53 1269.33C1248.53 1266.79 1248.57 1263.95 1248.65 1260.8 1248.74 1257.65 1248.83 1255.28 1248.94 1253.69ZM1249.71 1244.53 1255.5 1244.53 1255.5 1279.42 1256.35 1279.42C1257.92 1279.42 1259.04 1279.31 1259.72 1279.08 1260.39 1278.85 1260.95 1278.44 1261.4 1277.86 1261.85 1277.28 1262.26 1276.33 1262.64 1275L1265.72 1275 1265.23 1283.35 1255.5 1283.35 1255.5 1290C1255.5 1291.81 1255.56 1293.13 1255.69 1293.97 1255.81 1294.81 1256.01 1295.47 1256.29 1295.96 1256.58 1296.44 1257 1296.85 1257.55 1297.17 1258.1 1297.5 1259 1297.82 1260.25 1298.15L1260.25 1300.13 1243.79 1300.13 1243.79 1298.15C1245.47 1297.71 1246.59 1297.23 1247.16 1296.71 1247.72 1296.18 1248.09 1295.43 1248.27 1294.46 1248.45 1293.48 1248.53 1292 1248.53 1290L1248.53 1283.35 1226 1283.35 1226 1280.31Z" fill-rule="evenodd"/><text fill="#000000" fill-opacity="0" font-family="Arial,Arial_MSFontService,sans-serif" font-size="55.6035" x="1226" y="1293.18">4</text><path d="M1220.12 1218.94 1271.12 1218.94 1271.12 1223.94 1220.12 1223.94Z" fill-rule="evenodd"/><path d="M1273.68 1186.39C1281.57 1188.47 1287.63 1192.96 1291.86 1199.86 1296.09 1206.76 1298.2 1215.09 1298.2 1224.85 1298.2 1234.63 1296.1 1242.96 1291.88 1249.83 1287.67 1256.71 1281.6 1261.19 1273.68 1263.27L1272.71 1260.15C1278.95 1258.07 1283.59 1253.96 1286.63 1247.83 1289.67 1241.69 1291.19 1233.9 1291.19 1224.44 1291.19 1215.31 1289.68 1207.72 1286.65 1201.68 1283.63 1195.65 1278.94 1191.59 1272.59 1189.51Z" fill-rule="evenodd"/><text fill="#000000" fill-opacity="0" font-family="Arial,Arial_MSFontService,sans-serif" font-size="76.8804" x="1272.59" y="1253.66">)</text><rect x="138" y="0" width="711" height="155" stroke="#000000" stroke-width="2.29167" stroke-linejoin="round" stroke-miterlimit="10" fill="#FFFFFF"/><path d="M243.14 36.5542 245.531 36.5542 235.562 81.418C234.967 84.0928 234.67 86.0922 234.67 87.416 234.67 88.4968 234.846 89.2803 235.197 89.7666 235.548 90.253 236.102 90.4961 236.858 90.4961 237.669 90.4961 238.534 90.1652 239.452 89.5032 240.371 88.8413 241.668 87.5782 243.343 85.7139L245.653 87.9834C243.032 90.7393 240.891 92.6238 239.229 93.637 237.568 94.6502 235.71 95.1568 233.657 95.1568 231.901 95.1568 230.496 94.5151 229.442 93.2317 228.388 91.9484 227.861 90.307 227.861 88.3076 227.861 86.4974 228.24 83.8767 228.996 80.4453L236.25 47.9829C236.575 46.551 236.804 45.4095 236.939 44.5584 237.075 43.7073 237.142 42.917 237.142 42.1875 237.142 41.377 236.993 40.7623 236.696 40.3435 236.399 39.9248 235.974 39.6208 235.42 39.4317 234.866 39.2425 233.873 39.1075 232.441 39.0264L232.927 36.919Z" fill-rule="evenodd"/><text fill="#000000" fill-opacity="0" font-family="Arial,Arial_MSFontService,sans-serif" font-size="58.6025" x="227.861" y="87.8315">ğ‘™</text><text font-family="Arial,Arial_MSFontService,sans-serif" font-weight="400" font-size="83" transform="matrix(1 0 0 1 273.854 95)">= <tspan font-size="64" x="71.0875" y="0">largeur de ligne</tspan></text><path d="M0 0 3.4375 635.938" stroke="#002060" stroke-width="6.875" stroke-miterlimit="8" stroke-dasharray="27.5 20.625 6.875 20.625" fill="none" fill-rule="evenodd" transform="matrix(-1 0 0 1 962.937 261.5)"/><path d="M0 0 3.4375 635.938" stroke="#002060" stroke-width="6.875" stroke-miterlimit="8" stroke-dasharray="27.5 20.625 6.875 20.625" fill="none" fill-rule="evenodd" transform="matrix(-1 0 0 1 51.9375 261.5)"/></g></svg>