<svg width="1957" height="1356" xmlns="http://www.w3.org/2000/svg" xmlns:xlink="http://www.w3.org/1999/xlink" overflow="hidden"><defs><clipPath id="clip0"><rect x="-21" y="-7" width="1957" height="1356"/></clipPath></defs><g clip-path="url(#clip0)" transform="translate(21 7)"><rect x="48.5" y="258.5" width="908" height="271" stroke="#AE5A21" stroke-width="4.58333" stroke-miterlimit="8" fill="#ED7D31"/><rect x="1110" y="306" width="825" height="155" stroke="#000000" stroke-width="2.29167" stroke-linejoin="round" stroke-miterlimit="10" fill="#FFFFFF"/><path d="M1187.34 342.492 1189.69 342.492 1182.72 370.577 1183.21 370.739C1185.78 367.335 1188.2 364.87 1190.48 363.343 1192.77 361.816 1195.07 361.053 1197.39 361.053 1199.91 361.053 1201.84 361.776 1203.19 363.221 1204.54 364.667 1205.22 366.673 1205.22 369.24 1205.22 370.942 1204.82 373.36 1204.04 376.494L1201.41 387.112C1200.68 390.057 1200.31 392.138 1200.31 393.354 1200.31 394.434 1200.49 395.218 1200.84 395.704 1201.19 396.19 1201.74 396.434 1202.5 396.434 1203.31 396.434 1204.18 396.103 1205.09 395.441 1206.01 394.779 1207.31 393.516 1208.99 391.651L1211.3 393.921C1208.7 396.65 1206.57 398.527 1204.91 399.554 1203.25 400.581 1201.38 401.094 1199.3 401.094 1197.54 401.094 1196.15 400.473 1195.1 399.23 1194.06 397.987 1193.54 396.38 1193.54 394.407 1193.54 392.651 1193.99 390.071 1194.88 386.667L1196.62 379.655C1197.25 377.143 1197.66 375.258 1197.88 374.002 1198.1 372.745 1198.21 371.766 1198.21 371.063 1198.21 369.145 1197.89 367.788 1197.27 366.99 1196.65 366.193 1195.64 365.795 1194.23 365.795 1193.13 365.795 1191.9 366.254 1190.55 367.173 1189.19 368.091 1187.78 369.49 1186.29 371.367 1184.8 373.245 1183.62 375.042 1182.74 376.758 1181.87 378.473 1181.17 380.52 1180.66 382.897L1176.97 400.446 1169.96 400.446 1180.37 354.123C1181.02 351.232 1181.35 349.233 1181.35 348.125 1181.35 346.99 1181 346.193 1180.31 345.734 1179.62 345.275 1178.39 345.018 1176.6 344.964L1177.09 342.856Z" fill-rule="evenodd"/><text fill="#000000" fill-opacity="0" font-family="Arial,Arial_MSFontService,sans-serif" font-size="58.6025" x="1169.96" y="393.769">â„</text><text font-family="Arial,Arial_MSFontService,sans-serif" font-weight="400" font-size="83" transform="matrix(1 0 0 1 1236.33 400)">=<tspan font-size="64" x="71.0875" y="0">layer</tspan><tspan font-size="64" x="227.975" y="0">height</tspan></text><path d="M168.38 629.5 846.62 629.5C935.472 629.5 1007.5 690.389 1007.5 765.5 1007.5 840.611 935.472 901.5 846.62 901.5L168.38 901.5C79.5283 901.5 7.50007 840.611 7.50007 765.5 7.50007 690.389 79.5283 629.5 168.38 629.5Z" stroke="#507E32" stroke-width="4.58333" stroke-miterlimit="8" fill="#70AD47" fill-rule="evenodd"/><path d="M952 378 1010.44 749.25" stroke="#000000" stroke-width="2.29167" stroke-miterlimit="8" fill="none" fill-rule="evenodd"/><path d="M0 0 48.125 388.438" stroke="#000000" stroke-width="2.29167" stroke-miterlimit="8" fill="none" fill-rule="evenodd" transform="matrix(-1 0 0 1 48.125 375)"/><path d="M0 0 0.000360892 113.438" stroke="#000000" stroke-width="2.29167" stroke-miterlimit="8" fill="none" fill-rule="evenodd" transform="matrix(1 0 0 -1 956 264.437)"/><path d="M0 0 0.000360892 113.438" stroke="#000000" stroke-width="2.29167" stroke-miterlimit="8" fill="none" fill-rule="evenodd" transform="matrix(1 0 0 -1 48.0001 268.438)"/><path d="M77.9167 177.854 929.271 177.855 929.271 180.146 77.9167 180.146ZM82.5 192.75 55 179 82.5 165.25ZM924.688 165.25 952.188 179 924.688 192.75Z"/><path d="M1082.62 526 952 526" stroke="#000000" stroke-width="2.29167" stroke-miterlimit="8" fill="none" fill-rule="evenodd"/><path d="M1072.62 258 942 258" stroke="#000000" stroke-width="2.29167" stroke-miterlimit="8" fill="none" fill-rule="evenodd"/><path d="M1067.46 287.899 1070.27 496.445 1067.98 496.476 1065.16 287.93ZM1052.62 292.683 1066 265 1080.12 292.312ZM1082.81 491.692 1069.44 519.375 1055.32 492.063Z"/><path d="M0 0 3.4375 340.313" stroke="#000000" stroke-width="2.29167" stroke-miterlimit="8" fill="none" fill-rule="evenodd" transform="matrix(1 0 0 -1 1007 1079.31)"/><path d="M3.4375 1086.56-2.38419e-07 760" stroke="#000000" stroke-width="2.29167" stroke-miterlimit="8" fill="none" fill-rule="evenodd"/><path d="M29.9166 1050.85 987.833 1050.85 987.833 1053.15 29.9166 1053.15ZM34.4999 1065.75 6.99987 1052 34.4999 1038.25ZM983.25 1038.25 1010.75 1052 983.25 1065.75Z"/><rect x="598" y="1103" width="970" height="245" stroke="#000000" stroke-width="2.29167" stroke-linejoin="round" stroke-miterlimit="10" fill="#FFFFFF"/><path d="M749.17 1205.51C750.872 1205.51 752.217 1206.08 753.203 1207.2 754.189 1208.32 754.682 1209.78 754.682 1211.59 754.682 1213.03 754.358 1214.62 753.709 1216.38L754.196 1216.54C756.843 1212.81 759.363 1210.05 761.754 1208.25 764.145 1206.45 766.61 1205.56 769.15 1205.56 771.663 1205.56 773.595 1206.28 774.946 1207.72 776.297 1209.17 776.972 1211.18 776.972 1213.74 776.972 1215.44 776.58 1217.86 775.797 1221L773.162 1231.61C772.433 1234.56 772.068 1236.64 772.068 1237.86 772.068 1238.94 772.244 1239.72 772.595 1240.21 772.946 1240.69 773.5 1240.94 774.257 1240.94 775.067 1240.94 775.932 1240.6 776.85 1239.94 777.769 1239.28 779.066 1238.02 780.741 1236.15L783.051 1238.42C780.728 1240.91 778.701 1242.73 776.972 1243.87 775.243 1245.02 773.271 1245.6 771.055 1245.6 769.299 1245.6 767.894 1244.97 766.84 1243.71 765.786 1242.46 765.26 1240.85 765.26 1238.91 765.26 1237.15 765.705 1234.57 766.597 1231.17L768.38 1224.16C769.029 1221.62 769.454 1219.74 769.657 1218.52 769.859 1217.31 769.961 1216.32 769.961 1215.57 769.961 1213.7 769.65 1212.36 769.029 1211.53 768.407 1210.71 767.394 1210.3 765.989 1210.3 764.854 1210.3 763.632 1210.75 762.321 1211.65 761.011 1212.56 759.62 1213.92 758.147 1215.75 756.675 1217.57 755.492 1219.34 754.601 1221.06 753.709 1222.77 752.98 1224.89 752.412 1227.4L748.562 1244.95 741.551 1244.95 747.468 1219.25C748.063 1216.66 748.36 1214.66 748.36 1213.26 748.36 1212.17 748.184 1211.39 747.833 1210.9 747.482 1210.42 746.928 1210.18 746.171 1210.18 745.334 1210.18 744.449 1210.52 743.517 1211.21 742.585 1211.9 741.308 1213.15 739.687 1214.96L737.377 1212.69C739.862 1210.09 741.929 1208.25 743.577 1207.16 745.226 1206.06 747.09 1205.51 749.17 1205.51Z" fill-rule="evenodd"/><text fill="#000000" fill-opacity="0" font-family="Arial,Arial_MSFontService,sans-serif" font-size="40.0815" x="737.377" y="1240.59">ğ‘›</text><path d="M820.867 1205.92 826.217 1205.92 825.042 1218.61 835.457 1211.27 838.092 1215.81 826.541 1221.2 838.092 1226.63 835.457 1231.13 825.042 1223.79 826.217 1236.48 820.867 1236.48 822.083 1223.79 811.627 1231.13 808.952 1226.63 820.543 1221.2 808.952 1215.81 811.627 1211.27 822.083 1218.61Z" fill-rule="evenodd"/><text fill="#000000" fill-opacity="0" font-family="Arial,Arial_MSFontService,sans-serif" font-size="30.5576" x="808.952" y="1232.66">âˆ—</text><path d="M864.318 1206.2 874.937 1206.2 877.368 1238.18C881.178 1231.97 883.927 1227.24 885.616 1224 887.304 1220.75 888.554 1217.95 889.364 1215.59 890.175 1213.22 890.796 1210.76 891.229 1208.19L891.674 1206.2 897.51 1206.2 900.469 1238.22C904.684 1232.22 907.892 1226.99 910.094 1222.52 912.296 1218.04 913.397 1214.4 913.397 1211.59 913.397 1210.32 913.127 1209.46 912.587 1209 912.046 1208.54 911.128 1208.27 909.831 1208.19L910.236 1206.2 920.692 1206.2 921.786 1208.23C920.841 1210.63 920.084 1212.49 919.517 1213.78 918.949 1215.08 918.206 1216.64 917.288 1218.46 916.369 1220.29 915.396 1222.1 914.37 1223.91 913.343 1225.72 912.134 1227.72 910.743 1229.89 909.351 1232.07 907.791 1234.43 906.062 1236.98 904.332 1239.54 902.293 1242.41 899.942 1245.6L895.119 1245.6 893.458 1228.66C893.323 1227.33 893.181 1225.6 893.032 1223.47 892.883 1221.33 892.782 1219.69 892.728 1218.52L892.282 1218.48C890.823 1222.08 888.838 1226.08 886.325 1230.48 883.812 1234.88 880.705 1239.92 877.004 1245.6L871.573 1245.6 868.493 1215.08C868.331 1213.51 868.128 1212.24 867.885 1211.27 867.642 1210.3 867.236 1209.57 866.669 1209.08 866.102 1208.59 865.17 1208.3 863.873 1208.19Z" fill-rule="evenodd"/><text fill="#000000" fill-opacity="0" font-family="Arial,Arial_MSFontService,sans-serif" font-size="39.3926" x="863.873" y="1240.67">ğ‘¤</text><path d="M971.468 1195.18 977.222 1195.18 977.222 1218.52 999.31 1218.52 999.31 1223.91 977.222 1223.91 977.222 1247.26 971.468 1247.26 971.468 1223.91 949.38 1223.91 949.38 1218.52 971.468 1218.52Z" fill-rule="evenodd"/><text fill="#000000" fill-opacity="0" font-family="Arial,Arial_MSFontService,sans-serif" font-size="52.0776" x="949.38" y="1240.75">+</text><path d="M1044.41 1186.99 1046.76 1186.99 1039.79 1215.08 1040.28 1215.24C1042.85 1211.84 1045.27 1209.37 1047.55 1207.85 1049.84 1206.32 1052.14 1205.56 1054.46 1205.56 1056.98 1205.56 1058.91 1206.28 1060.26 1207.72 1061.61 1209.17 1062.29 1211.18 1062.29 1213.74 1062.29 1215.44 1061.89 1217.86 1061.11 1221L1058.48 1231.61C1057.75 1234.56 1057.38 1236.64 1057.38 1237.86 1057.38 1238.94 1057.56 1239.72 1057.91 1240.21 1058.26 1240.69 1058.81 1240.94 1059.57 1240.94 1060.38 1240.94 1061.24 1240.6 1062.16 1239.94 1063.08 1239.28 1064.38 1238.02 1066.05 1236.15L1068.36 1238.42C1065.77 1241.15 1063.64 1243.03 1061.98 1244.06 1060.32 1245.08 1058.45 1245.6 1056.37 1245.6 1054.61 1245.6 1053.21 1244.97 1052.17 1243.73 1051.13 1242.49 1050.61 1240.88 1050.61 1238.91 1050.61 1237.15 1051.06 1234.57 1051.95 1231.17L1053.69 1224.16C1054.31 1221.64 1054.73 1219.76 1054.95 1218.5 1055.17 1217.25 1055.27 1216.27 1055.27 1215.57 1055.27 1213.65 1054.96 1212.29 1054.34 1211.49 1053.72 1210.7 1052.71 1210.3 1051.3 1210.3 1050.19 1210.3 1048.97 1210.76 1047.61 1211.67 1046.26 1212.59 1044.84 1213.99 1043.36 1215.87 1041.87 1217.75 1040.69 1219.54 1039.81 1221.26 1038.93 1222.98 1038.24 1225.02 1037.73 1227.4L1034.04 1244.95 1027.03 1244.95 1037.44 1198.63C1038.09 1195.73 1038.41 1193.73 1038.41 1192.63 1038.41 1191.49 1038.07 1190.7 1037.38 1190.24 1036.69 1189.78 1035.46 1189.52 1033.67 1189.47L1034.16 1187.36Z" fill-rule="evenodd"/><text fill="#000000" fill-opacity="0" font-family="Arial,Arial_MSFontService,sans-serif" font-size="58.6025" x="1027.03" y="1238.27">â„</text><path d="M1100.25 1199.03 1118.6 1217.35 1136.96 1199.03 1140.77 1202.8 1122.62 1221.28 1140.81 1239.68 1136.76 1243.73 1118.6 1225.21 1099.88 1243.57 1096.11 1239.76 1114.63 1221.28 1096.19 1203.08Z" fill-rule="evenodd"/><text fill="#000000" fill-opacity="0" font-family="Arial,Arial_MSFontService,sans-serif" font-size="44.7017" x="1096.11" y="1238.14">Ã—</text><path d="M1197.91 1186.39 1199 1189.51C1192.68 1191.59 1188 1195.65 1184.96 1201.68 1181.92 1207.72 1180.4 1215.31 1180.4 1224.44 1180.4 1233.9 1181.92 1241.69 1184.96 1247.83 1188 1253.96 1192.64 1258.07 1198.88 1260.15L1197.91 1263.27C1189.99 1261.19 1183.92 1256.71 1179.71 1249.83 1175.49 1242.96 1173.39 1234.63 1173.39 1224.85 1173.39 1215.09 1175.5 1206.76 1179.73 1199.86 1183.96 1192.96 1190.02 1188.47 1197.91 1186.39Z" fill-rule="evenodd"/><text fill="#000000" fill-opacity="0" font-family="Arial,Arial_MSFontService,sans-serif" font-size="76.8804" x="1173.39" y="1253.66">(</text><path d="M1226.51 1188.98 1228.74 1188.98C1228.58 1191.57 1228.5 1195.17 1228.5 1199.76L1228.5 1234.37C1228.5 1235.94 1228.58 1237.12 1228.76 1237.92 1228.93 1238.71 1229.25 1239.36 1229.69 1239.86 1230.14 1240.36 1230.78 1240.75 1231.62 1241.04 1232.45 1241.32 1233.51 1241.54 1234.78 1241.69 1236.05 1241.83 1237.72 1241.94 1239.8 1241.99L1239.8 1244.95 1209.85 1244.95 1209.85 1241.99C1212.85 1241.85 1214.99 1241.67 1216.28 1241.44 1217.56 1241.21 1218.54 1240.87 1219.21 1240.41 1219.89 1239.95 1220.38 1239.3 1220.69 1238.46 1221 1237.63 1221.16 1236.26 1221.16 1234.37L1221.16 1201.5C1221.16 1200.42 1220.97 1199.63 1220.59 1199.13 1220.21 1198.63 1219.66 1198.38 1218.93 1198.38 1218.07 1198.38 1216.84 1198.83 1215.24 1199.72 1213.65 1200.61 1211.68 1201.84 1209.33 1203.41L1207.54 1200.29Z" fill-rule="evenodd"/><text fill="#000000" fill-opacity="0" font-family="Arial,Arial_MSFontService,sans-serif" font-size="55.9683" x="1207.54" y="1237.95">1</text><path d="M1270.37 1218.52 1320.3 1218.52 1320.3 1223.91 1270.37 1223.91Z" fill-rule="evenodd"/><text fill="#000000" fill-opacity="0" font-family="Arial,Arial_MSFontService,sans-serif" font-size="5.39014" x="1270.37" y="1223.24">âˆ’</text><path d="M1359.61 1143.76 1392.88 1143.76 1391.71 1149.11 1382.06 1149.11 1377.48 1169.41C1376.89 1172.06 1376.59 1174.06 1376.59 1175.41 1376.59 1176.49 1376.77 1177.27 1377.12 1177.76 1377.47 1178.24 1378.02 1178.49 1378.78 1178.49 1380.4 1178.49 1382.31 1177.19 1384.49 1174.6L1386.85 1176.79C1384.79 1179.03 1382.92 1180.65 1381.23 1181.65 1379.54 1182.65 1377.74 1183.15 1375.82 1183.15 1373.98 1183.15 1372.54 1182.52 1371.49 1181.26 1370.43 1180.01 1369.9 1178.35 1369.9 1176.3 1369.9 1174.49 1370.28 1171.87 1371.04 1168.44L1371.93 1164.34C1372.39 1162.18 1373.05 1159.57 1373.9 1156.52 1374.75 1153.47 1375.48 1151.12 1376.11 1149.47L1375.9 1149.11 1363.99 1149.11 1359 1172.17C1358.6 1173.98 1358.13 1175.93 1357.58 1178.02 1357.04 1180.12 1356.63 1181.61 1356.33 1182.5L1347.74 1182.5 1348.14 1180.51C1351.01 1177.68 1353.65 1171.03 1356.09 1160.57L1358.76 1149.11 1357.46 1149.11C1355.54 1149.11 1353.92 1149.43 1352.6 1150.08 1351.28 1150.73 1349.83 1152.02 1348.26 1153.97L1345.71 1151.82C1347.11 1150.12 1348.26 1148.82 1349.15 1147.93 1350.05 1147.04 1350.99 1146.28 1351.97 1145.66 1352.96 1145.04 1354.07 1144.57 1355.29 1144.24 1356.52 1143.92 1357.96 1143.76 1359.61 1143.76Z" fill-rule="evenodd"/><text fill="#000000" fill-opacity="0" font-family="Arial,Arial_MSFontService,sans-serif" font-size="39.3926" x="1345.71" y="1178.22">ğœ‹</text><path d="M1372.44 1253.69 1356.6 1278.85 1356.6 1279.42 1372.44 1279.42 1372.44 1269.33C1372.44 1266.79 1372.48 1263.95 1372.56 1260.8 1372.65 1257.65 1372.74 1255.28 1372.85 1253.69ZM1373.62 1244.53 1379.41 1244.53 1379.41 1279.42 1380.27 1279.42C1381.83 1279.42 1382.95 1279.31 1383.63 1279.08 1384.3 1278.85 1384.86 1278.44 1385.31 1277.86 1385.76 1277.28 1386.17 1276.33 1386.55 1275L1389.63 1275 1389.14 1283.35 1379.41 1283.35 1379.41 1290C1379.41 1291.81 1379.47 1293.13 1379.6 1293.97 1379.72 1294.81 1379.92 1295.47 1380.2 1295.96 1380.49 1296.44 1380.91 1296.85 1381.46 1297.17 1382.01 1297.5 1382.91 1297.82 1384.16 1298.15L1384.16 1300.13 1367.7 1300.13 1367.7 1298.15C1369.38 1297.71 1370.5 1297.23 1371.07 1296.71 1371.63 1296.18 1372 1295.43 1372.18 1294.46 1372.36 1293.48 1372.44 1292 1372.44 1290L1372.44 1283.35 1349.91 1283.35 1349.91 1280.31Z" fill-rule="evenodd"/><text fill="#000000" fill-opacity="0" font-family="Arial,Arial_MSFontService,sans-serif" font-size="55.6035" x="1349.91" y="1293.18">4</text><path d="M1344.12 1218.94 1395.12 1218.94 1395.12 1223.94 1344.12 1223.94Z" fill-rule="evenodd"/><path d="M1397.59 1186.39C1405.48 1188.47 1411.54 1192.96 1415.77 1199.86 1420 1206.76 1422.11 1215.09 1422.11 1224.85 1422.11 1234.63 1420.01 1242.96 1415.79 1249.83 1411.58 1256.71 1405.51 1261.19 1397.59 1263.27L1396.62 1260.15C1402.86 1258.07 1407.5 1253.96 1410.54 1247.83 1413.58 1241.69 1415.1 1233.9 1415.1 1224.44 1415.1 1215.31 1413.59 1207.72 1410.56 1201.68 1407.54 1195.65 1402.85 1191.59 1396.5 1189.51Z" fill-rule="evenodd"/><text fill="#000000" fill-opacity="0" font-family="Arial,Arial_MSFontService,sans-serif" font-size="76.8804" x="1396.5" y="1253.66">)</text><rect x="138" y="0" width="711" height="155" stroke="#000000" stroke-width="2.29167" stroke-linejoin="round" stroke-miterlimit="10" fill="#FFFFFF"/><path d="M196.091 55.7642 206.71 55.7642 209.141 87.7403C212.951 81.5261 215.7 76.7979 217.389 73.5557 219.077 70.3135 220.327 67.5104 221.137 65.1463 221.948 62.7822 222.569 60.3168 223.002 57.75L223.447 55.7642 229.283 55.7642 232.242 87.7808C236.457 81.7827 239.665 76.548 241.867 72.0764 244.069 67.6049 245.17 63.9642 245.17 61.1543 245.17 59.8845 244.9 59.0199 244.36 58.5606 243.819 58.1013 242.901 57.8311 241.604 57.75L242.009 55.7642 252.465 55.7642 253.559 57.7906C252.614 60.1952 251.857 62.0459 251.29 63.3428 250.722 64.6397 249.979 66.2 249.061 68.0237 248.142 69.8474 247.169 71.6644 246.143 73.4746 245.116 75.2849 243.907 77.2775 242.516 79.4524 241.124 81.6274 239.564 83.9915 237.835 86.5447 236.105 89.0979 234.066 91.9686 231.715 95.1568L226.892 95.1568 225.231 78.2163C225.096 76.8924 224.954 75.1633 224.805 73.0288 224.656 70.8944 224.555 69.2463 224.501 68.0845L224.055 68.044C222.596 71.6374 220.611 75.6361 218.098 80.0401 215.585 84.444 212.478 89.4829 208.777 95.1568L203.346 95.1568 200.266 64.6397C200.104 63.0726 199.901 61.8028 199.658 60.8301 199.415 59.8575 199.009 59.128 198.442 58.6416 197.875 58.1553 196.943 57.8581 195.646 57.75Z" fill-rule="evenodd"/><text fill="#000000" fill-opacity="0" font-family="Arial,Arial_MSFontService,sans-serif" font-size="39.3926" x="195.646" y="90.2327">ğ‘¤</text><text font-family="Arial,Arial_MSFontService,sans-serif" font-weight="400" font-size="83" transform="matrix(1 0 0 1 279.698 95)">=<tspan font-size="64" x="71.0875" y="0">line</tspan><tspan font-size="64" x="188.787" y="0">width</tspan></text><path d="M0 0 3.4375 635.938" stroke="#002060" stroke-width="6.875" stroke-miterlimit="8" stroke-dasharray="27.5 20.625 6.875 20.625" fill="none" fill-rule="evenodd" transform="matrix(-1 0 0 1 962.937 261.5)"/><path d="M0 0 3.4375 635.938" stroke="#002060" stroke-width="6.875" stroke-miterlimit="8" stroke-dasharray="27.5 20.625 6.875 20.625" fill="none" fill-rule="evenodd" transform="matrix(-1 0 0 1 51.9375 261.5)"/></g></svg>