<svg width="758" height="246" xmlns="http://www.w3.org/2000/svg" xmlns:xlink="http://www.w3.org/1999/xlink" overflow="hidden"><defs><clipPath id="clip0"><rect x="-1" y="-1" width="758" height="246"/></clipPath></defs><g clip-path="url(#clip0)" transform="translate(1 1)"><rect x="0" y="0" width="756" height="244" stroke="#000000" stroke-width="2.29167" stroke-linejoin="round" stroke-miterlimit="10" fill="#FFFFFF"/><path d="M50.3837 102.077C52.0859 102.077 53.43 102.638 54.4162 103.759 55.4024 104.88 55.8954 106.346 55.8954 108.156 55.8954 109.588 55.5712 111.182 54.9228 112.939L55.4091 113.101C58.0569 109.372 60.5764 106.61 62.9675 104.813 65.3586 103.016 67.824 102.118 70.3637 102.118 72.8764 102.118 74.8082 102.841 76.1591 104.286 77.51 105.732 78.1855 107.738 78.1855 110.304 78.1855 112.007 77.7937 114.425 77.0102 117.559L74.3759 128.177C73.6464 131.122 73.2817 133.202 73.2817 134.418 73.2817 135.499 73.4573 136.282 73.8085 136.769 74.1598 137.255 74.7136 137.498 75.4702 137.498 76.2807 137.498 77.1453 137.167 78.0639 136.505 78.9825 135.843 80.2794 134.58 81.9545 132.716L84.2646 134.986C81.941 137.471 79.9146 139.288 78.1855 140.436 76.4563 141.585 74.484 142.159 72.2685 142.159 70.5123 142.159 69.1074 141.531 68.0536 140.274 66.9999 139.018 66.4731 137.417 66.4731 135.472 66.4731 133.716 66.9189 131.135 67.8105 127.731L69.5937 120.72C70.2421 118.18 70.6677 116.302 70.8703 115.087 71.0729 113.871 71.1743 112.885 71.1743 112.128 71.1743 110.264 70.8635 108.92 70.2421 108.096 69.6207 107.272 68.6075 106.86 67.2026 106.86 66.0678 106.86 64.8452 107.312 63.5349 108.217 62.2245 109.122 60.833 110.487 59.3605 112.31 57.888 114.134 56.706 115.904 55.8144 117.62 54.9228 119.335 54.1933 121.449 53.6259 123.962L49.7758 141.51 42.7646 141.51 48.6816 115.816C49.276 113.222 49.5732 111.223 49.5732 109.818 49.5732 108.737 49.3976 107.954 49.0463 107.467 48.6951 106.981 48.1412 106.738 47.3847 106.738 46.5471 106.738 45.6623 107.082 44.7302 107.771 43.798 108.46 42.5214 109.71 40.9003 111.52L38.5903 109.251C41.0759 106.657 43.1428 104.813 44.791 103.719 46.4391 102.624 48.3033 102.077 50.3837 102.077Z" fill-rule="evenodd"/><text fill="#000000" fill-opacity="0" font-family="Arial,Arial_MSFontService,sans-serif" font-size="40.0815" x="38.5903" y="137.149">𝑛</text><path d="M122.081 102.483 127.431 102.483 126.255 115.168 136.671 107.832 139.305 112.371 127.755 117.761 139.305 123.192 136.671 127.691 126.255 120.355 127.431 133.04 122.081 133.04 123.297 120.355 112.841 127.691 110.166 123.192 121.757 117.761 110.166 112.371 112.841 107.832 123.297 115.168Z" fill-rule="evenodd"/><text fill="#000000" fill-opacity="0" font-family="Arial,Arial_MSFontService,sans-serif" font-size="30.5576" x="110.166" y="129.22">∗</text><path d="M183.729 83.5563 186.12 83.5563 176.15 128.42C175.556 131.095 175.259 133.094 175.259 134.418 175.259 135.499 175.434 136.282 175.785 136.769 176.137 137.255 176.691 137.498 177.447 137.498 178.258 137.498 179.122 137.167 180.041 136.505 180.959 135.843 182.256 134.58 183.931 132.716L186.241 134.986C183.621 137.741 181.48 139.626 179.818 140.639 178.156 141.652 176.299 142.159 174.245 142.159 172.489 142.159 171.084 141.517 170.031 140.234 168.977 138.95 168.45 137.309 168.45 135.31 168.45 133.499 168.828 130.879 169.585 127.447L176.839 94.985C177.163 93.5531 177.393 92.4115 177.528 91.5605 177.663 90.7094 177.731 89.9191 177.731 89.1896 177.731 88.3791 177.582 87.7644 177.285 87.3456 176.988 86.9268 176.562 86.6229 176.008 86.4337 175.454 86.2446 174.462 86.1095 173.03 86.0285L173.516 83.9211Z" fill-rule="evenodd"/><text fill="#000000" fill-opacity="0" font-family="Arial,Arial_MSFontService,sans-serif" font-size="58.6025" x="168.45" y="134.834">𝑙</text><path d="M237.985 91.7428 243.74 91.7428 243.74 115.087 265.828 115.087 265.828 120.477 243.74 120.477 243.74 143.82 237.985 143.82 237.985 120.477 215.898 120.477 215.898 115.087 237.985 115.087Z" fill-rule="evenodd"/><text fill="#000000" fill-opacity="0" font-family="Arial,Arial_MSFontService,sans-serif" font-size="52.0776" x="215.898" y="137.311">+</text><path d="M310.93 83.5563 313.281 83.5563 306.31 111.642 306.796 111.804C309.363 108.4 311.788 105.934 314.071 104.408 316.354 102.881 318.657 102.118 320.981 102.118 323.494 102.118 325.426 102.841 326.776 104.286 328.127 105.732 328.803 107.738 328.803 110.304 328.803 112.007 328.411 114.425 327.628 117.559L324.993 128.177C324.264 131.122 323.899 133.202 323.899 134.418 323.899 135.499 324.075 136.282 324.426 136.769 324.777 137.255 325.331 137.498 326.087 137.498 326.898 137.498 327.763 137.167 328.681 136.505 329.6 135.843 330.897 134.58 332.572 132.716L334.882 134.986C332.288 137.714 330.16 139.592 328.499 140.619 326.837 141.645 324.966 142.159 322.886 142.159 321.13 142.159 319.731 141.537 318.691 140.295 317.651 139.052 317.131 137.444 317.131 135.472 317.131 133.716 317.577 131.135 318.468 127.731L320.211 120.72C320.832 118.207 321.251 116.323 321.467 115.066 321.684 113.81 321.792 112.831 321.792 112.128 321.792 110.21 321.481 108.852 320.859 108.055 320.238 107.258 319.225 106.86 317.82 106.86 316.712 106.86 315.483 107.319 314.132 108.237 312.781 109.156 311.363 110.554 309.877 112.432 308.391 114.31 307.208 116.107 306.33 117.822 305.452 119.538 304.757 121.584 304.243 123.962L300.555 141.51 293.544 141.51 303.96 95.1877C304.608 92.2967 304.932 90.2974 304.932 89.1896 304.932 88.0548 304.588 87.2578 303.899 86.7985 303.21 86.3392 301.974 86.0825 300.191 86.0285L300.677 83.9211Z" fill-rule="evenodd"/><text fill="#000000" fill-opacity="0" font-family="Arial,Arial_MSFontService,sans-serif" font-size="58.6025" x="293.544" y="134.834">ℎ</text><path d="M366.763 95.5929 385.122 113.911 403.481 95.5929 407.29 99.362 389.134 117.842 407.331 136.242 403.278 140.295 385.122 121.774 366.398 140.132 362.629 136.323 381.15 117.842 362.71 99.6457Z" fill-rule="evenodd"/><text fill="#000000" fill-opacity="0" font-family="Arial,Arial_MSFontService,sans-serif" font-size="44.7017" x="362.629" y="134.707">×</text><path d="M464.423 82.9484 465.517 86.069C459.195 88.1494 454.514 92.2089 451.475 98.2475 448.435 104.286 446.915 111.871 446.915 121.004 446.915 130.46 448.435 138.255 451.475 144.388 454.514 150.521 459.155 154.628 465.396 156.708L464.423 159.829C456.507 157.748 450.441 153.27 446.226 146.394 442.012 139.518 439.904 131.189 439.904 121.409 439.904 111.655 442.018 103.327 446.247 96.4237 450.475 89.5206 456.534 85.0288 464.423 82.9484Z" fill-rule="evenodd"/><text fill="#000000" fill-opacity="0" font-family="Arial,Arial_MSFontService,sans-serif" font-size="76.8804" x="439.904" y="150.219">(</text><path d="M493.027 85.5421 495.256 85.5421C495.094 88.1359 495.013 91.7293 495.013 96.3224L495.013 130.933C495.013 132.5 495.101 133.682 495.277 134.479 495.452 135.276 495.763 135.924 496.209 136.424 496.655 136.924 497.296 137.316 498.134 137.6 498.971 137.883 500.025 138.099 501.295 138.248 502.565 138.397 504.24 138.498 506.32 138.552L506.32 141.51 476.371 141.51 476.371 138.552C479.37 138.417 481.511 138.234 482.794 138.005 484.078 137.775 485.057 137.431 485.733 136.971 486.408 136.512 486.901 135.864 487.212 135.026 487.522 134.188 487.678 132.824 487.678 130.933L487.678 98.0651C487.678 96.9844 487.489 96.1941 487.11 95.6942 486.732 95.1944 486.178 94.9445 485.449 94.9445 484.584 94.9445 483.355 95.3903 481.761 96.2819 480.167 97.1735 478.194 98.4028 475.844 99.9699L474.061 96.8493Z" fill-rule="evenodd"/><text fill="#000000" fill-opacity="0" font-family="Arial,Arial_MSFontService,sans-serif" font-size="55.9683" x="474.061" y="134.514">1</text><path d="M536.892 115.087 586.821 115.087 586.821 120.477 536.892 120.477Z" fill-rule="evenodd"/><text fill="#000000" fill-opacity="0" font-family="Arial,Arial_MSFontService,sans-serif" font-size="5.39014" x="536.892" y="119.803">−</text><path d="M626.129 40.3184 659.402 40.3184 658.226 45.668 648.581 45.668 644.001 65.9722C643.407 68.62 643.11 70.6193 643.11 71.9702 643.11 73.0509 643.285 73.8345 643.636 74.3208 643.988 74.8071 644.542 75.0503 645.298 75.0503 646.919 75.0503 648.824 73.7534 651.012 71.1597L653.363 73.3481C651.31 75.5907 649.439 77.2118 647.75 78.2114 646.061 79.2111 644.258 79.7109 642.34 79.7109 640.502 79.7109 639.057 79.0828 638.003 77.8264 636.949 76.5701 636.423 74.9152 636.423 72.8618 636.423 71.0516 636.801 68.4308 637.557 64.9995L638.449 60.9063C638.908 58.7448 639.563 56.1375 640.414 53.0845 641.266 50.0314 642.002 47.6808 642.623 46.0327L642.421 45.668 630.506 45.668 625.521 68.728C625.115 70.5383 624.643 72.4903 624.102 74.5842 623.562 76.6781 623.143 78.1709 622.846 79.0625L614.254 79.0625 614.659 77.0767C617.523 74.2397 620.171 67.5933 622.603 57.1372L625.278 45.668 623.981 45.668C622.062 45.668 620.441 45.9922 619.117 46.6406 617.793 47.2891 616.348 48.5859 614.781 50.5313L612.228 48.3833C613.633 46.6812 614.781 45.3843 615.673 44.4927 616.564 43.6011 617.503 42.8446 618.489 42.2231 619.475 41.6017 620.583 41.1289 621.812 40.8047 623.042 40.4805 624.48 40.3184 626.129 40.3184Z" fill-rule="evenodd"/><text fill="#000000" fill-opacity="0" font-family="Arial,Arial_MSFontService,sans-serif" font-size="39.3926" x="612.228" y="74.7869">𝜋</text><path d="M638.961 150.249 623.115 175.417 623.115 175.984 638.961 175.984 638.961 165.893C638.961 163.353 639.002 160.51 639.083 157.362 639.164 154.214 639.258 151.843 639.366 150.249ZM640.136 141.09 645.932 141.09 645.932 175.984 646.783 175.984C648.35 175.984 649.471 175.869 650.147 175.64 650.822 175.41 651.383 175.005 651.828 174.424 652.274 173.843 652.686 172.891 653.065 171.567L656.145 171.567 655.658 179.915 645.932 179.915 645.932 186.562C645.932 188.372 645.992 189.696 646.114 190.534 646.236 191.371 646.438 192.033 646.722 192.519 647.006 193.006 647.424 193.411 647.978 193.735 648.532 194.059 649.431 194.384 650.673 194.708L650.673 196.694 634.219 196.694 634.219 194.708C635.894 194.276 637.016 193.796 637.583 193.269 638.15 192.742 638.522 191.993 638.698 191.02 638.873 190.047 638.961 188.561 638.961 186.562L638.961 179.915 616.428 179.915 616.428 176.876Z" fill-rule="evenodd"/><text fill="#000000" fill-opacity="0" font-family="Arial,Arial_MSFontService,sans-serif" font-size="55.6035" x="616.428" y="189.743">4</text><path d="M610.553 115.5 661.553 115.5 661.553 120.5 610.553 120.5Z" fill-rule="evenodd"/><path d="M664.112 82.9484C672.002 85.0288 678.06 89.5206 682.289 96.4237 686.517 103.327 688.631 111.655 688.631 121.409 688.631 131.189 686.524 139.518 682.309 146.394 678.094 153.27 672.029 157.748 664.112 159.829L663.14 156.708C669.381 154.628 674.021 150.521 677.061 144.388 680.1 138.255 681.62 130.46 681.62 121.004 681.62 111.871 680.107 104.286 677.081 98.2475 674.055 92.2089 669.367 88.1494 663.018 86.069Z" fill-rule="evenodd"/><text fill="#000000" fill-opacity="0" font-family="Arial,Arial_MSFontService,sans-serif" font-size="76.8804" x="663.018" y="150.219">)</text></g></svg>