<svg width="1855" height="695" xmlns="http://www.w3.org/2000/svg" xmlns:xlink="http://www.w3.org/1999/xlink" overflow="hidden"><defs><clipPath id="clip0"><rect x="-1" y="-1" width="1855" height="695"/></clipPath><clipPath id="clip1"><rect x="0" y="0" width="1852" height="692"/></clipPath><clipPath id="clip2"><rect x="0" y="0" width="1852" height="692"/></clipPath><clipPath id="clip3"><rect x="0" y="0" width="1852" height="692"/></clipPath><clipPath id="clip4"><rect x="238" y="169" width="1530" height="323"/></clipPath><clipPath id="clip5"><rect x="0" y="0" width="1852" height="692"/></clipPath><clipPath id="clip6"><rect x="0" y="0" width="1852" height="692"/></clipPath><clipPath id="clip7"><rect x="0" y="0" width="1852" height="692"/></clipPath><clipPath id="clip8"><rect x="0" y="0" width="1852" height="692"/></clipPath><clipPath id="clip9"><rect x="0" y="0" width="1852" height="692"/></clipPath><clipPath id="clip10"><rect x="0" y="0" width="1852" height="692"/></clipPath><clipPath id="clip11"><rect x="0" y="0" width="1852" height="692"/></clipPath><clipPath id="clip12"><rect x="0" y="0" width="1852" height="692"/></clipPath><clipPath id="clip13"><rect x="0" y="0" width="1852" height="692"/></clipPath><clipPath id="clip14"><rect x="0" y="0" width="1852" height="692"/></clipPath><clipPath id="clip15"><rect x="0" y="0" width="1852" height="692"/></clipPath><clipPath id="clip16"><rect x="0" y="0" width="1852" height="692"/></clipPath><clipPath id="clip17"><rect x="0" y="0" width="1852" height="692"/></clipPath><clipPath id="clip18"><rect x="0" y="0" width="1852" height="692"/></clipPath></defs><g clip-path="url(#clip0)" transform="translate(1 1)"><rect x="0" y="0" width="1852" height="692" fill="#FFFFFF"/><g clip-path="url(#clip1)"><path d="M238.5 397.513 1765.5 397.513M238.5 306.51 1765.5 306.51M238.5 215.5 1765.5 215.5" stroke="#D9D9D9" stroke-width="3.4375" stroke-linejoin="round" stroke-miterlimit="10" fill="none"/></g><g clip-path="url(#clip2)"><path d="M0 0 0.000360892 319" stroke="#BFBFBF" stroke-width="3.4375" stroke-linejoin="round" stroke-miterlimit="10" fill="none" fill-rule="evenodd" transform="matrix(1 0 0 -1 238.5 488.5)"/></g><g clip-path="url(#clip3)"><path d="M238.5 488.5 1765.5 488.5" stroke="#BFBFBF" stroke-width="3.4375" stroke-linejoin="round" stroke-miterlimit="10" fill="none" fill-rule="evenodd"/></g><g clip-path="url(#clip4)"><path d="M407.5 420.5C482.944 397.79 558.388 371.296 633.833 352.371 709.277 333.446 784.722 319.253 860.166 306.952 935.611 294.65 973.333 288.027 1086.5 278.565 1199.67 269.102 1426 255.855 1539.17 250.178 1652.23 244.505 1690.13 246.391 1765.5 244.5" stroke="#ED7D31" stroke-width="6.875" stroke-linecap="round" stroke-linejoin="round" stroke-miterlimit="10" fill="none"/></g><g clip-path="url(#clip5)"><path d="M418.499 420.5C418.499 426.574 413.575 431.499 407.5 431.499 401.425 431.499 396.5 426.574 396.5 420.5 396.5 414.425 401.425 409.5 407.5 409.5 413.575 409.5 418.499 414.425 418.499 420.5Z" stroke="#ED7D31" stroke-width="3.4375" stroke-linejoin="round" stroke-miterlimit="10" fill="#ED7D31"/><path d="M645.499 352.5C645.499 358.575 640.575 363.499 634.5 363.499 628.425 363.499 623.5 358.575 623.5 352.5 623.5 346.425 628.425 341.5 634.5 341.5 640.575 341.5 645.499 346.425 645.499 352.5Z" stroke="#ED7D31" stroke-width="3.4375" stroke-linejoin="round" stroke-miterlimit="10" fill="#ED7D31"/><path d="M871.499 306.5C871.499 312.575 866.574 317.499 860.5 317.499 854.425 317.499 849.5 312.575 849.5 306.5 849.5 300.425 854.425 295.5 860.5 295.5 866.574 295.5 871.499 300.425 871.499 306.5Z" stroke="#ED7D31" stroke-width="3.4375" stroke-linejoin="round" stroke-miterlimit="10" fill="#ED7D31"/><path d="M1097.5 278.5C1097.5 284.574 1092.57 289.499 1086.5 289.499 1080.42 289.499 1075.5 284.574 1075.5 278.5 1075.5 272.425 1080.42 267.5 1086.5 267.5 1092.57 267.5 1097.5 272.425 1097.5 278.5Z" stroke="#ED7D31" stroke-width="3.4375" stroke-linejoin="round" stroke-miterlimit="10" fill="#ED7D31"/><path d="M1549.5 249.5C1549.5 255.575 1544.57 260.499 1538.5 260.499 1532.42 260.499 1527.5 255.575 1527.5 249.5 1527.5 243.425 1532.42 238.5 1538.5 238.5 1544.57 238.5 1549.5 243.425 1549.5 249.5Z" stroke="#ED7D31" stroke-width="3.4375" stroke-linejoin="round" stroke-miterlimit="10" fill="#ED7D31"/><path d="M1776.5 244.5C1776.5 250.574 1771.57 255.499 1765.5 255.499 1759.42 255.499 1754.5 250.574 1754.5 244.5 1754.5 238.425 1759.42 233.5 1765.5 233.5 1771.57 233.5 1776.5 238.425 1776.5 244.5Z" stroke="#ED7D31" stroke-width="3.4375" stroke-linejoin="round" stroke-miterlimit="10" fill="#ED7D31"/></g><g clip-path="url(#clip6)"><text fill="#595959" font-family="Calibri,Calibri_MSFontService,sans-serif" font-weight="400" font-size="41" transform="matrix(1 0 0 1 126.981 500)">0.40</text></g><g clip-path="url(#clip7)"><text fill="#595959" font-family="Calibri,Calibri_MSFontService,sans-serif" font-weight="400" font-size="41" transform="matrix(1 0 0 1 126.981 409)">0.42</text></g><g clip-path="url(#clip8)"><text fill="#595959" font-family="Calibri,Calibri_MSFontService,sans-serif" font-weight="400" font-size="41" transform="matrix(1 0 0 1 126.981 318)">0.44</text></g><g clip-path="url(#clip9)"><text fill="#595959" font-family="Calibri,Calibri_MSFontService,sans-serif" font-weight="400" font-size="41" transform="matrix(1 0 0 1 126.981 227)">0.46</text></g><g clip-path="url(#clip10)"><text fill="#595959" font-family="Calibri,Calibri_MSFontService,sans-serif" font-weight="400" font-size="41" transform="matrix(1 0 0 1 201.801 554)">0.05</text></g><g clip-path="url(#clip11)"><text fill="#595959" font-family="Calibri,Calibri_MSFontService,sans-serif" font-weight="400" font-size="41" transform="matrix(1 0 0 1 494.992 554)">0.1</text></g><g clip-path="url(#clip12)"><text fill="#595959" font-family="Calibri,Calibri_MSFontService,sans-serif" font-weight="400" font-size="41" transform="matrix(1 0 0 1 767.284 554)">0.15</text></g><g clip-path="url(#clip13)"><text fill="#595959" font-family="Calibri,Calibri_MSFontService,sans-serif" font-weight="400" font-size="41" transform="matrix(1 0 0 1 1060.47 554)">0.2</text></g><g clip-path="url(#clip14)"><text fill="#595959" font-family="Calibri,Calibri_MSFontService,sans-serif" font-weight="400" font-size="41" transform="matrix(1 0 0 1 1332.77 554)">0.25</text></g><g clip-path="url(#clip15)"><text fill="#595959" font-family="Calibri,Calibri_MSFontService,sans-serif" font-weight="400" font-size="41" transform="matrix(1 0 0 1 1625.96 554)">0.3</text></g><g clip-path="url(#clip16)"><text fill="#595959" font-family="Calibri,Calibri_MSFontService,sans-serif" font-weight="400" font-size="46" transform="matrix(6.12323e-17 -1 1 6.12323e-17 101.292 426)">Line width </text></g><g clip-path="url(#clip17)"><text fill="#595959" font-family="Calibri,Calibri_MSFontService,sans-serif" font-weight="400" font-size="46" transform="matrix(1 0 0 1 886.999 623)">Layer height</text></g><g clip-path="url(#clip18)"><text fill="#595959" font-family="Calibri,Calibri_MSFontService,sans-serif" font-weight="400" font-size="64" transform="matrix(1 0 0 1 561.389 95)">Width obtained / Nozzle 0.4 </text></g><rect x="0.499836" y="0.499836" width="1852" height="692" stroke="#D9D9D9" stroke-width="3.4375" stroke-linejoin="round" stroke-miterlimit="10" fill="none"/></g></svg>