<svg width="1139" height="177" xmlns="http://www.w3.org/2000/svg" xmlns:xlink="http://www.w3.org/1999/xlink" overflow="hidden"><defs><clipPath id="clip0"><rect x="-2" y="-2" width="1139" height="177"/></clipPath></defs><g clip-path="url(#clip0)" transform="translate(2 2)"><path d="M91.5577 3.49993 475.442 3.49993C525.732 3.49993 566.5 41.3319 566.5 88 566.5 134.668 525.732 172.5 475.442 172.5L91.5577 172.5C41.2678 172.5 0.499836 134.668 0.499836 88 0.499836 41.3319 41.2678 3.49993 91.5577 3.49993Z" stroke="#507E32" stroke-width="4.58333" stroke-miterlimit="8" fill="#70AD47" fill-rule="evenodd"/><path d="M662.914 0.499836 1044.09 0.499836C1094.02 0.499836 1134.5 38.1079 1134.5 84.4999 1134.5 130.892 1094.02 168.5 1044.09 168.5L662.914 168.5C612.98 168.5 572.5 130.892 572.5 84.4999 572.5 38.1079 612.98 0.499836 662.914 0.499836Z" stroke="#507E32" stroke-width="4.58333" stroke-miterlimit="8" fill="#70AD47" fill-rule="evenodd"/></g></svg>