<svg width="1957" height="1356" xmlns="http://www.w3.org/2000/svg" xmlns:xlink="http://www.w3.org/1999/xlink" overflow="hidden"><defs><clipPath id="clip0"><rect x="-21" y="-7" width="1957" height="1356"/></clipPath></defs><g clip-path="url(#clip0)" transform="translate(21 7)"><rect x="48.5" y="258.5" width="908" height="271" stroke="#AE5A21" stroke-width="4.58333" stroke-miterlimit="8" fill="#ED7D31"/><rect x="1110" y="306" width="825" height="155" stroke="#000000" stroke-width="2.29167" stroke-linejoin="round" stroke-miterlimit="10" fill="#FFFFFF"/><path d="M1187.34 342.492 1189.69 342.492 1182.72 370.577 1183.21 370.739C1185.78 367.335 1188.2 364.87 1190.48 363.343 1192.77 361.816 1195.07 361.053 1197.39 361.053 1199.91 361.053 1201.84 361.776 1203.19 363.221 1204.54 364.667 1205.22 366.673 1205.22 369.24 1205.22 370.942 1204.82 373.36 1204.04 376.494L1201.41 387.112C1200.68 390.057 1200.31 392.138 1200.31 393.354 1200.31 394.434 1200.49 395.218 1200.84 395.704 1201.19 396.19 1201.74 396.434 1202.5 396.434 1203.31 396.434 1204.18 396.103 1205.09 395.441 1206.01 394.779 1207.31 393.516 1208.99 391.651L1211.3 393.921C1208.7 396.65 1206.57 398.527 1204.91 399.554 1203.25 400.581 1201.38 401.094 1199.3 401.094 1197.54 401.094 1196.15 400.473 1195.1 399.23 1194.06 397.987 1193.54 396.38 1193.54 394.407 1193.54 392.651 1193.99 390.071 1194.88 386.667L1196.62 379.655C1197.25 377.143 1197.66 375.258 1197.88 374.002 1198.1 372.745 1198.21 371.766 1198.21 371.063 1198.21 369.145 1197.89 367.788 1197.27 366.99 1196.65 366.193 1195.64 365.795 1194.23 365.795 1193.13 365.795 1191.9 366.254 1190.55 367.173 1189.19 368.091 1187.78 369.49 1186.29 371.367 1184.8 373.245 1183.62 375.042 1182.74 376.758 1181.87 378.473 1181.17 380.52 1180.66 382.897L1176.97 400.446 1169.96 400.446 1180.37 354.123C1181.02 351.232 1181.35 349.233 1181.35 348.125 1181.35 346.99 1181 346.193 1180.31 345.734 1179.62 345.275 1178.39 345.018 1176.6 344.964L1177.09 342.856Z" fill-rule="evenodd"/><text fill="#000000" fill-opacity="0" font-family="Arial,Arial_MSFontService,sans-serif" font-size="58.6025" x="1169.96" y="393.769">â„</text><text font-family="Arial,Arial_MSFontService,sans-serif" font-weight="400" font-size="83" transform="matrix(1 0 0 1 1236.33 400)">=<tspan font-size="64" x="71.0875" y="0">layer</tspan><tspan font-size="64" x="227.975" y="0">height</tspan></text><path d="M168.38 629.5 846.62 629.5C935.472 629.5 1007.5 690.389 1007.5 765.5 1007.5 840.611 935.472 901.5 846.62 901.5L168.38 901.5C79.5283 901.5 7.50007 840.611 7.50007 765.5 7.50007 690.389 79.5283 629.5 168.38 629.5Z" stroke="#507E32" stroke-width="4.58333" stroke-miterlimit="8" fill="#70AD47" fill-rule="evenodd"/><path d="M952 378 1010.44 749.25" stroke="#000000" stroke-width="2.29167" stroke-miterlimit="8" fill="none" fill-rule="evenodd"/><path d="M0 0 48.125 388.438" stroke="#000000" stroke-width="2.29167" stroke-miterlimit="8" fill="none" fill-rule="evenodd" transform="matrix(-1 0 0 1 48.125 375)"/><path d="M0 0 0.000360892 113.438" stroke="#000000" stroke-width="2.29167" stroke-miterlimit="8" fill="none" fill-rule="evenodd" transform="matrix(1 0 0 -1 956 264.437)"/><path d="M0 0 0.000360892 113.438" stroke="#000000" stroke-width="2.29167" stroke-miterlimit="8" fill="none" fill-rule="evenodd" transform="matrix(1 0 0 -1 48.0001 268.438)"/><path d="M77.9167 177.854 929.271 177.855 929.271 180.146 77.9167 180.146ZM82.5 192.75 55 179 82.5 165.25ZM924.688 165.25 952.188 179 924.688 192.75Z"/><path d="M1082.62 526 952 526" stroke="#000000" stroke-width="2.29167" stroke-miterlimit="8" fill="none" fill-rule="evenodd"/><path d="M1072.62 258 942 258" stroke="#000000" stroke-width="2.29167" stroke-miterlimit="8" fill="none" fill-rule="evenodd"/><path d="M1067.46 287.899 1070.27 496.445 1067.98 496.476 1065.16 287.93ZM1052.62 292.683 1066 265 1080.12 292.312ZM1082.81 491.692 1069.44 519.375 1055.32 492.063Z"/><path d="M0 0 3.4375 340.313" stroke="#000000" stroke-width="2.29167" stroke-miterlimit="8" fill="none" fill-rule="evenodd" transform="matrix(1 0 0 -1 1007 1079.31)"/><path d="M3.4375 1086.56-2.38419e-07 760" stroke="#000000" stroke-width="2.29167" stroke-miterlimit="8" fill="none" fill-rule="evenodd"/><path d="M29.9166 1050.85 987.833 1050.85 987.833 1053.15 29.9166 1053.15ZM34.4999 1065.75 6.99987 1052 34.4999 1038.25ZM983.25 1038.25 1010.75 1052 983.25 1065.75Z"/><rect x="598" y="1103" width="894" height="245" stroke="#000000" stroke-width="2.29167" stroke-linejoin="round" stroke-miterlimit="10" fill="#FFFFFF"/><path d="M711.358 1205.51C713.06 1205.51 714.404 1206.08 715.39 1207.2 716.376 1208.32 716.869 1209.78 716.869 1211.59 716.869 1213.03 716.545 1214.62 715.897 1216.38L716.383 1216.54C719.031 1212.81 721.55 1210.05 723.941 1208.25 726.333 1206.45 728.798 1205.56 731.338 1205.56 733.85 1205.56 735.782 1206.28 737.133 1207.72 738.484 1209.17 739.159 1211.18 739.159 1213.74 739.159 1215.44 738.768 1217.86 737.984 1221L735.35 1231.61C734.62 1234.56 734.256 1236.64 734.256 1237.86 734.256 1238.94 734.431 1239.72 734.783 1240.21 735.134 1240.69 735.688 1240.94 736.444 1240.94 737.255 1240.94 738.119 1240.6 739.038 1239.94 739.957 1239.28 741.253 1238.02 742.929 1236.15L745.239 1238.42C742.915 1240.91 740.889 1242.73 739.159 1243.87 737.43 1245.02 735.458 1245.6 733.242 1245.6 731.486 1245.6 730.081 1244.97 729.028 1243.71 727.974 1242.46 727.447 1240.85 727.447 1238.91 727.447 1237.15 727.893 1234.57 728.784 1231.17L730.568 1224.16C731.216 1221.62 731.642 1219.74 731.844 1218.52 732.047 1217.31 732.148 1216.32 732.148 1215.57 732.148 1213.7 731.838 1212.36 731.216 1211.53 730.595 1210.71 729.582 1210.3 728.177 1210.3 727.042 1210.3 725.819 1210.75 724.509 1211.65 723.198 1212.56 721.807 1213.92 720.335 1215.75 718.862 1217.57 717.68 1219.34 716.788 1221.06 715.897 1222.77 715.167 1224.89 714.6 1227.4L710.75 1244.95 703.739 1244.95 709.656 1219.25C710.25 1216.66 710.547 1214.66 710.547 1213.26 710.547 1212.17 710.372 1211.39 710.02 1210.9 709.669 1210.42 709.115 1210.18 708.359 1210.18 707.521 1210.18 706.636 1210.52 705.704 1211.21 704.772 1211.9 703.495 1213.15 701.874 1214.96L699.564 1212.69C702.05 1210.09 704.117 1208.25 705.765 1207.16 707.413 1206.06 709.277 1205.51 711.358 1205.51Z" fill-rule="evenodd"/><text fill="#000000" fill-opacity="0" font-family="Arial,Arial_MSFontService,sans-serif" font-size="40.0815" x="699.564" y="1240.59">ğ‘›</text><path d="M783.055 1205.92 788.405 1205.92 787.229 1218.61 797.645 1211.27 800.279 1215.81 788.729 1221.2 800.279 1226.63 797.645 1231.13 787.229 1223.79 788.405 1236.48 783.055 1236.48 784.271 1223.79 773.815 1231.13 771.14 1226.63 782.731 1221.2 771.14 1215.81 773.815 1211.27 784.271 1218.61Z" fill-rule="evenodd"/><text fill="#000000" fill-opacity="0" font-family="Arial,Arial_MSFontService,sans-serif" font-size="30.5576" x="771.14" y="1232.66">âˆ—</text><path d="M826.506 1206.2 837.124 1206.2 839.556 1238.18C843.365 1231.97 846.115 1227.24 847.803 1224 849.492 1220.75 850.741 1217.95 851.552 1215.59 852.362 1213.22 852.984 1210.76 853.416 1208.19L853.862 1206.2 859.698 1206.2 862.656 1238.22C866.871 1232.22 870.08 1226.99 872.282 1222.52 874.484 1218.04 875.585 1214.4 875.585 1211.59 875.585 1210.32 875.314 1209.46 874.774 1209 874.234 1208.54 873.315 1208.27 872.018 1208.19L872.424 1206.2 882.88 1206.2 883.974 1208.23C883.028 1210.63 882.272 1212.49 881.704 1213.78 881.137 1215.08 880.394 1216.64 879.475 1218.46 878.557 1220.29 877.584 1222.1 876.557 1223.91 875.531 1225.72 874.322 1227.72 872.93 1229.89 871.539 1232.07 869.978 1234.43 868.249 1236.98 866.52 1239.54 864.48 1242.41 862.13 1245.6L857.307 1245.6 855.645 1228.66C855.51 1227.33 855.368 1225.6 855.22 1223.47 855.071 1221.33 854.97 1219.69 854.916 1218.52L854.47 1218.48C853.011 1222.08 851.025 1226.08 848.512 1230.48 846 1234.88 842.893 1239.92 839.191 1245.6L833.76 1245.6 830.68 1215.08C830.518 1213.51 830.316 1212.24 830.072 1211.27 829.829 1210.3 829.424 1209.57 828.857 1209.08 828.289 1208.59 827.357 1208.3 826.06 1208.19Z" fill-rule="evenodd"/><text fill="#000000" fill-opacity="0" font-family="Arial,Arial_MSFontService,sans-serif" font-size="39.3926" x="826.06" y="1240.67">ğ‘¤</text><path d="M933.655 1195.18 939.41 1195.18 939.41 1218.52 961.497 1218.52 961.497 1223.91 939.41 1223.91 939.41 1247.26 933.655 1247.26 933.655 1223.91 911.568 1223.91 911.568 1218.52 933.655 1218.52Z" fill-rule="evenodd"/><text fill="#000000" fill-opacity="0" font-family="Arial,Arial_MSFontService,sans-serif" font-size="52.0776" x="911.568" y="1240.75">+</text><path d="M1006.6 1186.99 1008.95 1186.99 1001.98 1215.08 1002.47 1215.24C1005.03 1211.84 1007.46 1209.37 1009.74 1207.85 1012.02 1206.32 1014.33 1205.56 1016.65 1205.56 1019.16 1205.56 1021.1 1206.28 1022.45 1207.72 1023.8 1209.17 1024.47 1211.18 1024.47 1213.74 1024.47 1215.44 1024.08 1217.86 1023.3 1221L1020.66 1231.61C1019.93 1234.56 1019.57 1236.64 1019.57 1237.86 1019.57 1238.94 1019.74 1239.72 1020.1 1240.21 1020.45 1240.69 1021 1240.94 1021.76 1240.94 1022.57 1240.94 1023.43 1240.6 1024.35 1239.94 1025.27 1239.28 1026.57 1238.02 1028.24 1236.15L1030.55 1238.42C1027.96 1241.15 1025.83 1243.03 1024.17 1244.06 1022.51 1245.08 1020.64 1245.6 1018.56 1245.6 1016.8 1245.6 1015.4 1244.97 1014.36 1243.73 1013.32 1242.49 1012.8 1240.88 1012.8 1238.91 1012.8 1237.15 1013.25 1234.57 1014.14 1231.17L1015.88 1224.16C1016.5 1221.64 1016.92 1219.76 1017.14 1218.5 1017.35 1217.25 1017.46 1216.27 1017.46 1215.57 1017.46 1213.65 1017.15 1212.29 1016.53 1211.49 1015.91 1210.7 1014.89 1210.3 1013.49 1210.3 1012.38 1210.3 1011.15 1210.76 1009.8 1211.67 1008.45 1212.59 1007.03 1213.99 1005.55 1215.87 1004.06 1217.75 1002.88 1219.54 1002 1221.26 1001.12 1222.98 1000.43 1225.02 999.913 1227.4L996.225 1244.95 989.214 1244.95 999.629 1198.63C1000.28 1195.73 1000.6 1193.73 1000.6 1192.63 1000.6 1191.49 1000.26 1190.7 999.569 1190.24 998.88 1189.78 997.644 1189.52 995.86 1189.47L996.347 1187.36Z" fill-rule="evenodd"/><text fill="#000000" fill-opacity="0" font-family="Arial,Arial_MSFontService,sans-serif" font-size="58.6025" x="989.214" y="1238.27">â„</text><path d="M1062.43 1199.03 1080.79 1217.35 1099.15 1199.03 1102.96 1202.8 1084.8 1221.28 1103 1239.68 1098.95 1243.73 1080.79 1225.21 1062.07 1243.57 1058.3 1239.76 1076.82 1221.28 1058.38 1203.08Z" fill-rule="evenodd"/><text fill="#000000" fill-opacity="0" font-family="Arial,Arial_MSFontService,sans-serif" font-size="44.7017" x="1058.3" y="1238.14">Ã—</text><path d="M1160.09 1186.39 1161.19 1189.51C1154.87 1191.59 1150.18 1195.65 1147.14 1201.68 1144.11 1207.72 1142.59 1215.31 1142.59 1224.44 1142.59 1233.9 1144.11 1241.69 1147.14 1247.83 1150.18 1253.96 1154.82 1258.07 1161.07 1260.15L1160.09 1263.27C1152.18 1261.19 1146.11 1256.71 1141.9 1249.83 1137.68 1242.96 1135.57 1234.63 1135.57 1224.85 1135.57 1215.09 1137.69 1206.76 1141.92 1199.86 1146.15 1192.96 1152.2 1188.47 1160.09 1186.39Z" fill-rule="evenodd"/><text fill="#000000" fill-opacity="0" font-family="Arial,Arial_MSFontService,sans-serif" font-size="76.8804" x="1135.57" y="1253.66">(</text><path d="M1188.7 1188.98 1190.93 1188.98C1190.76 1191.57 1190.68 1195.17 1190.68 1199.76L1190.68 1234.37C1190.68 1235.94 1190.77 1237.12 1190.95 1237.92 1191.12 1238.71 1191.43 1239.36 1191.88 1239.86 1192.32 1240.36 1192.97 1240.75 1193.8 1241.04 1194.64 1241.32 1195.69 1241.54 1196.96 1241.69 1198.23 1241.83 1199.91 1241.94 1201.99 1241.99L1201.99 1244.95 1172.04 1244.95 1172.04 1241.99C1175.04 1241.85 1177.18 1241.67 1178.46 1241.44 1179.75 1241.21 1180.73 1240.87 1181.4 1240.41 1182.08 1239.95 1182.57 1239.3 1182.88 1238.46 1183.19 1237.63 1183.35 1236.26 1183.35 1234.37L1183.35 1201.5C1183.35 1200.42 1183.16 1199.63 1182.78 1199.13 1182.4 1198.63 1181.85 1198.38 1181.12 1198.38 1180.25 1198.38 1179.02 1198.83 1177.43 1199.72 1175.84 1200.61 1173.86 1201.84 1171.51 1203.41L1169.73 1200.29Z" fill-rule="evenodd"/><text fill="#000000" fill-opacity="0" font-family="Arial,Arial_MSFontService,sans-serif" font-size="55.9683" x="1169.73" y="1237.95">1</text><path d="M1232.56 1218.52 1282.49 1218.52 1282.49 1223.91 1232.56 1223.91Z" fill-rule="evenodd"/><text fill="#000000" fill-opacity="0" font-family="Arial,Arial_MSFontService,sans-serif" font-size="5.39014" x="1232.56" y="1223.24">âˆ’</text><path d="M1321.8 1143.76 1355.07 1143.76 1353.9 1149.11 1344.25 1149.11 1339.67 1169.41C1339.08 1172.06 1338.78 1174.06 1338.78 1175.41 1338.78 1176.49 1338.96 1177.27 1339.31 1177.76 1339.66 1178.24 1340.21 1178.49 1340.97 1178.49 1342.59 1178.49 1344.49 1177.19 1346.68 1174.6L1349.03 1176.79C1346.98 1179.03 1345.11 1180.65 1343.42 1181.65 1341.73 1182.65 1339.93 1183.15 1338.01 1183.15 1336.17 1183.15 1334.73 1182.52 1333.67 1181.26 1332.62 1180.01 1332.09 1178.35 1332.09 1176.3 1332.09 1174.49 1332.47 1171.87 1333.23 1168.44L1334.12 1164.34C1334.58 1162.18 1335.23 1159.57 1336.08 1156.52 1336.94 1153.47 1337.67 1151.12 1338.29 1149.47L1338.09 1149.11 1326.18 1149.11 1321.19 1172.17C1320.79 1173.98 1320.31 1175.93 1319.77 1178.02 1319.23 1180.12 1318.81 1181.61 1318.52 1182.5L1309.92 1182.5 1310.33 1180.51C1313.19 1177.68 1315.84 1171.03 1318.27 1160.57L1320.95 1149.11 1319.65 1149.11C1317.73 1149.11 1316.11 1149.43 1314.79 1150.08 1313.46 1150.73 1312.02 1152.02 1310.45 1153.97L1307.9 1151.82C1309.3 1150.12 1310.45 1148.82 1311.34 1147.93 1312.23 1147.04 1313.17 1146.28 1314.16 1145.66 1315.15 1145.04 1316.25 1144.57 1317.48 1144.24 1318.71 1143.92 1320.15 1143.76 1321.8 1143.76Z" fill-rule="evenodd"/><text fill="#000000" fill-opacity="0" font-family="Arial,Arial_MSFontService,sans-serif" font-size="39.3926" x="1307.9" y="1178.22">ğœ‹</text><path d="M1334.63 1253.69 1318.78 1278.85 1318.78 1279.42 1334.63 1279.42 1334.63 1269.33C1334.63 1266.79 1334.67 1263.95 1334.75 1260.8 1334.83 1257.65 1334.93 1255.28 1335.04 1253.69ZM1335.81 1244.53 1341.6 1244.53 1341.6 1279.42 1342.45 1279.42C1344.02 1279.42 1345.14 1279.31 1345.82 1279.08 1346.49 1278.85 1347.05 1278.44 1347.5 1277.86 1347.94 1277.28 1348.36 1276.33 1348.73 1275L1351.81 1275 1351.33 1283.35 1341.6 1283.35 1341.6 1290C1341.6 1291.81 1341.66 1293.13 1341.78 1293.97 1341.91 1294.81 1342.11 1295.47 1342.39 1295.96 1342.68 1296.44 1343.09 1296.85 1343.65 1297.17 1344.2 1297.5 1345.1 1297.82 1346.34 1298.15L1346.34 1300.13 1329.89 1300.13 1329.89 1298.15C1331.56 1297.71 1332.69 1297.23 1333.25 1296.71 1333.82 1296.18 1334.19 1295.43 1334.37 1294.46 1334.54 1293.48 1334.63 1292 1334.63 1290L1334.63 1283.35 1312.1 1283.35 1312.1 1280.31Z" fill-rule="evenodd"/><text fill="#000000" fill-opacity="0" font-family="Arial,Arial_MSFontService,sans-serif" font-size="55.6035" x="1312.1" y="1293.18">4</text><path d="M1306.12 1218.94 1357.12 1218.94 1357.12 1223.94 1306.12 1223.94Z" fill-rule="evenodd"/><path d="M1359.78 1186.39C1367.67 1188.47 1373.73 1192.96 1377.96 1199.86 1382.19 1206.76 1384.3 1215.09 1384.3 1224.85 1384.3 1234.63 1382.19 1242.96 1377.98 1249.83 1373.76 1256.71 1367.7 1261.19 1359.78 1263.27L1358.81 1260.15C1365.05 1258.07 1369.69 1253.96 1372.73 1247.83 1375.77 1241.69 1377.29 1233.9 1377.29 1224.44 1377.29 1215.31 1375.78 1207.72 1372.75 1201.68 1369.72 1195.65 1365.04 1191.59 1358.69 1189.51Z" fill-rule="evenodd"/><text fill="#000000" fill-opacity="0" font-family="Arial,Arial_MSFontService,sans-serif" font-size="76.8804" x="1358.69" y="1253.66">)</text><rect x="138" y="0" width="711" height="155" stroke="#000000" stroke-width="2.29167" stroke-linejoin="round" stroke-miterlimit="10" fill="#FFFFFF"/><path d="M196.091 55.7642 206.71 55.7642 209.141 87.7403C212.951 81.5261 215.7 76.7979 217.389 73.5557 219.077 70.3135 220.327 67.5104 221.137 65.1463 221.948 62.7822 222.569 60.3168 223.002 57.75L223.447 55.7642 229.283 55.7642 232.242 87.7808C236.457 81.7827 239.665 76.548 241.867 72.0764 244.069 67.6049 245.17 63.9642 245.17 61.1543 245.17 59.8845 244.9 59.0199 244.36 58.5606 243.819 58.1013 242.901 57.8311 241.604 57.75L242.009 55.7642 252.465 55.7642 253.559 57.7906C252.614 60.1952 251.857 62.0459 251.29 63.3428 250.722 64.6397 249.979 66.2 249.061 68.0237 248.142 69.8474 247.169 71.6644 246.143 73.4746 245.116 75.2849 243.907 77.2775 242.516 79.4524 241.124 81.6274 239.564 83.9915 237.835 86.5447 236.105 89.0979 234.066 91.9686 231.715 95.1568L226.892 95.1568 225.231 78.2163C225.096 76.8924 224.954 75.1633 224.805 73.0288 224.656 70.8944 224.555 69.2463 224.501 68.0845L224.055 68.044C222.596 71.6374 220.611 75.6361 218.098 80.0401 215.585 84.444 212.478 89.4829 208.777 95.1568L203.346 95.1568 200.266 64.6397C200.104 63.0726 199.901 61.8028 199.658 60.8301 199.415 59.8575 199.009 59.128 198.442 58.6416 197.875 58.1553 196.943 57.8581 195.646 57.75Z" fill-rule="evenodd"/><text fill="#000000" fill-opacity="0" font-family="Arial,Arial_MSFontService,sans-serif" font-size="39.3926" x="195.646" y="90.2327">ğ‘¤</text><text font-family="Arial,Arial_MSFontService,sans-serif" font-weight="400" font-size="83" transform="matrix(1 0 0 1 279.698 95)">=<tspan font-size="64" x="71.0875" y="0">line</tspan><tspan font-size="64" x="188.787" y="0">width</tspan></text><path d="M0 0 3.4375 635.938" stroke="#002060" stroke-width="6.875" stroke-miterlimit="8" stroke-dasharray="27.5 20.625 6.875 20.625" fill="none" fill-rule="evenodd" transform="matrix(-1 0 0 1 962.937 261.5)"/><path d="M0 0 3.4375 635.938" stroke="#002060" stroke-width="6.875" stroke-miterlimit="8" stroke-dasharray="27.5 20.625 6.875 20.625" fill="none" fill-rule="evenodd" transform="matrix(-1 0 0 1 51.9375 261.5)"/></g></svg>