<svg width="1632" height="695" xmlns="http://www.w3.org/2000/svg" xmlns:xlink="http://www.w3.org/1999/xlink" overflow="hidden"><defs><clipPath id="clip0"><rect x="-1" y="-1" width="1632" height="695"/></clipPath><clipPath id="clip1"><rect x="0" y="0" width="1628" height="692"/></clipPath><clipPath id="clip2"><rect x="0" y="0" width="1628" height="692"/></clipPath><clipPath id="clip3"><rect x="0" y="0" width="1628" height="692"/></clipPath><clipPath id="clip4"><rect x="238" y="169" width="1307" height="323"/></clipPath><clipPath id="clip5"><rect x="0" y="0" width="1628" height="692"/></clipPath><clipPath id="clip6"><rect x="0" y="0" width="1628" height="692"/></clipPath><clipPath id="clip7"><rect x="0" y="0" width="1628" height="692"/></clipPath><clipPath id="clip8"><rect x="0" y="0" width="1628" height="692"/></clipPath><clipPath id="clip9"><rect x="0" y="0" width="1628" height="692"/></clipPath><clipPath id="clip10"><rect x="0" y="0" width="1628" height="692"/></clipPath><clipPath id="clip11"><rect x="0" y="0" width="1628" height="692"/></clipPath><clipPath id="clip12"><rect x="0" y="0" width="1628" height="692"/></clipPath><clipPath id="clip13"><rect x="0" y="0" width="1628" height="692"/></clipPath><clipPath id="clip14"><rect x="0" y="0" width="1628" height="692"/></clipPath><clipPath id="clip15"><rect x="0" y="0" width="1628" height="692"/></clipPath><clipPath id="clip16"><rect x="0" y="0" width="1628" height="692"/></clipPath><clipPath id="clip17"><rect x="0" y="0" width="1628" height="692"/></clipPath><clipPath id="clip18"><rect x="0" y="0" width="1628" height="692"/></clipPath></defs><g clip-path="url(#clip0)" transform="translate(1 1)"><rect x="0" y="0" width="1629" height="692" fill="#FFFFFF"/><g clip-path="url(#clip1)"><path d="M238.5 397.513 1541.5 397.513M238.5 306.51 1541.5 306.51M238.5 215.5 1541.5 215.5" stroke="#D9D9D9" stroke-width="3.4375" stroke-linejoin="round" stroke-miterlimit="10" fill="none"/></g><g clip-path="url(#clip2)"><path d="M0 0 0.000360892 319" stroke="#BFBFBF" stroke-width="3.4375" stroke-linejoin="round" stroke-miterlimit="10" fill="none" fill-rule="evenodd" transform="matrix(1 0 0 -1 238.5 488.5)"/></g><g clip-path="url(#clip3)"><path d="M238.5 488.5 1541.5 488.5" stroke="#BFBFBF" stroke-width="3.4375" stroke-linejoin="round" stroke-miterlimit="10" fill="none" fill-rule="evenodd"/></g><g clip-path="url(#clip4)"><path d="M383.5 420.5C447.833 397.79 512.166 371.296 576.5 352.371 640.833 333.446 705.166 319.253 769.5 306.952 833.833 294.65 866 288.027 962.5 278.565 1059 269.102 1252 255.855 1348.5 250.178 1444.87 244.507 1477.25 246.39 1541.5 244.5" stroke="#ED7D31" stroke-width="6.875" stroke-linecap="round" stroke-linejoin="round" stroke-miterlimit="10" fill="none"/></g><g clip-path="url(#clip5)"><path d="M394.499 420.5C394.499 426.574 389.575 431.499 383.5 431.499 377.425 431.499 372.5 426.574 372.5 420.5 372.5 414.425 377.425 409.5 383.5 409.5 389.575 409.5 394.499 414.425 394.499 420.5Z" stroke="#ED7D31" stroke-width="3.4375" stroke-linejoin="round" stroke-miterlimit="10" fill="#ED7D31"/><path d="M587.499 352.5C587.499 358.575 582.575 363.499 576.5 363.499 570.425 363.499 565.5 358.575 565.5 352.5 565.5 346.425 570.425 341.5 576.5 341.5 582.575 341.5 587.499 346.425 587.499 352.5Z" stroke="#ED7D31" stroke-width="3.4375" stroke-linejoin="round" stroke-miterlimit="10" fill="#ED7D31"/><path d="M780.499 306.5C780.499 312.575 775.575 317.499 769.5 317.499 763.425 317.499 758.5 312.575 758.5 306.5 758.5 300.425 763.425 295.5 769.5 295.5 775.575 295.5 780.499 300.425 780.499 306.5Z" stroke="#ED7D31" stroke-width="3.4375" stroke-linejoin="round" stroke-miterlimit="10" fill="#ED7D31"/><path d="M973.499 278.5C973.499 284.574 968.575 289.499 962.5 289.499 956.425 289.499 951.5 284.574 951.5 278.5 951.5 272.425 956.425 267.5 962.5 267.5 968.575 267.5 973.499 272.425 973.499 278.5Z" stroke="#ED7D31" stroke-width="3.4375" stroke-linejoin="round" stroke-miterlimit="10" fill="#ED7D31"/><path d="M1359.5 249.5C1359.5 255.575 1354.57 260.499 1348.5 260.499 1342.42 260.499 1337.5 255.575 1337.5 249.5 1337.5 243.425 1342.42 238.5 1348.5 238.5 1354.57 238.5 1359.5 243.425 1359.5 249.5Z" stroke="#ED7D31" stroke-width="3.4375" stroke-linejoin="round" stroke-miterlimit="10" fill="#ED7D31"/><path d="M1552.5 244.5C1552.5 250.574 1547.57 255.499 1541.5 255.499 1535.42 255.499 1530.5 250.574 1530.5 244.5 1530.5 238.425 1535.42 233.5 1541.5 233.5 1547.57 233.5 1552.5 238.425 1552.5 244.5Z" stroke="#ED7D31" stroke-width="3.4375" stroke-linejoin="round" stroke-miterlimit="10" fill="#ED7D31"/></g><g clip-path="url(#clip6)"><text fill="#595959" font-family="Calibri,Calibri_MSFontService,sans-serif" font-weight="400" font-size="41" transform="matrix(1 0 0 1 126.981 500)">0.40</text></g><g clip-path="url(#clip7)"><text fill="#595959" font-family="Calibri,Calibri_MSFontService,sans-serif" font-weight="400" font-size="41" transform="matrix(1 0 0 1 126.981 409)">0.42</text></g><g clip-path="url(#clip8)"><text fill="#595959" font-family="Calibri,Calibri_MSFontService,sans-serif" font-weight="400" font-size="41" transform="matrix(1 0 0 1 126.981 318)">0.44</text></g><g clip-path="url(#clip9)"><text fill="#595959" font-family="Calibri,Calibri_MSFontService,sans-serif" font-weight="400" font-size="41" transform="matrix(1 0 0 1 126.981 227)">0.46</text></g><g clip-path="url(#clip10)"><text fill="#595959" font-family="Calibri,Calibri_MSFontService,sans-serif" font-weight="400" font-size="41" transform="matrix(1 0 0 1 201.801 554)">0.05</text></g><g clip-path="url(#clip11)"><text fill="#595959" font-family="Calibri,Calibri_MSFontService,sans-serif" font-weight="400" font-size="41" transform="matrix(1 0 0 1 453.615 554)">0.1</text></g><g clip-path="url(#clip12)"><text fill="#595959" font-family="Calibri,Calibri_MSFontService,sans-serif" font-weight="400" font-size="41" transform="matrix(1 0 0 1 684.529 554)">0.15</text></g><g clip-path="url(#clip13)"><text fill="#595959" font-family="Calibri,Calibri_MSFontService,sans-serif" font-weight="400" font-size="41" transform="matrix(1 0 0 1 936.343 554)">0.2</text></g><g clip-path="url(#clip14)"><text fill="#595959" font-family="Calibri,Calibri_MSFontService,sans-serif" font-weight="400" font-size="41" transform="matrix(1 0 0 1 1167.26 554)">0.25</text></g><g clip-path="url(#clip15)"><text fill="#595959" font-family="Calibri,Calibri_MSFontService,sans-serif" font-weight="400" font-size="41" transform="matrix(1 0 0 1 1419.07 554)">0.3</text></g><g clip-path="url(#clip16)"><text fill="#595959" font-family="Calibri,Calibri_MSFontService,sans-serif" font-weight="400" font-size="46" transform="matrix(6.12323e-17 -1 1 6.12323e-17 101.292 482)">Largeur de ligne </text></g><g clip-path="url(#clip17)"><text fill="#595959" font-family="Calibri,Calibri_MSFontService,sans-serif" font-weight="400" font-size="46" transform="matrix(1 0 0 1 712.867 623)">Hauteur de couche</text></g><g clip-path="url(#clip18)"><text fill="#595959" font-family="Calibri,Calibri_MSFontService,sans-serif" font-weight="400" font-size="64" transform="matrix(1 0 0 1 481.628 95)">Largeur obtenue buse 0.4 </text></g><rect x="0.499836" y="0.499836" width="1629" height="692" stroke="#D9D9D9" stroke-width="3.4375" stroke-linejoin="round" stroke-miterlimit="10" fill="none"/></g></svg>