solid OpenSCAD_Model
  facet normal -1 0 0
    outer loop
      vertex -10 10 -10
      vertex -10 30 10
      vertex -10 30 -10
    endloop
  endfacet
  facet normal -1 -0 0
    outer loop
      vertex -10 30 10
      vertex -10 10 -10
      vertex -10 10 10
    endloop
  endfacet
  facet normal 0 1 0
    outer loop
      vertex 10 30 10
      vertex 4.08342 30 4.875
      vertex -10 30 10
    endloop
  endfacet
  facet normal 0 1 0
    outer loop
      vertex 10 30 10
      vertex 4.08342 30 3.211
      vertex 4.08342 30 4.875
    endloop
  endfacet
  facet normal 0 1 0
    outer loop
      vertex 4.08342 30 3.211
      vertex 3.87242 30 -3.573
      vertex -1.57257 30 3.211
    endloop
  endfacet
  facet normal 0 1 -0
    outer loop
      vertex 10 30 -10
      vertex 4.08342 30 3.211
      vertex 10 30 10
    endloop
  endfacet
  facet normal 0 1 0
    outer loop
      vertex 4.08342 30 3.211
      vertex 10 30 -10
      vertex 3.87242 30 -3.573
    endloop
  endfacet
  facet normal 0 1 0
    outer loop
      vertex 3.87242 30 -5.10899
      vertex 10 30 -10
      vertex -3.40356 30 -5.10899
    endloop
  endfacet
  facet normal 0 1 0
    outer loop
      vertex 3.87242 30 -3.573
      vertex 10 30 -10
      vertex 3.87242 30 -5.10899
    endloop
  endfacet
  facet normal 0 1 -0
    outer loop
      vertex -3.99358 30 4.875
      vertex -10 30 10
      vertex 4.08342 30 4.875
    endloop
  endfacet
  facet normal 0 1 -0
    outer loop
      vertex -3.99358 30 3.019
      vertex -10 30 10
      vertex -3.99358 30 4.875
    endloop
  endfacet
  facet normal 0 1 -0
    outer loop
      vertex -3.40356 30 -3.44499
      vertex -3.99358 30 3.019
      vertex 1.22841 30 -3.44499
    endloop
  endfacet
  facet normal 0 1 0
    outer loop
      vertex -10 30 -10
      vertex -3.99358 30 3.019
      vertex -3.40356 30 -3.44499
    endloop
  endfacet
  facet normal 0 1 0
    outer loop
      vertex -10 30 -10
      vertex -3.40356 30 -3.44499
      vertex -3.40356 30 -5.10899
    endloop
  endfacet
  facet normal 0 1 0
    outer loop
      vertex -3.99358 30 3.019
      vertex -10 30 -10
      vertex -10 30 10
    endloop
  endfacet
  facet normal 0 1 0
    outer loop
      vertex -10 30 -10
      vertex -3.40356 30 -5.10899
      vertex 10 30 -10
    endloop
  endfacet
  facet normal 1 0 0
    outer loop
      vertex 10 25.109 2.19043
      vertex 10 21.155 -0.14856
      vertex 10 25.109 -2.44055
    endloop
  endfacet
  facet normal 1 0 0
    outer loop
      vertex 10 25.109 2.19043
      vertex 10 30 10
      vertex 10 25.109 4.54343
    endloop
  endfacet
  facet normal 1 -0 0
    outer loop
      vertex 10 10 10
      vertex 10 25.109 4.54343
      vertex 10 30 10
    endloop
  endfacet
  facet normal 1 0 0
    outer loop
      vertex 10 25.109 4.54343
      vertex 10 10 10
      vertex 10 19.327 0.902435
    endloop
  endfacet
  facet normal 1 0 0
    outer loop
      vertex 10 15.125 0.902435
      vertex 10 10 10
      vertex 10 15.125 -1.09856
    endloop
  endfacet
  facet normal 1 0 0
    outer loop
      vertex 10 19.327 0.902435
      vertex 10 10 10
      vertex 10 15.125 0.902435
    endloop
  endfacet
  facet normal 1 0 0
    outer loop
      vertex 10 30 10
      vertex 10 25.109 2.19043
      vertex 10 30 -10
    endloop
  endfacet
  facet normal 1 -0 0
    outer loop
      vertex 10 25.109 -2.44055
      vertex 10 30 -10
      vertex 10 25.109 2.19043
    endloop
  endfacet
  facet normal 1 -0 0
    outer loop
      vertex 10 25.109 -4.75356
      vertex 10 30 -10
      vertex 10 25.109 -2.44055
    endloop
  endfacet
  facet normal 1 0 0
    outer loop
      vertex 10 10 -10
      vertex 10 25.109 -4.75356
      vertex 10 19.313 -1.09856
    endloop
  endfacet
  facet normal 1 0 0
    outer loop
      vertex 10 10 -10
      vertex 10 19.313 -1.09856
      vertex 10 15.125 -1.09856
    endloop
  endfacet
  facet normal 1 0 0
    outer loop
      vertex 10 25.109 -4.75356
      vertex 10 10 -10
      vertex 10 30 -10
    endloop
  endfacet
  facet normal 1 0 0
    outer loop
      vertex 10 10 -10
      vertex 10 15.125 -1.09856
      vertex 10 10 10
    endloop
  endfacet
  facet normal 0 -1 0
    outer loop
      vertex -10 10 -10
      vertex 10 10 10
      vertex -10 10 10
    endloop
  endfacet
  facet normal 0 -1 -0
    outer loop
      vertex 10 10 10
      vertex -10 10 -10
      vertex 10 10 -10
    endloop
  endfacet
  facet normal 0 0 1
    outer loop
      vertex 10 30 10
      vertex 4.71956 15.125 10
      vertex 10 10 10
    endloop
  endfacet
  facet normal 0 0 1
    outer loop
      vertex 10 30 10
      vertex 4.41455 25.109 10
      vertex 4.71956 15.125 10
    endloop
  endfacet
  facet normal 0 0 1
    outer loop
      vertex 10 30 10
      vertex 2.08856 25.109 10
      vertex 4.41455 25.109 10
    endloop
  endfacet
  facet normal 0 0 1
    outer loop
      vertex 2.08856 25.109 10
      vertex -1.85843 25.109 10
      vertex 0.109558 22.121 10
    endloop
  endfacet
  facet normal 0 0 1
    outer loop
      vertex 10 30 10
      vertex -1.85843 25.109 10
      vertex 2.08856 25.109 10
    endloop
  endfacet
  facet normal -0 0 1
    outer loop
      vertex -10 30 10
      vertex -1.85843 25.109 10
      vertex 10 30 10
    endloop
  endfacet
  facet normal 0 0 1
    outer loop
      vertex -4.20444 25.109 10
      vertex -10 30 10
      vertex -4.52344 15.125 10
    endloop
  endfacet
  facet normal 0 0 1
    outer loop
      vertex -1.85843 25.109 10
      vertex -10 30 10
      vertex -4.20444 25.109 10
    endloop
  endfacet
  facet normal -0 0 1
    outer loop
      vertex 2.29855 15.125 10
      vertex 10 10 10
      vertex 4.71956 15.125 10
    endloop
  endfacet
  facet normal 0 0 1
    outer loop
      vertex -2.11642 15.125 10
      vertex 2.29855 15.125 10
      vertex 0.0955505 18.507 10
    endloop
  endfacet
  facet normal -0 0 1
    outer loop
      vertex -2.11642 15.125 10
      vertex 10 10 10
      vertex 2.29855 15.125 10
    endloop
  endfacet
  facet normal 0 0 1
    outer loop
      vertex -10 10 10
      vertex -2.11642 15.125 10
      vertex -4.52344 15.125 10
    endloop
  endfacet
  facet normal 0 0 1
    outer loop
      vertex -2.11642 15.125 10
      vertex -10 10 10
      vertex 10 10 10
    endloop
  endfacet
  facet normal 0 0 1
    outer loop
      vertex -10 10 10
      vertex -4.52344 15.125 10
      vertex -10 30 10
    endloop
  endfacet
  facet normal 0 0 1
    outer loop
      vertex 4.71956 15.125 10
      vertex 4.41455 25.109 10
      vertex 1.28955 20.331 10
    endloop
  endfacet
  facet normal 0 0 1
    outer loop
      vertex -1.08443 20.318 10
      vertex -4.20444 25.109 10
      vertex -4.52344 15.125 10
    endloop
  endfacet
  facet normal 0 0 -1
    outer loop
      vertex -10 10 -10
      vertex 10 30 -10
      vertex 10 10 -10
    endloop
  endfacet
  facet normal -0 0 -1
    outer loop
      vertex 10 30 -10
      vertex -10 10 -10
      vertex -10 30 -10
    endloop
  endfacet
  facet normal -0 0 1
    outer loop
      vertex 2.08856 25.109 9
      vertex 1.28955 20.331 9
      vertex 4.41455 25.109 9
    endloop
  endfacet
  facet normal 0 -0 1
    outer loop
      vertex 1.28955 20.331 9
      vertex 2.08856 25.109 9
      vertex 0.109558 22.121 9
    endloop
  endfacet
  facet normal 0 0 1
    outer loop
      vertex 1.28955 20.331 9
      vertex 2.29855 15.125 9
      vertex 4.71956 15.125 9
    endloop
  endfacet
  facet normal 0 0 1
    outer loop
      vertex -1.08443 20.318 9
      vertex 1.28955 20.331 9
      vertex 0.109558 22.121 9
    endloop
  endfacet
  facet normal 0 0 1
    outer loop
      vertex 1.28955 20.331 9
      vertex 0.0955505 18.507 9
      vertex 2.29855 15.125 9
    endloop
  endfacet
  facet normal 0 0 1
    outer loop
      vertex 1.28955 20.331 9
      vertex -1.08443 20.318 9
      vertex 0.0955505 18.507 9
    endloop
  endfacet
  facet normal 0 0 1
    outer loop
      vertex -1.85843 25.109 9
      vertex -1.08443 20.318 9
      vertex 0.109558 22.121 9
    endloop
  endfacet
  facet normal 0 0 1
    outer loop
      vertex -1.08443 20.318 9
      vertex -1.85843 25.109 9
      vertex -4.20444 25.109 9
    endloop
  endfacet
  facet normal 0 0 1
    outer loop
      vertex -1.08443 20.318 9
      vertex -2.11642 15.125 9
      vertex 0.0955505 18.507 9
    endloop
  endfacet
  facet normal 0 -0 1
    outer loop
      vertex -2.11642 15.125 9
      vertex -1.08443 20.318 9
      vertex -4.52344 15.125 9
    endloop
  endfacet
  facet normal 0.837911 0.545807 0
    outer loop
      vertex 2.29855 15.125 10
      vertex 0.0955505 18.507 9
      vertex 0.0955505 18.507 10
    endloop
  endfacet
  facet normal 0.837911 0.545807 0
    outer loop
      vertex 0.0955505 18.507 9
      vertex 2.29855 15.125 10
      vertex 2.29855 15.125 9
    endloop
  endfacet
  facet normal 0 1 -0
    outer loop
      vertex 4.71956 15.125 9
      vertex 2.29855 15.125 10
      vertex 4.71956 15.125 10
    endloop
  endfacet
  facet normal 0 1 0
    outer loop
      vertex 2.29855 15.125 10
      vertex 4.71956 15.125 9
      vertex 2.29855 15.125 9
    endloop
  endfacet
  facet normal -0.835048 -0.550177 0
    outer loop
      vertex 4.71956 15.125 9
      vertex 1.28955 20.331 10
      vertex 1.28955 20.331 9
    endloop
  endfacet
  facet normal -0.835048 -0.550177 0
    outer loop
      vertex 1.28955 20.331 10
      vertex 4.71956 15.125 9
      vertex 4.71956 15.125 10
    endloop
  endfacet
  facet normal -0.836896 0.547363 0
    outer loop
      vertex 1.28955 20.331 9
      vertex 4.41455 25.109 10
      vertex 4.41455 25.109 9
    endloop
  endfacet
  facet normal -0.836896 0.547363 0
    outer loop
      vertex 4.41455 25.109 10
      vertex 1.28955 20.331 9
      vertex 1.28955 20.331 10
    endloop
  endfacet
  facet normal 0 -1 0
    outer loop
      vertex 2.08856 25.109 9
      vertex 4.41455 25.109 10
      vertex 2.08856 25.109 10
    endloop
  endfacet
  facet normal 0 -1 -0
    outer loop
      vertex 4.41455 25.109 10
      vertex 2.08856 25.109 9
      vertex 4.41455 25.109 9
    endloop
  endfacet
  facet normal 0.83372 -0.552187 0
    outer loop
      vertex 0.109558 22.121 10
      vertex 2.08856 25.109 9
      vertex 2.08856 25.109 10
    endloop
  endfacet
  facet normal 0.83372 -0.552187 0
    outer loop
      vertex 2.08856 25.109 9
      vertex 0.109558 22.121 10
      vertex 0.109558 22.121 9
    endloop
  endfacet
  facet normal -0.835135 -0.550045 0
    outer loop
      vertex 0.109558 22.121 9
      vertex -1.85843 25.109 10
      vertex -1.85843 25.109 9
    endloop
  endfacet
  facet normal -0.835135 -0.550045 0
    outer loop
      vertex -1.85843 25.109 10
      vertex 0.109558 22.121 9
      vertex 0.109558 22.121 10
    endloop
  endfacet
  facet normal 0 -1 0
    outer loop
      vertex -4.20444 25.109 9
      vertex -1.85843 25.109 10
      vertex -4.20444 25.109 10
    endloop
  endfacet
  facet normal 0 -1 -0
    outer loop
      vertex -1.85843 25.109 10
      vertex -4.20444 25.109 9
      vertex -1.85843 25.109 9
    endloop
  endfacet
  facet normal 0.837975 0.545709 0
    outer loop
      vertex -1.08443 20.318 10
      vertex -4.20444 25.109 9
      vertex -4.20444 25.109 10
    endloop
  endfacet
  facet normal 0.837975 0.545709 0
    outer loop
      vertex -4.20444 25.109 9
      vertex -1.08443 20.318 10
      vertex -1.08443 20.318 9
    endloop
  endfacet
  facet normal 0.83375 -0.552142 0
    outer loop
      vertex -4.52344 15.125 10
      vertex -1.08443 20.318 9
      vertex -1.08443 20.318 10
    endloop
  endfacet
  facet normal 0.83375 -0.552142 0
    outer loop
      vertex -1.08443 20.318 9
      vertex -4.52344 15.125 10
      vertex -4.52344 15.125 9
    endloop
  endfacet
  facet normal 0 1 -0
    outer loop
      vertex -2.11642 15.125 9
      vertex -4.52344 15.125 10
      vertex -2.11642 15.125 10
    endloop
  endfacet
  facet normal 0 1 0
    outer loop
      vertex -4.52344 15.125 10
      vertex -2.11642 15.125 9
      vertex -4.52344 15.125 9
    endloop
  endfacet
  facet normal -0.836894 0.547364 0
    outer loop
      vertex -2.11642 15.125 9
      vertex 0.0955505 18.507 10
      vertex 0.0955505 18.507 9
    endloop
  endfacet
  facet normal -0.836894 0.547364 0
    outer loop
      vertex 0.0955505 18.507 10
      vertex -2.11642 15.125 9
      vertex -2.11642 15.125 10
    endloop
  endfacet
  facet normal 1 0 0
    outer loop
      vertex 9 19.327 0.902435
      vertex 9 25.109 2.19043
      vertex 9 25.109 4.54343
    endloop
  endfacet
  facet normal 1 0 0
    outer loop
      vertex 9 25.109 2.19043
      vertex 9 19.327 0.902435
      vertex 9 21.155 -0.14856
    endloop
  endfacet
  facet normal 1 0 0
    outer loop
      vertex 9 21.155 -0.14856
      vertex 9 25.109 -4.75356
      vertex 9 25.109 -2.44055
    endloop
  endfacet
  facet normal 1 0 0
    outer loop
      vertex 9 19.313 -1.09856
      vertex 9 21.155 -0.14856
      vertex 9 19.327 0.902435
    endloop
  endfacet
  facet normal 1 0 0
    outer loop
      vertex 9 21.155 -0.14856
      vertex 9 19.313 -1.09856
      vertex 9 25.109 -4.75356
    endloop
  endfacet
  facet normal 1 -0 0
    outer loop
      vertex 9 15.125 0.902435
      vertex 9 19.313 -1.09856
      vertex 9 19.327 0.902435
    endloop
  endfacet
  facet normal 1 0 0
    outer loop
      vertex 9 19.313 -1.09856
      vertex 9 15.125 0.902435
      vertex 9 15.125 -1.09856
    endloop
  endfacet
  facet normal -0 0.533405 0.84586
    outer loop
      vertex 9 25.109 -4.75356
      vertex 10 19.313 -1.09856
      vertex 10 25.109 -4.75356
    endloop
  endfacet
  facet normal 0 0.533405 0.84586
    outer loop
      vertex 10 19.313 -1.09856
      vertex 9 25.109 -4.75356
      vertex 9 19.313 -1.09856
    endloop
  endfacet
  facet normal 0 -1 0
    outer loop
      vertex 9 25.109 -4.75356
      vertex 10 25.109 -2.44055
      vertex 9 25.109 -2.44055
    endloop
  endfacet
  facet normal 0 -1 -0
    outer loop
      vertex 10 25.109 -2.44055
      vertex 9 25.109 -4.75356
      vertex 10 25.109 -4.75356
    endloop
  endfacet
  facet normal 0 -0.5015 -0.865157
    outer loop
      vertex 9 21.155 -0.14856
      vertex 10 25.109 -2.44055
      vertex 10 21.155 -0.14856
    endloop
  endfacet
  facet normal -0 -0.5015 -0.865157
    outer loop
      vertex 10 25.109 -2.44055
      vertex 9 21.155 -0.14856
      vertex 9 25.109 -2.44055
    endloop
  endfacet
  facet normal 0 -0.509138 0.860685
    outer loop
      vertex 9 25.109 2.19043
      vertex 10 21.155 -0.14856
      vertex 10 25.109 2.19043
    endloop
  endfacet
  facet normal 0 -0.509138 0.860685
    outer loop
      vertex 10 21.155 -0.14856
      vertex 9 25.109 2.19043
      vertex 9 21.155 -0.14856
    endloop
  endfacet
  facet normal 0 -1 0
    outer loop
      vertex 9 25.109 2.19043
      vertex 10 25.109 4.54343
      vertex 9 25.109 4.54343
    endloop
  endfacet
  facet normal 0 -1 -0
    outer loop
      vertex 10 25.109 4.54343
      vertex 9 25.109 2.19043
      vertex 10 25.109 2.19043
    endloop
  endfacet
  facet normal 0 0.532863 -0.846201
    outer loop
      vertex 9 19.327 0.902435
      vertex 10 25.109 4.54343
      vertex 10 19.327 0.902435
    endloop
  endfacet
  facet normal 0 0.532863 -0.846201
    outer loop
      vertex 10 25.109 4.54343
      vertex 9 19.327 0.902435
      vertex 9 25.109 4.54343
    endloop
  endfacet
  facet normal 0 0 -1
    outer loop
      vertex 9 15.125 0.902435
      vertex 10 19.327 0.902435
      vertex 10 15.125 0.902435
    endloop
  endfacet
  facet normal -0 0 -1
    outer loop
      vertex 10 19.327 0.902435
      vertex 9 15.125 0.902435
      vertex 9 19.327 0.902435
    endloop
  endfacet
  facet normal 0 1 -0
    outer loop
      vertex 10 15.125 -1.09856
      vertex 9 15.125 0.902435
      vertex 10 15.125 0.902435
    endloop
  endfacet
  facet normal 0 1 0
    outer loop
      vertex 9 15.125 0.902435
      vertex 10 15.125 -1.09856
      vertex 9 15.125 -1.09856
    endloop
  endfacet
  facet normal -0 0 1
    outer loop
      vertex 9 19.313 -1.09856
      vertex 10 15.125 -1.09856
      vertex 10 19.313 -1.09856
    endloop
  endfacet
  facet normal 0 0 1
    outer loop
      vertex 10 15.125 -1.09856
      vertex 9 19.313 -1.09856
      vertex 9 15.125 -1.09856
    endloop
  endfacet
  facet normal 0 1 0
    outer loop
      vertex -1.57257 29 3.211
      vertex 4.08342 29 4.875
      vertex 4.08342 29 3.211
    endloop
  endfacet
  facet normal 0 1 0
    outer loop
      vertex 4.08342 29 4.875
      vertex -1.57257 29 3.211
      vertex -3.99358 29 4.875
    endloop
  endfacet
  facet normal 0 1 0
    outer loop
      vertex -1.57257 29 3.211
      vertex -3.99358 29 3.019
      vertex -3.99358 29 4.875
    endloop
  endfacet
  facet normal 0 1 0
    outer loop
      vertex -1.57257 29 3.211
      vertex 1.22841 29 -3.44499
      vertex -3.99358 29 3.019
    endloop
  endfacet
  facet normal 0 1 0
    outer loop
      vertex 3.87242 29 -3.573
      vertex 1.22841 29 -3.44499
      vertex -1.57257 29 3.211
    endloop
  endfacet
  facet normal 0 1 -0
    outer loop
      vertex 3.87242 29 -5.10899
      vertex 1.22841 29 -3.44499
      vertex 3.87242 29 -3.573
    endloop
  endfacet
  facet normal 0 1 0
    outer loop
      vertex 1.22841 29 -3.44499
      vertex 3.87242 29 -5.10899
      vertex -3.40356 29 -5.10899
    endloop
  endfacet
  facet normal 0 1 0
    outer loop
      vertex 1.22841 29 -3.44499
      vertex -3.40356 29 -5.10899
      vertex -3.40356 29 -3.44499
    endloop
  endfacet
  facet normal -0 0 1
    outer loop
      vertex -1.57257 30 3.211
      vertex 4.08342 29 3.211
      vertex 4.08342 30 3.211
    endloop
  endfacet
  facet normal 0 0 1
    outer loop
      vertex 4.08342 29 3.211
      vertex -1.57257 30 3.211
      vertex -1.57257 29 3.211
    endloop
  endfacet
  facet normal -0.77987 0 -0.625941
    outer loop
      vertex 3.87242 29 -3.573
      vertex -1.57257 30 3.211
      vertex 3.87242 30 -3.573
    endloop
  endfacet
  facet normal -0.77987 -0 -0.625941
    outer loop
      vertex -1.57257 30 3.211
      vertex 3.87242 29 -3.573
      vertex -1.57257 29 3.211
    endloop
  endfacet
  facet normal -1 0 0
    outer loop
      vertex 3.87242 29 -5.10899
      vertex 3.87242 30 -3.573
      vertex 3.87242 30 -5.10899
    endloop
  endfacet
  facet normal -1 -0 0
    outer loop
      vertex 3.87242 30 -3.573
      vertex 3.87242 29 -5.10899
      vertex 3.87242 29 -3.573
    endloop
  endfacet
  facet normal -0 0 1
    outer loop
      vertex -3.40356 30 -5.10899
      vertex 3.87242 29 -5.10899
      vertex 3.87242 30 -5.10899
    endloop
  endfacet
  facet normal 0 0 1
    outer loop
      vertex 3.87242 29 -5.10899
      vertex -3.40356 30 -5.10899
      vertex -3.40356 29 -5.10899
    endloop
  endfacet
  facet normal 1 -0 0
    outer loop
      vertex -3.40356 29 -3.44499
      vertex -3.40356 30 -5.10899
      vertex -3.40356 30 -3.44499
    endloop
  endfacet
  facet normal 1 0 0
    outer loop
      vertex -3.40356 30 -5.10899
      vertex -3.40356 29 -3.44499
      vertex -3.40356 29 -5.10899
    endloop
  endfacet
  facet normal 0 0 -1
    outer loop
      vertex -3.40356 29 -3.44499
      vertex 1.22841 30 -3.44499
      vertex 1.22841 29 -3.44499
    endloop
  endfacet
  facet normal -0 0 -1
    outer loop
      vertex 1.22841 30 -3.44499
      vertex -3.40356 29 -3.44499
      vertex -3.40356 30 -3.44499
    endloop
  endfacet
  facet normal 0.777878 -0 0.628415
    outer loop
      vertex -3.99358 29 3.019
      vertex 1.22841 30 -3.44499
      vertex -3.99358 30 3.019
    endloop
  endfacet
  facet normal 0.777878 0 0.628415
    outer loop
      vertex 1.22841 30 -3.44499
      vertex -3.99358 29 3.019
      vertex 1.22841 29 -3.44499
    endloop
  endfacet
  facet normal 1 -0 0
    outer loop
      vertex -3.99358 29 4.875
      vertex -3.99358 30 3.019
      vertex -3.99358 30 4.875
    endloop
  endfacet
  facet normal 1 0 0
    outer loop
      vertex -3.99358 30 3.019
      vertex -3.99358 29 4.875
      vertex -3.99358 29 3.019
    endloop
  endfacet
  facet normal 0 0 -1
    outer loop
      vertex -3.99358 29 4.875
      vertex 4.08342 30 4.875
      vertex 4.08342 29 4.875
    endloop
  endfacet
  facet normal -0 0 -1
    outer loop
      vertex 4.08342 30 4.875
      vertex -3.99358 29 4.875
      vertex -3.99358 30 4.875
    endloop
  endfacet
  facet normal -1 0 0
    outer loop
      vertex 4.08342 29 3.211
      vertex 4.08342 30 4.875
      vertex 4.08342 30 3.211
    endloop
  endfacet
  facet normal -1 -0 0
    outer loop
      vertex 4.08342 30 4.875
      vertex 4.08342 29 3.211
      vertex 4.08342 29 4.875
    endloop
  endfacet
endsolid OpenSCAD_Model
