solid OpenSCAD_Model
  facet normal 0 0 -1
    outer loop
      vertex 10 0 -10
      vertex 5 10 -10
      vertex 10 10 -10
    endloop
  endfacet
  facet normal 0 0 -1
    outer loop
      vertex 5 10 -10
      vertex 0 15 -10
      vertex 5 15 -10
    endloop
  endfacet
  facet normal 0 0 -1
    outer loop
      vertex -10 0 -10
      vertex 5 10 -10
      vertex 10 0 -10
    endloop
  endfacet
  facet normal -0 0 -1
    outer loop
      vertex 5 10 -10
      vertex -10 0 -10
      vertex 0 15 -10
    endloop
  endfacet
  facet normal 0 0 -1
    outer loop
      vertex -10 20 -10
      vertex 0 15 -10
      vertex -10 0 -10
    endloop
  endfacet
  facet normal 0 0 -1
    outer loop
      vertex 0 15 -10
      vertex -10 20 -10
      vertex 0 20 -10
    endloop
  endfacet
  facet normal 0 1 -0
    outer loop
      vertex 5 5 0
      vertex 0 5 5
      vertex 5 5 5
    endloop
  endfacet
  facet normal 0 1 0
    outer loop
      vertex 0 5 5
      vertex 5 5 0
      vertex 0 5 0
    endloop
  endfacet
  facet normal 0 1 -0
    outer loop
      vertex 10 5 -5
      vertex 5 5 0
      vertex 10 5 0
    endloop
  endfacet
  facet normal 0 1 0
    outer loop
      vertex 5 5 0
      vertex 10 5 -5
      vertex 5 5 -5
    endloop
  endfacet
  facet normal 0 1 -0
    outer loop
      vertex 0 5 5
      vertex -5 5 10
      vertex 0 5 10
    endloop
  endfacet
  facet normal 0 1 0
    outer loop
      vertex -5 5 10
      vertex 0 5 5
      vertex -5 5 5
    endloop
  endfacet
  facet normal 0 -1 0
    outer loop
      vertex -10 0 10
      vertex 0 0 5
      vertex 0 0 10
    endloop
  endfacet
  facet normal 0 -1 0
    outer loop
      vertex 0 0 5
      vertex 5 0 0
      vertex 5 0 5
    endloop
  endfacet
  facet normal 0 -1 0
    outer loop
      vertex -10 0 -10
      vertex 0 0 5
      vertex -10 0 10
    endloop
  endfacet
  facet normal 0 -1 -0
    outer loop
      vertex 0 0 5
      vertex -10 0 -10
      vertex 5 0 0
    endloop
  endfacet
  facet normal 0 -1 0
    outer loop
      vertex 10 0 -10
      vertex 5 0 0
      vertex -10 0 -10
    endloop
  endfacet
  facet normal 0 -1 0
    outer loop
      vertex 5 0 0
      vertex 10 0 -10
      vertex 10 0 0
    endloop
  endfacet
  facet normal -1 0 0
    outer loop
      vertex -10 20 -10
      vertex -10 15 0
      vertex -10 20 0
    endloop
  endfacet
  facet normal -1 0 0
    outer loop
      vertex -10 15 0
      vertex -10 10 5
      vertex -10 15 5
    endloop
  endfacet
  facet normal -1 0 0
    outer loop
      vertex -10 0 -10
      vertex -10 15 0
      vertex -10 20 -10
    endloop
  endfacet
  facet normal -1 -0 0
    outer loop
      vertex -10 15 0
      vertex -10 0 -10
      vertex -10 10 5
    endloop
  endfacet
  facet normal -1 0 0
    outer loop
      vertex -10 0 10
      vertex -10 10 5
      vertex -10 0 -10
    endloop
  endfacet
  facet normal -1 0 0
    outer loop
      vertex -10 10 5
      vertex -10 0 10
      vertex -10 10 10
    endloop
  endfacet
  facet normal 0 0 1
    outer loop
      vertex -5 10 10
      vertex -10 10 10
      vertex -5 5 10
    endloop
  endfacet
  facet normal -0 0 1
    outer loop
      vertex -5 5 10
      vertex 0 0 10
      vertex 0 5 10
    endloop
  endfacet
  facet normal 0 0 1
    outer loop
      vertex -10 0 10
      vertex -5 5 10
      vertex -10 10 10
    endloop
  endfacet
  facet normal 0 0 1
    outer loop
      vertex -5 5 10
      vertex -10 0 10
      vertex 0 0 10
    endloop
  endfacet
  facet normal 1 0 0
    outer loop
      vertex 10 5 0
      vertex 10 0 0
      vertex 10 5 -5
    endloop
  endfacet
  facet normal 1 -0 0
    outer loop
      vertex 10 5 -5
      vertex 10 10 -10
      vertex 10 10 -5
    endloop
  endfacet
  facet normal 1 0 0
    outer loop
      vertex 10 0 -10
      vertex 10 5 -5
      vertex 10 0 0
    endloop
  endfacet
  facet normal 1 0 0
    outer loop
      vertex 10 5 -5
      vertex 10 0 -10
      vertex 10 10 -10
    endloop
  endfacet
  facet normal -0 0 1
    outer loop
      vertex 0 5 5
      vertex 5 0 5
      vertex 5 5 5
    endloop
  endfacet
  facet normal 0 0 1
    outer loop
      vertex 5 0 5
      vertex 0 5 5
      vertex 0 0 5
    endloop
  endfacet
  facet normal -0 0 1
    outer loop
      vertex 5 5 0
      vertex 10 0 0
      vertex 10 5 0
    endloop
  endfacet
  facet normal 0 0 1
    outer loop
      vertex 10 0 0
      vertex 5 5 0
      vertex 5 0 0
    endloop
  endfacet
  facet normal 1 -0 0
    outer loop
      vertex 5 0 5
      vertex 5 5 0
      vertex 5 5 5
    endloop
  endfacet
  facet normal 1 0 0
    outer loop
      vertex 5 5 0
      vertex 5 0 5
      vertex 5 0 0
    endloop
  endfacet
  facet normal 1 -0 0
    outer loop
      vertex 0 0 10
      vertex 0 5 5
      vertex 0 5 10
    endloop
  endfacet
  facet normal 1 0 0
    outer loop
      vertex 0 5 5
      vertex 0 0 10
      vertex 0 0 5
    endloop
  endfacet
  facet normal 0 1 -0
    outer loop
      vertex 0 10 0
      vertex -5 10 5
      vertex 0 10 5
    endloop
  endfacet
  facet normal 0 1 0
    outer loop
      vertex -5 10 5
      vertex 0 10 0
      vertex -5 10 0
    endloop
  endfacet
  facet normal 0 1 -0
    outer loop
      vertex 5 10 -5
      vertex 0 10 0
      vertex 5 10 0
    endloop
  endfacet
  facet normal 0 1 0
    outer loop
      vertex 0 10 0
      vertex 5 10 -5
      vertex 0 10 -5
    endloop
  endfacet
  facet normal 0 1 -0
    outer loop
      vertex 10 10 -10
      vertex 5 10 -5
      vertex 10 10 -5
    endloop
  endfacet
  facet normal 0 1 0
    outer loop
      vertex 5 10 -5
      vertex 10 10 -10
      vertex 5 10 -10
    endloop
  endfacet
  facet normal 0 1 -0
    outer loop
      vertex -5 10 5
      vertex -10 10 10
      vertex -5 10 10
    endloop
  endfacet
  facet normal 0 1 0
    outer loop
      vertex -10 10 10
      vertex -5 10 5
      vertex -10 10 5
    endloop
  endfacet
  facet normal 1 -0 0
    outer loop
      vertex -5 5 10
      vertex -5 10 5
      vertex -5 10 10
    endloop
  endfacet
  facet normal 1 0 0
    outer loop
      vertex -5 10 5
      vertex -5 5 10
      vertex -5 5 5
    endloop
  endfacet
  facet normal -0 0 1
    outer loop
      vertex 5 10 -5
      vertex 10 5 -5
      vertex 10 10 -5
    endloop
  endfacet
  facet normal 0 0 1
    outer loop
      vertex 10 5 -5
      vertex 5 10 -5
      vertex 5 5 -5
    endloop
  endfacet
  facet normal 1 -0 0
    outer loop
      vertex 0 5 5
      vertex 0 10 0
      vertex 0 10 5
    endloop
  endfacet
  facet normal 1 0 0
    outer loop
      vertex 0 10 0
      vertex 0 5 5
      vertex 0 5 0
    endloop
  endfacet
  facet normal -0 0 1
    outer loop
      vertex -5 10 5
      vertex 0 5 5
      vertex 0 10 5
    endloop
  endfacet
  facet normal 0 0 1
    outer loop
      vertex 0 5 5
      vertex -5 10 5
      vertex -5 5 5
    endloop
  endfacet
  facet normal -0 0 1
    outer loop
      vertex 0 10 0
      vertex 5 5 0
      vertex 5 10 0
    endloop
  endfacet
  facet normal 0 0 1
    outer loop
      vertex 5 5 0
      vertex 0 10 0
      vertex 0 5 0
    endloop
  endfacet
  facet normal 1 -0 0
    outer loop
      vertex 5 5 0
      vertex 5 10 -5
      vertex 5 10 0
    endloop
  endfacet
  facet normal 1 0 0
    outer loop
      vertex 5 10 -5
      vertex 5 5 0
      vertex 5 5 -5
    endloop
  endfacet
  facet normal 0 1 -0
    outer loop
      vertex 5 15 -10
      vertex 0 15 -5
      vertex 5 15 -5
    endloop
  endfacet
  facet normal 0 1 0
    outer loop
      vertex 0 15 -5
      vertex 5 15 -10
      vertex 0 15 -10
    endloop
  endfacet
  facet normal 0 1 -0
    outer loop
      vertex -5 15 0
      vertex -10 15 5
      vertex -5 15 5
    endloop
  endfacet
  facet normal 0 1 0
    outer loop
      vertex -10 15 5
      vertex -5 15 0
      vertex -10 15 0
    endloop
  endfacet
  facet normal 1 -0 0
    outer loop
      vertex -5 10 5
      vertex -5 15 0
      vertex -5 15 5
    endloop
  endfacet
  facet normal 1 0 0
    outer loop
      vertex -5 15 0
      vertex -5 10 5
      vertex -5 10 0
    endloop
  endfacet
  facet normal -0 0 1
    outer loop
      vertex -10 15 5
      vertex -5 10 5
      vertex -5 15 5
    endloop
  endfacet
  facet normal 0 0 1
    outer loop
      vertex -5 10 5
      vertex -10 15 5
      vertex -10 10 5
    endloop
  endfacet
  facet normal -0 0 1
    outer loop
      vertex 0 15 -5
      vertex 5 10 -5
      vertex 5 15 -5
    endloop
  endfacet
  facet normal 0 0 1
    outer loop
      vertex 5 10 -5
      vertex 0 15 -5
      vertex 0 10 -5
    endloop
  endfacet
  facet normal 1 -0 0
    outer loop
      vertex 5 10 -5
      vertex 5 15 -10
      vertex 5 15 -5
    endloop
  endfacet
  facet normal 1 0 0
    outer loop
      vertex 5 15 -10
      vertex 5 10 -5
      vertex 5 10 -10
    endloop
  endfacet
  facet normal 0 1 -0
    outer loop
      vertex 0 15 -5
      vertex -5 15 0
      vertex 0 15 0
    endloop
  endfacet
  facet normal 0 1 0
    outer loop
      vertex -5 15 0
      vertex 0 15 -5
      vertex -5 15 -5
    endloop
  endfacet
  facet normal -0 0 1
    outer loop
      vertex -5 15 0
      vertex 0 10 0
      vertex 0 15 0
    endloop
  endfacet
  facet normal 0 0 1
    outer loop
      vertex 0 10 0
      vertex -5 15 0
      vertex -5 10 0
    endloop
  endfacet
  facet normal 1 -0 0
    outer loop
      vertex 0 10 0
      vertex 0 15 -5
      vertex 0 15 0
    endloop
  endfacet
  facet normal 1 0 0
    outer loop
      vertex 0 15 -5
      vertex 0 10 0
      vertex 0 10 -5
    endloop
  endfacet
  facet normal 0 1 0
    outer loop
      vertex 0 20 -5
      vertex 0 20 -10
      vertex -5 20 -5
    endloop
  endfacet
  facet normal 0 1 -0
    outer loop
      vertex -5 20 -5
      vertex -10 20 0
      vertex -5 20 0
    endloop
  endfacet
  facet normal 0 1 0
    outer loop
      vertex -10 20 -10
      vertex -5 20 -5
      vertex 0 20 -10
    endloop
  endfacet
  facet normal 0 1 0
    outer loop
      vertex -5 20 -5
      vertex -10 20 -10
      vertex -10 20 0
    endloop
  endfacet
  facet normal -0 0 1
    outer loop
      vertex -10 20 0
      vertex -5 15 0
      vertex -5 20 0
    endloop
  endfacet
  facet normal 0 0 1
    outer loop
      vertex -5 15 0
      vertex -10 20 0
      vertex -10 15 0
    endloop
  endfacet
  facet normal 1 -0 0
    outer loop
      vertex -5 15 0
      vertex -5 20 -5
      vertex -5 20 0
    endloop
  endfacet
  facet normal 1 0 0
    outer loop
      vertex -5 20 -5
      vertex -5 15 0
      vertex -5 15 -5
    endloop
  endfacet
  facet normal -0 0 1
    outer loop
      vertex -5 20 -5
      vertex 0 15 -5
      vertex 0 20 -5
    endloop
  endfacet
  facet normal 0 0 1
    outer loop
      vertex 0 15 -5
      vertex -5 20 -5
      vertex -5 15 -5
    endloop
  endfacet
  facet normal 1 -0 0
    outer loop
      vertex 0 15 -5
      vertex 0 20 -10
      vertex 0 20 -5
    endloop
  endfacet
  facet normal 1 0 0
    outer loop
      vertex 0 20 -10
      vertex 0 15 -5
      vertex 0 15 -10
    endloop
  endfacet
endsolid OpenSCAD_Model
