solid OpenSCAD_Model
  facet normal -1 0 0
    outer loop
      vertex 7 -39 0
      vertex 7 -44 0.2
      vertex 7 -39 0.2
    endloop
  endfacet
  facet normal -1 0 0
    outer loop
      vertex 7 -49 0
      vertex 7 -44 0.2
      vertex 7 -39 0
    endloop
  endfacet
  facet normal -1 -0 0
    outer loop
      vertex 7 -44 0.2
      vertex 7 -49 0
      vertex 7 -49 0.2
    endloop
  endfacet
  facet normal -1 0 0
    outer loop
      vertex 7 -39 0.2
      vertex 7 -37 0.4
      vertex 7 -37 0.2
    endloop
  endfacet
  facet normal -1 0 0
    outer loop
      vertex 7 -44 0.4
      vertex 7 -39 0.2
      vertex 7 -44 0.2
    endloop
  endfacet
  facet normal -1 0 0
    outer loop
      vertex 7 -39 0.2
      vertex 7 -44 0.4
      vertex 7 -37 0.4
    endloop
  endfacet
  facet normal 0 0 1
    outer loop
      vertex 51 -37 0.2
      vertex 49 -39 0.2
      vertex 51 -49 0.2
    endloop
  endfacet
  facet normal 0 0 1
    outer loop
      vertex 51 -37 0.2
      vertex 46.8 -39 0.2
      vertex 49 -39 0.2
    endloop
  endfacet
  facet normal 0 0 1
    outer loop
      vertex 46.8 -39 0.2
      vertex 44.8 -39 0.2
      vertex 46.8 -49 0.2
    endloop
  endfacet
  facet normal 0 0 1
    outer loop
      vertex 51 -37 0.2
      vertex 44.8 -39 0.2
      vertex 46.8 -39 0.2
    endloop
  endfacet
  facet normal 0 0 1
    outer loop
      vertex 51 -37 0.2
      vertex 42.6 -39 0.2
      vertex 44.8 -39 0.2
    endloop
  endfacet
  facet normal 0 0 1
    outer loop
      vertex 42.6 -39 0.2
      vertex 40.6 -39 0.2
      vertex 42.6 -49 0.2
    endloop
  endfacet
  facet normal 0 0 1
    outer loop
      vertex 51 -37 0.2
      vertex 40.6 -39 0.2
      vertex 42.6 -39 0.2
    endloop
  endfacet
  facet normal 0 0 1
    outer loop
      vertex 51 -37 0.2
      vertex 38.4 -39 0.2
      vertex 40.6 -39 0.2
    endloop
  endfacet
  facet normal 0 0 1
    outer loop
      vertex 38.4 -39 0.2
      vertex 36.4 -39 0.2
      vertex 38.4 -49 0.2
    endloop
  endfacet
  facet normal 0 0 1
    outer loop
      vertex 51 -37 0.2
      vertex 36.4 -39 0.2
      vertex 38.4 -39 0.2
    endloop
  endfacet
  facet normal 0 0 1
    outer loop
      vertex 51 -37 0.2
      vertex 34.2 -39 0.2
      vertex 36.4 -39 0.2
    endloop
  endfacet
  facet normal 0 0 1
    outer loop
      vertex 34.2 -39 0.2
      vertex 32.2 -39 0.2
      vertex 34.2 -49 0.2
    endloop
  endfacet
  facet normal 0 0 1
    outer loop
      vertex 51 -37 0.2
      vertex 32.2 -39 0.2
      vertex 34.2 -39 0.2
    endloop
  endfacet
  facet normal 0 0 1
    outer loop
      vertex 51 -37 0.2
      vertex 30 -39 0.2
      vertex 32.2 -39 0.2
    endloop
  endfacet
  facet normal 0 0 1
    outer loop
      vertex 30 -39 0.2
      vertex 28 -39 0.2
      vertex 30 -49 0.2
    endloop
  endfacet
  facet normal 0 0 1
    outer loop
      vertex 51 -37 0.2
      vertex 28 -39 0.2
      vertex 30 -39 0.2
    endloop
  endfacet
  facet normal -0 0 1
    outer loop
      vertex 9 -37 0.2
      vertex 28 -39 0.2
      vertex 51 -37 0.2
    endloop
  endfacet
  facet normal 0 0 1
    outer loop
      vertex 25.8 -39 0.2
      vertex 23.8 -39 0.2
      vertex 25.8 -49 0.2
    endloop
  endfacet
  facet normal 0 0 1
    outer loop
      vertex 28 -39 0.2
      vertex 9 -37 0.2
      vertex 25.8 -39 0.2
    endloop
  endfacet
  facet normal 0 0 1
    outer loop
      vertex 25.8 -39 0.2
      vertex 9 -37 0.2
      vertex 23.8 -39 0.2
    endloop
  endfacet
  facet normal 0 0 1
    outer loop
      vertex 21.6 -39 0.2
      vertex 19.6 -39 0.2
      vertex 21.6 -49 0.2
    endloop
  endfacet
  facet normal 0 0 1
    outer loop
      vertex 23.8 -39 0.2
      vertex 9 -37 0.2
      vertex 21.6 -39 0.2
    endloop
  endfacet
  facet normal 0 0 1
    outer loop
      vertex 21.6 -39 0.2
      vertex 9 -37 0.2
      vertex 19.6 -39 0.2
    endloop
  endfacet
  facet normal 0 0 1
    outer loop
      vertex 17.4 -39 0.2
      vertex 15.4 -39 0.2
      vertex 17.4 -49 0.2
    endloop
  endfacet
  facet normal 0 0 1
    outer loop
      vertex 19.6 -39 0.2
      vertex 9 -37 0.2
      vertex 17.4 -39 0.2
    endloop
  endfacet
  facet normal 0 0 1
    outer loop
      vertex 17.4 -39 0.2
      vertex 9 -37 0.2
      vertex 15.4 -39 0.2
    endloop
  endfacet
  facet normal 0 0 1
    outer loop
      vertex 13.2 -39 0.2
      vertex 11.2 -39 0.2
      vertex 13.2 -49 0.2
    endloop
  endfacet
  facet normal 0 0 1
    outer loop
      vertex 15.4 -39 0.2
      vertex 9 -37 0.2
      vertex 13.2 -39 0.2
    endloop
  endfacet
  facet normal 0 0 1
    outer loop
      vertex 13.2 -39 0.2
      vertex 9 -37 0.2
      vertex 11.2 -39 0.2
    endloop
  endfacet
  facet normal 0 0 1
    outer loop
      vertex 11.2 -39 0.2
      vertex 9 -37 0.2
      vertex 9 -39 0.2
    endloop
  endfacet
  facet normal 0 0 1
    outer loop
      vertex 51 -49 0.2
      vertex 49 -39 0.2
      vertex 49 -49 0.2
    endloop
  endfacet
  facet normal 0 0 1
    outer loop
      vertex 46.8 -49 0.2
      vertex 44.8 -39 0.2
      vertex 44.8 -49 0.2
    endloop
  endfacet
  facet normal 0 0 1
    outer loop
      vertex 42.6 -49 0.2
      vertex 40.6 -39 0.2
      vertex 40.6 -49 0.2
    endloop
  endfacet
  facet normal 0 0 1
    outer loop
      vertex 38.4 -49 0.2
      vertex 36.4 -39 0.2
      vertex 36.4 -49 0.2
    endloop
  endfacet
  facet normal 0 0 1
    outer loop
      vertex 34.2 -49 0.2
      vertex 32.2 -39 0.2
      vertex 32.2 -49 0.2
    endloop
  endfacet
  facet normal 0 0 1
    outer loop
      vertex 30 -49 0.2
      vertex 28 -39 0.2
      vertex 28 -49 0.2
    endloop
  endfacet
  facet normal 0 0 1
    outer loop
      vertex 25.8 -49 0.2
      vertex 23.8 -39 0.2
      vertex 23.8 -49 0.2
    endloop
  endfacet
  facet normal 0 0 1
    outer loop
      vertex 21.6 -49 0.2
      vertex 19.6 -39 0.2
      vertex 19.6 -49 0.2
    endloop
  endfacet
  facet normal 0 0 1
    outer loop
      vertex 17.4 -49 0.2
      vertex 15.4 -39 0.2
      vertex 15.4 -49 0.2
    endloop
  endfacet
  facet normal 0 0 1
    outer loop
      vertex 13.2 -49 0.2
      vertex 11.2 -39 0.2
      vertex 11.2 -49 0.2
    endloop
  endfacet
  facet normal 0 0 1
    outer loop
      vertex 7 -37 0.2
      vertex 4.8 -39 0.2
      vertex 7 -39 0.2
    endloop
  endfacet
  facet normal 0 0 1
    outer loop
      vertex 4.8 -39 0.2
      vertex 2.8 -39 0.2
      vertex 4.8 -49 0.2
    endloop
  endfacet
  facet normal 0 0 1
    outer loop
      vertex 7 -37 0.2
      vertex 2.8 -39 0.2
      vertex 4.8 -39 0.2
    endloop
  endfacet
  facet normal 0 0 1
    outer loop
      vertex 7 -37 0.2
      vertex 0.599999 -39 0.2
      vertex 2.8 -39 0.2
    endloop
  endfacet
  facet normal 0 0 1
    outer loop
      vertex 0.599999 -39 0.2
      vertex -1.4 -39 0.2
      vertex 0.599999 -49 0.2
    endloop
  endfacet
  facet normal 0 0 1
    outer loop
      vertex 7 -37 0.2
      vertex -1.4 -39 0.2
      vertex 0.599999 -39 0.2
    endloop
  endfacet
  facet normal 0 0 1
    outer loop
      vertex 7 -37 0.2
      vertex -3.6 -39 0.2
      vertex -1.4 -39 0.2
    endloop
  endfacet
  facet normal 0 0 1
    outer loop
      vertex -3.6 -39 0.2
      vertex -5.6 -39 0.2
      vertex -3.6 -49 0.2
    endloop
  endfacet
  facet normal 0 0 1
    outer loop
      vertex 7 -37 0.2
      vertex -5.6 -39 0.2
      vertex -3.6 -39 0.2
    endloop
  endfacet
  facet normal 0 0 1
    outer loop
      vertex 7 -37 0.2
      vertex -7.8 -39 0.2
      vertex -5.6 -39 0.2
    endloop
  endfacet
  facet normal 0 0 1
    outer loop
      vertex -7.8 -39 0.2
      vertex -9.8 -39 0.2
      vertex -7.8 -49 0.2
    endloop
  endfacet
  facet normal 0 0 1
    outer loop
      vertex 7 -37 0.2
      vertex -9.8 -39 0.2
      vertex -7.8 -39 0.2
    endloop
  endfacet
  facet normal 0 0 1
    outer loop
      vertex 7 -37 0.2
      vertex -12 -39 0.2
      vertex -9.8 -39 0.2
    endloop
  endfacet
  facet normal 0 0 1
    outer loop
      vertex -12 -39 0.2
      vertex -14 -39 0.2
      vertex -12 -49 0.2
    endloop
  endfacet
  facet normal 0 0 1
    outer loop
      vertex 7 -37 0.2
      vertex -14 -39 0.2
      vertex -12 -39 0.2
    endloop
  endfacet
  facet normal -0 0 1
    outer loop
      vertex -35 -37 0.2
      vertex -14 -39 0.2
      vertex 7 -37 0.2
    endloop
  endfacet
  facet normal 0 0 1
    outer loop
      vertex -16.2 -39 0.2
      vertex -18.2 -39 0.2
      vertex -16.2 -49 0.2
    endloop
  endfacet
  facet normal 0 0 1
    outer loop
      vertex -14 -39 0.2
      vertex -35 -37 0.2
      vertex -16.2 -39 0.2
    endloop
  endfacet
  facet normal 0 0 1
    outer loop
      vertex -16.2 -39 0.2
      vertex -35 -37 0.2
      vertex -18.2 -39 0.2
    endloop
  endfacet
  facet normal 0 0 1
    outer loop
      vertex -20.4 -39 0.2
      vertex -22.4 -39 0.2
      vertex -20.4 -49 0.2
    endloop
  endfacet
  facet normal 0 0 1
    outer loop
      vertex -18.2 -39 0.2
      vertex -35 -37 0.2
      vertex -20.4 -39 0.2
    endloop
  endfacet
  facet normal 0 0 1
    outer loop
      vertex -20.4 -39 0.2
      vertex -35 -37 0.2
      vertex -22.4 -39 0.2
    endloop
  endfacet
  facet normal 0 0 1
    outer loop
      vertex -24.6 -39 0.2
      vertex -26.6 -39 0.2
      vertex -24.6 -49 0.2
    endloop
  endfacet
  facet normal 0 0 1
    outer loop
      vertex -22.4 -39 0.2
      vertex -35 -37 0.2
      vertex -24.6 -39 0.2
    endloop
  endfacet
  facet normal 0 0 1
    outer loop
      vertex -24.6 -39 0.2
      vertex -35 -37 0.2
      vertex -26.6 -39 0.2
    endloop
  endfacet
  facet normal 0 0 1
    outer loop
      vertex -28.8 -39 0.2
      vertex -30.8 -39 0.2
      vertex -28.8 -49 0.2
    endloop
  endfacet
  facet normal 0 0 1
    outer loop
      vertex -26.6 -39 0.2
      vertex -35 -37 0.2
      vertex -28.8 -39 0.2
    endloop
  endfacet
  facet normal 0 0 1
    outer loop
      vertex -28.8 -39 0.2
      vertex -35 -37 0.2
      vertex -30.8 -39 0.2
    endloop
  endfacet
  facet normal 0 0 1
    outer loop
      vertex -30.8 -39 0.2
      vertex -35 -37 0.2
      vertex -33 -39 0.2
    endloop
  endfacet
  facet normal 0 0 1
    outer loop
      vertex -35 -49 0.2
      vertex -33 -39 0.2
      vertex -35 -37 0.2
    endloop
  endfacet
  facet normal 0 0 1
    outer loop
      vertex -33 -39 0.2
      vertex -35 -49 0.2
      vertex -33 -49 0.2
    endloop
  endfacet
  facet normal 0 0 1
    outer loop
      vertex 4.8 -49 0.2
      vertex 2.8 -39 0.2
      vertex 2.8 -49 0.2
    endloop
  endfacet
  facet normal 0 0 1
    outer loop
      vertex 0.599999 -49 0.2
      vertex -1.4 -39 0.2
      vertex -1.4 -49 0.2
    endloop
  endfacet
  facet normal 0 0 1
    outer loop
      vertex -3.6 -49 0.2
      vertex -5.6 -39 0.2
      vertex -5.6 -49 0.2
    endloop
  endfacet
  facet normal 0 0 1
    outer loop
      vertex -7.8 -49 0.2
      vertex -9.8 -39 0.2
      vertex -9.8 -49 0.2
    endloop
  endfacet
  facet normal 0 0 1
    outer loop
      vertex -12 -49 0.2
      vertex -14 -39 0.2
      vertex -14 -49 0.2
    endloop
  endfacet
  facet normal 0 0 1
    outer loop
      vertex -16.2 -49 0.2
      vertex -18.2 -39 0.2
      vertex -18.2 -49 0.2
    endloop
  endfacet
  facet normal 0 0 1
    outer loop
      vertex -20.4 -49 0.2
      vertex -22.4 -39 0.2
      vertex -22.4 -49 0.2
    endloop
  endfacet
  facet normal 0 0 1
    outer loop
      vertex -24.6 -49 0.2
      vertex -26.6 -39 0.2
      vertex -26.6 -49 0.2
    endloop
  endfacet
  facet normal 0 0 1
    outer loop
      vertex -28.8 -49 0.2
      vertex -30.8 -39 0.2
      vertex -30.8 -49 0.2
    endloop
  endfacet
  facet normal -0 0 1
    outer loop
      vertex 7 -44 0.2
      vertex 9 -49 0.2
      vertex 9 -44 0.2
    endloop
  endfacet
  facet normal 0 0 1
    outer loop
      vertex 9 -49 0.2
      vertex 7 -44 0.2
      vertex 7 -49 0.2
    endloop
  endfacet
  facet normal 1 0 0
    outer loop
      vertex 9 -37 0.4
      vertex 9 -39 0.2
      vertex 9 -37 0.2
    endloop
  endfacet
  facet normal 1 -0 0
    outer loop
      vertex 9 -44 0.4
      vertex 9 -39 0.2
      vertex 9 -37 0.4
    endloop
  endfacet
  facet normal 1 0 0
    outer loop
      vertex 9 -44 0.2
      vertex 9 -39 0.2
      vertex 9 -44 0.4
    endloop
  endfacet
  facet normal 1 0 0
    outer loop
      vertex 9 -39 0.2
      vertex 9 -44 0.2
      vertex 9 -39 0
    endloop
  endfacet
  facet normal 1 0 0
    outer loop
      vertex 9 -49 0
      vertex 9 -44 0.2
      vertex 9 -49 0.2
    endloop
  endfacet
  facet normal 1 0 0
    outer loop
      vertex 9 -44 0.2
      vertex 9 -49 0
      vertex 9 -39 0
    endloop
  endfacet
  facet normal 0 -1 0
    outer loop
      vertex 7 -49 0
      vertex 9 -49 0.2
      vertex 7 -49 0.2
    endloop
  endfacet
  facet normal 0 -1 -0
    outer loop
      vertex 9 -49 0.2
      vertex 7 -49 0
      vertex 9 -49 0
    endloop
  endfacet
  facet normal 0 0 -1
    outer loop
      vertex -33 -49 0
      vertex -35 -49 0
      vertex -33 -39 0
    endloop
  endfacet
  facet normal 0 0 -1
    outer loop
      vertex -28.8 -49 0
      vertex -30.8 -49 0
      vertex -28.8 -39 0
    endloop
  endfacet
  facet normal 0 0 -1
    outer loop
      vertex -24.6 -49 0
      vertex -26.6 -49 0
      vertex -24.6 -39 0
    endloop
  endfacet
  facet normal 0 0 -1
    outer loop
      vertex -20.4 -49 0
      vertex -22.4 -49 0
      vertex -20.4 -39 0
    endloop
  endfacet
  facet normal 0 0 -1
    outer loop
      vertex -16.2 -49 0
      vertex -18.2 -49 0
      vertex -16.2 -39 0
    endloop
  endfacet
  facet normal 0 0 -1
    outer loop
      vertex -12 -49 0
      vertex -14 -49 0
      vertex -12 -39 0
    endloop
  endfacet
  facet normal 0 0 -1
    outer loop
      vertex -7.8 -49 0
      vertex -9.8 -49 0
      vertex -7.8 -39 0
    endloop
  endfacet
  facet normal 0 0 -1
    outer loop
      vertex -3.6 -49 0
      vertex -5.6 -49 0
      vertex -3.6 -39 0
    endloop
  endfacet
  facet normal 0 0 -1
    outer loop
      vertex 0.599999 -49 0
      vertex -1.4 -49 0
      vertex 0.599999 -39 0
    endloop
  endfacet
  facet normal 0 0 -1
    outer loop
      vertex 4.8 -49 0
      vertex 2.8 -49 0
      vertex 4.8 -39 0
    endloop
  endfacet
  facet normal 0 0 -1
    outer loop
      vertex 9 -49 0
      vertex 7 -49 0
      vertex 9 -39 0
    endloop
  endfacet
  facet normal 0 0 -1
    outer loop
      vertex 13.2 -49 0
      vertex 11.2 -49 0
      vertex 13.2 -39 0
    endloop
  endfacet
  facet normal 0 0 -1
    outer loop
      vertex 17.4 -49 0
      vertex 15.4 -49 0
      vertex 17.4 -39 0
    endloop
  endfacet
  facet normal 0 0 -1
    outer loop
      vertex 21.6 -49 0
      vertex 19.6 -49 0
      vertex 21.6 -39 0
    endloop
  endfacet
  facet normal 0 0 -1
    outer loop
      vertex 25.8 -49 0
      vertex 23.8 -49 0
      vertex 25.8 -39 0
    endloop
  endfacet
  facet normal 0 0 -1
    outer loop
      vertex 30 -49 0
      vertex 28 -49 0
      vertex 30 -39 0
    endloop
  endfacet
  facet normal 0 0 -1
    outer loop
      vertex 34.2 -49 0
      vertex 32.2 -49 0
      vertex 34.2 -39 0
    endloop
  endfacet
  facet normal 0 0 -1
    outer loop
      vertex 38.4 -49 0
      vertex 36.4 -49 0
      vertex 38.4 -39 0
    endloop
  endfacet
  facet normal 0 0 -1
    outer loop
      vertex 42.6 -49 0
      vertex 40.6 -49 0
      vertex 42.6 -39 0
    endloop
  endfacet
  facet normal 0 0 -1
    outer loop
      vertex 46.8 -49 0
      vertex 44.8 -49 0
      vertex 46.8 -39 0
    endloop
  endfacet
  facet normal 0 0 -1
    outer loop
      vertex 49 -39 0
      vertex 51 -49 0
      vertex 49 -49 0
    endloop
  endfacet
  facet normal 0 0 -1
    outer loop
      vertex 51 -49 0
      vertex 49 -39 0
      vertex 51 -37 0
    endloop
  endfacet
  facet normal 0 0 -1
    outer loop
      vertex 46.8 -39 0
      vertex 51 -37 0
      vertex 49 -39 0
    endloop
  endfacet
  facet normal 0 0 -1
    outer loop
      vertex 44.8 -39 0
      vertex 46.8 -39 0
      vertex 44.8 -49 0
    endloop
  endfacet
  facet normal 0 0 -1
    outer loop
      vertex 44.8 -39 0
      vertex 51 -37 0
      vertex 46.8 -39 0
    endloop
  endfacet
  facet normal 0 0 -1
    outer loop
      vertex 42.6 -39 0
      vertex 51 -37 0
      vertex 44.8 -39 0
    endloop
  endfacet
  facet normal 0 0 -1
    outer loop
      vertex 40.6 -39 0
      vertex 42.6 -39 0
      vertex 40.6 -49 0
    endloop
  endfacet
  facet normal 0 0 -1
    outer loop
      vertex 40.6 -39 0
      vertex 51 -37 0
      vertex 42.6 -39 0
    endloop
  endfacet
  facet normal 0 0 -1
    outer loop
      vertex 38.4 -39 0
      vertex 51 -37 0
      vertex 40.6 -39 0
    endloop
  endfacet
  facet normal 0 0 -1
    outer loop
      vertex 36.4 -39 0
      vertex 38.4 -39 0
      vertex 36.4 -49 0
    endloop
  endfacet
  facet normal 0 0 -1
    outer loop
      vertex 36.4 -39 0
      vertex 51 -37 0
      vertex 38.4 -39 0
    endloop
  endfacet
  facet normal 0 0 -1
    outer loop
      vertex 34.2 -39 0
      vertex 51 -37 0
      vertex 36.4 -39 0
    endloop
  endfacet
  facet normal 0 0 -1
    outer loop
      vertex 32.2 -39 0
      vertex 34.2 -39 0
      vertex 32.2 -49 0
    endloop
  endfacet
  facet normal 0 0 -1
    outer loop
      vertex 32.2 -39 0
      vertex 51 -37 0
      vertex 34.2 -39 0
    endloop
  endfacet
  facet normal 0 0 -1
    outer loop
      vertex 30 -39 0
      vertex 51 -37 0
      vertex 32.2 -39 0
    endloop
  endfacet
  facet normal 0 0 -1
    outer loop
      vertex 28 -39 0
      vertex 30 -39 0
      vertex 28 -49 0
    endloop
  endfacet
  facet normal 0 0 -1
    outer loop
      vertex 28 -39 0
      vertex 51 -37 0
      vertex 30 -39 0
    endloop
  endfacet
  facet normal 0 0 -1
    outer loop
      vertex 25.8 -39 0
      vertex 51 -37 0
      vertex 28 -39 0
    endloop
  endfacet
  facet normal 0 0 -1
    outer loop
      vertex 23.8 -39 0
      vertex 25.8 -39 0
      vertex 23.8 -49 0
    endloop
  endfacet
  facet normal 0 0 -1
    outer loop
      vertex 23.8 -39 0
      vertex 51 -37 0
      vertex 25.8 -39 0
    endloop
  endfacet
  facet normal 0 0 -1
    outer loop
      vertex 21.6 -39 0
      vertex 51 -37 0
      vertex 23.8 -39 0
    endloop
  endfacet
  facet normal 0 0 -1
    outer loop
      vertex 19.6 -39 0
      vertex 21.6 -39 0
      vertex 19.6 -49 0
    endloop
  endfacet
  facet normal 0 0 -1
    outer loop
      vertex 19.6 -39 0
      vertex 51 -37 0
      vertex 21.6 -39 0
    endloop
  endfacet
  facet normal 0 0 -1
    outer loop
      vertex 17.4 -39 0
      vertex 51 -37 0
      vertex 19.6 -39 0
    endloop
  endfacet
  facet normal 0 0 -1
    outer loop
      vertex 15.4 -39 0
      vertex 17.4 -39 0
      vertex 15.4 -49 0
    endloop
  endfacet
  facet normal 0 0 -1
    outer loop
      vertex 15.4 -39 0
      vertex 51 -37 0
      vertex 17.4 -39 0
    endloop
  endfacet
  facet normal 0 0 -1
    outer loop
      vertex 13.2 -39 0
      vertex 51 -37 0
      vertex 15.4 -39 0
    endloop
  endfacet
  facet normal 0 0 -1
    outer loop
      vertex 11.2 -39 0
      vertex 13.2 -39 0
      vertex 11.2 -49 0
    endloop
  endfacet
  facet normal 0 0 -1
    outer loop
      vertex 11.2 -39 0
      vertex 51 -37 0
      vertex 13.2 -39 0
    endloop
  endfacet
  facet normal 0 0 -1
    outer loop
      vertex 9 -39 0
      vertex 51 -37 0
      vertex 11.2 -39 0
    endloop
  endfacet
  facet normal 0 0 -1
    outer loop
      vertex 7 -39 0
      vertex 9 -39 0
      vertex 7 -49 0
    endloop
  endfacet
  facet normal 0 0 -1
    outer loop
      vertex 7 -39 0
      vertex 51 -37 0
      vertex 9 -39 0
    endloop
  endfacet
  facet normal 0 0 -1
    outer loop
      vertex 4.8 -39 0
      vertex 51 -37 0
      vertex 7 -39 0
    endloop
  endfacet
  facet normal 0 0 -1
    outer loop
      vertex 2.8 -39 0
      vertex 4.8 -39 0
      vertex 2.8 -49 0
    endloop
  endfacet
  facet normal 0 0 -1
    outer loop
      vertex 2.8 -39 0
      vertex 51 -37 0
      vertex 4.8 -39 0
    endloop
  endfacet
  facet normal 0 0 -1
    outer loop
      vertex -35 -37 0
      vertex 2.8 -39 0
      vertex 0.599999 -39 0
    endloop
  endfacet
  facet normal 0 0 -1
    outer loop
      vertex -1.4 -39 0
      vertex 0.599999 -39 0
      vertex -1.4 -49 0
    endloop
  endfacet
  facet normal 0 0 -1
    outer loop
      vertex -35 -37 0
      vertex 0.599999 -39 0
      vertex -1.4 -39 0
    endloop
  endfacet
  facet normal 0 0 -1
    outer loop
      vertex -35 -37 0
      vertex -1.4 -39 0
      vertex -3.6 -39 0
    endloop
  endfacet
  facet normal 0 0 -1
    outer loop
      vertex -5.6 -39 0
      vertex -3.6 -39 0
      vertex -5.6 -49 0
    endloop
  endfacet
  facet normal 0 0 -1
    outer loop
      vertex -35 -37 0
      vertex -3.6 -39 0
      vertex -5.6 -39 0
    endloop
  endfacet
  facet normal 0 0 -1
    outer loop
      vertex -35 -37 0
      vertex -5.6 -39 0
      vertex -7.8 -39 0
    endloop
  endfacet
  facet normal 0 0 -1
    outer loop
      vertex -9.8 -39 0
      vertex -7.8 -39 0
      vertex -9.8 -49 0
    endloop
  endfacet
  facet normal 0 0 -1
    outer loop
      vertex -35 -37 0
      vertex -7.8 -39 0
      vertex -9.8 -39 0
    endloop
  endfacet
  facet normal 0 0 -1
    outer loop
      vertex -35 -37 0
      vertex -9.8 -39 0
      vertex -12 -39 0
    endloop
  endfacet
  facet normal 0 0 -1
    outer loop
      vertex -14 -39 0
      vertex -12 -39 0
      vertex -14 -49 0
    endloop
  endfacet
  facet normal 0 0 -1
    outer loop
      vertex -35 -37 0
      vertex -12 -39 0
      vertex -14 -39 0
    endloop
  endfacet
  facet normal 0 0 -1
    outer loop
      vertex -35 -37 0
      vertex -14 -39 0
      vertex -16.2 -39 0
    endloop
  endfacet
  facet normal 0 0 -1
    outer loop
      vertex -18.2 -39 0
      vertex -16.2 -39 0
      vertex -18.2 -49 0
    endloop
  endfacet
  facet normal 0 0 -1
    outer loop
      vertex -35 -37 0
      vertex -16.2 -39 0
      vertex -18.2 -39 0
    endloop
  endfacet
  facet normal 0 0 -1
    outer loop
      vertex -35 -37 0
      vertex -18.2 -39 0
      vertex -20.4 -39 0
    endloop
  endfacet
  facet normal 0 0 -1
    outer loop
      vertex -22.4 -39 0
      vertex -20.4 -39 0
      vertex -22.4 -49 0
    endloop
  endfacet
  facet normal 0 0 -1
    outer loop
      vertex -35 -37 0
      vertex -20.4 -39 0
      vertex -22.4 -39 0
    endloop
  endfacet
  facet normal 0 0 -1
    outer loop
      vertex -35 -37 0
      vertex -22.4 -39 0
      vertex -24.6 -39 0
    endloop
  endfacet
  facet normal 0 0 -1
    outer loop
      vertex -26.6 -39 0
      vertex -24.6 -39 0
      vertex -26.6 -49 0
    endloop
  endfacet
  facet normal 0 0 -1
    outer loop
      vertex -35 -37 0
      vertex -24.6 -39 0
      vertex -26.6 -39 0
    endloop
  endfacet
  facet normal 0 0 -1
    outer loop
      vertex -35 -37 0
      vertex -26.6 -39 0
      vertex -28.8 -39 0
    endloop
  endfacet
  facet normal 0 0 -1
    outer loop
      vertex -30.8 -39 0
      vertex -28.8 -39 0
      vertex -30.8 -49 0
    endloop
  endfacet
  facet normal 0 0 -1
    outer loop
      vertex -35 -37 0
      vertex -28.8 -39 0
      vertex -30.8 -39 0
    endloop
  endfacet
  facet normal 0 0 -1
    outer loop
      vertex -35 -37 0
      vertex -30.8 -39 0
      vertex -33 -39 0
    endloop
  endfacet
  facet normal 0 0 -1
    outer loop
      vertex 2.8 -39 0
      vertex -35 -37 0
      vertex 51 -37 0
    endloop
  endfacet
  facet normal 0 0 -1
    outer loop
      vertex -35 -37 0
      vertex -33 -39 0
      vertex -35 -49 0
    endloop
  endfacet
  facet normal 0 -1 0
    outer loop
      vertex 46.8 -39 0
      vertex 49 -39 0.2
      vertex 46.8 -39 0.2
    endloop
  endfacet
  facet normal 0 -1 -0
    outer loop
      vertex 49 -39 0.2
      vertex 46.8 -39 0
      vertex 49 -39 0
    endloop
  endfacet
  facet normal 0 -1 0
    outer loop
      vertex 42.6 -39 0
      vertex 44.8 -39 0.2
      vertex 42.6 -39 0.2
    endloop
  endfacet
  facet normal 0 -1 -0
    outer loop
      vertex 44.8 -39 0.2
      vertex 42.6 -39 0
      vertex 44.8 -39 0
    endloop
  endfacet
  facet normal 0 -1 0
    outer loop
      vertex 38.4 -39 0
      vertex 40.6 -39 0.2
      vertex 38.4 -39 0.2
    endloop
  endfacet
  facet normal 0 -1 -0
    outer loop
      vertex 40.6 -39 0.2
      vertex 38.4 -39 0
      vertex 40.6 -39 0
    endloop
  endfacet
  facet normal 0 -1 0
    outer loop
      vertex 34.2 -39 0
      vertex 36.4 -39 0.2
      vertex 34.2 -39 0.2
    endloop
  endfacet
  facet normal 0 -1 -0
    outer loop
      vertex 36.4 -39 0.2
      vertex 34.2 -39 0
      vertex 36.4 -39 0
    endloop
  endfacet
  facet normal 0 -1 0
    outer loop
      vertex 30 -39 0
      vertex 32.2 -39 0.2
      vertex 30 -39 0.2
    endloop
  endfacet
  facet normal 0 -1 -0
    outer loop
      vertex 32.2 -39 0.2
      vertex 30 -39 0
      vertex 32.2 -39 0
    endloop
  endfacet
  facet normal 0 -1 0
    outer loop
      vertex 25.8 -39 0
      vertex 28 -39 0.2
      vertex 25.8 -39 0.2
    endloop
  endfacet
  facet normal 0 -1 -0
    outer loop
      vertex 28 -39 0.2
      vertex 25.8 -39 0
      vertex 28 -39 0
    endloop
  endfacet
  facet normal 0 -1 0
    outer loop
      vertex 21.6 -39 0
      vertex 23.8 -39 0.2
      vertex 21.6 -39 0.2
    endloop
  endfacet
  facet normal 0 -1 -0
    outer loop
      vertex 23.8 -39 0.2
      vertex 21.6 -39 0
      vertex 23.8 -39 0
    endloop
  endfacet
  facet normal 0 -1 0
    outer loop
      vertex 17.4 -39 0
      vertex 19.6 -39 0.2
      vertex 17.4 -39 0.2
    endloop
  endfacet
  facet normal 0 -1 -0
    outer loop
      vertex 19.6 -39 0.2
      vertex 17.4 -39 0
      vertex 19.6 -39 0
    endloop
  endfacet
  facet normal 0 -1 0
    outer loop
      vertex 13.2 -39 0
      vertex 15.4 -39 0.2
      vertex 13.2 -39 0.2
    endloop
  endfacet
  facet normal 0 -1 -0
    outer loop
      vertex 15.4 -39 0.2
      vertex 13.2 -39 0
      vertex 15.4 -39 0
    endloop
  endfacet
  facet normal 0 -1 0
    outer loop
      vertex 9 -39 0
      vertex 11.2 -39 0.2
      vertex 9 -39 0.2
    endloop
  endfacet
  facet normal 0 -1 -0
    outer loop
      vertex 11.2 -39 0.2
      vertex 9 -39 0
      vertex 11.2 -39 0
    endloop
  endfacet
  facet normal 0 -1 0
    outer loop
      vertex 4.8 -39 0
      vertex 7 -39 0.2
      vertex 4.8 -39 0.2
    endloop
  endfacet
  facet normal 0 -1 -0
    outer loop
      vertex 7 -39 0.2
      vertex 4.8 -39 0
      vertex 7 -39 0
    endloop
  endfacet
  facet normal 0 -1 0
    outer loop
      vertex 0.599999 -39 0
      vertex 2.8 -39 0.2
      vertex 0.599999 -39 0.2
    endloop
  endfacet
  facet normal 0 -1 -0
    outer loop
      vertex 2.8 -39 0.2
      vertex 0.599999 -39 0
      vertex 2.8 -39 0
    endloop
  endfacet
  facet normal 0 -1 0
    outer loop
      vertex -3.6 -39 0
      vertex -1.4 -39 0.2
      vertex -3.6 -39 0.2
    endloop
  endfacet
  facet normal 0 -1 -0
    outer loop
      vertex -1.4 -39 0.2
      vertex -3.6 -39 0
      vertex -1.4 -39 0
    endloop
  endfacet
  facet normal 0 -1 0
    outer loop
      vertex -7.8 -39 0
      vertex -5.6 -39 0.2
      vertex -7.8 -39 0.2
    endloop
  endfacet
  facet normal 0 -1 -0
    outer loop
      vertex -5.6 -39 0.2
      vertex -7.8 -39 0
      vertex -5.6 -39 0
    endloop
  endfacet
  facet normal 0 -1 0
    outer loop
      vertex -12 -39 0
      vertex -9.8 -39 0.2
      vertex -12 -39 0.2
    endloop
  endfacet
  facet normal 0 -1 -0
    outer loop
      vertex -9.8 -39 0.2
      vertex -12 -39 0
      vertex -9.8 -39 0
    endloop
  endfacet
  facet normal 0 -1 0
    outer loop
      vertex -16.2 -39 0
      vertex -14 -39 0.2
      vertex -16.2 -39 0.2
    endloop
  endfacet
  facet normal 0 -1 -0
    outer loop
      vertex -14 -39 0.2
      vertex -16.2 -39 0
      vertex -14 -39 0
    endloop
  endfacet
  facet normal 0 -1 0
    outer loop
      vertex -20.4 -39 0
      vertex -18.2 -39 0.2
      vertex -20.4 -39 0.2
    endloop
  endfacet
  facet normal 0 -1 -0
    outer loop
      vertex -18.2 -39 0.2
      vertex -20.4 -39 0
      vertex -18.2 -39 0
    endloop
  endfacet
  facet normal 0 -1 0
    outer loop
      vertex -24.6 -39 0
      vertex -22.4 -39 0.2
      vertex -24.6 -39 0.2
    endloop
  endfacet
  facet normal 0 -1 -0
    outer loop
      vertex -22.4 -39 0.2
      vertex -24.6 -39 0
      vertex -22.4 -39 0
    endloop
  endfacet
  facet normal 0 -1 0
    outer loop
      vertex -28.8 -39 0
      vertex -26.6 -39 0.2
      vertex -28.8 -39 0.2
    endloop
  endfacet
  facet normal 0 -1 -0
    outer loop
      vertex -26.6 -39 0.2
      vertex -28.8 -39 0
      vertex -26.6 -39 0
    endloop
  endfacet
  facet normal 0 -1 0
    outer loop
      vertex -33 -39 0
      vertex -30.8 -39 0.2
      vertex -33 -39 0.2
    endloop
  endfacet
  facet normal 0 -1 -0
    outer loop
      vertex -30.8 -39 0.2
      vertex -33 -39 0
      vertex -30.8 -39 0
    endloop
  endfacet
  facet normal -0 0 1
    outer loop
      vertex 7 -37 0.4
      vertex 9 -44 0.4
      vertex 9 -37 0.4
    endloop
  endfacet
  facet normal 0 0 1
    outer loop
      vertex 9 -44 0.4
      vertex 7 -37 0.4
      vertex 7 -44 0.4
    endloop
  endfacet
  facet normal 0 1 -0
    outer loop
      vertex 51 -37 0
      vertex 9 -37 0.2
      vertex 51 -37 0.2
    endloop
  endfacet
  facet normal 0 1 0
    outer loop
      vertex 9 -37 0.2
      vertex 51 -37 0
      vertex 7 -37 0.2
    endloop
  endfacet
  facet normal 0 1 0
    outer loop
      vertex -35 -37 0
      vertex 7 -37 0.2
      vertex 51 -37 0
    endloop
  endfacet
  facet normal 0 1 0
    outer loop
      vertex 7 -37 0.2
      vertex -35 -37 0
      vertex -35 -37 0.2
    endloop
  endfacet
  facet normal 0 1 -0
    outer loop
      vertex 9 -37 0.2
      vertex 7 -37 0.4
      vertex 9 -37 0.4
    endloop
  endfacet
  facet normal 0 1 0
    outer loop
      vertex 7 -37 0.4
      vertex 9 -37 0.2
      vertex 7 -37 0.2
    endloop
  endfacet
  facet normal 0 -1 0
    outer loop
      vertex 7 -44 0.2
      vertex 9 -44 0.4
      vertex 7 -44 0.4
    endloop
  endfacet
  facet normal 0 -1 -0
    outer loop
      vertex 9 -44 0.4
      vertex 7 -44 0.2
      vertex 9 -44 0.2
    endloop
  endfacet
  facet normal -1 0 0
    outer loop
      vertex -35 -49 0
      vertex -35 -37 0.2
      vertex -35 -37 0
    endloop
  endfacet
  facet normal -1 -0 0
    outer loop
      vertex -35 -37 0.2
      vertex -35 -49 0
      vertex -35 -49 0.2
    endloop
  endfacet
  facet normal 1 -0 0
    outer loop
      vertex -33 -49 0.2
      vertex -33 -39 0
      vertex -33 -39 0.2
    endloop
  endfacet
  facet normal 1 0 0
    outer loop
      vertex -33 -39 0
      vertex -33 -49 0.2
      vertex -33 -49 0
    endloop
  endfacet
  facet normal 0 -1 0
    outer loop
      vertex -35 -49 0
      vertex -33 -49 0.2
      vertex -35 -49 0.2
    endloop
  endfacet
  facet normal 0 -1 -0
    outer loop
      vertex -33 -49 0.2
      vertex -35 -49 0
      vertex -33 -49 0
    endloop
  endfacet
  facet normal -1 0 0
    outer loop
      vertex -30.8 -49 0
      vertex -30.8 -39 0.2
      vertex -30.8 -39 0
    endloop
  endfacet
  facet normal -1 -0 0
    outer loop
      vertex -30.8 -39 0.2
      vertex -30.8 -49 0
      vertex -30.8 -49 0.2
    endloop
  endfacet
  facet normal 1 -0 0
    outer loop
      vertex -28.8 -49 0.2
      vertex -28.8 -39 0
      vertex -28.8 -39 0.2
    endloop
  endfacet
  facet normal 1 0 0
    outer loop
      vertex -28.8 -39 0
      vertex -28.8 -49 0.2
      vertex -28.8 -49 0
    endloop
  endfacet
  facet normal 0 -1 0
    outer loop
      vertex -30.8 -49 0
      vertex -28.8 -49 0.2
      vertex -30.8 -49 0.2
    endloop
  endfacet
  facet normal 0 -1 -0
    outer loop
      vertex -28.8 -49 0.2
      vertex -30.8 -49 0
      vertex -28.8 -49 0
    endloop
  endfacet
  facet normal -1 0 0
    outer loop
      vertex -26.6 -49 0
      vertex -26.6 -39 0.2
      vertex -26.6 -39 0
    endloop
  endfacet
  facet normal -1 -0 0
    outer loop
      vertex -26.6 -39 0.2
      vertex -26.6 -49 0
      vertex -26.6 -49 0.2
    endloop
  endfacet
  facet normal 1 -0 0
    outer loop
      vertex -24.6 -49 0.2
      vertex -24.6 -39 0
      vertex -24.6 -39 0.2
    endloop
  endfacet
  facet normal 1 0 0
    outer loop
      vertex -24.6 -39 0
      vertex -24.6 -49 0.2
      vertex -24.6 -49 0
    endloop
  endfacet
  facet normal 0 -1 0
    outer loop
      vertex -26.6 -49 0
      vertex -24.6 -49 0.2
      vertex -26.6 -49 0.2
    endloop
  endfacet
  facet normal 0 -1 -0
    outer loop
      vertex -24.6 -49 0.2
      vertex -26.6 -49 0
      vertex -24.6 -49 0
    endloop
  endfacet
  facet normal -1 0 0
    outer loop
      vertex -22.4 -49 0
      vertex -22.4 -39 0.2
      vertex -22.4 -39 0
    endloop
  endfacet
  facet normal -1 -0 0
    outer loop
      vertex -22.4 -39 0.2
      vertex -22.4 -49 0
      vertex -22.4 -49 0.2
    endloop
  endfacet
  facet normal 1 -0 0
    outer loop
      vertex -20.4 -49 0.2
      vertex -20.4 -39 0
      vertex -20.4 -39 0.2
    endloop
  endfacet
  facet normal 1 0 0
    outer loop
      vertex -20.4 -39 0
      vertex -20.4 -49 0.2
      vertex -20.4 -49 0
    endloop
  endfacet
  facet normal 0 -1 0
    outer loop
      vertex -22.4 -49 0
      vertex -20.4 -49 0.2
      vertex -22.4 -49 0.2
    endloop
  endfacet
  facet normal 0 -1 -0
    outer loop
      vertex -20.4 -49 0.2
      vertex -22.4 -49 0
      vertex -20.4 -49 0
    endloop
  endfacet
  facet normal -1 0 0
    outer loop
      vertex -18.2 -49 0
      vertex -18.2 -39 0.2
      vertex -18.2 -39 0
    endloop
  endfacet
  facet normal -1 -0 0
    outer loop
      vertex -18.2 -39 0.2
      vertex -18.2 -49 0
      vertex -18.2 -49 0.2
    endloop
  endfacet
  facet normal 1 -0 0
    outer loop
      vertex -16.2 -49 0.2
      vertex -16.2 -39 0
      vertex -16.2 -39 0.2
    endloop
  endfacet
  facet normal 1 0 0
    outer loop
      vertex -16.2 -39 0
      vertex -16.2 -49 0.2
      vertex -16.2 -49 0
    endloop
  endfacet
  facet normal 0 -1 0
    outer loop
      vertex -18.2 -49 0
      vertex -16.2 -49 0.2
      vertex -18.2 -49 0.2
    endloop
  endfacet
  facet normal 0 -1 -0
    outer loop
      vertex -16.2 -49 0.2
      vertex -18.2 -49 0
      vertex -16.2 -49 0
    endloop
  endfacet
  facet normal -1 0 0
    outer loop
      vertex -14 -49 0
      vertex -14 -39 0.2
      vertex -14 -39 0
    endloop
  endfacet
  facet normal -1 -0 0
    outer loop
      vertex -14 -39 0.2
      vertex -14 -49 0
      vertex -14 -49 0.2
    endloop
  endfacet
  facet normal 1 -0 0
    outer loop
      vertex -12 -49 0.2
      vertex -12 -39 0
      vertex -12 -39 0.2
    endloop
  endfacet
  facet normal 1 0 0
    outer loop
      vertex -12 -39 0
      vertex -12 -49 0.2
      vertex -12 -49 0
    endloop
  endfacet
  facet normal 0 -1 0
    outer loop
      vertex -14 -49 0
      vertex -12 -49 0.2
      vertex -14 -49 0.2
    endloop
  endfacet
  facet normal 0 -1 -0
    outer loop
      vertex -12 -49 0.2
      vertex -14 -49 0
      vertex -12 -49 0
    endloop
  endfacet
  facet normal -1 0 0
    outer loop
      vertex -9.8 -49 0
      vertex -9.8 -39 0.2
      vertex -9.8 -39 0
    endloop
  endfacet
  facet normal -1 -0 0
    outer loop
      vertex -9.8 -39 0.2
      vertex -9.8 -49 0
      vertex -9.8 -49 0.2
    endloop
  endfacet
  facet normal 1 -0 0
    outer loop
      vertex -7.8 -49 0.2
      vertex -7.8 -39 0
      vertex -7.8 -39 0.2
    endloop
  endfacet
  facet normal 1 0 0
    outer loop
      vertex -7.8 -39 0
      vertex -7.8 -49 0.2
      vertex -7.8 -49 0
    endloop
  endfacet
  facet normal 0 -1 0
    outer loop
      vertex -9.8 -49 0
      vertex -7.8 -49 0.2
      vertex -9.8 -49 0.2
    endloop
  endfacet
  facet normal 0 -1 -0
    outer loop
      vertex -7.8 -49 0.2
      vertex -9.8 -49 0
      vertex -7.8 -49 0
    endloop
  endfacet
  facet normal -1 0 0
    outer loop
      vertex -5.6 -49 0
      vertex -5.6 -39 0.2
      vertex -5.6 -39 0
    endloop
  endfacet
  facet normal -1 -0 0
    outer loop
      vertex -5.6 -39 0.2
      vertex -5.6 -49 0
      vertex -5.6 -49 0.2
    endloop
  endfacet
  facet normal 1 -0 0
    outer loop
      vertex -3.6 -49 0.2
      vertex -3.6 -39 0
      vertex -3.6 -39 0.2
    endloop
  endfacet
  facet normal 1 0 0
    outer loop
      vertex -3.6 -39 0
      vertex -3.6 -49 0.2
      vertex -3.6 -49 0
    endloop
  endfacet
  facet normal 0 -1 0
    outer loop
      vertex -5.6 -49 0
      vertex -3.6 -49 0.2
      vertex -5.6 -49 0.2
    endloop
  endfacet
  facet normal 0 -1 -0
    outer loop
      vertex -3.6 -49 0.2
      vertex -5.6 -49 0
      vertex -3.6 -49 0
    endloop
  endfacet
  facet normal -1 0 0
    outer loop
      vertex -1.4 -49 0
      vertex -1.4 -39 0.2
      vertex -1.4 -39 0
    endloop
  endfacet
  facet normal -1 -0 0
    outer loop
      vertex -1.4 -39 0.2
      vertex -1.4 -49 0
      vertex -1.4 -49 0.2
    endloop
  endfacet
  facet normal 1 -0 0
    outer loop
      vertex 0.599999 -49 0.2
      vertex 0.599999 -39 0
      vertex 0.599999 -39 0.2
    endloop
  endfacet
  facet normal 1 0 0
    outer loop
      vertex 0.599999 -39 0
      vertex 0.599999 -49 0.2
      vertex 0.599999 -49 0
    endloop
  endfacet
  facet normal 0 -1 0
    outer loop
      vertex -1.4 -49 0
      vertex 0.599999 -49 0.2
      vertex -1.4 -49 0.2
    endloop
  endfacet
  facet normal 0 -1 -0
    outer loop
      vertex 0.599999 -49 0.2
      vertex -1.4 -49 0
      vertex 0.599999 -49 0
    endloop
  endfacet
  facet normal -1 0 0
    outer loop
      vertex 2.8 -49 0
      vertex 2.8 -39 0.2
      vertex 2.8 -39 0
    endloop
  endfacet
  facet normal -1 -0 0
    outer loop
      vertex 2.8 -39 0.2
      vertex 2.8 -49 0
      vertex 2.8 -49 0.2
    endloop
  endfacet
  facet normal 1 -0 0
    outer loop
      vertex 4.8 -49 0.2
      vertex 4.8 -39 0
      vertex 4.8 -39 0.2
    endloop
  endfacet
  facet normal 1 0 0
    outer loop
      vertex 4.8 -39 0
      vertex 4.8 -49 0.2
      vertex 4.8 -49 0
    endloop
  endfacet
  facet normal 0 -1 0
    outer loop
      vertex 2.8 -49 0
      vertex 4.8 -49 0.2
      vertex 2.8 -49 0.2
    endloop
  endfacet
  facet normal 0 -1 -0
    outer loop
      vertex 4.8 -49 0.2
      vertex 2.8 -49 0
      vertex 4.8 -49 0
    endloop
  endfacet
  facet normal -1 0 0
    outer loop
      vertex 11.2 -49 0
      vertex 11.2 -39 0.2
      vertex 11.2 -39 0
    endloop
  endfacet
  facet normal -1 -0 0
    outer loop
      vertex 11.2 -39 0.2
      vertex 11.2 -49 0
      vertex 11.2 -49 0.2
    endloop
  endfacet
  facet normal 1 -0 0
    outer loop
      vertex 13.2 -49 0.2
      vertex 13.2 -39 0
      vertex 13.2 -39 0.2
    endloop
  endfacet
  facet normal 1 0 0
    outer loop
      vertex 13.2 -39 0
      vertex 13.2 -49 0.2
      vertex 13.2 -49 0
    endloop
  endfacet
  facet normal 0 -1 0
    outer loop
      vertex 11.2 -49 0
      vertex 13.2 -49 0.2
      vertex 11.2 -49 0.2
    endloop
  endfacet
  facet normal 0 -1 -0
    outer loop
      vertex 13.2 -49 0.2
      vertex 11.2 -49 0
      vertex 13.2 -49 0
    endloop
  endfacet
  facet normal -1 0 0
    outer loop
      vertex 15.4 -49 0
      vertex 15.4 -39 0.2
      vertex 15.4 -39 0
    endloop
  endfacet
  facet normal -1 -0 0
    outer loop
      vertex 15.4 -39 0.2
      vertex 15.4 -49 0
      vertex 15.4 -49 0.2
    endloop
  endfacet
  facet normal 1 -0 0
    outer loop
      vertex 17.4 -49 0.2
      vertex 17.4 -39 0
      vertex 17.4 -39 0.2
    endloop
  endfacet
  facet normal 1 0 0
    outer loop
      vertex 17.4 -39 0
      vertex 17.4 -49 0.2
      vertex 17.4 -49 0
    endloop
  endfacet
  facet normal 0 -1 0
    outer loop
      vertex 15.4 -49 0
      vertex 17.4 -49 0.2
      vertex 15.4 -49 0.2
    endloop
  endfacet
  facet normal 0 -1 -0
    outer loop
      vertex 17.4 -49 0.2
      vertex 15.4 -49 0
      vertex 17.4 -49 0
    endloop
  endfacet
  facet normal -1 0 0
    outer loop
      vertex 19.6 -49 0
      vertex 19.6 -39 0.2
      vertex 19.6 -39 0
    endloop
  endfacet
  facet normal -1 -0 0
    outer loop
      vertex 19.6 -39 0.2
      vertex 19.6 -49 0
      vertex 19.6 -49 0.2
    endloop
  endfacet
  facet normal 1 -0 0
    outer loop
      vertex 21.6 -49 0.2
      vertex 21.6 -39 0
      vertex 21.6 -39 0.2
    endloop
  endfacet
  facet normal 1 0 0
    outer loop
      vertex 21.6 -39 0
      vertex 21.6 -49 0.2
      vertex 21.6 -49 0
    endloop
  endfacet
  facet normal 0 -1 0
    outer loop
      vertex 19.6 -49 0
      vertex 21.6 -49 0.2
      vertex 19.6 -49 0.2
    endloop
  endfacet
  facet normal 0 -1 -0
    outer loop
      vertex 21.6 -49 0.2
      vertex 19.6 -49 0
      vertex 21.6 -49 0
    endloop
  endfacet
  facet normal -1 0 0
    outer loop
      vertex 23.8 -49 0
      vertex 23.8 -39 0.2
      vertex 23.8 -39 0
    endloop
  endfacet
  facet normal -1 -0 0
    outer loop
      vertex 23.8 -39 0.2
      vertex 23.8 -49 0
      vertex 23.8 -49 0.2
    endloop
  endfacet
  facet normal 1 -0 0
    outer loop
      vertex 25.8 -49 0.2
      vertex 25.8 -39 0
      vertex 25.8 -39 0.2
    endloop
  endfacet
  facet normal 1 0 0
    outer loop
      vertex 25.8 -39 0
      vertex 25.8 -49 0.2
      vertex 25.8 -49 0
    endloop
  endfacet
  facet normal 0 -1 0
    outer loop
      vertex 23.8 -49 0
      vertex 25.8 -49 0.2
      vertex 23.8 -49 0.2
    endloop
  endfacet
  facet normal 0 -1 -0
    outer loop
      vertex 25.8 -49 0.2
      vertex 23.8 -49 0
      vertex 25.8 -49 0
    endloop
  endfacet
  facet normal -1 0 0
    outer loop
      vertex 28 -49 0
      vertex 28 -39 0.2
      vertex 28 -39 0
    endloop
  endfacet
  facet normal -1 -0 0
    outer loop
      vertex 28 -39 0.2
      vertex 28 -49 0
      vertex 28 -49 0.2
    endloop
  endfacet
  facet normal 1 -0 0
    outer loop
      vertex 30 -49 0.2
      vertex 30 -39 0
      vertex 30 -39 0.2
    endloop
  endfacet
  facet normal 1 0 0
    outer loop
      vertex 30 -39 0
      vertex 30 -49 0.2
      vertex 30 -49 0
    endloop
  endfacet
  facet normal 0 -1 0
    outer loop
      vertex 28 -49 0
      vertex 30 -49 0.2
      vertex 28 -49 0.2
    endloop
  endfacet
  facet normal 0 -1 -0
    outer loop
      vertex 30 -49 0.2
      vertex 28 -49 0
      vertex 30 -49 0
    endloop
  endfacet
  facet normal -1 0 0
    outer loop
      vertex 32.2 -49 0
      vertex 32.2 -39 0.2
      vertex 32.2 -39 0
    endloop
  endfacet
  facet normal -1 -0 0
    outer loop
      vertex 32.2 -39 0.2
      vertex 32.2 -49 0
      vertex 32.2 -49 0.2
    endloop
  endfacet
  facet normal 1 -0 0
    outer loop
      vertex 34.2 -49 0.2
      vertex 34.2 -39 0
      vertex 34.2 -39 0.2
    endloop
  endfacet
  facet normal 1 0 0
    outer loop
      vertex 34.2 -39 0
      vertex 34.2 -49 0.2
      vertex 34.2 -49 0
    endloop
  endfacet
  facet normal 0 -1 0
    outer loop
      vertex 32.2 -49 0
      vertex 34.2 -49 0.2
      vertex 32.2 -49 0.2
    endloop
  endfacet
  facet normal 0 -1 -0
    outer loop
      vertex 34.2 -49 0.2
      vertex 32.2 -49 0
      vertex 34.2 -49 0
    endloop
  endfacet
  facet normal -1 0 0
    outer loop
      vertex 36.4 -49 0
      vertex 36.4 -39 0.2
      vertex 36.4 -39 0
    endloop
  endfacet
  facet normal -1 -0 0
    outer loop
      vertex 36.4 -39 0.2
      vertex 36.4 -49 0
      vertex 36.4 -49 0.2
    endloop
  endfacet
  facet normal 1 -0 0
    outer loop
      vertex 38.4 -49 0.2
      vertex 38.4 -39 0
      vertex 38.4 -39 0.2
    endloop
  endfacet
  facet normal 1 0 0
    outer loop
      vertex 38.4 -39 0
      vertex 38.4 -49 0.2
      vertex 38.4 -49 0
    endloop
  endfacet
  facet normal 0 -1 0
    outer loop
      vertex 36.4 -49 0
      vertex 38.4 -49 0.2
      vertex 36.4 -49 0.2
    endloop
  endfacet
  facet normal 0 -1 -0
    outer loop
      vertex 38.4 -49 0.2
      vertex 36.4 -49 0
      vertex 38.4 -49 0
    endloop
  endfacet
  facet normal -1 0 0
    outer loop
      vertex 40.6 -49 0
      vertex 40.6 -39 0.2
      vertex 40.6 -39 0
    endloop
  endfacet
  facet normal -1 -0 0
    outer loop
      vertex 40.6 -39 0.2
      vertex 40.6 -49 0
      vertex 40.6 -49 0.2
    endloop
  endfacet
  facet normal 1 -0 0
    outer loop
      vertex 42.6 -49 0.2
      vertex 42.6 -39 0
      vertex 42.6 -39 0.2
    endloop
  endfacet
  facet normal 1 0 0
    outer loop
      vertex 42.6 -39 0
      vertex 42.6 -49 0.2
      vertex 42.6 -49 0
    endloop
  endfacet
  facet normal 0 -1 0
    outer loop
      vertex 40.6 -49 0
      vertex 42.6 -49 0.2
      vertex 40.6 -49 0.2
    endloop
  endfacet
  facet normal 0 -1 -0
    outer loop
      vertex 42.6 -49 0.2
      vertex 40.6 -49 0
      vertex 42.6 -49 0
    endloop
  endfacet
  facet normal -1 0 0
    outer loop
      vertex 44.8 -49 0
      vertex 44.8 -39 0.2
      vertex 44.8 -39 0
    endloop
  endfacet
  facet normal -1 -0 0
    outer loop
      vertex 44.8 -39 0.2
      vertex 44.8 -49 0
      vertex 44.8 -49 0.2
    endloop
  endfacet
  facet normal 1 -0 0
    outer loop
      vertex 46.8 -49 0.2
      vertex 46.8 -39 0
      vertex 46.8 -39 0.2
    endloop
  endfacet
  facet normal 1 0 0
    outer loop
      vertex 46.8 -39 0
      vertex 46.8 -49 0.2
      vertex 46.8 -49 0
    endloop
  endfacet
  facet normal 0 -1 0
    outer loop
      vertex 44.8 -49 0
      vertex 46.8 -49 0.2
      vertex 44.8 -49 0.2
    endloop
  endfacet
  facet normal 0 -1 -0
    outer loop
      vertex 46.8 -49 0.2
      vertex 44.8 -49 0
      vertex 46.8 -49 0
    endloop
  endfacet
  facet normal -1 0 0
    outer loop
      vertex 49 -49 0
      vertex 49 -39 0.2
      vertex 49 -39 0
    endloop
  endfacet
  facet normal -1 -0 0
    outer loop
      vertex 49 -39 0.2
      vertex 49 -49 0
      vertex 49 -49 0.2
    endloop
  endfacet
  facet normal 1 -0 0
    outer loop
      vertex 51 -49 0.2
      vertex 51 -37 0
      vertex 51 -37 0.2
    endloop
  endfacet
  facet normal 1 0 0
    outer loop
      vertex 51 -37 0
      vertex 51 -49 0.2
      vertex 51 -49 0
    endloop
  endfacet
  facet normal 0 -1 0
    outer loop
      vertex 49 -49 0
      vertex 51 -49 0.2
      vertex 49 -49 0.2
    endloop
  endfacet
  facet normal 0 -1 -0
    outer loop
      vertex 51 -49 0.2
      vertex 49 -49 0
      vertex 51 -49 0
    endloop
  endfacet
  facet normal 0 -1 0
    outer loop
      vertex -61 -21 0.2
      vertex -63 -21 0.4
      vertex -63 -21 0.2
    endloop
  endfacet
  facet normal 0 -1 0
    outer loop
      vertex -63 -21 0.4
      vertex -61 -21 0.2
      vertex -56 -21 0.4
    endloop
  endfacet
  facet normal 0 -1 0
    outer loop
      vertex -61 -21 0.2
      vertex -56 -21 0.2
      vertex -56 -21 0.4
    endloop
  endfacet
  facet normal 0 -1 0
    outer loop
      vertex -61 -21 0
      vertex -56 -21 0.2
      vertex -61 -21 0.2
    endloop
  endfacet
  facet normal 0 -1 0
    outer loop
      vertex -51 -21 0
      vertex -56 -21 0.2
      vertex -61 -21 0
    endloop
  endfacet
  facet normal 0 -1 0
    outer loop
      vertex -56 -21 0.2
      vertex -51 -21 0
      vertex -51 -21 0.2
    endloop
  endfacet
  facet normal 0 0 1
    outer loop
      vertex -51 23 0.2
      vertex -61 21 0.2
      vertex -51 21 0.2
    endloop
  endfacet
  facet normal 0 0 1
    outer loop
      vertex -63 23 0.2
      vertex -61 18.8 0.2
      vertex -61 21 0.2
    endloop
  endfacet
  facet normal 0 0 1
    outer loop
      vertex -61 18.8 0.2
      vertex -63 23 0.2
      vertex -61 16.8 0.2
    endloop
  endfacet
  facet normal 0 0 1
    outer loop
      vertex -61 16.8 0.2
      vertex -63 23 0.2
      vertex -61 14.6 0.2
    endloop
  endfacet
  facet normal 0 0 1
    outer loop
      vertex -61 14.6 0.2
      vertex -63 23 0.2
      vertex -61 12.6 0.2
    endloop
  endfacet
  facet normal 0 0 1
    outer loop
      vertex -61 12.6 0.2
      vertex -63 23 0.2
      vertex -61 10.4 0.2
    endloop
  endfacet
  facet normal 0 0 1
    outer loop
      vertex -61 10.4 0.2
      vertex -63 23 0.2
      vertex -61 8.4 0.2
    endloop
  endfacet
  facet normal 0 0 1
    outer loop
      vertex -61 8.4 0.2
      vertex -63 23 0.2
      vertex -61 6.2 0.2
    endloop
  endfacet
  facet normal 0 0 1
    outer loop
      vertex -61 6.2 0.2
      vertex -63 23 0.2
      vertex -61 4.2 0.2
    endloop
  endfacet
  facet normal 0 0 1
    outer loop
      vertex -61 4.2 0.2
      vertex -63 23 0.2
      vertex -61 2 0.2
    endloop
  endfacet
  facet normal 0 0 1
    outer loop
      vertex -61 2 0.2
      vertex -63 23 0.2
      vertex -61 0 0.2
    endloop
  endfacet
  facet normal 0 0 1
    outer loop
      vertex -63 -19 0.2
      vertex -61 0 0.2
      vertex -63 23 0.2
    endloop
  endfacet
  facet normal 0 0 1
    outer loop
      vertex -61 0 0.2
      vertex -63 -19 0.2
      vertex -61 -2.2 0.2
    endloop
  endfacet
  facet normal 0 0 1
    outer loop
      vertex -61 -2.2 0.2
      vertex -63 -19 0.2
      vertex -61 -4.2 0.2
    endloop
  endfacet
  facet normal 0 0 1
    outer loop
      vertex -61 -4.2 0.2
      vertex -63 -19 0.2
      vertex -61 -6.4 0.2
    endloop
  endfacet
  facet normal 0 0 1
    outer loop
      vertex -61 -6.4 0.2
      vertex -63 -19 0.2
      vertex -61 -8.4 0.2
    endloop
  endfacet
  facet normal 0 0 1
    outer loop
      vertex -61 -8.4 0.2
      vertex -63 -19 0.2
      vertex -61 -10.6 0.2
    endloop
  endfacet
  facet normal 0 0 1
    outer loop
      vertex -61 -10.6 0.2
      vertex -63 -19 0.2
      vertex -61 -12.6 0.2
    endloop
  endfacet
  facet normal 0 0 1
    outer loop
      vertex -61 -12.6 0.2
      vertex -63 -19 0.2
      vertex -61 -14.8 0.2
    endloop
  endfacet
  facet normal -0 0 1
    outer loop
      vertex -63 23 0.2
      vertex -61 21 0.2
      vertex -51 23 0.2
    endloop
  endfacet
  facet normal 0 0 1
    outer loop
      vertex -61 -14.8 0.2
      vertex -63 -19 0.2
      vertex -61 -16.8 0.2
    endloop
  endfacet
  facet normal 0 0 1
    outer loop
      vertex -61 -16.8 0.2
      vertex -63 -19 0.2
      vertex -61 -19 0.2
    endloop
  endfacet
  facet normal -0 0 1
    outer loop
      vertex -61 18.8 0.2
      vertex -51 16.8 0.2
      vertex -51 18.8 0.2
    endloop
  endfacet
  facet normal 0 0 1
    outer loop
      vertex -51 16.8 0.2
      vertex -61 18.8 0.2
      vertex -61 16.8 0.2
    endloop
  endfacet
  facet normal -0 0 1
    outer loop
      vertex -61 14.6 0.2
      vertex -51 12.6 0.2
      vertex -51 14.6 0.2
    endloop
  endfacet
  facet normal 0 0 1
    outer loop
      vertex -51 12.6 0.2
      vertex -61 14.6 0.2
      vertex -61 12.6 0.2
    endloop
  endfacet
  facet normal -0 0 1
    outer loop
      vertex -61 10.4 0.2
      vertex -51 8.4 0.2
      vertex -51 10.4 0.2
    endloop
  endfacet
  facet normal 0 0 1
    outer loop
      vertex -51 8.4 0.2
      vertex -61 10.4 0.2
      vertex -61 8.4 0.2
    endloop
  endfacet
  facet normal -0 0 1
    outer loop
      vertex -61 6.2 0.2
      vertex -51 4.2 0.2
      vertex -51 6.2 0.2
    endloop
  endfacet
  facet normal 0 0 1
    outer loop
      vertex -51 4.2 0.2
      vertex -61 6.2 0.2
      vertex -61 4.2 0.2
    endloop
  endfacet
  facet normal -0 0 1
    outer loop
      vertex -61 2 0.2
      vertex -51 0 0.2
      vertex -51 2 0.2
    endloop
  endfacet
  facet normal 0 0 1
    outer loop
      vertex -51 0 0.2
      vertex -61 2 0.2
      vertex -61 0 0.2
    endloop
  endfacet
  facet normal -0 0 1
    outer loop
      vertex -61 -2.2 0.2
      vertex -51 -4.2 0.2
      vertex -51 -2.2 0.2
    endloop
  endfacet
  facet normal 0 0 1
    outer loop
      vertex -51 -4.2 0.2
      vertex -61 -2.2 0.2
      vertex -61 -4.2 0.2
    endloop
  endfacet
  facet normal -0 0 1
    outer loop
      vertex -61 -6.4 0.2
      vertex -51 -8.4 0.2
      vertex -51 -6.4 0.2
    endloop
  endfacet
  facet normal 0 0 1
    outer loop
      vertex -51 -8.4 0.2
      vertex -61 -6.4 0.2
      vertex -61 -8.4 0.2
    endloop
  endfacet
  facet normal -0 0 1
    outer loop
      vertex -61 -10.6 0.2
      vertex -51 -12.6 0.2
      vertex -51 -10.6 0.2
    endloop
  endfacet
  facet normal 0 0 1
    outer loop
      vertex -51 -12.6 0.2
      vertex -61 -10.6 0.2
      vertex -61 -12.6 0.2
    endloop
  endfacet
  facet normal -0 0 1
    outer loop
      vertex -61 -14.8 0.2
      vertex -51 -16.8 0.2
      vertex -51 -14.8 0.2
    endloop
  endfacet
  facet normal 0 0 1
    outer loop
      vertex -51 -16.8 0.2
      vertex -61 -14.8 0.2
      vertex -61 -16.8 0.2
    endloop
  endfacet
  facet normal -0 0 1
    outer loop
      vertex -63 -21 0.2
      vertex -61 -23.2 0.2
      vertex -61 -21 0.2
    endloop
  endfacet
  facet normal 0 0 1
    outer loop
      vertex -61 -23.2 0.2
      vertex -63 -21 0.2
      vertex -61 -25.2 0.2
    endloop
  endfacet
  facet normal 0 0 1
    outer loop
      vertex -61 -25.2 0.2
      vertex -63 -21 0.2
      vertex -61 -27.4 0.2
    endloop
  endfacet
  facet normal 0 0 1
    outer loop
      vertex -61 -27.4 0.2
      vertex -63 -21 0.2
      vertex -61 -29.4 0.2
    endloop
  endfacet
  facet normal 0 0 1
    outer loop
      vertex -61 -29.4 0.2
      vertex -63 -21 0.2
      vertex -61 -31.6 0.2
    endloop
  endfacet
  facet normal 0 0 1
    outer loop
      vertex -61 -31.6 0.2
      vertex -63 -21 0.2
      vertex -61 -33.6 0.2
    endloop
  endfacet
  facet normal 0 0 1
    outer loop
      vertex -61 -33.6 0.2
      vertex -63 -21 0.2
      vertex -61 -35.8 0.2
    endloop
  endfacet
  facet normal 0 0 1
    outer loop
      vertex -61 -35.8 0.2
      vertex -63 -21 0.2
      vertex -61 -37.8 0.2
    endloop
  endfacet
  facet normal 0 0 1
    outer loop
      vertex -61 -37.8 0.2
      vertex -63 -21 0.2
      vertex -61 -40 0.2
    endloop
  endfacet
  facet normal 0 0 1
    outer loop
      vertex -61 -40 0.2
      vertex -63 -21 0.2
      vertex -61 -42 0.2
    endloop
  endfacet
  facet normal 0 0 1
    outer loop
      vertex -63 -63 0.2
      vertex -61 -42 0.2
      vertex -63 -21 0.2
    endloop
  endfacet
  facet normal 0 0 1
    outer loop
      vertex -61 -42 0.2
      vertex -63 -63 0.2
      vertex -61 -44.2 0.2
    endloop
  endfacet
  facet normal 0 0 1
    outer loop
      vertex -61 -44.2 0.2
      vertex -63 -63 0.2
      vertex -61 -46.2 0.2
    endloop
  endfacet
  facet normal 0 0 1
    outer loop
      vertex -61 -46.2 0.2
      vertex -63 -63 0.2
      vertex -61 -48.4 0.2
    endloop
  endfacet
  facet normal 0 0 1
    outer loop
      vertex -61 -48.4 0.2
      vertex -63 -63 0.2
      vertex -61 -50.4 0.2
    endloop
  endfacet
  facet normal 0 0 1
    outer loop
      vertex -61 -50.4 0.2
      vertex -63 -63 0.2
      vertex -61 -52.6 0.2
    endloop
  endfacet
  facet normal 0 0 1
    outer loop
      vertex -61 -52.6 0.2
      vertex -63 -63 0.2
      vertex -61 -54.6 0.2
    endloop
  endfacet
  facet normal 0 0 1
    outer loop
      vertex -61 -54.6 0.2
      vertex -63 -63 0.2
      vertex -61 -56.8 0.2
    endloop
  endfacet
  facet normal 0 0 1
    outer loop
      vertex -61 -56.8 0.2
      vertex -63 -63 0.2
      vertex -61 -58.8 0.2
    endloop
  endfacet
  facet normal -0 0 1
    outer loop
      vertex -61 -23.2 0.2
      vertex -51 -25.2 0.2
      vertex -51 -23.2 0.2
    endloop
  endfacet
  facet normal 0 0 1
    outer loop
      vertex -51 -25.2 0.2
      vertex -61 -23.2 0.2
      vertex -61 -25.2 0.2
    endloop
  endfacet
  facet normal -0 0 1
    outer loop
      vertex -61 -27.4 0.2
      vertex -51 -29.4 0.2
      vertex -51 -27.4 0.2
    endloop
  endfacet
  facet normal 0 0 1
    outer loop
      vertex -51 -29.4 0.2
      vertex -61 -27.4 0.2
      vertex -61 -29.4 0.2
    endloop
  endfacet
  facet normal -0 0 1
    outer loop
      vertex -61 -31.6 0.2
      vertex -51 -33.6 0.2
      vertex -51 -31.6 0.2
    endloop
  endfacet
  facet normal 0 0 1
    outer loop
      vertex -51 -33.6 0.2
      vertex -61 -31.6 0.2
      vertex -61 -33.6 0.2
    endloop
  endfacet
  facet normal -0 0 1
    outer loop
      vertex -61 -35.8 0.2
      vertex -51 -37.8 0.2
      vertex -51 -35.8 0.2
    endloop
  endfacet
  facet normal 0 0 1
    outer loop
      vertex -51 -37.8 0.2
      vertex -61 -35.8 0.2
      vertex -61 -37.8 0.2
    endloop
  endfacet
  facet normal -0 0 1
    outer loop
      vertex -61 -40 0.2
      vertex -51 -42 0.2
      vertex -51 -40 0.2
    endloop
  endfacet
  facet normal 0 0 1
    outer loop
      vertex -51 -42 0.2
      vertex -61 -40 0.2
      vertex -61 -42 0.2
    endloop
  endfacet
  facet normal -0 0 1
    outer loop
      vertex -61 -44.2 0.2
      vertex -51 -46.2 0.2
      vertex -51 -44.2 0.2
    endloop
  endfacet
  facet normal 0 0 1
    outer loop
      vertex -51 -46.2 0.2
      vertex -61 -44.2 0.2
      vertex -61 -46.2 0.2
    endloop
  endfacet
  facet normal -0 0 1
    outer loop
      vertex -61 -48.4 0.2
      vertex -51 -50.4 0.2
      vertex -51 -48.4 0.2
    endloop
  endfacet
  facet normal 0 0 1
    outer loop
      vertex -51 -50.4 0.2
      vertex -61 -48.4 0.2
      vertex -61 -50.4 0.2
    endloop
  endfacet
  facet normal -0 0 1
    outer loop
      vertex -61 -52.6 0.2
      vertex -51 -54.6 0.2
      vertex -51 -52.6 0.2
    endloop
  endfacet
  facet normal 0 0 1
    outer loop
      vertex -51 -54.6 0.2
      vertex -61 -52.6 0.2
      vertex -61 -54.6 0.2
    endloop
  endfacet
  facet normal -0 0 1
    outer loop
      vertex -61 -56.8 0.2
      vertex -51 -58.8 0.2
      vertex -51 -56.8 0.2
    endloop
  endfacet
  facet normal 0 0 1
    outer loop
      vertex -51 -58.8 0.2
      vertex -61 -56.8 0.2
      vertex -61 -58.8 0.2
    endloop
  endfacet
  facet normal -0 0 1
    outer loop
      vertex -61 -61 0.2
      vertex -51 -63 0.2
      vertex -51 -61 0.2
    endloop
  endfacet
  facet normal 0 0 1
    outer loop
      vertex -61 -61 0.2
      vertex -63 -63 0.2
      vertex -51 -63 0.2
    endloop
  endfacet
  facet normal 0 0 1
    outer loop
      vertex -61 -58.8 0.2
      vertex -63 -63 0.2
      vertex -61 -61 0.2
    endloop
  endfacet
  facet normal -0 0 1
    outer loop
      vertex -56 -19 0.2
      vertex -51 -21 0.2
      vertex -51 -19 0.2
    endloop
  endfacet
  facet normal 0 0 1
    outer loop
      vertex -51 -21 0.2
      vertex -56 -19 0.2
      vertex -56 -21 0.2
    endloop
  endfacet
  facet normal 0 1 0
    outer loop
      vertex -61 -19 0.2
      vertex -56 -19 0.4
      vertex -56 -19 0.2
    endloop
  endfacet
  facet normal 0 1 0
    outer loop
      vertex -56 -19 0.4
      vertex -61 -19 0.2
      vertex -63 -19 0.4
    endloop
  endfacet
  facet normal 0 1 0
    outer loop
      vertex -63 -19 0.4
      vertex -61 -19 0.2
      vertex -63 -19 0.2
    endloop
  endfacet
  facet normal 0 1 -0
    outer loop
      vertex -51 -19 0
      vertex -56 -19 0.2
      vertex -51 -19 0.2
    endloop
  endfacet
  facet normal 0 1 0
    outer loop
      vertex -61 -19 0
      vertex -56 -19 0.2
      vertex -51 -19 0
    endloop
  endfacet
  facet normal 0 1 0
    outer loop
      vertex -56 -19 0.2
      vertex -61 -19 0
      vertex -61 -19 0.2
    endloop
  endfacet
  facet normal 1 -0 0
    outer loop
      vertex -51 -21 0.2
      vertex -51 -19 0
      vertex -51 -19 0.2
    endloop
  endfacet
  facet normal 1 0 0
    outer loop
      vertex -51 -19 0
      vertex -51 -21 0.2
      vertex -51 -21 0
    endloop
  endfacet
  facet normal 0 0 -1
    outer loop
      vertex -51 -63 0
      vertex -61 -61 0
      vertex -51 -61 0
    endloop
  endfacet
  facet normal 0 0 -1
    outer loop
      vertex -63 -63 0
      vertex -61 -58.8 0
      vertex -61 -61 0
    endloop
  endfacet
  facet normal -0 0 -1
    outer loop
      vertex -61 -58.8 0
      vertex -63 -63 0
      vertex -61 -56.8 0
    endloop
  endfacet
  facet normal -0 0 -1
    outer loop
      vertex -61 -56.8 0
      vertex -63 -63 0
      vertex -61 -54.6 0
    endloop
  endfacet
  facet normal -0 0 -1
    outer loop
      vertex -61 -54.6 0
      vertex -63 -63 0
      vertex -61 -52.6 0
    endloop
  endfacet
  facet normal -0 0 -1
    outer loop
      vertex -61 -52.6 0
      vertex -63 -63 0
      vertex -61 -50.4 0
    endloop
  endfacet
  facet normal -0 0 -1
    outer loop
      vertex -61 -50.4 0
      vertex -63 -63 0
      vertex -61 -48.4 0
    endloop
  endfacet
  facet normal -0 0 -1
    outer loop
      vertex -61 -48.4 0
      vertex -63 -63 0
      vertex -61 -46.2 0
    endloop
  endfacet
  facet normal -0 0 -1
    outer loop
      vertex -61 -46.2 0
      vertex -63 -63 0
      vertex -61 -44.2 0
    endloop
  endfacet
  facet normal -0 0 -1
    outer loop
      vertex -61 -44.2 0
      vertex -63 -63 0
      vertex -61 -42 0
    endloop
  endfacet
  facet normal -0 0 -1
    outer loop
      vertex -61 -42 0
      vertex -63 -63 0
      vertex -61 -40 0
    endloop
  endfacet
  facet normal -0 0 -1
    outer loop
      vertex -61 -40 0
      vertex -63 -63 0
      vertex -61 -37.8 0
    endloop
  endfacet
  facet normal -0 0 -1
    outer loop
      vertex -61 -37.8 0
      vertex -63 -63 0
      vertex -61 -35.8 0
    endloop
  endfacet
  facet normal -0 0 -1
    outer loop
      vertex -61 -35.8 0
      vertex -63 -63 0
      vertex -61 -33.6 0
    endloop
  endfacet
  facet normal -0 0 -1
    outer loop
      vertex -61 -33.6 0
      vertex -63 -63 0
      vertex -61 -31.6 0
    endloop
  endfacet
  facet normal -0 0 -1
    outer loop
      vertex -61 -31.6 0
      vertex -63 -63 0
      vertex -61 -29.4 0
    endloop
  endfacet
  facet normal -0 0 -1
    outer loop
      vertex -61 -29.4 0
      vertex -63 -63 0
      vertex -61 -27.4 0
    endloop
  endfacet
  facet normal -0 0 -1
    outer loop
      vertex -61 -27.4 0
      vertex -63 -63 0
      vertex -61 -25.2 0
    endloop
  endfacet
  facet normal -0 0 -1
    outer loop
      vertex -61 -25.2 0
      vertex -63 -63 0
      vertex -61 -23.2 0
    endloop
  endfacet
  facet normal -0 0 -1
    outer loop
      vertex -61 -23.2 0
      vertex -63 -63 0
      vertex -61 -21 0
    endloop
  endfacet
  facet normal -0 0 -1
    outer loop
      vertex -61 -21 0
      vertex -63 -63 0
      vertex -61 -19 0
    endloop
  endfacet
  facet normal -0 0 -1
    outer loop
      vertex -61 -19 0
      vertex -63 -63 0
      vertex -61 -16.8 0
    endloop
  endfacet
  facet normal -0 0 -1
    outer loop
      vertex -61 -16.8 0
      vertex -63 -63 0
      vertex -61 -14.8 0
    endloop
  endfacet
  facet normal 0 0 -1
    outer loop
      vertex -63 23 0
      vertex -61 -14.8 0
      vertex -63 -63 0
    endloop
  endfacet
  facet normal 0 0 -1
    outer loop
      vertex -61 -14.8 0
      vertex -63 23 0
      vertex -61 -12.6 0
    endloop
  endfacet
  facet normal 0 0 -1
    outer loop
      vertex -61 -12.6 0
      vertex -63 23 0
      vertex -61 -10.6 0
    endloop
  endfacet
  facet normal 0 0 -1
    outer loop
      vertex -61 -10.6 0
      vertex -63 23 0
      vertex -61 -8.4 0
    endloop
  endfacet
  facet normal 0 0 -1
    outer loop
      vertex -61 -8.4 0
      vertex -63 23 0
      vertex -61 -6.4 0
    endloop
  endfacet
  facet normal 0 0 -1
    outer loop
      vertex -61 -6.4 0
      vertex -63 23 0
      vertex -61 -4.2 0
    endloop
  endfacet
  facet normal 0 0 -1
    outer loop
      vertex -61 -4.2 0
      vertex -63 23 0
      vertex -61 -2.2 0
    endloop
  endfacet
  facet normal 0 0 -1
    outer loop
      vertex -61 -2.2 0
      vertex -63 23 0
      vertex -61 0 0
    endloop
  endfacet
  facet normal 0 0 -1
    outer loop
      vertex -61 0 0
      vertex -63 23 0
      vertex -61 2 0
    endloop
  endfacet
  facet normal 0 0 -1
    outer loop
      vertex -61 2 0
      vertex -63 23 0
      vertex -61 4.2 0
    endloop
  endfacet
  facet normal 0 0 -1
    outer loop
      vertex -61 4.2 0
      vertex -63 23 0
      vertex -61 6.2 0
    endloop
  endfacet
  facet normal 0 0 -1
    outer loop
      vertex -61 6.2 0
      vertex -63 23 0
      vertex -61 8.4 0
    endloop
  endfacet
  facet normal 0 0 -1
    outer loop
      vertex -61 8.4 0
      vertex -63 23 0
      vertex -61 10.4 0
    endloop
  endfacet
  facet normal 0 0 -1
    outer loop
      vertex -61 10.4 0
      vertex -63 23 0
      vertex -61 12.6 0
    endloop
  endfacet
  facet normal 0 0 -1
    outer loop
      vertex -61 12.6 0
      vertex -63 23 0
      vertex -61 14.6 0
    endloop
  endfacet
  facet normal 0 0 -1
    outer loop
      vertex -61 14.6 0
      vertex -63 23 0
      vertex -61 16.8 0
    endloop
  endfacet
  facet normal 0 0 -1
    outer loop
      vertex -61 16.8 0
      vertex -63 23 0
      vertex -61 18.8 0
    endloop
  endfacet
  facet normal 0 0 -1
    outer loop
      vertex -63 -63 0
      vertex -61 -61 0
      vertex -51 -63 0
    endloop
  endfacet
  facet normal 0 0 -1
    outer loop
      vertex -61 -58.8 0
      vertex -51 -56.8 0
      vertex -51 -58.8 0
    endloop
  endfacet
  facet normal -0 0 -1
    outer loop
      vertex -51 -56.8 0
      vertex -61 -58.8 0
      vertex -61 -56.8 0
    endloop
  endfacet
  facet normal 0 0 -1
    outer loop
      vertex -61 -54.6 0
      vertex -51 -52.6 0
      vertex -51 -54.6 0
    endloop
  endfacet
  facet normal -0 0 -1
    outer loop
      vertex -51 -52.6 0
      vertex -61 -54.6 0
      vertex -61 -52.6 0
    endloop
  endfacet
  facet normal 0 0 -1
    outer loop
      vertex -61 -50.4 0
      vertex -51 -48.4 0
      vertex -51 -50.4 0
    endloop
  endfacet
  facet normal -0 0 -1
    outer loop
      vertex -51 -48.4 0
      vertex -61 -50.4 0
      vertex -61 -48.4 0
    endloop
  endfacet
  facet normal 0 0 -1
    outer loop
      vertex -61 -46.2 0
      vertex -51 -44.2 0
      vertex -51 -46.2 0
    endloop
  endfacet
  facet normal -0 0 -1
    outer loop
      vertex -51 -44.2 0
      vertex -61 -46.2 0
      vertex -61 -44.2 0
    endloop
  endfacet
  facet normal 0 0 -1
    outer loop
      vertex -61 -42 0
      vertex -51 -40 0
      vertex -51 -42 0
    endloop
  endfacet
  facet normal -0 0 -1
    outer loop
      vertex -51 -40 0
      vertex -61 -42 0
      vertex -61 -40 0
    endloop
  endfacet
  facet normal 0 0 -1
    outer loop
      vertex -61 -37.8 0
      vertex -51 -35.8 0
      vertex -51 -37.8 0
    endloop
  endfacet
  facet normal -0 0 -1
    outer loop
      vertex -51 -35.8 0
      vertex -61 -37.8 0
      vertex -61 -35.8 0
    endloop
  endfacet
  facet normal 0 0 -1
    outer loop
      vertex -61 -33.6 0
      vertex -51 -31.6 0
      vertex -51 -33.6 0
    endloop
  endfacet
  facet normal -0 0 -1
    outer loop
      vertex -51 -31.6 0
      vertex -61 -33.6 0
      vertex -61 -31.6 0
    endloop
  endfacet
  facet normal 0 0 -1
    outer loop
      vertex -61 -29.4 0
      vertex -51 -27.4 0
      vertex -51 -29.4 0
    endloop
  endfacet
  facet normal -0 0 -1
    outer loop
      vertex -51 -27.4 0
      vertex -61 -29.4 0
      vertex -61 -27.4 0
    endloop
  endfacet
  facet normal 0 0 -1
    outer loop
      vertex -61 -25.2 0
      vertex -51 -23.2 0
      vertex -51 -25.2 0
    endloop
  endfacet
  facet normal -0 0 -1
    outer loop
      vertex -51 -23.2 0
      vertex -61 -25.2 0
      vertex -61 -23.2 0
    endloop
  endfacet
  facet normal 0 0 -1
    outer loop
      vertex -61 -21 0
      vertex -51 -19 0
      vertex -51 -21 0
    endloop
  endfacet
  facet normal -0 0 -1
    outer loop
      vertex -51 -19 0
      vertex -61 -21 0
      vertex -61 -19 0
    endloop
  endfacet
  facet normal 0 0 -1
    outer loop
      vertex -61 -16.8 0
      vertex -51 -14.8 0
      vertex -51 -16.8 0
    endloop
  endfacet
  facet normal -0 0 -1
    outer loop
      vertex -51 -14.8 0
      vertex -61 -16.8 0
      vertex -61 -14.8 0
    endloop
  endfacet
  facet normal 0 0 -1
    outer loop
      vertex -61 -12.6 0
      vertex -51 -10.6 0
      vertex -51 -12.6 0
    endloop
  endfacet
  facet normal -0 0 -1
    outer loop
      vertex -51 -10.6 0
      vertex -61 -12.6 0
      vertex -61 -10.6 0
    endloop
  endfacet
  facet normal 0 0 -1
    outer loop
      vertex -61 -8.4 0
      vertex -51 -6.4 0
      vertex -51 -8.4 0
    endloop
  endfacet
  facet normal -0 0 -1
    outer loop
      vertex -51 -6.4 0
      vertex -61 -8.4 0
      vertex -61 -6.4 0
    endloop
  endfacet
  facet normal 0 0 -1
    outer loop
      vertex -61 -4.2 0
      vertex -51 -2.2 0
      vertex -51 -4.2 0
    endloop
  endfacet
  facet normal -0 0 -1
    outer loop
      vertex -51 -2.2 0
      vertex -61 -4.2 0
      vertex -61 -2.2 0
    endloop
  endfacet
  facet normal 0 0 -1
    outer loop
      vertex -61 0 0
      vertex -51 2 0
      vertex -51 0 0
    endloop
  endfacet
  facet normal -0 0 -1
    outer loop
      vertex -51 2 0
      vertex -61 0 0
      vertex -61 2 0
    endloop
  endfacet
  facet normal 0 0 -1
    outer loop
      vertex -61 4.2 0
      vertex -51 6.2 0
      vertex -51 4.2 0
    endloop
  endfacet
  facet normal -0 0 -1
    outer loop
      vertex -51 6.2 0
      vertex -61 4.2 0
      vertex -61 6.2 0
    endloop
  endfacet
  facet normal 0 0 -1
    outer loop
      vertex -61 8.4 0
      vertex -51 10.4 0
      vertex -51 8.4 0
    endloop
  endfacet
  facet normal -0 0 -1
    outer loop
      vertex -51 10.4 0
      vertex -61 8.4 0
      vertex -61 10.4 0
    endloop
  endfacet
  facet normal 0 0 -1
    outer loop
      vertex -61 12.6 0
      vertex -51 14.6 0
      vertex -51 12.6 0
    endloop
  endfacet
  facet normal -0 0 -1
    outer loop
      vertex -51 14.6 0
      vertex -61 12.6 0
      vertex -61 14.6 0
    endloop
  endfacet
  facet normal 0 0 -1
    outer loop
      vertex -61 16.8 0
      vertex -51 18.8 0
      vertex -51 16.8 0
    endloop
  endfacet
  facet normal -0 0 -1
    outer loop
      vertex -51 18.8 0
      vertex -61 16.8 0
      vertex -61 18.8 0
    endloop
  endfacet
  facet normal 0 0 -1
    outer loop
      vertex -61 21 0
      vertex -51 23 0
      vertex -51 21 0
    endloop
  endfacet
  facet normal 0 0 -1
    outer loop
      vertex -61 21 0
      vertex -63 23 0
      vertex -51 23 0
    endloop
  endfacet
  facet normal 0 0 -1
    outer loop
      vertex -61 18.8 0
      vertex -63 23 0
      vertex -61 21 0
    endloop
  endfacet
  facet normal 1 -0 0
    outer loop
      vertex -61 18.8 0.2
      vertex -61 21 0
      vertex -61 21 0.2
    endloop
  endfacet
  facet normal 1 0 0
    outer loop
      vertex -61 21 0
      vertex -61 18.8 0.2
      vertex -61 18.8 0
    endloop
  endfacet
  facet normal 1 -0 0
    outer loop
      vertex -61 14.6 0.2
      vertex -61 16.8 0
      vertex -61 16.8 0.2
    endloop
  endfacet
  facet normal 1 0 0
    outer loop
      vertex -61 16.8 0
      vertex -61 14.6 0.2
      vertex -61 14.6 0
    endloop
  endfacet
  facet normal 1 -0 0
    outer loop
      vertex -61 10.4 0.2
      vertex -61 12.6 0
      vertex -61 12.6 0.2
    endloop
  endfacet
  facet normal 1 0 0
    outer loop
      vertex -61 12.6 0
      vertex -61 10.4 0.2
      vertex -61 10.4 0
    endloop
  endfacet
  facet normal 1 -0 0
    outer loop
      vertex -61 6.2 0.2
      vertex -61 8.4 0
      vertex -61 8.4 0.2
    endloop
  endfacet
  facet normal 1 0 0
    outer loop
      vertex -61 8.4 0
      vertex -61 6.2 0.2
      vertex -61 6.2 0
    endloop
  endfacet
  facet normal 1 -0 0
    outer loop
      vertex -61 2 0.2
      vertex -61 4.2 0
      vertex -61 4.2 0.2
    endloop
  endfacet
  facet normal 1 0 0
    outer loop
      vertex -61 4.2 0
      vertex -61 2 0.2
      vertex -61 2 0
    endloop
  endfacet
  facet normal 1 -0 0
    outer loop
      vertex -61 -2.2 0.2
      vertex -61 0 0
      vertex -61 0 0.2
    endloop
  endfacet
  facet normal 1 0 0
    outer loop
      vertex -61 0 0
      vertex -61 -2.2 0.2
      vertex -61 -2.2 0
    endloop
  endfacet
  facet normal 1 -0 0
    outer loop
      vertex -61 -6.4 0.2
      vertex -61 -4.2 0
      vertex -61 -4.2 0.2
    endloop
  endfacet
  facet normal 1 0 0
    outer loop
      vertex -61 -4.2 0
      vertex -61 -6.4 0.2
      vertex -61 -6.4 0
    endloop
  endfacet
  facet normal 1 -0 0
    outer loop
      vertex -61 -10.6 0.2
      vertex -61 -8.4 0
      vertex -61 -8.4 0.2
    endloop
  endfacet
  facet normal 1 0 0
    outer loop
      vertex -61 -8.4 0
      vertex -61 -10.6 0.2
      vertex -61 -10.6 0
    endloop
  endfacet
  facet normal 1 -0 0
    outer loop
      vertex -61 -14.8 0.2
      vertex -61 -12.6 0
      vertex -61 -12.6 0.2
    endloop
  endfacet
  facet normal 1 0 0
    outer loop
      vertex -61 -12.6 0
      vertex -61 -14.8 0.2
      vertex -61 -14.8 0
    endloop
  endfacet
  facet normal 1 -0 0
    outer loop
      vertex -61 -19 0.2
      vertex -61 -16.8 0
      vertex -61 -16.8 0.2
    endloop
  endfacet
  facet normal 1 0 0
    outer loop
      vertex -61 -16.8 0
      vertex -61 -19 0.2
      vertex -61 -19 0
    endloop
  endfacet
  facet normal 1 -0 0
    outer loop
      vertex -61 -23.2 0.2
      vertex -61 -21 0
      vertex -61 -21 0.2
    endloop
  endfacet
  facet normal 1 0 0
    outer loop
      vertex -61 -21 0
      vertex -61 -23.2 0.2
      vertex -61 -23.2 0
    endloop
  endfacet
  facet normal 1 -0 0
    outer loop
      vertex -61 -27.4 0.2
      vertex -61 -25.2 0
      vertex -61 -25.2 0.2
    endloop
  endfacet
  facet normal 1 0 0
    outer loop
      vertex -61 -25.2 0
      vertex -61 -27.4 0.2
      vertex -61 -27.4 0
    endloop
  endfacet
  facet normal 1 -0 0
    outer loop
      vertex -61 -31.6 0.2
      vertex -61 -29.4 0
      vertex -61 -29.4 0.2
    endloop
  endfacet
  facet normal 1 0 0
    outer loop
      vertex -61 -29.4 0
      vertex -61 -31.6 0.2
      vertex -61 -31.6 0
    endloop
  endfacet
  facet normal 1 -0 0
    outer loop
      vertex -61 -35.8 0.2
      vertex -61 -33.6 0
      vertex -61 -33.6 0.2
    endloop
  endfacet
  facet normal 1 0 0
    outer loop
      vertex -61 -33.6 0
      vertex -61 -35.8 0.2
      vertex -61 -35.8 0
    endloop
  endfacet
  facet normal 1 -0 0
    outer loop
      vertex -61 -40 0.2
      vertex -61 -37.8 0
      vertex -61 -37.8 0.2
    endloop
  endfacet
  facet normal 1 0 0
    outer loop
      vertex -61 -37.8 0
      vertex -61 -40 0.2
      vertex -61 -40 0
    endloop
  endfacet
  facet normal 1 -0 0
    outer loop
      vertex -61 -44.2 0.2
      vertex -61 -42 0
      vertex -61 -42 0.2
    endloop
  endfacet
  facet normal 1 0 0
    outer loop
      vertex -61 -42 0
      vertex -61 -44.2 0.2
      vertex -61 -44.2 0
    endloop
  endfacet
  facet normal 1 -0 0
    outer loop
      vertex -61 -48.4 0.2
      vertex -61 -46.2 0
      vertex -61 -46.2 0.2
    endloop
  endfacet
  facet normal 1 0 0
    outer loop
      vertex -61 -46.2 0
      vertex -61 -48.4 0.2
      vertex -61 -48.4 0
    endloop
  endfacet
  facet normal 1 -0 0
    outer loop
      vertex -61 -52.6 0.2
      vertex -61 -50.4 0
      vertex -61 -50.4 0.2
    endloop
  endfacet
  facet normal 1 0 0
    outer loop
      vertex -61 -50.4 0
      vertex -61 -52.6 0.2
      vertex -61 -52.6 0
    endloop
  endfacet
  facet normal 1 -0 0
    outer loop
      vertex -61 -56.8 0.2
      vertex -61 -54.6 0
      vertex -61 -54.6 0.2
    endloop
  endfacet
  facet normal 1 0 0
    outer loop
      vertex -61 -54.6 0
      vertex -61 -56.8 0.2
      vertex -61 -56.8 0
    endloop
  endfacet
  facet normal 1 -0 0
    outer loop
      vertex -61 -61 0.2
      vertex -61 -58.8 0
      vertex -61 -58.8 0.2
    endloop
  endfacet
  facet normal 1 0 0
    outer loop
      vertex -61 -58.8 0
      vertex -61 -61 0.2
      vertex -61 -61 0
    endloop
  endfacet
  facet normal -0 0 1
    outer loop
      vertex -63 -19 0.4
      vertex -56 -21 0.4
      vertex -56 -19 0.4
    endloop
  endfacet
  facet normal 0 0 1
    outer loop
      vertex -56 -21 0.4
      vertex -63 -19 0.4
      vertex -63 -21 0.4
    endloop
  endfacet
  facet normal -1 0 0
    outer loop
      vertex -63 23 0
      vertex -63 -19 0.2
      vertex -63 23 0.2
    endloop
  endfacet
  facet normal -1 0 0
    outer loop
      vertex -63 -19 0.2
      vertex -63 -21 0.2
      vertex -63 -19 0.4
    endloop
  endfacet
  facet normal -1 0 0
    outer loop
      vertex -63 23 0
      vertex -63 -21 0.2
      vertex -63 -19 0.2
    endloop
  endfacet
  facet normal -1 0 0
    outer loop
      vertex -63 -63 0
      vertex -63 -21 0.2
      vertex -63 23 0
    endloop
  endfacet
  facet normal -1 -0 0
    outer loop
      vertex -63 -21 0.2
      vertex -63 -63 0
      vertex -63 -63 0.2
    endloop
  endfacet
  facet normal -1 -0 0
    outer loop
      vertex -63 -19 0.4
      vertex -63 -21 0.2
      vertex -63 -21 0.4
    endloop
  endfacet
  facet normal 1 -0 0
    outer loop
      vertex -56 -21 0.4
      vertex -56 -19 0.2
      vertex -56 -19 0.4
    endloop
  endfacet
  facet normal 1 0 0
    outer loop
      vertex -56 -19 0.2
      vertex -56 -21 0.4
      vertex -56 -21 0.2
    endloop
  endfacet
  facet normal 0 -1 0
    outer loop
      vertex -63 -63 0
      vertex -51 -63 0.2
      vertex -63 -63 0.2
    endloop
  endfacet
  facet normal 0 -1 -0
    outer loop
      vertex -51 -63 0.2
      vertex -63 -63 0
      vertex -51 -63 0
    endloop
  endfacet
  facet normal 0 1 -0
    outer loop
      vertex -51 -61 0
      vertex -61 -61 0.2
      vertex -51 -61 0.2
    endloop
  endfacet
  facet normal 0 1 0
    outer loop
      vertex -61 -61 0.2
      vertex -51 -61 0
      vertex -61 -61 0
    endloop
  endfacet
  facet normal 1 -0 0
    outer loop
      vertex -51 -63 0.2
      vertex -51 -61 0
      vertex -51 -61 0.2
    endloop
  endfacet
  facet normal 1 0 0
    outer loop
      vertex -51 -61 0
      vertex -51 -63 0.2
      vertex -51 -63 0
    endloop
  endfacet
  facet normal 0 -1 0
    outer loop
      vertex -61 -58.8 0
      vertex -51 -58.8 0.2
      vertex -61 -58.8 0.2
    endloop
  endfacet
  facet normal 0 -1 -0
    outer loop
      vertex -51 -58.8 0.2
      vertex -61 -58.8 0
      vertex -51 -58.8 0
    endloop
  endfacet
  facet normal 0 1 -0
    outer loop
      vertex -51 -56.8 0
      vertex -61 -56.8 0.2
      vertex -51 -56.8 0.2
    endloop
  endfacet
  facet normal 0 1 0
    outer loop
      vertex -61 -56.8 0.2
      vertex -51 -56.8 0
      vertex -61 -56.8 0
    endloop
  endfacet
  facet normal 1 -0 0
    outer loop
      vertex -51 -58.8 0.2
      vertex -51 -56.8 0
      vertex -51 -56.8 0.2
    endloop
  endfacet
  facet normal 1 0 0
    outer loop
      vertex -51 -56.8 0
      vertex -51 -58.8 0.2
      vertex -51 -58.8 0
    endloop
  endfacet
  facet normal 0 -1 0
    outer loop
      vertex -61 -54.6 0
      vertex -51 -54.6 0.2
      vertex -61 -54.6 0.2
    endloop
  endfacet
  facet normal 0 -1 -0
    outer loop
      vertex -51 -54.6 0.2
      vertex -61 -54.6 0
      vertex -51 -54.6 0
    endloop
  endfacet
  facet normal 0 1 -0
    outer loop
      vertex -51 -52.6 0
      vertex -61 -52.6 0.2
      vertex -51 -52.6 0.2
    endloop
  endfacet
  facet normal 0 1 0
    outer loop
      vertex -61 -52.6 0.2
      vertex -51 -52.6 0
      vertex -61 -52.6 0
    endloop
  endfacet
  facet normal 1 -0 0
    outer loop
      vertex -51 -54.6 0.2
      vertex -51 -52.6 0
      vertex -51 -52.6 0.2
    endloop
  endfacet
  facet normal 1 0 0
    outer loop
      vertex -51 -52.6 0
      vertex -51 -54.6 0.2
      vertex -51 -54.6 0
    endloop
  endfacet
  facet normal 0 -1 0
    outer loop
      vertex -61 -50.4 0
      vertex -51 -50.4 0.2
      vertex -61 -50.4 0.2
    endloop
  endfacet
  facet normal 0 -1 -0
    outer loop
      vertex -51 -50.4 0.2
      vertex -61 -50.4 0
      vertex -51 -50.4 0
    endloop
  endfacet
  facet normal 0 1 -0
    outer loop
      vertex -51 -48.4 0
      vertex -61 -48.4 0.2
      vertex -51 -48.4 0.2
    endloop
  endfacet
  facet normal 0 1 0
    outer loop
      vertex -61 -48.4 0.2
      vertex -51 -48.4 0
      vertex -61 -48.4 0
    endloop
  endfacet
  facet normal 1 -0 0
    outer loop
      vertex -51 -50.4 0.2
      vertex -51 -48.4 0
      vertex -51 -48.4 0.2
    endloop
  endfacet
  facet normal 1 0 0
    outer loop
      vertex -51 -48.4 0
      vertex -51 -50.4 0.2
      vertex -51 -50.4 0
    endloop
  endfacet
  facet normal 0 -1 0
    outer loop
      vertex -61 -46.2 0
      vertex -51 -46.2 0.2
      vertex -61 -46.2 0.2
    endloop
  endfacet
  facet normal 0 -1 -0
    outer loop
      vertex -51 -46.2 0.2
      vertex -61 -46.2 0
      vertex -51 -46.2 0
    endloop
  endfacet
  facet normal 0 1 -0
    outer loop
      vertex -51 -44.2 0
      vertex -61 -44.2 0.2
      vertex -51 -44.2 0.2
    endloop
  endfacet
  facet normal 0 1 0
    outer loop
      vertex -61 -44.2 0.2
      vertex -51 -44.2 0
      vertex -61 -44.2 0
    endloop
  endfacet
  facet normal 1 -0 0
    outer loop
      vertex -51 -46.2 0.2
      vertex -51 -44.2 0
      vertex -51 -44.2 0.2
    endloop
  endfacet
  facet normal 1 0 0
    outer loop
      vertex -51 -44.2 0
      vertex -51 -46.2 0.2
      vertex -51 -46.2 0
    endloop
  endfacet
  facet normal 0 -1 0
    outer loop
      vertex -61 -42 0
      vertex -51 -42 0.2
      vertex -61 -42 0.2
    endloop
  endfacet
  facet normal 0 -1 -0
    outer loop
      vertex -51 -42 0.2
      vertex -61 -42 0
      vertex -51 -42 0
    endloop
  endfacet
  facet normal 0 1 -0
    outer loop
      vertex -51 -40 0
      vertex -61 -40 0.2
      vertex -51 -40 0.2
    endloop
  endfacet
  facet normal 0 1 0
    outer loop
      vertex -61 -40 0.2
      vertex -51 -40 0
      vertex -61 -40 0
    endloop
  endfacet
  facet normal 1 -0 0
    outer loop
      vertex -51 -42 0.2
      vertex -51 -40 0
      vertex -51 -40 0.2
    endloop
  endfacet
  facet normal 1 0 0
    outer loop
      vertex -51 -40 0
      vertex -51 -42 0.2
      vertex -51 -42 0
    endloop
  endfacet
  facet normal 0 -1 0
    outer loop
      vertex -61 -37.8 0
      vertex -51 -37.8 0.2
      vertex -61 -37.8 0.2
    endloop
  endfacet
  facet normal 0 -1 -0
    outer loop
      vertex -51 -37.8 0.2
      vertex -61 -37.8 0
      vertex -51 -37.8 0
    endloop
  endfacet
  facet normal 0 1 -0
    outer loop
      vertex -51 -35.8 0
      vertex -61 -35.8 0.2
      vertex -51 -35.8 0.2
    endloop
  endfacet
  facet normal 0 1 0
    outer loop
      vertex -61 -35.8 0.2
      vertex -51 -35.8 0
      vertex -61 -35.8 0
    endloop
  endfacet
  facet normal 1 -0 0
    outer loop
      vertex -51 -37.8 0.2
      vertex -51 -35.8 0
      vertex -51 -35.8 0.2
    endloop
  endfacet
  facet normal 1 0 0
    outer loop
      vertex -51 -35.8 0
      vertex -51 -37.8 0.2
      vertex -51 -37.8 0
    endloop
  endfacet
  facet normal 0 -1 0
    outer loop
      vertex -61 -33.6 0
      vertex -51 -33.6 0.2
      vertex -61 -33.6 0.2
    endloop
  endfacet
  facet normal 0 -1 -0
    outer loop
      vertex -51 -33.6 0.2
      vertex -61 -33.6 0
      vertex -51 -33.6 0
    endloop
  endfacet
  facet normal 0 1 -0
    outer loop
      vertex -51 -31.6 0
      vertex -61 -31.6 0.2
      vertex -51 -31.6 0.2
    endloop
  endfacet
  facet normal 0 1 0
    outer loop
      vertex -61 -31.6 0.2
      vertex -51 -31.6 0
      vertex -61 -31.6 0
    endloop
  endfacet
  facet normal 1 -0 0
    outer loop
      vertex -51 -33.6 0.2
      vertex -51 -31.6 0
      vertex -51 -31.6 0.2
    endloop
  endfacet
  facet normal 1 0 0
    outer loop
      vertex -51 -31.6 0
      vertex -51 -33.6 0.2
      vertex -51 -33.6 0
    endloop
  endfacet
  facet normal 0 -1 0
    outer loop
      vertex -61 -29.4 0
      vertex -51 -29.4 0.2
      vertex -61 -29.4 0.2
    endloop
  endfacet
  facet normal 0 -1 -0
    outer loop
      vertex -51 -29.4 0.2
      vertex -61 -29.4 0
      vertex -51 -29.4 0
    endloop
  endfacet
  facet normal 0 1 -0
    outer loop
      vertex -51 -27.4 0
      vertex -61 -27.4 0.2
      vertex -51 -27.4 0.2
    endloop
  endfacet
  facet normal 0 1 0
    outer loop
      vertex -61 -27.4 0.2
      vertex -51 -27.4 0
      vertex -61 -27.4 0
    endloop
  endfacet
  facet normal 1 -0 0
    outer loop
      vertex -51 -29.4 0.2
      vertex -51 -27.4 0
      vertex -51 -27.4 0.2
    endloop
  endfacet
  facet normal 1 0 0
    outer loop
      vertex -51 -27.4 0
      vertex -51 -29.4 0.2
      vertex -51 -29.4 0
    endloop
  endfacet
  facet normal 0 -1 0
    outer loop
      vertex -61 -25.2 0
      vertex -51 -25.2 0.2
      vertex -61 -25.2 0.2
    endloop
  endfacet
  facet normal 0 -1 -0
    outer loop
      vertex -51 -25.2 0.2
      vertex -61 -25.2 0
      vertex -51 -25.2 0
    endloop
  endfacet
  facet normal 0 1 -0
    outer loop
      vertex -51 -23.2 0
      vertex -61 -23.2 0.2
      vertex -51 -23.2 0.2
    endloop
  endfacet
  facet normal 0 1 0
    outer loop
      vertex -61 -23.2 0.2
      vertex -51 -23.2 0
      vertex -61 -23.2 0
    endloop
  endfacet
  facet normal 1 -0 0
    outer loop
      vertex -51 -25.2 0.2
      vertex -51 -23.2 0
      vertex -51 -23.2 0.2
    endloop
  endfacet
  facet normal 1 0 0
    outer loop
      vertex -51 -23.2 0
      vertex -51 -25.2 0.2
      vertex -51 -25.2 0
    endloop
  endfacet
  facet normal 0 -1 0
    outer loop
      vertex -61 -16.8 0
      vertex -51 -16.8 0.2
      vertex -61 -16.8 0.2
    endloop
  endfacet
  facet normal 0 -1 -0
    outer loop
      vertex -51 -16.8 0.2
      vertex -61 -16.8 0
      vertex -51 -16.8 0
    endloop
  endfacet
  facet normal 0 1 -0
    outer loop
      vertex -51 -14.8 0
      vertex -61 -14.8 0.2
      vertex -51 -14.8 0.2
    endloop
  endfacet
  facet normal 0 1 0
    outer loop
      vertex -61 -14.8 0.2
      vertex -51 -14.8 0
      vertex -61 -14.8 0
    endloop
  endfacet
  facet normal 1 -0 0
    outer loop
      vertex -51 -16.8 0.2
      vertex -51 -14.8 0
      vertex -51 -14.8 0.2
    endloop
  endfacet
  facet normal 1 0 0
    outer loop
      vertex -51 -14.8 0
      vertex -51 -16.8 0.2
      vertex -51 -16.8 0
    endloop
  endfacet
  facet normal 0 -1 0
    outer loop
      vertex -61 -12.6 0
      vertex -51 -12.6 0.2
      vertex -61 -12.6 0.2
    endloop
  endfacet
  facet normal 0 -1 -0
    outer loop
      vertex -51 -12.6 0.2
      vertex -61 -12.6 0
      vertex -51 -12.6 0
    endloop
  endfacet
  facet normal 0 1 -0
    outer loop
      vertex -51 -10.6 0
      vertex -61 -10.6 0.2
      vertex -51 -10.6 0.2
    endloop
  endfacet
  facet normal 0 1 0
    outer loop
      vertex -61 -10.6 0.2
      vertex -51 -10.6 0
      vertex -61 -10.6 0
    endloop
  endfacet
  facet normal 1 -0 0
    outer loop
      vertex -51 -12.6 0.2
      vertex -51 -10.6 0
      vertex -51 -10.6 0.2
    endloop
  endfacet
  facet normal 1 0 0
    outer loop
      vertex -51 -10.6 0
      vertex -51 -12.6 0.2
      vertex -51 -12.6 0
    endloop
  endfacet
  facet normal 0 -1 0
    outer loop
      vertex -61 -8.4 0
      vertex -51 -8.4 0.2
      vertex -61 -8.4 0.2
    endloop
  endfacet
  facet normal 0 -1 -0
    outer loop
      vertex -51 -8.4 0.2
      vertex -61 -8.4 0
      vertex -51 -8.4 0
    endloop
  endfacet
  facet normal 0 1 -0
    outer loop
      vertex -51 -6.4 0
      vertex -61 -6.4 0.2
      vertex -51 -6.4 0.2
    endloop
  endfacet
  facet normal 0 1 0
    outer loop
      vertex -61 -6.4 0.2
      vertex -51 -6.4 0
      vertex -61 -6.4 0
    endloop
  endfacet
  facet normal 1 -0 0
    outer loop
      vertex -51 -8.4 0.2
      vertex -51 -6.4 0
      vertex -51 -6.4 0.2
    endloop
  endfacet
  facet normal 1 0 0
    outer loop
      vertex -51 -6.4 0
      vertex -51 -8.4 0.2
      vertex -51 -8.4 0
    endloop
  endfacet
  facet normal 0 -1 0
    outer loop
      vertex -61 -4.2 0
      vertex -51 -4.2 0.2
      vertex -61 -4.2 0.2
    endloop
  endfacet
  facet normal 0 -1 -0
    outer loop
      vertex -51 -4.2 0.2
      vertex -61 -4.2 0
      vertex -51 -4.2 0
    endloop
  endfacet
  facet normal 0 1 -0
    outer loop
      vertex -51 -2.2 0
      vertex -61 -2.2 0.2
      vertex -51 -2.2 0.2
    endloop
  endfacet
  facet normal 0 1 0
    outer loop
      vertex -61 -2.2 0.2
      vertex -51 -2.2 0
      vertex -61 -2.2 0
    endloop
  endfacet
  facet normal 1 -0 0
    outer loop
      vertex -51 -4.2 0.2
      vertex -51 -2.2 0
      vertex -51 -2.2 0.2
    endloop
  endfacet
  facet normal 1 0 0
    outer loop
      vertex -51 -2.2 0
      vertex -51 -4.2 0.2
      vertex -51 -4.2 0
    endloop
  endfacet
  facet normal 0 -1 0
    outer loop
      vertex -61 0 0
      vertex -51 0 0.2
      vertex -61 0 0.2
    endloop
  endfacet
  facet normal 0 -1 -0
    outer loop
      vertex -51 0 0.2
      vertex -61 0 0
      vertex -51 0 0
    endloop
  endfacet
  facet normal 0 1 -0
    outer loop
      vertex -51 2 0
      vertex -61 2 0.2
      vertex -51 2 0.2
    endloop
  endfacet
  facet normal 0 1 0
    outer loop
      vertex -61 2 0.2
      vertex -51 2 0
      vertex -61 2 0
    endloop
  endfacet
  facet normal 1 -0 0
    outer loop
      vertex -51 0 0.2
      vertex -51 2 0
      vertex -51 2 0.2
    endloop
  endfacet
  facet normal 1 0 0
    outer loop
      vertex -51 2 0
      vertex -51 0 0.2
      vertex -51 0 0
    endloop
  endfacet
  facet normal 0 -1 0
    outer loop
      vertex -61 4.2 0
      vertex -51 4.2 0.2
      vertex -61 4.2 0.2
    endloop
  endfacet
  facet normal 0 -1 -0
    outer loop
      vertex -51 4.2 0.2
      vertex -61 4.2 0
      vertex -51 4.2 0
    endloop
  endfacet
  facet normal 0 1 -0
    outer loop
      vertex -51 6.2 0
      vertex -61 6.2 0.2
      vertex -51 6.2 0.2
    endloop
  endfacet
  facet normal 0 1 0
    outer loop
      vertex -61 6.2 0.2
      vertex -51 6.2 0
      vertex -61 6.2 0
    endloop
  endfacet
  facet normal 1 -0 0
    outer loop
      vertex -51 4.2 0.2
      vertex -51 6.2 0
      vertex -51 6.2 0.2
    endloop
  endfacet
  facet normal 1 0 0
    outer loop
      vertex -51 6.2 0
      vertex -51 4.2 0.2
      vertex -51 4.2 0
    endloop
  endfacet
  facet normal 0 -1 0
    outer loop
      vertex -61 8.4 0
      vertex -51 8.4 0.2
      vertex -61 8.4 0.2
    endloop
  endfacet
  facet normal 0 -1 -0
    outer loop
      vertex -51 8.4 0.2
      vertex -61 8.4 0
      vertex -51 8.4 0
    endloop
  endfacet
  facet normal 0 1 -0
    outer loop
      vertex -51 10.4 0
      vertex -61 10.4 0.2
      vertex -51 10.4 0.2
    endloop
  endfacet
  facet normal 0 1 0
    outer loop
      vertex -61 10.4 0.2
      vertex -51 10.4 0
      vertex -61 10.4 0
    endloop
  endfacet
  facet normal 1 -0 0
    outer loop
      vertex -51 8.4 0.2
      vertex -51 10.4 0
      vertex -51 10.4 0.2
    endloop
  endfacet
  facet normal 1 0 0
    outer loop
      vertex -51 10.4 0
      vertex -51 8.4 0.2
      vertex -51 8.4 0
    endloop
  endfacet
  facet normal 0 -1 0
    outer loop
      vertex -61 12.6 0
      vertex -51 12.6 0.2
      vertex -61 12.6 0.2
    endloop
  endfacet
  facet normal 0 -1 -0
    outer loop
      vertex -51 12.6 0.2
      vertex -61 12.6 0
      vertex -51 12.6 0
    endloop
  endfacet
  facet normal 0 1 -0
    outer loop
      vertex -51 14.6 0
      vertex -61 14.6 0.2
      vertex -51 14.6 0.2
    endloop
  endfacet
  facet normal 0 1 0
    outer loop
      vertex -61 14.6 0.2
      vertex -51 14.6 0
      vertex -61 14.6 0
    endloop
  endfacet
  facet normal 1 -0 0
    outer loop
      vertex -51 12.6 0.2
      vertex -51 14.6 0
      vertex -51 14.6 0.2
    endloop
  endfacet
  facet normal 1 0 0
    outer loop
      vertex -51 14.6 0
      vertex -51 12.6 0.2
      vertex -51 12.6 0
    endloop
  endfacet
  facet normal 0 -1 0
    outer loop
      vertex -61 16.8 0
      vertex -51 16.8 0.2
      vertex -61 16.8 0.2
    endloop
  endfacet
  facet normal 0 -1 -0
    outer loop
      vertex -51 16.8 0.2
      vertex -61 16.8 0
      vertex -51 16.8 0
    endloop
  endfacet
  facet normal 0 1 -0
    outer loop
      vertex -51 18.8 0
      vertex -61 18.8 0.2
      vertex -51 18.8 0.2
    endloop
  endfacet
  facet normal 0 1 0
    outer loop
      vertex -61 18.8 0.2
      vertex -51 18.8 0
      vertex -61 18.8 0
    endloop
  endfacet
  facet normal 1 -0 0
    outer loop
      vertex -51 16.8 0.2
      vertex -51 18.8 0
      vertex -51 18.8 0.2
    endloop
  endfacet
  facet normal 1 0 0
    outer loop
      vertex -51 18.8 0
      vertex -51 16.8 0.2
      vertex -51 16.8 0
    endloop
  endfacet
  facet normal 0 -1 0
    outer loop
      vertex -61 21 0
      vertex -51 21 0.2
      vertex -61 21 0.2
    endloop
  endfacet
  facet normal 0 -1 -0
    outer loop
      vertex -51 21 0.2
      vertex -61 21 0
      vertex -51 21 0
    endloop
  endfacet
  facet normal 0 1 -0
    outer loop
      vertex -51 23 0
      vertex -63 23 0.2
      vertex -51 23 0.2
    endloop
  endfacet
  facet normal 0 1 0
    outer loop
      vertex -63 23 0.2
      vertex -51 23 0
      vertex -63 23 0
    endloop
  endfacet
  facet normal 1 -0 0
    outer loop
      vertex -51 21 0.2
      vertex -51 23 0
      vertex -51 23 0.2
    endloop
  endfacet
  facet normal 1 0 0
    outer loop
      vertex -51 23 0
      vertex -51 21 0.2
      vertex -51 21 0
    endloop
  endfacet
endsolid OpenSCAD_Model
