solid OpenSCAD_Model
  facet normal -1 0 0
    outer loop
      vertex 6.5 -39.5 0
      vertex 6.5 -44.5 0.2
      vertex 6.5 -39.5 0.2
    endloop
  endfacet
  facet normal -1 0 0
    outer loop
      vertex 6.5 -49.5 0
      vertex 6.5 -44.5 0.2
      vertex 6.5 -39.5 0
    endloop
  endfacet
  facet normal -1 -0 0
    outer loop
      vertex 6.5 -44.5 0.2
      vertex 6.5 -49.5 0
      vertex 6.5 -49.5 0.2
    endloop
  endfacet
  facet normal -1 0 0
    outer loop
      vertex 6.5 -39.5 0.2
      vertex 6.5 -37.5 0.4
      vertex 6.5 -37.5 0.2
    endloop
  endfacet
  facet normal -1 0 0
    outer loop
      vertex 6.5 -44.5 0.4
      vertex 6.5 -39.5 0.2
      vertex 6.5 -44.5 0.2
    endloop
  endfacet
  facet normal -1 0 0
    outer loop
      vertex 6.5 -39.5 0.2
      vertex 6.5 -44.5 0.4
      vertex 6.5 -37.5 0.4
    endloop
  endfacet
  facet normal 0 0 1
    outer loop
      vertex 50.5 -37.5 0.2
      vertex 48.5 -39.5 0.2
      vertex 50.5 -49.5 0.2
    endloop
  endfacet
  facet normal 0 0 1
    outer loop
      vertex 50.5 -37.5 0.2
      vertex 46.3 -39.5 0.2
      vertex 48.5 -39.5 0.2
    endloop
  endfacet
  facet normal 0 0 1
    outer loop
      vertex 46.3 -39.5 0.2
      vertex 44.3 -39.5 0.2
      vertex 46.3 -49.5 0.2
    endloop
  endfacet
  facet normal 0 0 1
    outer loop
      vertex 50.5 -37.5 0.2
      vertex 44.3 -39.5 0.2
      vertex 46.3 -39.5 0.2
    endloop
  endfacet
  facet normal 0 0 1
    outer loop
      vertex 50.5 -37.5 0.2
      vertex 42.1 -39.5 0.2
      vertex 44.3 -39.5 0.2
    endloop
  endfacet
  facet normal 0 0 1
    outer loop
      vertex 42.1 -39.5 0.2
      vertex 40.1 -39.5 0.2
      vertex 42.1 -49.5 0.2
    endloop
  endfacet
  facet normal 0 0 1
    outer loop
      vertex 50.5 -37.5 0.2
      vertex 40.1 -39.5 0.2
      vertex 42.1 -39.5 0.2
    endloop
  endfacet
  facet normal 0 0 1
    outer loop
      vertex 50.5 -37.5 0.2
      vertex 37.9 -39.5 0.2
      vertex 40.1 -39.5 0.2
    endloop
  endfacet
  facet normal 0 0 1
    outer loop
      vertex 37.9 -39.5 0.2
      vertex 35.9 -39.5 0.2
      vertex 37.9 -49.5 0.2
    endloop
  endfacet
  facet normal 0 0 1
    outer loop
      vertex 50.5 -37.5 0.2
      vertex 35.9 -39.5 0.2
      vertex 37.9 -39.5 0.2
    endloop
  endfacet
  facet normal 0 0 1
    outer loop
      vertex 50.5 -37.5 0.2
      vertex 33.7 -39.5 0.2
      vertex 35.9 -39.5 0.2
    endloop
  endfacet
  facet normal 0 0 1
    outer loop
      vertex 33.7 -39.5 0.2
      vertex 31.7 -39.5 0.2
      vertex 33.7 -49.5 0.2
    endloop
  endfacet
  facet normal 0 0 1
    outer loop
      vertex 50.5 -37.5 0.2
      vertex 31.7 -39.5 0.2
      vertex 33.7 -39.5 0.2
    endloop
  endfacet
  facet normal 0 0 1
    outer loop
      vertex 50.5 -37.5 0.2
      vertex 29.5 -39.5 0.2
      vertex 31.7 -39.5 0.2
    endloop
  endfacet
  facet normal 0 0 1
    outer loop
      vertex 29.5 -39.5 0.2
      vertex 27.5 -39.5 0.2
      vertex 29.5 -49.5 0.2
    endloop
  endfacet
  facet normal 0 0 1
    outer loop
      vertex 50.5 -37.5 0.2
      vertex 27.5 -39.5 0.2
      vertex 29.5 -39.5 0.2
    endloop
  endfacet
  facet normal -0 0 1
    outer loop
      vertex 8.5 -37.5 0.2
      vertex 27.5 -39.5 0.2
      vertex 50.5 -37.5 0.2
    endloop
  endfacet
  facet normal 0 0 1
    outer loop
      vertex 25.3 -39.5 0.2
      vertex 23.3 -39.5 0.2
      vertex 25.3 -49.5 0.2
    endloop
  endfacet
  facet normal 0 0 1
    outer loop
      vertex 27.5 -39.5 0.2
      vertex 8.5 -37.5 0.2
      vertex 25.3 -39.5 0.2
    endloop
  endfacet
  facet normal 0 0 1
    outer loop
      vertex 25.3 -39.5 0.2
      vertex 8.5 -37.5 0.2
      vertex 23.3 -39.5 0.2
    endloop
  endfacet
  facet normal 0 0 1
    outer loop
      vertex 21.1 -39.5 0.2
      vertex 19.1 -39.5 0.2
      vertex 21.1 -49.5 0.2
    endloop
  endfacet
  facet normal 0 0 1
    outer loop
      vertex 23.3 -39.5 0.2
      vertex 8.5 -37.5 0.2
      vertex 21.1 -39.5 0.2
    endloop
  endfacet
  facet normal 0 0 1
    outer loop
      vertex 21.1 -39.5 0.2
      vertex 8.5 -37.5 0.2
      vertex 19.1 -39.5 0.2
    endloop
  endfacet
  facet normal 0 0 1
    outer loop
      vertex 16.9 -39.5 0.2
      vertex 14.9 -39.5 0.2
      vertex 16.9 -49.5 0.2
    endloop
  endfacet
  facet normal 0 0 1
    outer loop
      vertex 19.1 -39.5 0.2
      vertex 8.5 -37.5 0.2
      vertex 16.9 -39.5 0.2
    endloop
  endfacet
  facet normal 0 0 1
    outer loop
      vertex 16.9 -39.5 0.2
      vertex 8.5 -37.5 0.2
      vertex 14.9 -39.5 0.2
    endloop
  endfacet
  facet normal 0 0 1
    outer loop
      vertex 12.7 -39.5 0.2
      vertex 10.7 -39.5 0.2
      vertex 12.7 -49.5 0.2
    endloop
  endfacet
  facet normal 0 0 1
    outer loop
      vertex 14.9 -39.5 0.2
      vertex 8.5 -37.5 0.2
      vertex 12.7 -39.5 0.2
    endloop
  endfacet
  facet normal 0 0 1
    outer loop
      vertex 12.7 -39.5 0.2
      vertex 8.5 -37.5 0.2
      vertex 10.7 -39.5 0.2
    endloop
  endfacet
  facet normal 0 0 1
    outer loop
      vertex 10.7 -39.5 0.2
      vertex 8.5 -37.5 0.2
      vertex 8.5 -39.5 0.2
    endloop
  endfacet
  facet normal 0 0 1
    outer loop
      vertex 50.5 -49.5 0.2
      vertex 48.5 -39.5 0.2
      vertex 48.5 -49.5 0.2
    endloop
  endfacet
  facet normal 0 0 1
    outer loop
      vertex 46.3 -49.5 0.2
      vertex 44.3 -39.5 0.2
      vertex 44.3 -49.5 0.2
    endloop
  endfacet
  facet normal 0 0 1
    outer loop
      vertex 42.1 -49.5 0.2
      vertex 40.1 -39.5 0.2
      vertex 40.1 -49.5 0.2
    endloop
  endfacet
  facet normal 0 0 1
    outer loop
      vertex 37.9 -49.5 0.2
      vertex 35.9 -39.5 0.2
      vertex 35.9 -49.5 0.2
    endloop
  endfacet
  facet normal 0 0 1
    outer loop
      vertex 33.7 -49.5 0.2
      vertex 31.7 -39.5 0.2
      vertex 31.7 -49.5 0.2
    endloop
  endfacet
  facet normal 0 0 1
    outer loop
      vertex 29.5 -49.5 0.2
      vertex 27.5 -39.5 0.2
      vertex 27.5 -49.5 0.2
    endloop
  endfacet
  facet normal 0 0 1
    outer loop
      vertex 25.3 -49.5 0.2
      vertex 23.3 -39.5 0.2
      vertex 23.3 -49.5 0.2
    endloop
  endfacet
  facet normal 0 0 1
    outer loop
      vertex 21.1 -49.5 0.2
      vertex 19.1 -39.5 0.2
      vertex 19.1 -49.5 0.2
    endloop
  endfacet
  facet normal 0 0 1
    outer loop
      vertex 16.9 -49.5 0.2
      vertex 14.9 -39.5 0.2
      vertex 14.9 -49.5 0.2
    endloop
  endfacet
  facet normal 0 0 1
    outer loop
      vertex 12.7 -49.5 0.2
      vertex 10.7 -39.5 0.2
      vertex 10.7 -49.5 0.2
    endloop
  endfacet
  facet normal 0 0 1
    outer loop
      vertex 6.5 -37.5 0.2
      vertex 4.3 -39.5 0.2
      vertex 6.5 -39.5 0.2
    endloop
  endfacet
  facet normal 0 0 1
    outer loop
      vertex 4.3 -39.5 0.2
      vertex 2.3 -39.5 0.2
      vertex 4.3 -49.5 0.2
    endloop
  endfacet
  facet normal 0 0 1
    outer loop
      vertex 6.5 -37.5 0.2
      vertex 2.3 -39.5 0.2
      vertex 4.3 -39.5 0.2
    endloop
  endfacet
  facet normal 0 0 1
    outer loop
      vertex 6.5 -37.5 0.2
      vertex 0.0999994 -39.5 0.2
      vertex 2.3 -39.5 0.2
    endloop
  endfacet
  facet normal 0 0 1
    outer loop
      vertex 0.0999994 -39.5 0.2
      vertex -1.9 -39.5 0.2
      vertex 0.0999994 -49.5 0.2
    endloop
  endfacet
  facet normal 0 0 1
    outer loop
      vertex 6.5 -37.5 0.2
      vertex -1.9 -39.5 0.2
      vertex 0.0999994 -39.5 0.2
    endloop
  endfacet
  facet normal 0 0 1
    outer loop
      vertex 6.5 -37.5 0.2
      vertex -4.1 -39.5 0.2
      vertex -1.9 -39.5 0.2
    endloop
  endfacet
  facet normal 0 0 1
    outer loop
      vertex -4.1 -39.5 0.2
      vertex -6.1 -39.5 0.2
      vertex -4.1 -49.5 0.2
    endloop
  endfacet
  facet normal 0 0 1
    outer loop
      vertex 6.5 -37.5 0.2
      vertex -6.1 -39.5 0.2
      vertex -4.1 -39.5 0.2
    endloop
  endfacet
  facet normal 0 0 1
    outer loop
      vertex 6.5 -37.5 0.2
      vertex -8.3 -39.5 0.2
      vertex -6.1 -39.5 0.2
    endloop
  endfacet
  facet normal 0 0 1
    outer loop
      vertex -8.3 -39.5 0.2
      vertex -10.3 -39.5 0.2
      vertex -8.3 -49.5 0.2
    endloop
  endfacet
  facet normal 0 0 1
    outer loop
      vertex 6.5 -37.5 0.2
      vertex -10.3 -39.5 0.2
      vertex -8.3 -39.5 0.2
    endloop
  endfacet
  facet normal 0 0 1
    outer loop
      vertex 6.5 -37.5 0.2
      vertex -12.5 -39.5 0.2
      vertex -10.3 -39.5 0.2
    endloop
  endfacet
  facet normal 0 0 1
    outer loop
      vertex -12.5 -39.5 0.2
      vertex -14.5 -39.5 0.2
      vertex -12.5 -49.5 0.2
    endloop
  endfacet
  facet normal 0 0 1
    outer loop
      vertex 6.5 -37.5 0.2
      vertex -14.5 -39.5 0.2
      vertex -12.5 -39.5 0.2
    endloop
  endfacet
  facet normal -0 0 1
    outer loop
      vertex -35.5 -37.5 0.2
      vertex -14.5 -39.5 0.2
      vertex 6.5 -37.5 0.2
    endloop
  endfacet
  facet normal 0 0 1
    outer loop
      vertex -16.7 -39.5 0.2
      vertex -18.7 -39.5 0.2
      vertex -16.7 -49.5 0.2
    endloop
  endfacet
  facet normal 0 0 1
    outer loop
      vertex -14.5 -39.5 0.2
      vertex -35.5 -37.5 0.2
      vertex -16.7 -39.5 0.2
    endloop
  endfacet
  facet normal 0 0 1
    outer loop
      vertex -16.7 -39.5 0.2
      vertex -35.5 -37.5 0.2
      vertex -18.7 -39.5 0.2
    endloop
  endfacet
  facet normal 0 0 1
    outer loop
      vertex -20.9 -39.5 0.2
      vertex -22.9 -39.5 0.2
      vertex -20.9 -49.5 0.2
    endloop
  endfacet
  facet normal 0 0 1
    outer loop
      vertex -18.7 -39.5 0.2
      vertex -35.5 -37.5 0.2
      vertex -20.9 -39.5 0.2
    endloop
  endfacet
  facet normal 0 0 1
    outer loop
      vertex -20.9 -39.5 0.2
      vertex -35.5 -37.5 0.2
      vertex -22.9 -39.5 0.2
    endloop
  endfacet
  facet normal 0 0 1
    outer loop
      vertex -25.1 -39.5 0.2
      vertex -27.1 -39.5 0.2
      vertex -25.1 -49.5 0.2
    endloop
  endfacet
  facet normal 0 0 1
    outer loop
      vertex -22.9 -39.5 0.2
      vertex -35.5 -37.5 0.2
      vertex -25.1 -39.5 0.2
    endloop
  endfacet
  facet normal 0 0 1
    outer loop
      vertex -25.1 -39.5 0.2
      vertex -35.5 -37.5 0.2
      vertex -27.1 -39.5 0.2
    endloop
  endfacet
  facet normal 0 0 1
    outer loop
      vertex -29.3 -39.5 0.2
      vertex -31.3 -39.5 0.2
      vertex -29.3 -49.5 0.2
    endloop
  endfacet
  facet normal 0 0 1
    outer loop
      vertex -27.1 -39.5 0.2
      vertex -35.5 -37.5 0.2
      vertex -29.3 -39.5 0.2
    endloop
  endfacet
  facet normal 0 0 1
    outer loop
      vertex -29.3 -39.5 0.2
      vertex -35.5 -37.5 0.2
      vertex -31.3 -39.5 0.2
    endloop
  endfacet
  facet normal 0 0 1
    outer loop
      vertex -31.3 -39.5 0.2
      vertex -35.5 -37.5 0.2
      vertex -33.5 -39.5 0.2
    endloop
  endfacet
  facet normal 0 0 1
    outer loop
      vertex -35.5 -49.5 0.2
      vertex -33.5 -39.5 0.2
      vertex -35.5 -37.5 0.2
    endloop
  endfacet
  facet normal 0 0 1
    outer loop
      vertex -33.5 -39.5 0.2
      vertex -35.5 -49.5 0.2
      vertex -33.5 -49.5 0.2
    endloop
  endfacet
  facet normal 0 0 1
    outer loop
      vertex 4.3 -49.5 0.2
      vertex 2.3 -39.5 0.2
      vertex 2.3 -49.5 0.2
    endloop
  endfacet
  facet normal 0 0 1
    outer loop
      vertex 0.0999994 -49.5 0.2
      vertex -1.9 -39.5 0.2
      vertex -1.9 -49.5 0.2
    endloop
  endfacet
  facet normal 0 0 1
    outer loop
      vertex -4.1 -49.5 0.2
      vertex -6.1 -39.5 0.2
      vertex -6.1 -49.5 0.2
    endloop
  endfacet
  facet normal 0 0 1
    outer loop
      vertex -8.3 -49.5 0.2
      vertex -10.3 -39.5 0.2
      vertex -10.3 -49.5 0.2
    endloop
  endfacet
  facet normal 0 0 1
    outer loop
      vertex -12.5 -49.5 0.2
      vertex -14.5 -39.5 0.2
      vertex -14.5 -49.5 0.2
    endloop
  endfacet
  facet normal 0 0 1
    outer loop
      vertex -16.7 -49.5 0.2
      vertex -18.7 -39.5 0.2
      vertex -18.7 -49.5 0.2
    endloop
  endfacet
  facet normal 0 0 1
    outer loop
      vertex -20.9 -49.5 0.2
      vertex -22.9 -39.5 0.2
      vertex -22.9 -49.5 0.2
    endloop
  endfacet
  facet normal 0 0 1
    outer loop
      vertex -25.1 -49.5 0.2
      vertex -27.1 -39.5 0.2
      vertex -27.1 -49.5 0.2
    endloop
  endfacet
  facet normal 0 0 1
    outer loop
      vertex -29.3 -49.5 0.2
      vertex -31.3 -39.5 0.2
      vertex -31.3 -49.5 0.2
    endloop
  endfacet
  facet normal -0 0 1
    outer loop
      vertex 6.5 -44.5 0.2
      vertex 8.5 -49.5 0.2
      vertex 8.5 -44.5 0.2
    endloop
  endfacet
  facet normal 0 0 1
    outer loop
      vertex 8.5 -49.5 0.2
      vertex 6.5 -44.5 0.2
      vertex 6.5 -49.5 0.2
    endloop
  endfacet
  facet normal 1 0 0
    outer loop
      vertex 8.5 -37.5 0.4
      vertex 8.5 -39.5 0.2
      vertex 8.5 -37.5 0.2
    endloop
  endfacet
  facet normal 1 -0 0
    outer loop
      vertex 8.5 -44.5 0.4
      vertex 8.5 -39.5 0.2
      vertex 8.5 -37.5 0.4
    endloop
  endfacet
  facet normal 1 0 0
    outer loop
      vertex 8.5 -44.5 0.2
      vertex 8.5 -39.5 0.2
      vertex 8.5 -44.5 0.4
    endloop
  endfacet
  facet normal 1 0 0
    outer loop
      vertex 8.5 -39.5 0.2
      vertex 8.5 -44.5 0.2
      vertex 8.5 -39.5 0
    endloop
  endfacet
  facet normal 1 0 0
    outer loop
      vertex 8.5 -49.5 0
      vertex 8.5 -44.5 0.2
      vertex 8.5 -49.5 0.2
    endloop
  endfacet
  facet normal 1 0 0
    outer loop
      vertex 8.5 -44.5 0.2
      vertex 8.5 -49.5 0
      vertex 8.5 -39.5 0
    endloop
  endfacet
  facet normal 0 -1 0
    outer loop
      vertex 6.5 -49.5 0
      vertex 8.5 -49.5 0.2
      vertex 6.5 -49.5 0.2
    endloop
  endfacet
  facet normal 0 -1 -0
    outer loop
      vertex 8.5 -49.5 0.2
      vertex 6.5 -49.5 0
      vertex 8.5 -49.5 0
    endloop
  endfacet
  facet normal 0 0 -1
    outer loop
      vertex -33.5 -49.5 0
      vertex -35.5 -49.5 0
      vertex -33.5 -39.5 0
    endloop
  endfacet
  facet normal 0 0 -1
    outer loop
      vertex -29.3 -49.5 0
      vertex -31.3 -49.5 0
      vertex -29.3 -39.5 0
    endloop
  endfacet
  facet normal 0 0 -1
    outer loop
      vertex -25.1 -49.5 0
      vertex -27.1 -49.5 0
      vertex -25.1 -39.5 0
    endloop
  endfacet
  facet normal 0 0 -1
    outer loop
      vertex -20.9 -49.5 0
      vertex -22.9 -49.5 0
      vertex -20.9 -39.5 0
    endloop
  endfacet
  facet normal 0 0 -1
    outer loop
      vertex -16.7 -49.5 0
      vertex -18.7 -49.5 0
      vertex -16.7 -39.5 0
    endloop
  endfacet
  facet normal 0 0 -1
    outer loop
      vertex -12.5 -49.5 0
      vertex -14.5 -49.5 0
      vertex -12.5 -39.5 0
    endloop
  endfacet
  facet normal 0 0 -1
    outer loop
      vertex -8.3 -49.5 0
      vertex -10.3 -49.5 0
      vertex -8.3 -39.5 0
    endloop
  endfacet
  facet normal 0 0 -1
    outer loop
      vertex -4.1 -49.5 0
      vertex -6.1 -49.5 0
      vertex -4.1 -39.5 0
    endloop
  endfacet
  facet normal 0 0 -1
    outer loop
      vertex 0.0999994 -49.5 0
      vertex -1.9 -49.5 0
      vertex 0.0999994 -39.5 0
    endloop
  endfacet
  facet normal 0 0 -1
    outer loop
      vertex 4.3 -49.5 0
      vertex 2.3 -49.5 0
      vertex 4.3 -39.5 0
    endloop
  endfacet
  facet normal 0 0 -1
    outer loop
      vertex 8.5 -49.5 0
      vertex 6.5 -49.5 0
      vertex 8.5 -39.5 0
    endloop
  endfacet
  facet normal 0 0 -1
    outer loop
      vertex 12.7 -49.5 0
      vertex 10.7 -49.5 0
      vertex 12.7 -39.5 0
    endloop
  endfacet
  facet normal 0 0 -1
    outer loop
      vertex 16.9 -49.5 0
      vertex 14.9 -49.5 0
      vertex 16.9 -39.5 0
    endloop
  endfacet
  facet normal 0 0 -1
    outer loop
      vertex 21.1 -49.5 0
      vertex 19.1 -49.5 0
      vertex 21.1 -39.5 0
    endloop
  endfacet
  facet normal 0 0 -1
    outer loop
      vertex 25.3 -49.5 0
      vertex 23.3 -49.5 0
      vertex 25.3 -39.5 0
    endloop
  endfacet
  facet normal 0 0 -1
    outer loop
      vertex 29.5 -49.5 0
      vertex 27.5 -49.5 0
      vertex 29.5 -39.5 0
    endloop
  endfacet
  facet normal 0 0 -1
    outer loop
      vertex 33.7 -49.5 0
      vertex 31.7 -49.5 0
      vertex 33.7 -39.5 0
    endloop
  endfacet
  facet normal 0 0 -1
    outer loop
      vertex 37.9 -49.5 0
      vertex 35.9 -49.5 0
      vertex 37.9 -39.5 0
    endloop
  endfacet
  facet normal 0 0 -1
    outer loop
      vertex 42.1 -49.5 0
      vertex 40.1 -49.5 0
      vertex 42.1 -39.5 0
    endloop
  endfacet
  facet normal 0 0 -1
    outer loop
      vertex 46.3 -49.5 0
      vertex 44.3 -49.5 0
      vertex 46.3 -39.5 0
    endloop
  endfacet
  facet normal 0 0 -1
    outer loop
      vertex 48.5 -39.5 0
      vertex 50.5 -49.5 0
      vertex 48.5 -49.5 0
    endloop
  endfacet
  facet normal 0 0 -1
    outer loop
      vertex 50.5 -49.5 0
      vertex 48.5 -39.5 0
      vertex 50.5 -37.5 0
    endloop
  endfacet
  facet normal 0 0 -1
    outer loop
      vertex 46.3 -39.5 0
      vertex 50.5 -37.5 0
      vertex 48.5 -39.5 0
    endloop
  endfacet
  facet normal 0 0 -1
    outer loop
      vertex 44.3 -39.5 0
      vertex 46.3 -39.5 0
      vertex 44.3 -49.5 0
    endloop
  endfacet
  facet normal 0 0 -1
    outer loop
      vertex 44.3 -39.5 0
      vertex 50.5 -37.5 0
      vertex 46.3 -39.5 0
    endloop
  endfacet
  facet normal 0 0 -1
    outer loop
      vertex 42.1 -39.5 0
      vertex 50.5 -37.5 0
      vertex 44.3 -39.5 0
    endloop
  endfacet
  facet normal 0 0 -1
    outer loop
      vertex 40.1 -39.5 0
      vertex 42.1 -39.5 0
      vertex 40.1 -49.5 0
    endloop
  endfacet
  facet normal 0 0 -1
    outer loop
      vertex 40.1 -39.5 0
      vertex 50.5 -37.5 0
      vertex 42.1 -39.5 0
    endloop
  endfacet
  facet normal 0 0 -1
    outer loop
      vertex 37.9 -39.5 0
      vertex 50.5 -37.5 0
      vertex 40.1 -39.5 0
    endloop
  endfacet
  facet normal 0 0 -1
    outer loop
      vertex 35.9 -39.5 0
      vertex 37.9 -39.5 0
      vertex 35.9 -49.5 0
    endloop
  endfacet
  facet normal 0 0 -1
    outer loop
      vertex 35.9 -39.5 0
      vertex 50.5 -37.5 0
      vertex 37.9 -39.5 0
    endloop
  endfacet
  facet normal 0 0 -1
    outer loop
      vertex 33.7 -39.5 0
      vertex 50.5 -37.5 0
      vertex 35.9 -39.5 0
    endloop
  endfacet
  facet normal 0 0 -1
    outer loop
      vertex 31.7 -39.5 0
      vertex 33.7 -39.5 0
      vertex 31.7 -49.5 0
    endloop
  endfacet
  facet normal 0 0 -1
    outer loop
      vertex 31.7 -39.5 0
      vertex 50.5 -37.5 0
      vertex 33.7 -39.5 0
    endloop
  endfacet
  facet normal 0 0 -1
    outer loop
      vertex 29.5 -39.5 0
      vertex 50.5 -37.5 0
      vertex 31.7 -39.5 0
    endloop
  endfacet
  facet normal 0 0 -1
    outer loop
      vertex 27.5 -39.5 0
      vertex 29.5 -39.5 0
      vertex 27.5 -49.5 0
    endloop
  endfacet
  facet normal 0 0 -1
    outer loop
      vertex 27.5 -39.5 0
      vertex 50.5 -37.5 0
      vertex 29.5 -39.5 0
    endloop
  endfacet
  facet normal 0 0 -1
    outer loop
      vertex 25.3 -39.5 0
      vertex 50.5 -37.5 0
      vertex 27.5 -39.5 0
    endloop
  endfacet
  facet normal 0 0 -1
    outer loop
      vertex 23.3 -39.5 0
      vertex 25.3 -39.5 0
      vertex 23.3 -49.5 0
    endloop
  endfacet
  facet normal 0 0 -1
    outer loop
      vertex 23.3 -39.5 0
      vertex 50.5 -37.5 0
      vertex 25.3 -39.5 0
    endloop
  endfacet
  facet normal 0 0 -1
    outer loop
      vertex 21.1 -39.5 0
      vertex 50.5 -37.5 0
      vertex 23.3 -39.5 0
    endloop
  endfacet
  facet normal 0 0 -1
    outer loop
      vertex 19.1 -39.5 0
      vertex 21.1 -39.5 0
      vertex 19.1 -49.5 0
    endloop
  endfacet
  facet normal 0 0 -1
    outer loop
      vertex 19.1 -39.5 0
      vertex 50.5 -37.5 0
      vertex 21.1 -39.5 0
    endloop
  endfacet
  facet normal 0 0 -1
    outer loop
      vertex 16.9 -39.5 0
      vertex 50.5 -37.5 0
      vertex 19.1 -39.5 0
    endloop
  endfacet
  facet normal 0 0 -1
    outer loop
      vertex 14.9 -39.5 0
      vertex 16.9 -39.5 0
      vertex 14.9 -49.5 0
    endloop
  endfacet
  facet normal 0 0 -1
    outer loop
      vertex 14.9 -39.5 0
      vertex 50.5 -37.5 0
      vertex 16.9 -39.5 0
    endloop
  endfacet
  facet normal 0 0 -1
    outer loop
      vertex 12.7 -39.5 0
      vertex 50.5 -37.5 0
      vertex 14.9 -39.5 0
    endloop
  endfacet
  facet normal 0 0 -1
    outer loop
      vertex 10.7 -39.5 0
      vertex 12.7 -39.5 0
      vertex 10.7 -49.5 0
    endloop
  endfacet
  facet normal 0 0 -1
    outer loop
      vertex 10.7 -39.5 0
      vertex 50.5 -37.5 0
      vertex 12.7 -39.5 0
    endloop
  endfacet
  facet normal 0 0 -1
    outer loop
      vertex 8.5 -39.5 0
      vertex 50.5 -37.5 0
      vertex 10.7 -39.5 0
    endloop
  endfacet
  facet normal 0 0 -1
    outer loop
      vertex 6.5 -39.5 0
      vertex 8.5 -39.5 0
      vertex 6.5 -49.5 0
    endloop
  endfacet
  facet normal 0 0 -1
    outer loop
      vertex 6.5 -39.5 0
      vertex 50.5 -37.5 0
      vertex 8.5 -39.5 0
    endloop
  endfacet
  facet normal 0 0 -1
    outer loop
      vertex 4.3 -39.5 0
      vertex 50.5 -37.5 0
      vertex 6.5 -39.5 0
    endloop
  endfacet
  facet normal 0 0 -1
    outer loop
      vertex 2.3 -39.5 0
      vertex 4.3 -39.5 0
      vertex 2.3 -49.5 0
    endloop
  endfacet
  facet normal 0 0 -1
    outer loop
      vertex 2.3 -39.5 0
      vertex 50.5 -37.5 0
      vertex 4.3 -39.5 0
    endloop
  endfacet
  facet normal 0 0 -1
    outer loop
      vertex -35.5 -37.5 0
      vertex 2.3 -39.5 0
      vertex 0.0999994 -39.5 0
    endloop
  endfacet
  facet normal 0 0 -1
    outer loop
      vertex -1.9 -39.5 0
      vertex 0.0999994 -39.5 0
      vertex -1.9 -49.5 0
    endloop
  endfacet
  facet normal 0 0 -1
    outer loop
      vertex -35.5 -37.5 0
      vertex 0.0999994 -39.5 0
      vertex -1.9 -39.5 0
    endloop
  endfacet
  facet normal 0 0 -1
    outer loop
      vertex -35.5 -37.5 0
      vertex -1.9 -39.5 0
      vertex -4.1 -39.5 0
    endloop
  endfacet
  facet normal 0 0 -1
    outer loop
      vertex -6.1 -39.5 0
      vertex -4.1 -39.5 0
      vertex -6.1 -49.5 0
    endloop
  endfacet
  facet normal 0 0 -1
    outer loop
      vertex -35.5 -37.5 0
      vertex -4.1 -39.5 0
      vertex -6.1 -39.5 0
    endloop
  endfacet
  facet normal 0 0 -1
    outer loop
      vertex -35.5 -37.5 0
      vertex -6.1 -39.5 0
      vertex -8.3 -39.5 0
    endloop
  endfacet
  facet normal 0 0 -1
    outer loop
      vertex -10.3 -39.5 0
      vertex -8.3 -39.5 0
      vertex -10.3 -49.5 0
    endloop
  endfacet
  facet normal 0 0 -1
    outer loop
      vertex -35.5 -37.5 0
      vertex -8.3 -39.5 0
      vertex -10.3 -39.5 0
    endloop
  endfacet
  facet normal 0 0 -1
    outer loop
      vertex -35.5 -37.5 0
      vertex -10.3 -39.5 0
      vertex -12.5 -39.5 0
    endloop
  endfacet
  facet normal 0 0 -1
    outer loop
      vertex -14.5 -39.5 0
      vertex -12.5 -39.5 0
      vertex -14.5 -49.5 0
    endloop
  endfacet
  facet normal 0 0 -1
    outer loop
      vertex -35.5 -37.5 0
      vertex -12.5 -39.5 0
      vertex -14.5 -39.5 0
    endloop
  endfacet
  facet normal 0 0 -1
    outer loop
      vertex -35.5 -37.5 0
      vertex -14.5 -39.5 0
      vertex -16.7 -39.5 0
    endloop
  endfacet
  facet normal 0 0 -1
    outer loop
      vertex -18.7 -39.5 0
      vertex -16.7 -39.5 0
      vertex -18.7 -49.5 0
    endloop
  endfacet
  facet normal 0 0 -1
    outer loop
      vertex -35.5 -37.5 0
      vertex -16.7 -39.5 0
      vertex -18.7 -39.5 0
    endloop
  endfacet
  facet normal 0 0 -1
    outer loop
      vertex -35.5 -37.5 0
      vertex -18.7 -39.5 0
      vertex -20.9 -39.5 0
    endloop
  endfacet
  facet normal 0 0 -1
    outer loop
      vertex -22.9 -39.5 0
      vertex -20.9 -39.5 0
      vertex -22.9 -49.5 0
    endloop
  endfacet
  facet normal 0 0 -1
    outer loop
      vertex -35.5 -37.5 0
      vertex -20.9 -39.5 0
      vertex -22.9 -39.5 0
    endloop
  endfacet
  facet normal 0 0 -1
    outer loop
      vertex -35.5 -37.5 0
      vertex -22.9 -39.5 0
      vertex -25.1 -39.5 0
    endloop
  endfacet
  facet normal 0 0 -1
    outer loop
      vertex -27.1 -39.5 0
      vertex -25.1 -39.5 0
      vertex -27.1 -49.5 0
    endloop
  endfacet
  facet normal 0 0 -1
    outer loop
      vertex -35.5 -37.5 0
      vertex -25.1 -39.5 0
      vertex -27.1 -39.5 0
    endloop
  endfacet
  facet normal 0 0 -1
    outer loop
      vertex -35.5 -37.5 0
      vertex -27.1 -39.5 0
      vertex -29.3 -39.5 0
    endloop
  endfacet
  facet normal 0 0 -1
    outer loop
      vertex -31.3 -39.5 0
      vertex -29.3 -39.5 0
      vertex -31.3 -49.5 0
    endloop
  endfacet
  facet normal 0 0 -1
    outer loop
      vertex -35.5 -37.5 0
      vertex -29.3 -39.5 0
      vertex -31.3 -39.5 0
    endloop
  endfacet
  facet normal 0 0 -1
    outer loop
      vertex -35.5 -37.5 0
      vertex -31.3 -39.5 0
      vertex -33.5 -39.5 0
    endloop
  endfacet
  facet normal 0 0 -1
    outer loop
      vertex 2.3 -39.5 0
      vertex -35.5 -37.5 0
      vertex 50.5 -37.5 0
    endloop
  endfacet
  facet normal 0 0 -1
    outer loop
      vertex -35.5 -37.5 0
      vertex -33.5 -39.5 0
      vertex -35.5 -49.5 0
    endloop
  endfacet
  facet normal 0 -1 0
    outer loop
      vertex 46.3 -39.5 0
      vertex 48.5 -39.5 0.2
      vertex 46.3 -39.5 0.2
    endloop
  endfacet
  facet normal 0 -1 -0
    outer loop
      vertex 48.5 -39.5 0.2
      vertex 46.3 -39.5 0
      vertex 48.5 -39.5 0
    endloop
  endfacet
  facet normal 0 -1 0
    outer loop
      vertex 42.1 -39.5 0
      vertex 44.3 -39.5 0.2
      vertex 42.1 -39.5 0.2
    endloop
  endfacet
  facet normal 0 -1 -0
    outer loop
      vertex 44.3 -39.5 0.2
      vertex 42.1 -39.5 0
      vertex 44.3 -39.5 0
    endloop
  endfacet
  facet normal 0 -1 0
    outer loop
      vertex 37.9 -39.5 0
      vertex 40.1 -39.5 0.2
      vertex 37.9 -39.5 0.2
    endloop
  endfacet
  facet normal 0 -1 -0
    outer loop
      vertex 40.1 -39.5 0.2
      vertex 37.9 -39.5 0
      vertex 40.1 -39.5 0
    endloop
  endfacet
  facet normal 0 -1 0
    outer loop
      vertex 33.7 -39.5 0
      vertex 35.9 -39.5 0.2
      vertex 33.7 -39.5 0.2
    endloop
  endfacet
  facet normal 0 -1 -0
    outer loop
      vertex 35.9 -39.5 0.2
      vertex 33.7 -39.5 0
      vertex 35.9 -39.5 0
    endloop
  endfacet
  facet normal 0 -1 0
    outer loop
      vertex 29.5 -39.5 0
      vertex 31.7 -39.5 0.2
      vertex 29.5 -39.5 0.2
    endloop
  endfacet
  facet normal 0 -1 -0
    outer loop
      vertex 31.7 -39.5 0.2
      vertex 29.5 -39.5 0
      vertex 31.7 -39.5 0
    endloop
  endfacet
  facet normal 0 -1 0
    outer loop
      vertex 25.3 -39.5 0
      vertex 27.5 -39.5 0.2
      vertex 25.3 -39.5 0.2
    endloop
  endfacet
  facet normal 0 -1 -0
    outer loop
      vertex 27.5 -39.5 0.2
      vertex 25.3 -39.5 0
      vertex 27.5 -39.5 0
    endloop
  endfacet
  facet normal 0 -1 0
    outer loop
      vertex 21.1 -39.5 0
      vertex 23.3 -39.5 0.2
      vertex 21.1 -39.5 0.2
    endloop
  endfacet
  facet normal 0 -1 -0
    outer loop
      vertex 23.3 -39.5 0.2
      vertex 21.1 -39.5 0
      vertex 23.3 -39.5 0
    endloop
  endfacet
  facet normal 0 -1 0
    outer loop
      vertex 16.9 -39.5 0
      vertex 19.1 -39.5 0.2
      vertex 16.9 -39.5 0.2
    endloop
  endfacet
  facet normal 0 -1 -0
    outer loop
      vertex 19.1 -39.5 0.2
      vertex 16.9 -39.5 0
      vertex 19.1 -39.5 0
    endloop
  endfacet
  facet normal 0 -1 0
    outer loop
      vertex 12.7 -39.5 0
      vertex 14.9 -39.5 0.2
      vertex 12.7 -39.5 0.2
    endloop
  endfacet
  facet normal 0 -1 -0
    outer loop
      vertex 14.9 -39.5 0.2
      vertex 12.7 -39.5 0
      vertex 14.9 -39.5 0
    endloop
  endfacet
  facet normal 0 -1 0
    outer loop
      vertex 8.5 -39.5 0
      vertex 10.7 -39.5 0.2
      vertex 8.5 -39.5 0.2
    endloop
  endfacet
  facet normal 0 -1 -0
    outer loop
      vertex 10.7 -39.5 0.2
      vertex 8.5 -39.5 0
      vertex 10.7 -39.5 0
    endloop
  endfacet
  facet normal 0 -1 0
    outer loop
      vertex 4.3 -39.5 0
      vertex 6.5 -39.5 0.2
      vertex 4.3 -39.5 0.2
    endloop
  endfacet
  facet normal 0 -1 -0
    outer loop
      vertex 6.5 -39.5 0.2
      vertex 4.3 -39.5 0
      vertex 6.5 -39.5 0
    endloop
  endfacet
  facet normal 0 -1 0
    outer loop
      vertex 0.0999994 -39.5 0
      vertex 2.3 -39.5 0.2
      vertex 0.0999994 -39.5 0.2
    endloop
  endfacet
  facet normal 0 -1 -0
    outer loop
      vertex 2.3 -39.5 0.2
      vertex 0.0999994 -39.5 0
      vertex 2.3 -39.5 0
    endloop
  endfacet
  facet normal 0 -1 0
    outer loop
      vertex -4.1 -39.5 0
      vertex -1.9 -39.5 0.2
      vertex -4.1 -39.5 0.2
    endloop
  endfacet
  facet normal 0 -1 -0
    outer loop
      vertex -1.9 -39.5 0.2
      vertex -4.1 -39.5 0
      vertex -1.9 -39.5 0
    endloop
  endfacet
  facet normal 0 -1 0
    outer loop
      vertex -8.3 -39.5 0
      vertex -6.1 -39.5 0.2
      vertex -8.3 -39.5 0.2
    endloop
  endfacet
  facet normal 0 -1 -0
    outer loop
      vertex -6.1 -39.5 0.2
      vertex -8.3 -39.5 0
      vertex -6.1 -39.5 0
    endloop
  endfacet
  facet normal 0 -1 0
    outer loop
      vertex -12.5 -39.5 0
      vertex -10.3 -39.5 0.2
      vertex -12.5 -39.5 0.2
    endloop
  endfacet
  facet normal 0 -1 -0
    outer loop
      vertex -10.3 -39.5 0.2
      vertex -12.5 -39.5 0
      vertex -10.3 -39.5 0
    endloop
  endfacet
  facet normal 0 -1 0
    outer loop
      vertex -16.7 -39.5 0
      vertex -14.5 -39.5 0.2
      vertex -16.7 -39.5 0.2
    endloop
  endfacet
  facet normal 0 -1 -0
    outer loop
      vertex -14.5 -39.5 0.2
      vertex -16.7 -39.5 0
      vertex -14.5 -39.5 0
    endloop
  endfacet
  facet normal 0 -1 0
    outer loop
      vertex -20.9 -39.5 0
      vertex -18.7 -39.5 0.2
      vertex -20.9 -39.5 0.2
    endloop
  endfacet
  facet normal 0 -1 -0
    outer loop
      vertex -18.7 -39.5 0.2
      vertex -20.9 -39.5 0
      vertex -18.7 -39.5 0
    endloop
  endfacet
  facet normal 0 -1 0
    outer loop
      vertex -25.1 -39.5 0
      vertex -22.9 -39.5 0.2
      vertex -25.1 -39.5 0.2
    endloop
  endfacet
  facet normal 0 -1 -0
    outer loop
      vertex -22.9 -39.5 0.2
      vertex -25.1 -39.5 0
      vertex -22.9 -39.5 0
    endloop
  endfacet
  facet normal 0 -1 0
    outer loop
      vertex -29.3 -39.5 0
      vertex -27.1 -39.5 0.2
      vertex -29.3 -39.5 0.2
    endloop
  endfacet
  facet normal 0 -1 -0
    outer loop
      vertex -27.1 -39.5 0.2
      vertex -29.3 -39.5 0
      vertex -27.1 -39.5 0
    endloop
  endfacet
  facet normal 0 -1 0
    outer loop
      vertex -33.5 -39.5 0
      vertex -31.3 -39.5 0.2
      vertex -33.5 -39.5 0.2
    endloop
  endfacet
  facet normal 0 -1 -0
    outer loop
      vertex -31.3 -39.5 0.2
      vertex -33.5 -39.5 0
      vertex -31.3 -39.5 0
    endloop
  endfacet
  facet normal -0 0 1
    outer loop
      vertex 6.5 -37.5 0.4
      vertex 8.5 -44.5 0.4
      vertex 8.5 -37.5 0.4
    endloop
  endfacet
  facet normal 0 0 1
    outer loop
      vertex 8.5 -44.5 0.4
      vertex 6.5 -37.5 0.4
      vertex 6.5 -44.5 0.4
    endloop
  endfacet
  facet normal 0 1 -0
    outer loop
      vertex 50.5 -37.5 0
      vertex 8.5 -37.5 0.2
      vertex 50.5 -37.5 0.2
    endloop
  endfacet
  facet normal 0 1 0
    outer loop
      vertex 8.5 -37.5 0.2
      vertex 50.5 -37.5 0
      vertex 6.5 -37.5 0.2
    endloop
  endfacet
  facet normal 0 1 0
    outer loop
      vertex -35.5 -37.5 0
      vertex 6.5 -37.5 0.2
      vertex 50.5 -37.5 0
    endloop
  endfacet
  facet normal 0 1 0
    outer loop
      vertex 6.5 -37.5 0.2
      vertex -35.5 -37.5 0
      vertex -35.5 -37.5 0.2
    endloop
  endfacet
  facet normal 0 1 -0
    outer loop
      vertex 8.5 -37.5 0.2
      vertex 6.5 -37.5 0.4
      vertex 8.5 -37.5 0.4
    endloop
  endfacet
  facet normal 0 1 0
    outer loop
      vertex 6.5 -37.5 0.4
      vertex 8.5 -37.5 0.2
      vertex 6.5 -37.5 0.2
    endloop
  endfacet
  facet normal 0 -1 0
    outer loop
      vertex 6.5 -44.5 0.2
      vertex 8.5 -44.5 0.4
      vertex 6.5 -44.5 0.4
    endloop
  endfacet
  facet normal 0 -1 -0
    outer loop
      vertex 8.5 -44.5 0.4
      vertex 6.5 -44.5 0.2
      vertex 8.5 -44.5 0.2
    endloop
  endfacet
  facet normal -1 0 0
    outer loop
      vertex -35.5 -49.5 0
      vertex -35.5 -37.5 0.2
      vertex -35.5 -37.5 0
    endloop
  endfacet
  facet normal -1 -0 0
    outer loop
      vertex -35.5 -37.5 0.2
      vertex -35.5 -49.5 0
      vertex -35.5 -49.5 0.2
    endloop
  endfacet
  facet normal 1 -0 0
    outer loop
      vertex -33.5 -49.5 0.2
      vertex -33.5 -39.5 0
      vertex -33.5 -39.5 0.2
    endloop
  endfacet
  facet normal 1 0 0
    outer loop
      vertex -33.5 -39.5 0
      vertex -33.5 -49.5 0.2
      vertex -33.5 -49.5 0
    endloop
  endfacet
  facet normal 0 -1 0
    outer loop
      vertex -35.5 -49.5 0
      vertex -33.5 -49.5 0.2
      vertex -35.5 -49.5 0.2
    endloop
  endfacet
  facet normal 0 -1 -0
    outer loop
      vertex -33.5 -49.5 0.2
      vertex -35.5 -49.5 0
      vertex -33.5 -49.5 0
    endloop
  endfacet
  facet normal -1 0 0
    outer loop
      vertex -31.3 -49.5 0
      vertex -31.3 -39.5 0.2
      vertex -31.3 -39.5 0
    endloop
  endfacet
  facet normal -1 -0 0
    outer loop
      vertex -31.3 -39.5 0.2
      vertex -31.3 -49.5 0
      vertex -31.3 -49.5 0.2
    endloop
  endfacet
  facet normal 1 -0 0
    outer loop
      vertex -29.3 -49.5 0.2
      vertex -29.3 -39.5 0
      vertex -29.3 -39.5 0.2
    endloop
  endfacet
  facet normal 1 0 0
    outer loop
      vertex -29.3 -39.5 0
      vertex -29.3 -49.5 0.2
      vertex -29.3 -49.5 0
    endloop
  endfacet
  facet normal 0 -1 0
    outer loop
      vertex -31.3 -49.5 0
      vertex -29.3 -49.5 0.2
      vertex -31.3 -49.5 0.2
    endloop
  endfacet
  facet normal 0 -1 -0
    outer loop
      vertex -29.3 -49.5 0.2
      vertex -31.3 -49.5 0
      vertex -29.3 -49.5 0
    endloop
  endfacet
  facet normal -1 0 0
    outer loop
      vertex -27.1 -49.5 0
      vertex -27.1 -39.5 0.2
      vertex -27.1 -39.5 0
    endloop
  endfacet
  facet normal -1 -0 0
    outer loop
      vertex -27.1 -39.5 0.2
      vertex -27.1 -49.5 0
      vertex -27.1 -49.5 0.2
    endloop
  endfacet
  facet normal 1 -0 0
    outer loop
      vertex -25.1 -49.5 0.2
      vertex -25.1 -39.5 0
      vertex -25.1 -39.5 0.2
    endloop
  endfacet
  facet normal 1 0 0
    outer loop
      vertex -25.1 -39.5 0
      vertex -25.1 -49.5 0.2
      vertex -25.1 -49.5 0
    endloop
  endfacet
  facet normal 0 -1 0
    outer loop
      vertex -27.1 -49.5 0
      vertex -25.1 -49.5 0.2
      vertex -27.1 -49.5 0.2
    endloop
  endfacet
  facet normal 0 -1 -0
    outer loop
      vertex -25.1 -49.5 0.2
      vertex -27.1 -49.5 0
      vertex -25.1 -49.5 0
    endloop
  endfacet
  facet normal -1 0 0
    outer loop
      vertex -22.9 -49.5 0
      vertex -22.9 -39.5 0.2
      vertex -22.9 -39.5 0
    endloop
  endfacet
  facet normal -1 -0 0
    outer loop
      vertex -22.9 -39.5 0.2
      vertex -22.9 -49.5 0
      vertex -22.9 -49.5 0.2
    endloop
  endfacet
  facet normal 1 -0 0
    outer loop
      vertex -20.9 -49.5 0.2
      vertex -20.9 -39.5 0
      vertex -20.9 -39.5 0.2
    endloop
  endfacet
  facet normal 1 0 0
    outer loop
      vertex -20.9 -39.5 0
      vertex -20.9 -49.5 0.2
      vertex -20.9 -49.5 0
    endloop
  endfacet
  facet normal 0 -1 0
    outer loop
      vertex -22.9 -49.5 0
      vertex -20.9 -49.5 0.2
      vertex -22.9 -49.5 0.2
    endloop
  endfacet
  facet normal 0 -1 -0
    outer loop
      vertex -20.9 -49.5 0.2
      vertex -22.9 -49.5 0
      vertex -20.9 -49.5 0
    endloop
  endfacet
  facet normal -1 0 0
    outer loop
      vertex -18.7 -49.5 0
      vertex -18.7 -39.5 0.2
      vertex -18.7 -39.5 0
    endloop
  endfacet
  facet normal -1 -0 0
    outer loop
      vertex -18.7 -39.5 0.2
      vertex -18.7 -49.5 0
      vertex -18.7 -49.5 0.2
    endloop
  endfacet
  facet normal 1 -0 0
    outer loop
      vertex -16.7 -49.5 0.2
      vertex -16.7 -39.5 0
      vertex -16.7 -39.5 0.2
    endloop
  endfacet
  facet normal 1 0 0
    outer loop
      vertex -16.7 -39.5 0
      vertex -16.7 -49.5 0.2
      vertex -16.7 -49.5 0
    endloop
  endfacet
  facet normal 0 -1 0
    outer loop
      vertex -18.7 -49.5 0
      vertex -16.7 -49.5 0.2
      vertex -18.7 -49.5 0.2
    endloop
  endfacet
  facet normal 0 -1 -0
    outer loop
      vertex -16.7 -49.5 0.2
      vertex -18.7 -49.5 0
      vertex -16.7 -49.5 0
    endloop
  endfacet
  facet normal -1 0 0
    outer loop
      vertex -14.5 -49.5 0
      vertex -14.5 -39.5 0.2
      vertex -14.5 -39.5 0
    endloop
  endfacet
  facet normal -1 -0 0
    outer loop
      vertex -14.5 -39.5 0.2
      vertex -14.5 -49.5 0
      vertex -14.5 -49.5 0.2
    endloop
  endfacet
  facet normal 1 -0 0
    outer loop
      vertex -12.5 -49.5 0.2
      vertex -12.5 -39.5 0
      vertex -12.5 -39.5 0.2
    endloop
  endfacet
  facet normal 1 0 0
    outer loop
      vertex -12.5 -39.5 0
      vertex -12.5 -49.5 0.2
      vertex -12.5 -49.5 0
    endloop
  endfacet
  facet normal 0 -1 0
    outer loop
      vertex -14.5 -49.5 0
      vertex -12.5 -49.5 0.2
      vertex -14.5 -49.5 0.2
    endloop
  endfacet
  facet normal 0 -1 -0
    outer loop
      vertex -12.5 -49.5 0.2
      vertex -14.5 -49.5 0
      vertex -12.5 -49.5 0
    endloop
  endfacet
  facet normal -1 0 0
    outer loop
      vertex -10.3 -49.5 0
      vertex -10.3 -39.5 0.2
      vertex -10.3 -39.5 0
    endloop
  endfacet
  facet normal -1 -0 0
    outer loop
      vertex -10.3 -39.5 0.2
      vertex -10.3 -49.5 0
      vertex -10.3 -49.5 0.2
    endloop
  endfacet
  facet normal 1 -0 0
    outer loop
      vertex -8.3 -49.5 0.2
      vertex -8.3 -39.5 0
      vertex -8.3 -39.5 0.2
    endloop
  endfacet
  facet normal 1 0 0
    outer loop
      vertex -8.3 -39.5 0
      vertex -8.3 -49.5 0.2
      vertex -8.3 -49.5 0
    endloop
  endfacet
  facet normal 0 -1 0
    outer loop
      vertex -10.3 -49.5 0
      vertex -8.3 -49.5 0.2
      vertex -10.3 -49.5 0.2
    endloop
  endfacet
  facet normal 0 -1 -0
    outer loop
      vertex -8.3 -49.5 0.2
      vertex -10.3 -49.5 0
      vertex -8.3 -49.5 0
    endloop
  endfacet
  facet normal -1 0 0
    outer loop
      vertex -6.1 -49.5 0
      vertex -6.1 -39.5 0.2
      vertex -6.1 -39.5 0
    endloop
  endfacet
  facet normal -1 -0 0
    outer loop
      vertex -6.1 -39.5 0.2
      vertex -6.1 -49.5 0
      vertex -6.1 -49.5 0.2
    endloop
  endfacet
  facet normal 1 -0 0
    outer loop
      vertex -4.1 -49.5 0.2
      vertex -4.1 -39.5 0
      vertex -4.1 -39.5 0.2
    endloop
  endfacet
  facet normal 1 0 0
    outer loop
      vertex -4.1 -39.5 0
      vertex -4.1 -49.5 0.2
      vertex -4.1 -49.5 0
    endloop
  endfacet
  facet normal 0 -1 0
    outer loop
      vertex -6.1 -49.5 0
      vertex -4.1 -49.5 0.2
      vertex -6.1 -49.5 0.2
    endloop
  endfacet
  facet normal 0 -1 -0
    outer loop
      vertex -4.1 -49.5 0.2
      vertex -6.1 -49.5 0
      vertex -4.1 -49.5 0
    endloop
  endfacet
  facet normal -1 0 0
    outer loop
      vertex -1.9 -49.5 0
      vertex -1.9 -39.5 0.2
      vertex -1.9 -39.5 0
    endloop
  endfacet
  facet normal -1 -0 0
    outer loop
      vertex -1.9 -39.5 0.2
      vertex -1.9 -49.5 0
      vertex -1.9 -49.5 0.2
    endloop
  endfacet
  facet normal 1 -0 0
    outer loop
      vertex 0.0999994 -49.5 0.2
      vertex 0.0999994 -39.5 0
      vertex 0.0999994 -39.5 0.2
    endloop
  endfacet
  facet normal 1 0 0
    outer loop
      vertex 0.0999994 -39.5 0
      vertex 0.0999994 -49.5 0.2
      vertex 0.0999994 -49.5 0
    endloop
  endfacet
  facet normal 0 -1 0
    outer loop
      vertex -1.9 -49.5 0
      vertex 0.0999994 -49.5 0.2
      vertex -1.9 -49.5 0.2
    endloop
  endfacet
  facet normal 0 -1 -0
    outer loop
      vertex 0.0999994 -49.5 0.2
      vertex -1.9 -49.5 0
      vertex 0.0999994 -49.5 0
    endloop
  endfacet
  facet normal -1 0 0
    outer loop
      vertex 2.3 -49.5 0
      vertex 2.3 -39.5 0.2
      vertex 2.3 -39.5 0
    endloop
  endfacet
  facet normal -1 -0 0
    outer loop
      vertex 2.3 -39.5 0.2
      vertex 2.3 -49.5 0
      vertex 2.3 -49.5 0.2
    endloop
  endfacet
  facet normal 1 -0 0
    outer loop
      vertex 4.3 -49.5 0.2
      vertex 4.3 -39.5 0
      vertex 4.3 -39.5 0.2
    endloop
  endfacet
  facet normal 1 0 0
    outer loop
      vertex 4.3 -39.5 0
      vertex 4.3 -49.5 0.2
      vertex 4.3 -49.5 0
    endloop
  endfacet
  facet normal 0 -1 0
    outer loop
      vertex 2.3 -49.5 0
      vertex 4.3 -49.5 0.2
      vertex 2.3 -49.5 0.2
    endloop
  endfacet
  facet normal 0 -1 -0
    outer loop
      vertex 4.3 -49.5 0.2
      vertex 2.3 -49.5 0
      vertex 4.3 -49.5 0
    endloop
  endfacet
  facet normal -1 0 0
    outer loop
      vertex 10.7 -49.5 0
      vertex 10.7 -39.5 0.2
      vertex 10.7 -39.5 0
    endloop
  endfacet
  facet normal -1 -0 0
    outer loop
      vertex 10.7 -39.5 0.2
      vertex 10.7 -49.5 0
      vertex 10.7 -49.5 0.2
    endloop
  endfacet
  facet normal 1 -0 0
    outer loop
      vertex 12.7 -49.5 0.2
      vertex 12.7 -39.5 0
      vertex 12.7 -39.5 0.2
    endloop
  endfacet
  facet normal 1 0 0
    outer loop
      vertex 12.7 -39.5 0
      vertex 12.7 -49.5 0.2
      vertex 12.7 -49.5 0
    endloop
  endfacet
  facet normal 0 -1 0
    outer loop
      vertex 10.7 -49.5 0
      vertex 12.7 -49.5 0.2
      vertex 10.7 -49.5 0.2
    endloop
  endfacet
  facet normal 0 -1 -0
    outer loop
      vertex 12.7 -49.5 0.2
      vertex 10.7 -49.5 0
      vertex 12.7 -49.5 0
    endloop
  endfacet
  facet normal -1 0 0
    outer loop
      vertex 14.9 -49.5 0
      vertex 14.9 -39.5 0.2
      vertex 14.9 -39.5 0
    endloop
  endfacet
  facet normal -1 -0 0
    outer loop
      vertex 14.9 -39.5 0.2
      vertex 14.9 -49.5 0
      vertex 14.9 -49.5 0.2
    endloop
  endfacet
  facet normal 1 -0 0
    outer loop
      vertex 16.9 -49.5 0.2
      vertex 16.9 -39.5 0
      vertex 16.9 -39.5 0.2
    endloop
  endfacet
  facet normal 1 0 0
    outer loop
      vertex 16.9 -39.5 0
      vertex 16.9 -49.5 0.2
      vertex 16.9 -49.5 0
    endloop
  endfacet
  facet normal 0 -1 0
    outer loop
      vertex 14.9 -49.5 0
      vertex 16.9 -49.5 0.2
      vertex 14.9 -49.5 0.2
    endloop
  endfacet
  facet normal 0 -1 -0
    outer loop
      vertex 16.9 -49.5 0.2
      vertex 14.9 -49.5 0
      vertex 16.9 -49.5 0
    endloop
  endfacet
  facet normal -1 0 0
    outer loop
      vertex 19.1 -49.5 0
      vertex 19.1 -39.5 0.2
      vertex 19.1 -39.5 0
    endloop
  endfacet
  facet normal -1 -0 0
    outer loop
      vertex 19.1 -39.5 0.2
      vertex 19.1 -49.5 0
      vertex 19.1 -49.5 0.2
    endloop
  endfacet
  facet normal 1 -0 0
    outer loop
      vertex 21.1 -49.5 0.2
      vertex 21.1 -39.5 0
      vertex 21.1 -39.5 0.2
    endloop
  endfacet
  facet normal 1 0 0
    outer loop
      vertex 21.1 -39.5 0
      vertex 21.1 -49.5 0.2
      vertex 21.1 -49.5 0
    endloop
  endfacet
  facet normal 0 -1 0
    outer loop
      vertex 19.1 -49.5 0
      vertex 21.1 -49.5 0.2
      vertex 19.1 -49.5 0.2
    endloop
  endfacet
  facet normal 0 -1 -0
    outer loop
      vertex 21.1 -49.5 0.2
      vertex 19.1 -49.5 0
      vertex 21.1 -49.5 0
    endloop
  endfacet
  facet normal -1 0 0
    outer loop
      vertex 23.3 -49.5 0
      vertex 23.3 -39.5 0.2
      vertex 23.3 -39.5 0
    endloop
  endfacet
  facet normal -1 -0 0
    outer loop
      vertex 23.3 -39.5 0.2
      vertex 23.3 -49.5 0
      vertex 23.3 -49.5 0.2
    endloop
  endfacet
  facet normal 1 -0 0
    outer loop
      vertex 25.3 -49.5 0.2
      vertex 25.3 -39.5 0
      vertex 25.3 -39.5 0.2
    endloop
  endfacet
  facet normal 1 0 0
    outer loop
      vertex 25.3 -39.5 0
      vertex 25.3 -49.5 0.2
      vertex 25.3 -49.5 0
    endloop
  endfacet
  facet normal 0 -1 0
    outer loop
      vertex 23.3 -49.5 0
      vertex 25.3 -49.5 0.2
      vertex 23.3 -49.5 0.2
    endloop
  endfacet
  facet normal 0 -1 -0
    outer loop
      vertex 25.3 -49.5 0.2
      vertex 23.3 -49.5 0
      vertex 25.3 -49.5 0
    endloop
  endfacet
  facet normal -1 0 0
    outer loop
      vertex 27.5 -49.5 0
      vertex 27.5 -39.5 0.2
      vertex 27.5 -39.5 0
    endloop
  endfacet
  facet normal -1 -0 0
    outer loop
      vertex 27.5 -39.5 0.2
      vertex 27.5 -49.5 0
      vertex 27.5 -49.5 0.2
    endloop
  endfacet
  facet normal 1 -0 0
    outer loop
      vertex 29.5 -49.5 0.2
      vertex 29.5 -39.5 0
      vertex 29.5 -39.5 0.2
    endloop
  endfacet
  facet normal 1 0 0
    outer loop
      vertex 29.5 -39.5 0
      vertex 29.5 -49.5 0.2
      vertex 29.5 -49.5 0
    endloop
  endfacet
  facet normal 0 -1 0
    outer loop
      vertex 27.5 -49.5 0
      vertex 29.5 -49.5 0.2
      vertex 27.5 -49.5 0.2
    endloop
  endfacet
  facet normal 0 -1 -0
    outer loop
      vertex 29.5 -49.5 0.2
      vertex 27.5 -49.5 0
      vertex 29.5 -49.5 0
    endloop
  endfacet
  facet normal -1 0 0
    outer loop
      vertex 31.7 -49.5 0
      vertex 31.7 -39.5 0.2
      vertex 31.7 -39.5 0
    endloop
  endfacet
  facet normal -1 -0 0
    outer loop
      vertex 31.7 -39.5 0.2
      vertex 31.7 -49.5 0
      vertex 31.7 -49.5 0.2
    endloop
  endfacet
  facet normal 1 -0 0
    outer loop
      vertex 33.7 -49.5 0.2
      vertex 33.7 -39.5 0
      vertex 33.7 -39.5 0.2
    endloop
  endfacet
  facet normal 1 0 0
    outer loop
      vertex 33.7 -39.5 0
      vertex 33.7 -49.5 0.2
      vertex 33.7 -49.5 0
    endloop
  endfacet
  facet normal 0 -1 0
    outer loop
      vertex 31.7 -49.5 0
      vertex 33.7 -49.5 0.2
      vertex 31.7 -49.5 0.2
    endloop
  endfacet
  facet normal 0 -1 -0
    outer loop
      vertex 33.7 -49.5 0.2
      vertex 31.7 -49.5 0
      vertex 33.7 -49.5 0
    endloop
  endfacet
  facet normal -1 0 0
    outer loop
      vertex 35.9 -49.5 0
      vertex 35.9 -39.5 0.2
      vertex 35.9 -39.5 0
    endloop
  endfacet
  facet normal -1 -0 0
    outer loop
      vertex 35.9 -39.5 0.2
      vertex 35.9 -49.5 0
      vertex 35.9 -49.5 0.2
    endloop
  endfacet
  facet normal 1 -0 0
    outer loop
      vertex 37.9 -49.5 0.2
      vertex 37.9 -39.5 0
      vertex 37.9 -39.5 0.2
    endloop
  endfacet
  facet normal 1 0 0
    outer loop
      vertex 37.9 -39.5 0
      vertex 37.9 -49.5 0.2
      vertex 37.9 -49.5 0
    endloop
  endfacet
  facet normal 0 -1 0
    outer loop
      vertex 35.9 -49.5 0
      vertex 37.9 -49.5 0.2
      vertex 35.9 -49.5 0.2
    endloop
  endfacet
  facet normal 0 -1 -0
    outer loop
      vertex 37.9 -49.5 0.2
      vertex 35.9 -49.5 0
      vertex 37.9 -49.5 0
    endloop
  endfacet
  facet normal -1 0 0
    outer loop
      vertex 40.1 -49.5 0
      vertex 40.1 -39.5 0.2
      vertex 40.1 -39.5 0
    endloop
  endfacet
  facet normal -1 -0 0
    outer loop
      vertex 40.1 -39.5 0.2
      vertex 40.1 -49.5 0
      vertex 40.1 -49.5 0.2
    endloop
  endfacet
  facet normal 1 -0 0
    outer loop
      vertex 42.1 -49.5 0.2
      vertex 42.1 -39.5 0
      vertex 42.1 -39.5 0.2
    endloop
  endfacet
  facet normal 1 0 0
    outer loop
      vertex 42.1 -39.5 0
      vertex 42.1 -49.5 0.2
      vertex 42.1 -49.5 0
    endloop
  endfacet
  facet normal 0 -1 0
    outer loop
      vertex 40.1 -49.5 0
      vertex 42.1 -49.5 0.2
      vertex 40.1 -49.5 0.2
    endloop
  endfacet
  facet normal 0 -1 -0
    outer loop
      vertex 42.1 -49.5 0.2
      vertex 40.1 -49.5 0
      vertex 42.1 -49.5 0
    endloop
  endfacet
  facet normal -1 0 0
    outer loop
      vertex 44.3 -49.5 0
      vertex 44.3 -39.5 0.2
      vertex 44.3 -39.5 0
    endloop
  endfacet
  facet normal -1 -0 0
    outer loop
      vertex 44.3 -39.5 0.2
      vertex 44.3 -49.5 0
      vertex 44.3 -49.5 0.2
    endloop
  endfacet
  facet normal 1 -0 0
    outer loop
      vertex 46.3 -49.5 0.2
      vertex 46.3 -39.5 0
      vertex 46.3 -39.5 0.2
    endloop
  endfacet
  facet normal 1 0 0
    outer loop
      vertex 46.3 -39.5 0
      vertex 46.3 -49.5 0.2
      vertex 46.3 -49.5 0
    endloop
  endfacet
  facet normal 0 -1 0
    outer loop
      vertex 44.3 -49.5 0
      vertex 46.3 -49.5 0.2
      vertex 44.3 -49.5 0.2
    endloop
  endfacet
  facet normal 0 -1 -0
    outer loop
      vertex 46.3 -49.5 0.2
      vertex 44.3 -49.5 0
      vertex 46.3 -49.5 0
    endloop
  endfacet
  facet normal -1 0 0
    outer loop
      vertex 48.5 -49.5 0
      vertex 48.5 -39.5 0.2
      vertex 48.5 -39.5 0
    endloop
  endfacet
  facet normal -1 -0 0
    outer loop
      vertex 48.5 -39.5 0.2
      vertex 48.5 -49.5 0
      vertex 48.5 -49.5 0.2
    endloop
  endfacet
  facet normal 1 -0 0
    outer loop
      vertex 50.5 -49.5 0.2
      vertex 50.5 -37.5 0
      vertex 50.5 -37.5 0.2
    endloop
  endfacet
  facet normal 1 0 0
    outer loop
      vertex 50.5 -37.5 0
      vertex 50.5 -49.5 0.2
      vertex 50.5 -49.5 0
    endloop
  endfacet
  facet normal 0 -1 0
    outer loop
      vertex 48.5 -49.5 0
      vertex 50.5 -49.5 0.2
      vertex 48.5 -49.5 0.2
    endloop
  endfacet
  facet normal 0 -1 -0
    outer loop
      vertex 50.5 -49.5 0.2
      vertex 48.5 -49.5 0
      vertex 50.5 -49.5 0
    endloop
  endfacet
  facet normal 0 -1 0
    outer loop
      vertex -60.5 -20.5 0.2
      vertex -62.5 -20.5 0.4
      vertex -62.5 -20.5 0.2
    endloop
  endfacet
  facet normal 0 -1 0
    outer loop
      vertex -62.5 -20.5 0.4
      vertex -60.5 -20.5 0.2
      vertex -55.5 -20.5 0.4
    endloop
  endfacet
  facet normal 0 -1 0
    outer loop
      vertex -60.5 -20.5 0.2
      vertex -55.5 -20.5 0.2
      vertex -55.5 -20.5 0.4
    endloop
  endfacet
  facet normal 0 -1 0
    outer loop
      vertex -60.5 -20.5 0
      vertex -55.5 -20.5 0.2
      vertex -60.5 -20.5 0.2
    endloop
  endfacet
  facet normal 0 -1 0
    outer loop
      vertex -50.5 -20.5 0
      vertex -55.5 -20.5 0.2
      vertex -60.5 -20.5 0
    endloop
  endfacet
  facet normal 0 -1 0
    outer loop
      vertex -55.5 -20.5 0.2
      vertex -50.5 -20.5 0
      vertex -50.5 -20.5 0.2
    endloop
  endfacet
  facet normal 0 0 1
    outer loop
      vertex -50.5 23.5 0.2
      vertex -60.5 21.5 0.2
      vertex -50.5 21.5 0.2
    endloop
  endfacet
  facet normal 0 0 1
    outer loop
      vertex -62.5 23.5 0.2
      vertex -60.5 19.3 0.2
      vertex -60.5 21.5 0.2
    endloop
  endfacet
  facet normal 0 0 1
    outer loop
      vertex -60.5 19.3 0.2
      vertex -62.5 23.5 0.2
      vertex -60.5 17.3 0.2
    endloop
  endfacet
  facet normal 0 0 1
    outer loop
      vertex -60.5 17.3 0.2
      vertex -62.5 23.5 0.2
      vertex -60.5 15.1 0.2
    endloop
  endfacet
  facet normal 0 0 1
    outer loop
      vertex -60.5 15.1 0.2
      vertex -62.5 23.5 0.2
      vertex -60.5 13.1 0.2
    endloop
  endfacet
  facet normal 0 0 1
    outer loop
      vertex -60.5 13.1 0.2
      vertex -62.5 23.5 0.2
      vertex -60.5 10.9 0.2
    endloop
  endfacet
  facet normal 0 0 1
    outer loop
      vertex -60.5 10.9 0.2
      vertex -62.5 23.5 0.2
      vertex -60.5 8.9 0.2
    endloop
  endfacet
  facet normal 0 0 1
    outer loop
      vertex -60.5 8.9 0.2
      vertex -62.5 23.5 0.2
      vertex -60.5 6.7 0.2
    endloop
  endfacet
  facet normal 0 0 1
    outer loop
      vertex -60.5 6.7 0.2
      vertex -62.5 23.5 0.2
      vertex -60.5 4.7 0.2
    endloop
  endfacet
  facet normal 0 0 1
    outer loop
      vertex -60.5 4.7 0.2
      vertex -62.5 23.5 0.2
      vertex -60.5 2.5 0.2
    endloop
  endfacet
  facet normal 0 0 1
    outer loop
      vertex -60.5 2.5 0.2
      vertex -62.5 23.5 0.2
      vertex -60.5 0.5 0.2
    endloop
  endfacet
  facet normal 0 0 1
    outer loop
      vertex -62.5 -18.5 0.2
      vertex -60.5 0.5 0.2
      vertex -62.5 23.5 0.2
    endloop
  endfacet
  facet normal 0 0 1
    outer loop
      vertex -60.5 0.5 0.2
      vertex -62.5 -18.5 0.2
      vertex -60.5 -1.7 0.2
    endloop
  endfacet
  facet normal 0 0 1
    outer loop
      vertex -60.5 -1.7 0.2
      vertex -62.5 -18.5 0.2
      vertex -60.5 -3.7 0.2
    endloop
  endfacet
  facet normal 0 0 1
    outer loop
      vertex -60.5 -3.7 0.2
      vertex -62.5 -18.5 0.2
      vertex -60.5 -5.9 0.2
    endloop
  endfacet
  facet normal 0 0 1
    outer loop
      vertex -60.5 -5.9 0.2
      vertex -62.5 -18.5 0.2
      vertex -60.5 -7.9 0.2
    endloop
  endfacet
  facet normal 0 0 1
    outer loop
      vertex -60.5 -7.9 0.2
      vertex -62.5 -18.5 0.2
      vertex -60.5 -10.1 0.2
    endloop
  endfacet
  facet normal 0 0 1
    outer loop
      vertex -60.5 -10.1 0.2
      vertex -62.5 -18.5 0.2
      vertex -60.5 -12.1 0.2
    endloop
  endfacet
  facet normal 0 0 1
    outer loop
      vertex -60.5 -12.1 0.2
      vertex -62.5 -18.5 0.2
      vertex -60.5 -14.3 0.2
    endloop
  endfacet
  facet normal -0 0 1
    outer loop
      vertex -62.5 23.5 0.2
      vertex -60.5 21.5 0.2
      vertex -50.5 23.5 0.2
    endloop
  endfacet
  facet normal 0 0 1
    outer loop
      vertex -60.5 -14.3 0.2
      vertex -62.5 -18.5 0.2
      vertex -60.5 -16.3 0.2
    endloop
  endfacet
  facet normal 0 0 1
    outer loop
      vertex -60.5 -16.3 0.2
      vertex -62.5 -18.5 0.2
      vertex -60.5 -18.5 0.2
    endloop
  endfacet
  facet normal -0 0 1
    outer loop
      vertex -60.5 19.3 0.2
      vertex -50.5 17.3 0.2
      vertex -50.5 19.3 0.2
    endloop
  endfacet
  facet normal 0 0 1
    outer loop
      vertex -50.5 17.3 0.2
      vertex -60.5 19.3 0.2
      vertex -60.5 17.3 0.2
    endloop
  endfacet
  facet normal -0 0 1
    outer loop
      vertex -60.5 15.1 0.2
      vertex -50.5 13.1 0.2
      vertex -50.5 15.1 0.2
    endloop
  endfacet
  facet normal 0 0 1
    outer loop
      vertex -50.5 13.1 0.2
      vertex -60.5 15.1 0.2
      vertex -60.5 13.1 0.2
    endloop
  endfacet
  facet normal -0 0 1
    outer loop
      vertex -60.5 10.9 0.2
      vertex -50.5 8.9 0.2
      vertex -50.5 10.9 0.2
    endloop
  endfacet
  facet normal 0 0 1
    outer loop
      vertex -50.5 8.9 0.2
      vertex -60.5 10.9 0.2
      vertex -60.5 8.9 0.2
    endloop
  endfacet
  facet normal -0 0 1
    outer loop
      vertex -60.5 6.7 0.2
      vertex -50.5 4.7 0.2
      vertex -50.5 6.7 0.2
    endloop
  endfacet
  facet normal 0 0 1
    outer loop
      vertex -50.5 4.7 0.2
      vertex -60.5 6.7 0.2
      vertex -60.5 4.7 0.2
    endloop
  endfacet
  facet normal -0 0 1
    outer loop
      vertex -60.5 2.5 0.2
      vertex -50.5 0.5 0.2
      vertex -50.5 2.5 0.2
    endloop
  endfacet
  facet normal 0 0 1
    outer loop
      vertex -50.5 0.5 0.2
      vertex -60.5 2.5 0.2
      vertex -60.5 0.5 0.2
    endloop
  endfacet
  facet normal -0 0 1
    outer loop
      vertex -60.5 -1.7 0.2
      vertex -50.5 -3.7 0.2
      vertex -50.5 -1.7 0.2
    endloop
  endfacet
  facet normal 0 0 1
    outer loop
      vertex -50.5 -3.7 0.2
      vertex -60.5 -1.7 0.2
      vertex -60.5 -3.7 0.2
    endloop
  endfacet
  facet normal -0 0 1
    outer loop
      vertex -60.5 -5.9 0.2
      vertex -50.5 -7.9 0.2
      vertex -50.5 -5.9 0.2
    endloop
  endfacet
  facet normal 0 0 1
    outer loop
      vertex -50.5 -7.9 0.2
      vertex -60.5 -5.9 0.2
      vertex -60.5 -7.9 0.2
    endloop
  endfacet
  facet normal -0 0 1
    outer loop
      vertex -60.5 -10.1 0.2
      vertex -50.5 -12.1 0.2
      vertex -50.5 -10.1 0.2
    endloop
  endfacet
  facet normal 0 0 1
    outer loop
      vertex -50.5 -12.1 0.2
      vertex -60.5 -10.1 0.2
      vertex -60.5 -12.1 0.2
    endloop
  endfacet
  facet normal -0 0 1
    outer loop
      vertex -60.5 -14.3 0.2
      vertex -50.5 -16.3 0.2
      vertex -50.5 -14.3 0.2
    endloop
  endfacet
  facet normal 0 0 1
    outer loop
      vertex -50.5 -16.3 0.2
      vertex -60.5 -14.3 0.2
      vertex -60.5 -16.3 0.2
    endloop
  endfacet
  facet normal -0 0 1
    outer loop
      vertex -62.5 -20.5 0.2
      vertex -60.5 -22.7 0.2
      vertex -60.5 -20.5 0.2
    endloop
  endfacet
  facet normal 0 0 1
    outer loop
      vertex -60.5 -22.7 0.2
      vertex -62.5 -20.5 0.2
      vertex -60.5 -24.7 0.2
    endloop
  endfacet
  facet normal 0 0 1
    outer loop
      vertex -60.5 -24.7 0.2
      vertex -62.5 -20.5 0.2
      vertex -60.5 -26.9 0.2
    endloop
  endfacet
  facet normal 0 0 1
    outer loop
      vertex -60.5 -26.9 0.2
      vertex -62.5 -20.5 0.2
      vertex -60.5 -28.9 0.2
    endloop
  endfacet
  facet normal 0 0 1
    outer loop
      vertex -60.5 -28.9 0.2
      vertex -62.5 -20.5 0.2
      vertex -60.5 -31.1 0.2
    endloop
  endfacet
  facet normal 0 0 1
    outer loop
      vertex -60.5 -31.1 0.2
      vertex -62.5 -20.5 0.2
      vertex -60.5 -33.1 0.2
    endloop
  endfacet
  facet normal 0 0 1
    outer loop
      vertex -60.5 -33.1 0.2
      vertex -62.5 -20.5 0.2
      vertex -60.5 -35.3 0.2
    endloop
  endfacet
  facet normal 0 0 1
    outer loop
      vertex -60.5 -35.3 0.2
      vertex -62.5 -20.5 0.2
      vertex -60.5 -37.3 0.2
    endloop
  endfacet
  facet normal 0 0 1
    outer loop
      vertex -60.5 -37.3 0.2
      vertex -62.5 -20.5 0.2
      vertex -60.5 -39.5 0.2
    endloop
  endfacet
  facet normal 0 0 1
    outer loop
      vertex -60.5 -39.5 0.2
      vertex -62.5 -20.5 0.2
      vertex -60.5 -41.5 0.2
    endloop
  endfacet
  facet normal 0 0 1
    outer loop
      vertex -62.5 -62.5 0.2
      vertex -60.5 -41.5 0.2
      vertex -62.5 -20.5 0.2
    endloop
  endfacet
  facet normal 0 0 1
    outer loop
      vertex -60.5 -41.5 0.2
      vertex -62.5 -62.5 0.2
      vertex -60.5 -43.7 0.2
    endloop
  endfacet
  facet normal 0 0 1
    outer loop
      vertex -60.5 -43.7 0.2
      vertex -62.5 -62.5 0.2
      vertex -60.5 -45.7 0.2
    endloop
  endfacet
  facet normal 0 0 1
    outer loop
      vertex -60.5 -45.7 0.2
      vertex -62.5 -62.5 0.2
      vertex -60.5 -47.9 0.2
    endloop
  endfacet
  facet normal 0 0 1
    outer loop
      vertex -60.5 -47.9 0.2
      vertex -62.5 -62.5 0.2
      vertex -60.5 -49.9 0.2
    endloop
  endfacet
  facet normal 0 0 1
    outer loop
      vertex -60.5 -49.9 0.2
      vertex -62.5 -62.5 0.2
      vertex -60.5 -52.1 0.2
    endloop
  endfacet
  facet normal 0 0 1
    outer loop
      vertex -60.5 -52.1 0.2
      vertex -62.5 -62.5 0.2
      vertex -60.5 -54.1 0.2
    endloop
  endfacet
  facet normal 0 0 1
    outer loop
      vertex -60.5 -54.1 0.2
      vertex -62.5 -62.5 0.2
      vertex -60.5 -56.3 0.2
    endloop
  endfacet
  facet normal 0 0 1
    outer loop
      vertex -60.5 -56.3 0.2
      vertex -62.5 -62.5 0.2
      vertex -60.5 -58.3 0.2
    endloop
  endfacet
  facet normal -0 0 1
    outer loop
      vertex -60.5 -22.7 0.2
      vertex -50.5 -24.7 0.2
      vertex -50.5 -22.7 0.2
    endloop
  endfacet
  facet normal 0 0 1
    outer loop
      vertex -50.5 -24.7 0.2
      vertex -60.5 -22.7 0.2
      vertex -60.5 -24.7 0.2
    endloop
  endfacet
  facet normal -0 0 1
    outer loop
      vertex -60.5 -26.9 0.2
      vertex -50.5 -28.9 0.2
      vertex -50.5 -26.9 0.2
    endloop
  endfacet
  facet normal 0 0 1
    outer loop
      vertex -50.5 -28.9 0.2
      vertex -60.5 -26.9 0.2
      vertex -60.5 -28.9 0.2
    endloop
  endfacet
  facet normal -0 0 1
    outer loop
      vertex -60.5 -31.1 0.2
      vertex -50.5 -33.1 0.2
      vertex -50.5 -31.1 0.2
    endloop
  endfacet
  facet normal 0 0 1
    outer loop
      vertex -50.5 -33.1 0.2
      vertex -60.5 -31.1 0.2
      vertex -60.5 -33.1 0.2
    endloop
  endfacet
  facet normal -0 0 1
    outer loop
      vertex -60.5 -35.3 0.2
      vertex -50.5 -37.3 0.2
      vertex -50.5 -35.3 0.2
    endloop
  endfacet
  facet normal 0 0 1
    outer loop
      vertex -50.5 -37.3 0.2
      vertex -60.5 -35.3 0.2
      vertex -60.5 -37.3 0.2
    endloop
  endfacet
  facet normal -0 0 1
    outer loop
      vertex -60.5 -39.5 0.2
      vertex -50.5 -41.5 0.2
      vertex -50.5 -39.5 0.2
    endloop
  endfacet
  facet normal 0 0 1
    outer loop
      vertex -50.5 -41.5 0.2
      vertex -60.5 -39.5 0.2
      vertex -60.5 -41.5 0.2
    endloop
  endfacet
  facet normal -0 0 1
    outer loop
      vertex -60.5 -43.7 0.2
      vertex -50.5 -45.7 0.2
      vertex -50.5 -43.7 0.2
    endloop
  endfacet
  facet normal 0 0 1
    outer loop
      vertex -50.5 -45.7 0.2
      vertex -60.5 -43.7 0.2
      vertex -60.5 -45.7 0.2
    endloop
  endfacet
  facet normal -0 0 1
    outer loop
      vertex -60.5 -47.9 0.2
      vertex -50.5 -49.9 0.2
      vertex -50.5 -47.9 0.2
    endloop
  endfacet
  facet normal 0 0 1
    outer loop
      vertex -50.5 -49.9 0.2
      vertex -60.5 -47.9 0.2
      vertex -60.5 -49.9 0.2
    endloop
  endfacet
  facet normal -0 0 1
    outer loop
      vertex -60.5 -52.1 0.2
      vertex -50.5 -54.1 0.2
      vertex -50.5 -52.1 0.2
    endloop
  endfacet
  facet normal 0 0 1
    outer loop
      vertex -50.5 -54.1 0.2
      vertex -60.5 -52.1 0.2
      vertex -60.5 -54.1 0.2
    endloop
  endfacet
  facet normal -0 0 1
    outer loop
      vertex -60.5 -56.3 0.2
      vertex -50.5 -58.3 0.2
      vertex -50.5 -56.3 0.2
    endloop
  endfacet
  facet normal 0 0 1
    outer loop
      vertex -50.5 -58.3 0.2
      vertex -60.5 -56.3 0.2
      vertex -60.5 -58.3 0.2
    endloop
  endfacet
  facet normal -0 0 1
    outer loop
      vertex -60.5 -60.5 0.2
      vertex -50.5 -62.5 0.2
      vertex -50.5 -60.5 0.2
    endloop
  endfacet
  facet normal 0 0 1
    outer loop
      vertex -60.5 -60.5 0.2
      vertex -62.5 -62.5 0.2
      vertex -50.5 -62.5 0.2
    endloop
  endfacet
  facet normal 0 0 1
    outer loop
      vertex -60.5 -58.3 0.2
      vertex -62.5 -62.5 0.2
      vertex -60.5 -60.5 0.2
    endloop
  endfacet
  facet normal -0 0 1
    outer loop
      vertex -55.5 -18.5 0.2
      vertex -50.5 -20.5 0.2
      vertex -50.5 -18.5 0.2
    endloop
  endfacet
  facet normal 0 0 1
    outer loop
      vertex -50.5 -20.5 0.2
      vertex -55.5 -18.5 0.2
      vertex -55.5 -20.5 0.2
    endloop
  endfacet
  facet normal 0 1 0
    outer loop
      vertex -60.5 -18.5 0.2
      vertex -55.5 -18.5 0.4
      vertex -55.5 -18.5 0.2
    endloop
  endfacet
  facet normal 0 1 0
    outer loop
      vertex -55.5 -18.5 0.4
      vertex -60.5 -18.5 0.2
      vertex -62.5 -18.5 0.4
    endloop
  endfacet
  facet normal 0 1 0
    outer loop
      vertex -62.5 -18.5 0.4
      vertex -60.5 -18.5 0.2
      vertex -62.5 -18.5 0.2
    endloop
  endfacet
  facet normal 0 1 -0
    outer loop
      vertex -50.5 -18.5 0
      vertex -55.5 -18.5 0.2
      vertex -50.5 -18.5 0.2
    endloop
  endfacet
  facet normal 0 1 0
    outer loop
      vertex -60.5 -18.5 0
      vertex -55.5 -18.5 0.2
      vertex -50.5 -18.5 0
    endloop
  endfacet
  facet normal 0 1 0
    outer loop
      vertex -55.5 -18.5 0.2
      vertex -60.5 -18.5 0
      vertex -60.5 -18.5 0.2
    endloop
  endfacet
  facet normal 1 -0 0
    outer loop
      vertex -50.5 -20.5 0.2
      vertex -50.5 -18.5 0
      vertex -50.5 -18.5 0.2
    endloop
  endfacet
  facet normal 1 0 0
    outer loop
      vertex -50.5 -18.5 0
      vertex -50.5 -20.5 0.2
      vertex -50.5 -20.5 0
    endloop
  endfacet
  facet normal 0 0 -1
    outer loop
      vertex -50.5 -62.5 0
      vertex -60.5 -60.5 0
      vertex -50.5 -60.5 0
    endloop
  endfacet
  facet normal 0 0 -1
    outer loop
      vertex -62.5 -62.5 0
      vertex -60.5 -58.3 0
      vertex -60.5 -60.5 0
    endloop
  endfacet
  facet normal -0 0 -1
    outer loop
      vertex -60.5 -58.3 0
      vertex -62.5 -62.5 0
      vertex -60.5 -56.3 0
    endloop
  endfacet
  facet normal -0 0 -1
    outer loop
      vertex -60.5 -56.3 0
      vertex -62.5 -62.5 0
      vertex -60.5 -54.1 0
    endloop
  endfacet
  facet normal -0 0 -1
    outer loop
      vertex -60.5 -54.1 0
      vertex -62.5 -62.5 0
      vertex -60.5 -52.1 0
    endloop
  endfacet
  facet normal -0 0 -1
    outer loop
      vertex -60.5 -52.1 0
      vertex -62.5 -62.5 0
      vertex -60.5 -49.9 0
    endloop
  endfacet
  facet normal -0 0 -1
    outer loop
      vertex -60.5 -49.9 0
      vertex -62.5 -62.5 0
      vertex -60.5 -47.9 0
    endloop
  endfacet
  facet normal -0 0 -1
    outer loop
      vertex -60.5 -47.9 0
      vertex -62.5 -62.5 0
      vertex -60.5 -45.7 0
    endloop
  endfacet
  facet normal -0 0 -1
    outer loop
      vertex -60.5 -45.7 0
      vertex -62.5 -62.5 0
      vertex -60.5 -43.7 0
    endloop
  endfacet
  facet normal -0 0 -1
    outer loop
      vertex -60.5 -43.7 0
      vertex -62.5 -62.5 0
      vertex -60.5 -41.5 0
    endloop
  endfacet
  facet normal -0 0 -1
    outer loop
      vertex -60.5 -41.5 0
      vertex -62.5 -62.5 0
      vertex -60.5 -39.5 0
    endloop
  endfacet
  facet normal -0 0 -1
    outer loop
      vertex -60.5 -39.5 0
      vertex -62.5 -62.5 0
      vertex -60.5 -37.3 0
    endloop
  endfacet
  facet normal -0 0 -1
    outer loop
      vertex -60.5 -37.3 0
      vertex -62.5 -62.5 0
      vertex -60.5 -35.3 0
    endloop
  endfacet
  facet normal -0 0 -1
    outer loop
      vertex -60.5 -35.3 0
      vertex -62.5 -62.5 0
      vertex -60.5 -33.1 0
    endloop
  endfacet
  facet normal -0 0 -1
    outer loop
      vertex -60.5 -33.1 0
      vertex -62.5 -62.5 0
      vertex -60.5 -31.1 0
    endloop
  endfacet
  facet normal -0 0 -1
    outer loop
      vertex -60.5 -31.1 0
      vertex -62.5 -62.5 0
      vertex -60.5 -28.9 0
    endloop
  endfacet
  facet normal -0 0 -1
    outer loop
      vertex -60.5 -28.9 0
      vertex -62.5 -62.5 0
      vertex -60.5 -26.9 0
    endloop
  endfacet
  facet normal -0 0 -1
    outer loop
      vertex -60.5 -26.9 0
      vertex -62.5 -62.5 0
      vertex -60.5 -24.7 0
    endloop
  endfacet
  facet normal -0 0 -1
    outer loop
      vertex -60.5 -24.7 0
      vertex -62.5 -62.5 0
      vertex -60.5 -22.7 0
    endloop
  endfacet
  facet normal -0 0 -1
    outer loop
      vertex -60.5 -22.7 0
      vertex -62.5 -62.5 0
      vertex -60.5 -20.5 0
    endloop
  endfacet
  facet normal -0 0 -1
    outer loop
      vertex -60.5 -20.5 0
      vertex -62.5 -62.5 0
      vertex -60.5 -18.5 0
    endloop
  endfacet
  facet normal -0 0 -1
    outer loop
      vertex -60.5 -18.5 0
      vertex -62.5 -62.5 0
      vertex -60.5 -16.3 0
    endloop
  endfacet
  facet normal -0 0 -1
    outer loop
      vertex -60.5 -16.3 0
      vertex -62.5 -62.5 0
      vertex -60.5 -14.3 0
    endloop
  endfacet
  facet normal 0 0 -1
    outer loop
      vertex -62.5 23.5 0
      vertex -60.5 -14.3 0
      vertex -62.5 -62.5 0
    endloop
  endfacet
  facet normal 0 0 -1
    outer loop
      vertex -60.5 -14.3 0
      vertex -62.5 23.5 0
      vertex -60.5 -12.1 0
    endloop
  endfacet
  facet normal 0 0 -1
    outer loop
      vertex -60.5 -12.1 0
      vertex -62.5 23.5 0
      vertex -60.5 -10.1 0
    endloop
  endfacet
  facet normal 0 0 -1
    outer loop
      vertex -60.5 -10.1 0
      vertex -62.5 23.5 0
      vertex -60.5 -7.9 0
    endloop
  endfacet
  facet normal 0 0 -1
    outer loop
      vertex -60.5 -7.9 0
      vertex -62.5 23.5 0
      vertex -60.5 -5.9 0
    endloop
  endfacet
  facet normal 0 0 -1
    outer loop
      vertex -60.5 -5.9 0
      vertex -62.5 23.5 0
      vertex -60.5 -3.7 0
    endloop
  endfacet
  facet normal 0 0 -1
    outer loop
      vertex -60.5 -3.7 0
      vertex -62.5 23.5 0
      vertex -60.5 -1.7 0
    endloop
  endfacet
  facet normal 0 0 -1
    outer loop
      vertex -60.5 -1.7 0
      vertex -62.5 23.5 0
      vertex -60.5 0.5 0
    endloop
  endfacet
  facet normal 0 0 -1
    outer loop
      vertex -60.5 0.5 0
      vertex -62.5 23.5 0
      vertex -60.5 2.5 0
    endloop
  endfacet
  facet normal 0 0 -1
    outer loop
      vertex -60.5 2.5 0
      vertex -62.5 23.5 0
      vertex -60.5 4.7 0
    endloop
  endfacet
  facet normal 0 0 -1
    outer loop
      vertex -60.5 4.7 0
      vertex -62.5 23.5 0
      vertex -60.5 6.7 0
    endloop
  endfacet
  facet normal 0 0 -1
    outer loop
      vertex -60.5 6.7 0
      vertex -62.5 23.5 0
      vertex -60.5 8.9 0
    endloop
  endfacet
  facet normal 0 0 -1
    outer loop
      vertex -60.5 8.9 0
      vertex -62.5 23.5 0
      vertex -60.5 10.9 0
    endloop
  endfacet
  facet normal 0 0 -1
    outer loop
      vertex -60.5 10.9 0
      vertex -62.5 23.5 0
      vertex -60.5 13.1 0
    endloop
  endfacet
  facet normal 0 0 -1
    outer loop
      vertex -60.5 13.1 0
      vertex -62.5 23.5 0
      vertex -60.5 15.1 0
    endloop
  endfacet
  facet normal 0 0 -1
    outer loop
      vertex -60.5 15.1 0
      vertex -62.5 23.5 0
      vertex -60.5 17.3 0
    endloop
  endfacet
  facet normal 0 0 -1
    outer loop
      vertex -60.5 17.3 0
      vertex -62.5 23.5 0
      vertex -60.5 19.3 0
    endloop
  endfacet
  facet normal 0 0 -1
    outer loop
      vertex -62.5 -62.5 0
      vertex -60.5 -60.5 0
      vertex -50.5 -62.5 0
    endloop
  endfacet
  facet normal 0 0 -1
    outer loop
      vertex -60.5 -58.3 0
      vertex -50.5 -56.3 0
      vertex -50.5 -58.3 0
    endloop
  endfacet
  facet normal -0 0 -1
    outer loop
      vertex -50.5 -56.3 0
      vertex -60.5 -58.3 0
      vertex -60.5 -56.3 0
    endloop
  endfacet
  facet normal 0 0 -1
    outer loop
      vertex -60.5 -54.1 0
      vertex -50.5 -52.1 0
      vertex -50.5 -54.1 0
    endloop
  endfacet
  facet normal -0 0 -1
    outer loop
      vertex -50.5 -52.1 0
      vertex -60.5 -54.1 0
      vertex -60.5 -52.1 0
    endloop
  endfacet
  facet normal 0 0 -1
    outer loop
      vertex -60.5 -49.9 0
      vertex -50.5 -47.9 0
      vertex -50.5 -49.9 0
    endloop
  endfacet
  facet normal -0 0 -1
    outer loop
      vertex -50.5 -47.9 0
      vertex -60.5 -49.9 0
      vertex -60.5 -47.9 0
    endloop
  endfacet
  facet normal 0 0 -1
    outer loop
      vertex -60.5 -45.7 0
      vertex -50.5 -43.7 0
      vertex -50.5 -45.7 0
    endloop
  endfacet
  facet normal -0 0 -1
    outer loop
      vertex -50.5 -43.7 0
      vertex -60.5 -45.7 0
      vertex -60.5 -43.7 0
    endloop
  endfacet
  facet normal 0 0 -1
    outer loop
      vertex -60.5 -41.5 0
      vertex -50.5 -39.5 0
      vertex -50.5 -41.5 0
    endloop
  endfacet
  facet normal -0 0 -1
    outer loop
      vertex -50.5 -39.5 0
      vertex -60.5 -41.5 0
      vertex -60.5 -39.5 0
    endloop
  endfacet
  facet normal 0 0 -1
    outer loop
      vertex -60.5 -37.3 0
      vertex -50.5 -35.3 0
      vertex -50.5 -37.3 0
    endloop
  endfacet
  facet normal -0 0 -1
    outer loop
      vertex -50.5 -35.3 0
      vertex -60.5 -37.3 0
      vertex -60.5 -35.3 0
    endloop
  endfacet
  facet normal 0 0 -1
    outer loop
      vertex -60.5 -33.1 0
      vertex -50.5 -31.1 0
      vertex -50.5 -33.1 0
    endloop
  endfacet
  facet normal -0 0 -1
    outer loop
      vertex -50.5 -31.1 0
      vertex -60.5 -33.1 0
      vertex -60.5 -31.1 0
    endloop
  endfacet
  facet normal 0 0 -1
    outer loop
      vertex -60.5 -28.9 0
      vertex -50.5 -26.9 0
      vertex -50.5 -28.9 0
    endloop
  endfacet
  facet normal -0 0 -1
    outer loop
      vertex -50.5 -26.9 0
      vertex -60.5 -28.9 0
      vertex -60.5 -26.9 0
    endloop
  endfacet
  facet normal 0 0 -1
    outer loop
      vertex -60.5 -24.7 0
      vertex -50.5 -22.7 0
      vertex -50.5 -24.7 0
    endloop
  endfacet
  facet normal -0 0 -1
    outer loop
      vertex -50.5 -22.7 0
      vertex -60.5 -24.7 0
      vertex -60.5 -22.7 0
    endloop
  endfacet
  facet normal 0 0 -1
    outer loop
      vertex -60.5 -20.5 0
      vertex -50.5 -18.5 0
      vertex -50.5 -20.5 0
    endloop
  endfacet
  facet normal -0 0 -1
    outer loop
      vertex -50.5 -18.5 0
      vertex -60.5 -20.5 0
      vertex -60.5 -18.5 0
    endloop
  endfacet
  facet normal 0 0 -1
    outer loop
      vertex -60.5 -16.3 0
      vertex -50.5 -14.3 0
      vertex -50.5 -16.3 0
    endloop
  endfacet
  facet normal -0 0 -1
    outer loop
      vertex -50.5 -14.3 0
      vertex -60.5 -16.3 0
      vertex -60.5 -14.3 0
    endloop
  endfacet
  facet normal 0 0 -1
    outer loop
      vertex -60.5 -12.1 0
      vertex -50.5 -10.1 0
      vertex -50.5 -12.1 0
    endloop
  endfacet
  facet normal -0 0 -1
    outer loop
      vertex -50.5 -10.1 0
      vertex -60.5 -12.1 0
      vertex -60.5 -10.1 0
    endloop
  endfacet
  facet normal 0 0 -1
    outer loop
      vertex -60.5 -7.9 0
      vertex -50.5 -5.9 0
      vertex -50.5 -7.9 0
    endloop
  endfacet
  facet normal -0 0 -1
    outer loop
      vertex -50.5 -5.9 0
      vertex -60.5 -7.9 0
      vertex -60.5 -5.9 0
    endloop
  endfacet
  facet normal 0 0 -1
    outer loop
      vertex -60.5 -3.7 0
      vertex -50.5 -1.7 0
      vertex -50.5 -3.7 0
    endloop
  endfacet
  facet normal -0 0 -1
    outer loop
      vertex -50.5 -1.7 0
      vertex -60.5 -3.7 0
      vertex -60.5 -1.7 0
    endloop
  endfacet
  facet normal 0 0 -1
    outer loop
      vertex -60.5 0.5 0
      vertex -50.5 2.5 0
      vertex -50.5 0.5 0
    endloop
  endfacet
  facet normal -0 0 -1
    outer loop
      vertex -50.5 2.5 0
      vertex -60.5 0.5 0
      vertex -60.5 2.5 0
    endloop
  endfacet
  facet normal 0 0 -1
    outer loop
      vertex -60.5 4.7 0
      vertex -50.5 6.7 0
      vertex -50.5 4.7 0
    endloop
  endfacet
  facet normal -0 0 -1
    outer loop
      vertex -50.5 6.7 0
      vertex -60.5 4.7 0
      vertex -60.5 6.7 0
    endloop
  endfacet
  facet normal 0 0 -1
    outer loop
      vertex -60.5 8.9 0
      vertex -50.5 10.9 0
      vertex -50.5 8.9 0
    endloop
  endfacet
  facet normal -0 0 -1
    outer loop
      vertex -50.5 10.9 0
      vertex -60.5 8.9 0
      vertex -60.5 10.9 0
    endloop
  endfacet
  facet normal 0 0 -1
    outer loop
      vertex -60.5 13.1 0
      vertex -50.5 15.1 0
      vertex -50.5 13.1 0
    endloop
  endfacet
  facet normal -0 0 -1
    outer loop
      vertex -50.5 15.1 0
      vertex -60.5 13.1 0
      vertex -60.5 15.1 0
    endloop
  endfacet
  facet normal 0 0 -1
    outer loop
      vertex -60.5 17.3 0
      vertex -50.5 19.3 0
      vertex -50.5 17.3 0
    endloop
  endfacet
  facet normal -0 0 -1
    outer loop
      vertex -50.5 19.3 0
      vertex -60.5 17.3 0
      vertex -60.5 19.3 0
    endloop
  endfacet
  facet normal 0 0 -1
    outer loop
      vertex -60.5 21.5 0
      vertex -50.5 23.5 0
      vertex -50.5 21.5 0
    endloop
  endfacet
  facet normal 0 0 -1
    outer loop
      vertex -60.5 21.5 0
      vertex -62.5 23.5 0
      vertex -50.5 23.5 0
    endloop
  endfacet
  facet normal 0 0 -1
    outer loop
      vertex -60.5 19.3 0
      vertex -62.5 23.5 0
      vertex -60.5 21.5 0
    endloop
  endfacet
  facet normal 1 -0 0
    outer loop
      vertex -60.5 19.3 0.2
      vertex -60.5 21.5 0
      vertex -60.5 21.5 0.2
    endloop
  endfacet
  facet normal 1 0 0
    outer loop
      vertex -60.5 21.5 0
      vertex -60.5 19.3 0.2
      vertex -60.5 19.3 0
    endloop
  endfacet
  facet normal 1 -0 0
    outer loop
      vertex -60.5 15.1 0.2
      vertex -60.5 17.3 0
      vertex -60.5 17.3 0.2
    endloop
  endfacet
  facet normal 1 0 0
    outer loop
      vertex -60.5 17.3 0
      vertex -60.5 15.1 0.2
      vertex -60.5 15.1 0
    endloop
  endfacet
  facet normal 1 -0 0
    outer loop
      vertex -60.5 10.9 0.2
      vertex -60.5 13.1 0
      vertex -60.5 13.1 0.2
    endloop
  endfacet
  facet normal 1 0 0
    outer loop
      vertex -60.5 13.1 0
      vertex -60.5 10.9 0.2
      vertex -60.5 10.9 0
    endloop
  endfacet
  facet normal 1 -0 0
    outer loop
      vertex -60.5 6.7 0.2
      vertex -60.5 8.9 0
      vertex -60.5 8.9 0.2
    endloop
  endfacet
  facet normal 1 0 0
    outer loop
      vertex -60.5 8.9 0
      vertex -60.5 6.7 0.2
      vertex -60.5 6.7 0
    endloop
  endfacet
  facet normal 1 -0 0
    outer loop
      vertex -60.5 2.5 0.2
      vertex -60.5 4.7 0
      vertex -60.5 4.7 0.2
    endloop
  endfacet
  facet normal 1 0 0
    outer loop
      vertex -60.5 4.7 0
      vertex -60.5 2.5 0.2
      vertex -60.5 2.5 0
    endloop
  endfacet
  facet normal 1 -0 0
    outer loop
      vertex -60.5 -1.7 0.2
      vertex -60.5 0.5 0
      vertex -60.5 0.5 0.2
    endloop
  endfacet
  facet normal 1 0 0
    outer loop
      vertex -60.5 0.5 0
      vertex -60.5 -1.7 0.2
      vertex -60.5 -1.7 0
    endloop
  endfacet
  facet normal 1 -0 0
    outer loop
      vertex -60.5 -5.9 0.2
      vertex -60.5 -3.7 0
      vertex -60.5 -3.7 0.2
    endloop
  endfacet
  facet normal 1 0 0
    outer loop
      vertex -60.5 -3.7 0
      vertex -60.5 -5.9 0.2
      vertex -60.5 -5.9 0
    endloop
  endfacet
  facet normal 1 -0 0
    outer loop
      vertex -60.5 -10.1 0.2
      vertex -60.5 -7.9 0
      vertex -60.5 -7.9 0.2
    endloop
  endfacet
  facet normal 1 0 0
    outer loop
      vertex -60.5 -7.9 0
      vertex -60.5 -10.1 0.2
      vertex -60.5 -10.1 0
    endloop
  endfacet
  facet normal 1 -0 0
    outer loop
      vertex -60.5 -14.3 0.2
      vertex -60.5 -12.1 0
      vertex -60.5 -12.1 0.2
    endloop
  endfacet
  facet normal 1 0 0
    outer loop
      vertex -60.5 -12.1 0
      vertex -60.5 -14.3 0.2
      vertex -60.5 -14.3 0
    endloop
  endfacet
  facet normal 1 -0 0
    outer loop
      vertex -60.5 -18.5 0.2
      vertex -60.5 -16.3 0
      vertex -60.5 -16.3 0.2
    endloop
  endfacet
  facet normal 1 0 0
    outer loop
      vertex -60.5 -16.3 0
      vertex -60.5 -18.5 0.2
      vertex -60.5 -18.5 0
    endloop
  endfacet
  facet normal 1 -0 0
    outer loop
      vertex -60.5 -22.7 0.2
      vertex -60.5 -20.5 0
      vertex -60.5 -20.5 0.2
    endloop
  endfacet
  facet normal 1 0 0
    outer loop
      vertex -60.5 -20.5 0
      vertex -60.5 -22.7 0.2
      vertex -60.5 -22.7 0
    endloop
  endfacet
  facet normal 1 -0 0
    outer loop
      vertex -60.5 -26.9 0.2
      vertex -60.5 -24.7 0
      vertex -60.5 -24.7 0.2
    endloop
  endfacet
  facet normal 1 0 0
    outer loop
      vertex -60.5 -24.7 0
      vertex -60.5 -26.9 0.2
      vertex -60.5 -26.9 0
    endloop
  endfacet
  facet normal 1 -0 0
    outer loop
      vertex -60.5 -31.1 0.2
      vertex -60.5 -28.9 0
      vertex -60.5 -28.9 0.2
    endloop
  endfacet
  facet normal 1 0 0
    outer loop
      vertex -60.5 -28.9 0
      vertex -60.5 -31.1 0.2
      vertex -60.5 -31.1 0
    endloop
  endfacet
  facet normal 1 -0 0
    outer loop
      vertex -60.5 -35.3 0.2
      vertex -60.5 -33.1 0
      vertex -60.5 -33.1 0.2
    endloop
  endfacet
  facet normal 1 0 0
    outer loop
      vertex -60.5 -33.1 0
      vertex -60.5 -35.3 0.2
      vertex -60.5 -35.3 0
    endloop
  endfacet
  facet normal 1 -0 0
    outer loop
      vertex -60.5 -39.5 0.2
      vertex -60.5 -37.3 0
      vertex -60.5 -37.3 0.2
    endloop
  endfacet
  facet normal 1 0 0
    outer loop
      vertex -60.5 -37.3 0
      vertex -60.5 -39.5 0.2
      vertex -60.5 -39.5 0
    endloop
  endfacet
  facet normal 1 -0 0
    outer loop
      vertex -60.5 -43.7 0.2
      vertex -60.5 -41.5 0
      vertex -60.5 -41.5 0.2
    endloop
  endfacet
  facet normal 1 0 0
    outer loop
      vertex -60.5 -41.5 0
      vertex -60.5 -43.7 0.2
      vertex -60.5 -43.7 0
    endloop
  endfacet
  facet normal 1 -0 0
    outer loop
      vertex -60.5 -47.9 0.2
      vertex -60.5 -45.7 0
      vertex -60.5 -45.7 0.2
    endloop
  endfacet
  facet normal 1 0 0
    outer loop
      vertex -60.5 -45.7 0
      vertex -60.5 -47.9 0.2
      vertex -60.5 -47.9 0
    endloop
  endfacet
  facet normal 1 -0 0
    outer loop
      vertex -60.5 -52.1 0.2
      vertex -60.5 -49.9 0
      vertex -60.5 -49.9 0.2
    endloop
  endfacet
  facet normal 1 0 0
    outer loop
      vertex -60.5 -49.9 0
      vertex -60.5 -52.1 0.2
      vertex -60.5 -52.1 0
    endloop
  endfacet
  facet normal 1 -0 0
    outer loop
      vertex -60.5 -56.3 0.2
      vertex -60.5 -54.1 0
      vertex -60.5 -54.1 0.2
    endloop
  endfacet
  facet normal 1 0 0
    outer loop
      vertex -60.5 -54.1 0
      vertex -60.5 -56.3 0.2
      vertex -60.5 -56.3 0
    endloop
  endfacet
  facet normal 1 -0 0
    outer loop
      vertex -60.5 -60.5 0.2
      vertex -60.5 -58.3 0
      vertex -60.5 -58.3 0.2
    endloop
  endfacet
  facet normal 1 0 0
    outer loop
      vertex -60.5 -58.3 0
      vertex -60.5 -60.5 0.2
      vertex -60.5 -60.5 0
    endloop
  endfacet
  facet normal -0 0 1
    outer loop
      vertex -62.5 -18.5 0.4
      vertex -55.5 -20.5 0.4
      vertex -55.5 -18.5 0.4
    endloop
  endfacet
  facet normal 0 0 1
    outer loop
      vertex -55.5 -20.5 0.4
      vertex -62.5 -18.5 0.4
      vertex -62.5 -20.5 0.4
    endloop
  endfacet
  facet normal -1 0 0
    outer loop
      vertex -62.5 23.5 0
      vertex -62.5 -18.5 0.2
      vertex -62.5 23.5 0.2
    endloop
  endfacet
  facet normal -1 0 0
    outer loop
      vertex -62.5 -18.5 0.2
      vertex -62.5 -20.5 0.2
      vertex -62.5 -18.5 0.4
    endloop
  endfacet
  facet normal -1 0 0
    outer loop
      vertex -62.5 23.5 0
      vertex -62.5 -20.5 0.2
      vertex -62.5 -18.5 0.2
    endloop
  endfacet
  facet normal -1 0 0
    outer loop
      vertex -62.5 -62.5 0
      vertex -62.5 -20.5 0.2
      vertex -62.5 23.5 0
    endloop
  endfacet
  facet normal -1 -0 0
    outer loop
      vertex -62.5 -20.5 0.2
      vertex -62.5 -62.5 0
      vertex -62.5 -62.5 0.2
    endloop
  endfacet
  facet normal -1 -0 0
    outer loop
      vertex -62.5 -18.5 0.4
      vertex -62.5 -20.5 0.2
      vertex -62.5 -20.5 0.4
    endloop
  endfacet
  facet normal 1 -0 0
    outer loop
      vertex -55.5 -20.5 0.4
      vertex -55.5 -18.5 0.2
      vertex -55.5 -18.5 0.4
    endloop
  endfacet
  facet normal 1 0 0
    outer loop
      vertex -55.5 -18.5 0.2
      vertex -55.5 -20.5 0.4
      vertex -55.5 -20.5 0.2
    endloop
  endfacet
  facet normal 0 -1 0
    outer loop
      vertex -62.5 -62.5 0
      vertex -50.5 -62.5 0.2
      vertex -62.5 -62.5 0.2
    endloop
  endfacet
  facet normal 0 -1 -0
    outer loop
      vertex -50.5 -62.5 0.2
      vertex -62.5 -62.5 0
      vertex -50.5 -62.5 0
    endloop
  endfacet
  facet normal 0 1 -0
    outer loop
      vertex -50.5 -60.5 0
      vertex -60.5 -60.5 0.2
      vertex -50.5 -60.5 0.2
    endloop
  endfacet
  facet normal 0 1 0
    outer loop
      vertex -60.5 -60.5 0.2
      vertex -50.5 -60.5 0
      vertex -60.5 -60.5 0
    endloop
  endfacet
  facet normal 1 -0 0
    outer loop
      vertex -50.5 -62.5 0.2
      vertex -50.5 -60.5 0
      vertex -50.5 -60.5 0.2
    endloop
  endfacet
  facet normal 1 0 0
    outer loop
      vertex -50.5 -60.5 0
      vertex -50.5 -62.5 0.2
      vertex -50.5 -62.5 0
    endloop
  endfacet
  facet normal 0 -1 0
    outer loop
      vertex -60.5 -58.3 0
      vertex -50.5 -58.3 0.2
      vertex -60.5 -58.3 0.2
    endloop
  endfacet
  facet normal 0 -1 -0
    outer loop
      vertex -50.5 -58.3 0.2
      vertex -60.5 -58.3 0
      vertex -50.5 -58.3 0
    endloop
  endfacet
  facet normal 0 1 -0
    outer loop
      vertex -50.5 -56.3 0
      vertex -60.5 -56.3 0.2
      vertex -50.5 -56.3 0.2
    endloop
  endfacet
  facet normal 0 1 0
    outer loop
      vertex -60.5 -56.3 0.2
      vertex -50.5 -56.3 0
      vertex -60.5 -56.3 0
    endloop
  endfacet
  facet normal 1 -0 0
    outer loop
      vertex -50.5 -58.3 0.2
      vertex -50.5 -56.3 0
      vertex -50.5 -56.3 0.2
    endloop
  endfacet
  facet normal 1 0 0
    outer loop
      vertex -50.5 -56.3 0
      vertex -50.5 -58.3 0.2
      vertex -50.5 -58.3 0
    endloop
  endfacet
  facet normal 0 -1 0
    outer loop
      vertex -60.5 -54.1 0
      vertex -50.5 -54.1 0.2
      vertex -60.5 -54.1 0.2
    endloop
  endfacet
  facet normal 0 -1 -0
    outer loop
      vertex -50.5 -54.1 0.2
      vertex -60.5 -54.1 0
      vertex -50.5 -54.1 0
    endloop
  endfacet
  facet normal 0 1 -0
    outer loop
      vertex -50.5 -52.1 0
      vertex -60.5 -52.1 0.2
      vertex -50.5 -52.1 0.2
    endloop
  endfacet
  facet normal 0 1 0
    outer loop
      vertex -60.5 -52.1 0.2
      vertex -50.5 -52.1 0
      vertex -60.5 -52.1 0
    endloop
  endfacet
  facet normal 1 -0 0
    outer loop
      vertex -50.5 -54.1 0.2
      vertex -50.5 -52.1 0
      vertex -50.5 -52.1 0.2
    endloop
  endfacet
  facet normal 1 0 0
    outer loop
      vertex -50.5 -52.1 0
      vertex -50.5 -54.1 0.2
      vertex -50.5 -54.1 0
    endloop
  endfacet
  facet normal 0 -1 0
    outer loop
      vertex -60.5 -49.9 0
      vertex -50.5 -49.9 0.2
      vertex -60.5 -49.9 0.2
    endloop
  endfacet
  facet normal 0 -1 -0
    outer loop
      vertex -50.5 -49.9 0.2
      vertex -60.5 -49.9 0
      vertex -50.5 -49.9 0
    endloop
  endfacet
  facet normal 0 1 -0
    outer loop
      vertex -50.5 -47.9 0
      vertex -60.5 -47.9 0.2
      vertex -50.5 -47.9 0.2
    endloop
  endfacet
  facet normal 0 1 0
    outer loop
      vertex -60.5 -47.9 0.2
      vertex -50.5 -47.9 0
      vertex -60.5 -47.9 0
    endloop
  endfacet
  facet normal 1 -0 0
    outer loop
      vertex -50.5 -49.9 0.2
      vertex -50.5 -47.9 0
      vertex -50.5 -47.9 0.2
    endloop
  endfacet
  facet normal 1 0 0
    outer loop
      vertex -50.5 -47.9 0
      vertex -50.5 -49.9 0.2
      vertex -50.5 -49.9 0
    endloop
  endfacet
  facet normal 0 -1 0
    outer loop
      vertex -60.5 -45.7 0
      vertex -50.5 -45.7 0.2
      vertex -60.5 -45.7 0.2
    endloop
  endfacet
  facet normal 0 -1 -0
    outer loop
      vertex -50.5 -45.7 0.2
      vertex -60.5 -45.7 0
      vertex -50.5 -45.7 0
    endloop
  endfacet
  facet normal 0 1 -0
    outer loop
      vertex -50.5 -43.7 0
      vertex -60.5 -43.7 0.2
      vertex -50.5 -43.7 0.2
    endloop
  endfacet
  facet normal 0 1 0
    outer loop
      vertex -60.5 -43.7 0.2
      vertex -50.5 -43.7 0
      vertex -60.5 -43.7 0
    endloop
  endfacet
  facet normal 1 -0 0
    outer loop
      vertex -50.5 -45.7 0.2
      vertex -50.5 -43.7 0
      vertex -50.5 -43.7 0.2
    endloop
  endfacet
  facet normal 1 0 0
    outer loop
      vertex -50.5 -43.7 0
      vertex -50.5 -45.7 0.2
      vertex -50.5 -45.7 0
    endloop
  endfacet
  facet normal 0 -1 0
    outer loop
      vertex -60.5 -41.5 0
      vertex -50.5 -41.5 0.2
      vertex -60.5 -41.5 0.2
    endloop
  endfacet
  facet normal 0 -1 -0
    outer loop
      vertex -50.5 -41.5 0.2
      vertex -60.5 -41.5 0
      vertex -50.5 -41.5 0
    endloop
  endfacet
  facet normal 0 1 -0
    outer loop
      vertex -50.5 -39.5 0
      vertex -60.5 -39.5 0.2
      vertex -50.5 -39.5 0.2
    endloop
  endfacet
  facet normal 0 1 0
    outer loop
      vertex -60.5 -39.5 0.2
      vertex -50.5 -39.5 0
      vertex -60.5 -39.5 0
    endloop
  endfacet
  facet normal 1 -0 0
    outer loop
      vertex -50.5 -41.5 0.2
      vertex -50.5 -39.5 0
      vertex -50.5 -39.5 0.2
    endloop
  endfacet
  facet normal 1 0 0
    outer loop
      vertex -50.5 -39.5 0
      vertex -50.5 -41.5 0.2
      vertex -50.5 -41.5 0
    endloop
  endfacet
  facet normal 0 -1 0
    outer loop
      vertex -60.5 -37.3 0
      vertex -50.5 -37.3 0.2
      vertex -60.5 -37.3 0.2
    endloop
  endfacet
  facet normal 0 -1 -0
    outer loop
      vertex -50.5 -37.3 0.2
      vertex -60.5 -37.3 0
      vertex -50.5 -37.3 0
    endloop
  endfacet
  facet normal 0 1 -0
    outer loop
      vertex -50.5 -35.3 0
      vertex -60.5 -35.3 0.2
      vertex -50.5 -35.3 0.2
    endloop
  endfacet
  facet normal 0 1 0
    outer loop
      vertex -60.5 -35.3 0.2
      vertex -50.5 -35.3 0
      vertex -60.5 -35.3 0
    endloop
  endfacet
  facet normal 1 -0 0
    outer loop
      vertex -50.5 -37.3 0.2
      vertex -50.5 -35.3 0
      vertex -50.5 -35.3 0.2
    endloop
  endfacet
  facet normal 1 0 0
    outer loop
      vertex -50.5 -35.3 0
      vertex -50.5 -37.3 0.2
      vertex -50.5 -37.3 0
    endloop
  endfacet
  facet normal 0 -1 0
    outer loop
      vertex -60.5 -33.1 0
      vertex -50.5 -33.1 0.2
      vertex -60.5 -33.1 0.2
    endloop
  endfacet
  facet normal 0 -1 -0
    outer loop
      vertex -50.5 -33.1 0.2
      vertex -60.5 -33.1 0
      vertex -50.5 -33.1 0
    endloop
  endfacet
  facet normal 0 1 -0
    outer loop
      vertex -50.5 -31.1 0
      vertex -60.5 -31.1 0.2
      vertex -50.5 -31.1 0.2
    endloop
  endfacet
  facet normal 0 1 0
    outer loop
      vertex -60.5 -31.1 0.2
      vertex -50.5 -31.1 0
      vertex -60.5 -31.1 0
    endloop
  endfacet
  facet normal 1 -0 0
    outer loop
      vertex -50.5 -33.1 0.2
      vertex -50.5 -31.1 0
      vertex -50.5 -31.1 0.2
    endloop
  endfacet
  facet normal 1 0 0
    outer loop
      vertex -50.5 -31.1 0
      vertex -50.5 -33.1 0.2
      vertex -50.5 -33.1 0
    endloop
  endfacet
  facet normal 0 -1 0
    outer loop
      vertex -60.5 -28.9 0
      vertex -50.5 -28.9 0.2
      vertex -60.5 -28.9 0.2
    endloop
  endfacet
  facet normal 0 -1 -0
    outer loop
      vertex -50.5 -28.9 0.2
      vertex -60.5 -28.9 0
      vertex -50.5 -28.9 0
    endloop
  endfacet
  facet normal 0 1 -0
    outer loop
      vertex -50.5 -26.9 0
      vertex -60.5 -26.9 0.2
      vertex -50.5 -26.9 0.2
    endloop
  endfacet
  facet normal 0 1 0
    outer loop
      vertex -60.5 -26.9 0.2
      vertex -50.5 -26.9 0
      vertex -60.5 -26.9 0
    endloop
  endfacet
  facet normal 1 -0 0
    outer loop
      vertex -50.5 -28.9 0.2
      vertex -50.5 -26.9 0
      vertex -50.5 -26.9 0.2
    endloop
  endfacet
  facet normal 1 0 0
    outer loop
      vertex -50.5 -26.9 0
      vertex -50.5 -28.9 0.2
      vertex -50.5 -28.9 0
    endloop
  endfacet
  facet normal 0 -1 0
    outer loop
      vertex -60.5 -24.7 0
      vertex -50.5 -24.7 0.2
      vertex -60.5 -24.7 0.2
    endloop
  endfacet
  facet normal 0 -1 -0
    outer loop
      vertex -50.5 -24.7 0.2
      vertex -60.5 -24.7 0
      vertex -50.5 -24.7 0
    endloop
  endfacet
  facet normal 0 1 -0
    outer loop
      vertex -50.5 -22.7 0
      vertex -60.5 -22.7 0.2
      vertex -50.5 -22.7 0.2
    endloop
  endfacet
  facet normal 0 1 0
    outer loop
      vertex -60.5 -22.7 0.2
      vertex -50.5 -22.7 0
      vertex -60.5 -22.7 0
    endloop
  endfacet
  facet normal 1 -0 0
    outer loop
      vertex -50.5 -24.7 0.2
      vertex -50.5 -22.7 0
      vertex -50.5 -22.7 0.2
    endloop
  endfacet
  facet normal 1 0 0
    outer loop
      vertex -50.5 -22.7 0
      vertex -50.5 -24.7 0.2
      vertex -50.5 -24.7 0
    endloop
  endfacet
  facet normal 0 -1 0
    outer loop
      vertex -60.5 -16.3 0
      vertex -50.5 -16.3 0.2
      vertex -60.5 -16.3 0.2
    endloop
  endfacet
  facet normal 0 -1 -0
    outer loop
      vertex -50.5 -16.3 0.2
      vertex -60.5 -16.3 0
      vertex -50.5 -16.3 0
    endloop
  endfacet
  facet normal 0 1 -0
    outer loop
      vertex -50.5 -14.3 0
      vertex -60.5 -14.3 0.2
      vertex -50.5 -14.3 0.2
    endloop
  endfacet
  facet normal 0 1 0
    outer loop
      vertex -60.5 -14.3 0.2
      vertex -50.5 -14.3 0
      vertex -60.5 -14.3 0
    endloop
  endfacet
  facet normal 1 -0 0
    outer loop
      vertex -50.5 -16.3 0.2
      vertex -50.5 -14.3 0
      vertex -50.5 -14.3 0.2
    endloop
  endfacet
  facet normal 1 0 0
    outer loop
      vertex -50.5 -14.3 0
      vertex -50.5 -16.3 0.2
      vertex -50.5 -16.3 0
    endloop
  endfacet
  facet normal 0 -1 0
    outer loop
      vertex -60.5 -12.1 0
      vertex -50.5 -12.1 0.2
      vertex -60.5 -12.1 0.2
    endloop
  endfacet
  facet normal 0 -1 -0
    outer loop
      vertex -50.5 -12.1 0.2
      vertex -60.5 -12.1 0
      vertex -50.5 -12.1 0
    endloop
  endfacet
  facet normal 0 1 -0
    outer loop
      vertex -50.5 -10.1 0
      vertex -60.5 -10.1 0.2
      vertex -50.5 -10.1 0.2
    endloop
  endfacet
  facet normal 0 1 0
    outer loop
      vertex -60.5 -10.1 0.2
      vertex -50.5 -10.1 0
      vertex -60.5 -10.1 0
    endloop
  endfacet
  facet normal 1 -0 0
    outer loop
      vertex -50.5 -12.1 0.2
      vertex -50.5 -10.1 0
      vertex -50.5 -10.1 0.2
    endloop
  endfacet
  facet normal 1 0 0
    outer loop
      vertex -50.5 -10.1 0
      vertex -50.5 -12.1 0.2
      vertex -50.5 -12.1 0
    endloop
  endfacet
  facet normal 0 -1 0
    outer loop
      vertex -60.5 -7.9 0
      vertex -50.5 -7.9 0.2
      vertex -60.5 -7.9 0.2
    endloop
  endfacet
  facet normal 0 -1 -0
    outer loop
      vertex -50.5 -7.9 0.2
      vertex -60.5 -7.9 0
      vertex -50.5 -7.9 0
    endloop
  endfacet
  facet normal 0 1 -0
    outer loop
      vertex -50.5 -5.9 0
      vertex -60.5 -5.9 0.2
      vertex -50.5 -5.9 0.2
    endloop
  endfacet
  facet normal 0 1 0
    outer loop
      vertex -60.5 -5.9 0.2
      vertex -50.5 -5.9 0
      vertex -60.5 -5.9 0
    endloop
  endfacet
  facet normal 1 -0 0
    outer loop
      vertex -50.5 -7.9 0.2
      vertex -50.5 -5.9 0
      vertex -50.5 -5.9 0.2
    endloop
  endfacet
  facet normal 1 0 0
    outer loop
      vertex -50.5 -5.9 0
      vertex -50.5 -7.9 0.2
      vertex -50.5 -7.9 0
    endloop
  endfacet
  facet normal 0 -1 0
    outer loop
      vertex -60.5 -3.7 0
      vertex -50.5 -3.7 0.2
      vertex -60.5 -3.7 0.2
    endloop
  endfacet
  facet normal 0 -1 -0
    outer loop
      vertex -50.5 -3.7 0.2
      vertex -60.5 -3.7 0
      vertex -50.5 -3.7 0
    endloop
  endfacet
  facet normal 0 1 -0
    outer loop
      vertex -50.5 -1.7 0
      vertex -60.5 -1.7 0.2
      vertex -50.5 -1.7 0.2
    endloop
  endfacet
  facet normal 0 1 0
    outer loop
      vertex -60.5 -1.7 0.2
      vertex -50.5 -1.7 0
      vertex -60.5 -1.7 0
    endloop
  endfacet
  facet normal 1 -0 0
    outer loop
      vertex -50.5 -3.7 0.2
      vertex -50.5 -1.7 0
      vertex -50.5 -1.7 0.2
    endloop
  endfacet
  facet normal 1 0 0
    outer loop
      vertex -50.5 -1.7 0
      vertex -50.5 -3.7 0.2
      vertex -50.5 -3.7 0
    endloop
  endfacet
  facet normal 0 -1 0
    outer loop
      vertex -60.5 0.5 0
      vertex -50.5 0.5 0.2
      vertex -60.5 0.5 0.2
    endloop
  endfacet
  facet normal 0 -1 -0
    outer loop
      vertex -50.5 0.5 0.2
      vertex -60.5 0.5 0
      vertex -50.5 0.5 0
    endloop
  endfacet
  facet normal 0 1 -0
    outer loop
      vertex -50.5 2.5 0
      vertex -60.5 2.5 0.2
      vertex -50.5 2.5 0.2
    endloop
  endfacet
  facet normal 0 1 0
    outer loop
      vertex -60.5 2.5 0.2
      vertex -50.5 2.5 0
      vertex -60.5 2.5 0
    endloop
  endfacet
  facet normal 1 -0 0
    outer loop
      vertex -50.5 0.5 0.2
      vertex -50.5 2.5 0
      vertex -50.5 2.5 0.2
    endloop
  endfacet
  facet normal 1 0 0
    outer loop
      vertex -50.5 2.5 0
      vertex -50.5 0.5 0.2
      vertex -50.5 0.5 0
    endloop
  endfacet
  facet normal 0 -1 0
    outer loop
      vertex -60.5 4.7 0
      vertex -50.5 4.7 0.2
      vertex -60.5 4.7 0.2
    endloop
  endfacet
  facet normal 0 -1 -0
    outer loop
      vertex -50.5 4.7 0.2
      vertex -60.5 4.7 0
      vertex -50.5 4.7 0
    endloop
  endfacet
  facet normal 0 1 -0
    outer loop
      vertex -50.5 6.7 0
      vertex -60.5 6.7 0.2
      vertex -50.5 6.7 0.2
    endloop
  endfacet
  facet normal 0 1 0
    outer loop
      vertex -60.5 6.7 0.2
      vertex -50.5 6.7 0
      vertex -60.5 6.7 0
    endloop
  endfacet
  facet normal 1 -0 0
    outer loop
      vertex -50.5 4.7 0.2
      vertex -50.5 6.7 0
      vertex -50.5 6.7 0.2
    endloop
  endfacet
  facet normal 1 0 0
    outer loop
      vertex -50.5 6.7 0
      vertex -50.5 4.7 0.2
      vertex -50.5 4.7 0
    endloop
  endfacet
  facet normal 0 -1 0
    outer loop
      vertex -60.5 8.9 0
      vertex -50.5 8.9 0.2
      vertex -60.5 8.9 0.2
    endloop
  endfacet
  facet normal 0 -1 -0
    outer loop
      vertex -50.5 8.9 0.2
      vertex -60.5 8.9 0
      vertex -50.5 8.9 0
    endloop
  endfacet
  facet normal 0 1 -0
    outer loop
      vertex -50.5 10.9 0
      vertex -60.5 10.9 0.2
      vertex -50.5 10.9 0.2
    endloop
  endfacet
  facet normal 0 1 0
    outer loop
      vertex -60.5 10.9 0.2
      vertex -50.5 10.9 0
      vertex -60.5 10.9 0
    endloop
  endfacet
  facet normal 1 -0 0
    outer loop
      vertex -50.5 8.9 0.2
      vertex -50.5 10.9 0
      vertex -50.5 10.9 0.2
    endloop
  endfacet
  facet normal 1 0 0
    outer loop
      vertex -50.5 10.9 0
      vertex -50.5 8.9 0.2
      vertex -50.5 8.9 0
    endloop
  endfacet
  facet normal 0 -1 0
    outer loop
      vertex -60.5 13.1 0
      vertex -50.5 13.1 0.2
      vertex -60.5 13.1 0.2
    endloop
  endfacet
  facet normal 0 -1 -0
    outer loop
      vertex -50.5 13.1 0.2
      vertex -60.5 13.1 0
      vertex -50.5 13.1 0
    endloop
  endfacet
  facet normal 0 1 -0
    outer loop
      vertex -50.5 15.1 0
      vertex -60.5 15.1 0.2
      vertex -50.5 15.1 0.2
    endloop
  endfacet
  facet normal 0 1 0
    outer loop
      vertex -60.5 15.1 0.2
      vertex -50.5 15.1 0
      vertex -60.5 15.1 0
    endloop
  endfacet
  facet normal 1 -0 0
    outer loop
      vertex -50.5 13.1 0.2
      vertex -50.5 15.1 0
      vertex -50.5 15.1 0.2
    endloop
  endfacet
  facet normal 1 0 0
    outer loop
      vertex -50.5 15.1 0
      vertex -50.5 13.1 0.2
      vertex -50.5 13.1 0
    endloop
  endfacet
  facet normal 0 -1 0
    outer loop
      vertex -60.5 17.3 0
      vertex -50.5 17.3 0.2
      vertex -60.5 17.3 0.2
    endloop
  endfacet
  facet normal 0 -1 -0
    outer loop
      vertex -50.5 17.3 0.2
      vertex -60.5 17.3 0
      vertex -50.5 17.3 0
    endloop
  endfacet
  facet normal 0 1 -0
    outer loop
      vertex -50.5 19.3 0
      vertex -60.5 19.3 0.2
      vertex -50.5 19.3 0.2
    endloop
  endfacet
  facet normal 0 1 0
    outer loop
      vertex -60.5 19.3 0.2
      vertex -50.5 19.3 0
      vertex -60.5 19.3 0
    endloop
  endfacet
  facet normal 1 -0 0
    outer loop
      vertex -50.5 17.3 0.2
      vertex -50.5 19.3 0
      vertex -50.5 19.3 0.2
    endloop
  endfacet
  facet normal 1 0 0
    outer loop
      vertex -50.5 19.3 0
      vertex -50.5 17.3 0.2
      vertex -50.5 17.3 0
    endloop
  endfacet
  facet normal 0 -1 0
    outer loop
      vertex -60.5 21.5 0
      vertex -50.5 21.5 0.2
      vertex -60.5 21.5 0.2
    endloop
  endfacet
  facet normal 0 -1 -0
    outer loop
      vertex -50.5 21.5 0.2
      vertex -60.5 21.5 0
      vertex -50.5 21.5 0
    endloop
  endfacet
  facet normal 0 1 -0
    outer loop
      vertex -50.5 23.5 0
      vertex -62.5 23.5 0.2
      vertex -50.5 23.5 0.2
    endloop
  endfacet
  facet normal 0 1 0
    outer loop
      vertex -62.5 23.5 0.2
      vertex -50.5 23.5 0
      vertex -62.5 23.5 0
    endloop
  endfacet
  facet normal 1 -0 0
    outer loop
      vertex -50.5 21.5 0.2
      vertex -50.5 23.5 0
      vertex -50.5 23.5 0.2
    endloop
  endfacet
  facet normal 1 0 0
    outer loop
      vertex -50.5 23.5 0
      vertex -50.5 21.5 0.2
      vertex -50.5 21.5 0
    endloop
  endfacet
endsolid OpenSCAD_Model
