solid OpenSCAD_Model
  facet normal -1 0 0
    outer loop
      vertex 12.5 -20 0
      vertex 12.5 -25 0.2
      vertex 12.5 -20 0.2
    endloop
  endfacet
  facet normal -1 0 0
    outer loop
      vertex 12.5 -30 0
      vertex 12.5 -25 0.2
      vertex 12.5 -20 0
    endloop
  endfacet
  facet normal -1 -0 0
    outer loop
      vertex 12.5 -25 0.2
      vertex 12.5 -30 0
      vertex 12.5 -30 0.2
    endloop
  endfacet
  facet normal -1 0 0
    outer loop
      vertex 12.5 -20 0.2
      vertex 12.5 -18 0.4
      vertex 12.5 -18 0.2
    endloop
  endfacet
  facet normal -1 0 0
    outer loop
      vertex 12.5 -25 0.4
      vertex 12.5 -20 0.2
      vertex 12.5 -25 0.2
    endloop
  endfacet
  facet normal -1 0 0
    outer loop
      vertex 12.5 -20 0.2
      vertex 12.5 -25 0.4
      vertex 12.5 -18 0.4
    endloop
  endfacet
  facet normal 0 0 1
    outer loop
      vertex 56.5 -18 0.2
      vertex 54.5 -20 0.2
      vertex 56.5 -30 0.2
    endloop
  endfacet
  facet normal 0 0 1
    outer loop
      vertex 56.5 -18 0.2
      vertex 52.3 -20 0.2
      vertex 54.5 -20 0.2
    endloop
  endfacet
  facet normal 0 0 1
    outer loop
      vertex 52.3 -20 0.2
      vertex 50.3 -20 0.2
      vertex 52.3 -30 0.2
    endloop
  endfacet
  facet normal 0 0 1
    outer loop
      vertex 56.5 -18 0.2
      vertex 50.3 -20 0.2
      vertex 52.3 -20 0.2
    endloop
  endfacet
  facet normal 0 0 1
    outer loop
      vertex 56.5 -18 0.2
      vertex 48.1 -20 0.2
      vertex 50.3 -20 0.2
    endloop
  endfacet
  facet normal 0 0 1
    outer loop
      vertex 48.1 -20 0.2
      vertex 46.1 -20 0.2
      vertex 48.1 -30 0.2
    endloop
  endfacet
  facet normal 0 0 1
    outer loop
      vertex 56.5 -18 0.2
      vertex 46.1 -20 0.2
      vertex 48.1 -20 0.2
    endloop
  endfacet
  facet normal 0 0 1
    outer loop
      vertex 56.5 -18 0.2
      vertex 43.9 -20 0.2
      vertex 46.1 -20 0.2
    endloop
  endfacet
  facet normal 0 0 1
    outer loop
      vertex 43.9 -20 0.2
      vertex 41.9 -20 0.2
      vertex 43.9 -30 0.2
    endloop
  endfacet
  facet normal 0 0 1
    outer loop
      vertex 56.5 -18 0.2
      vertex 41.9 -20 0.2
      vertex 43.9 -20 0.2
    endloop
  endfacet
  facet normal 0 0 1
    outer loop
      vertex 56.5 -18 0.2
      vertex 39.7 -20 0.2
      vertex 41.9 -20 0.2
    endloop
  endfacet
  facet normal 0 0 1
    outer loop
      vertex 39.7 -20 0.2
      vertex 37.7 -20 0.2
      vertex 39.7 -30 0.2
    endloop
  endfacet
  facet normal 0 0 1
    outer loop
      vertex 56.5 -18 0.2
      vertex 37.7 -20 0.2
      vertex 39.7 -20 0.2
    endloop
  endfacet
  facet normal 0 0 1
    outer loop
      vertex 56.5 -18 0.2
      vertex 35.5 -20 0.2
      vertex 37.7 -20 0.2
    endloop
  endfacet
  facet normal 0 0 1
    outer loop
      vertex 35.5 -20 0.2
      vertex 33.5 -20 0.2
      vertex 35.5 -30 0.2
    endloop
  endfacet
  facet normal 0 0 1
    outer loop
      vertex 56.5 -18 0.2
      vertex 33.5 -20 0.2
      vertex 35.5 -20 0.2
    endloop
  endfacet
  facet normal -0 0 1
    outer loop
      vertex 14.5 -18 0.2
      vertex 33.5 -20 0.2
      vertex 56.5 -18 0.2
    endloop
  endfacet
  facet normal 0 0 1
    outer loop
      vertex 31.3 -20 0.2
      vertex 29.3 -20 0.2
      vertex 31.3 -30 0.2
    endloop
  endfacet
  facet normal 0 0 1
    outer loop
      vertex 33.5 -20 0.2
      vertex 14.5 -18 0.2
      vertex 31.3 -20 0.2
    endloop
  endfacet
  facet normal 0 0 1
    outer loop
      vertex 31.3 -20 0.2
      vertex 14.5 -18 0.2
      vertex 29.3 -20 0.2
    endloop
  endfacet
  facet normal 0 0 1
    outer loop
      vertex 27.1 -20 0.2
      vertex 25.1 -20 0.2
      vertex 27.1 -30 0.2
    endloop
  endfacet
  facet normal 0 0 1
    outer loop
      vertex 29.3 -20 0.2
      vertex 14.5 -18 0.2
      vertex 27.1 -20 0.2
    endloop
  endfacet
  facet normal 0 0 1
    outer loop
      vertex 27.1 -20 0.2
      vertex 14.5 -18 0.2
      vertex 25.1 -20 0.2
    endloop
  endfacet
  facet normal 0 0 1
    outer loop
      vertex 22.9 -20 0.2
      vertex 20.9 -20 0.2
      vertex 22.9 -30 0.2
    endloop
  endfacet
  facet normal 0 0 1
    outer loop
      vertex 25.1 -20 0.2
      vertex 14.5 -18 0.2
      vertex 22.9 -20 0.2
    endloop
  endfacet
  facet normal 0 0 1
    outer loop
      vertex 22.9 -20 0.2
      vertex 14.5 -18 0.2
      vertex 20.9 -20 0.2
    endloop
  endfacet
  facet normal 0 0 1
    outer loop
      vertex 18.7 -20 0.2
      vertex 16.7 -20 0.2
      vertex 18.7 -30 0.2
    endloop
  endfacet
  facet normal 0 0 1
    outer loop
      vertex 20.9 -20 0.2
      vertex 14.5 -18 0.2
      vertex 18.7 -20 0.2
    endloop
  endfacet
  facet normal 0 0 1
    outer loop
      vertex 18.7 -20 0.2
      vertex 14.5 -18 0.2
      vertex 16.7 -20 0.2
    endloop
  endfacet
  facet normal 0 0 1
    outer loop
      vertex 16.7 -20 0.2
      vertex 14.5 -18 0.2
      vertex 14.5 -20 0.2
    endloop
  endfacet
  facet normal 0 0 1
    outer loop
      vertex 56.5 -30 0.2
      vertex 54.5 -20 0.2
      vertex 54.5 -30 0.2
    endloop
  endfacet
  facet normal 0 0 1
    outer loop
      vertex 52.3 -30 0.2
      vertex 50.3 -20 0.2
      vertex 50.3 -30 0.2
    endloop
  endfacet
  facet normal 0 0 1
    outer loop
      vertex 48.1 -30 0.2
      vertex 46.1 -20 0.2
      vertex 46.1 -30 0.2
    endloop
  endfacet
  facet normal 0 0 1
    outer loop
      vertex 43.9 -30 0.2
      vertex 41.9 -20 0.2
      vertex 41.9 -30 0.2
    endloop
  endfacet
  facet normal 0 0 1
    outer loop
      vertex 39.7 -30 0.2
      vertex 37.7 -20 0.2
      vertex 37.7 -30 0.2
    endloop
  endfacet
  facet normal 0 0 1
    outer loop
      vertex 35.5 -30 0.2
      vertex 33.5 -20 0.2
      vertex 33.5 -30 0.2
    endloop
  endfacet
  facet normal 0 0 1
    outer loop
      vertex 31.3 -30 0.2
      vertex 29.3 -20 0.2
      vertex 29.3 -30 0.2
    endloop
  endfacet
  facet normal 0 0 1
    outer loop
      vertex 27.1 -30 0.2
      vertex 25.1 -20 0.2
      vertex 25.1 -30 0.2
    endloop
  endfacet
  facet normal 0 0 1
    outer loop
      vertex 22.9 -30 0.2
      vertex 20.9 -20 0.2
      vertex 20.9 -30 0.2
    endloop
  endfacet
  facet normal 0 0 1
    outer loop
      vertex 18.7 -30 0.2
      vertex 16.7 -20 0.2
      vertex 16.7 -30 0.2
    endloop
  endfacet
  facet normal 0 0 1
    outer loop
      vertex 12.5 -18 0.2
      vertex 10.3 -20 0.2
      vertex 12.5 -20 0.2
    endloop
  endfacet
  facet normal 0 0 1
    outer loop
      vertex 10.3 -20 0.2
      vertex 8.3 -20 0.2
      vertex 10.3 -30 0.2
    endloop
  endfacet
  facet normal 0 0 1
    outer loop
      vertex 12.5 -18 0.2
      vertex 8.3 -20 0.2
      vertex 10.3 -20 0.2
    endloop
  endfacet
  facet normal 0 0 1
    outer loop
      vertex 12.5 -18 0.2
      vertex 6.1 -20 0.2
      vertex 8.3 -20 0.2
    endloop
  endfacet
  facet normal 0 0 1
    outer loop
      vertex 6.1 -20 0.2
      vertex 4.1 -20 0.2
      vertex 6.1 -30 0.2
    endloop
  endfacet
  facet normal 0 0 1
    outer loop
      vertex 12.5 -18 0.2
      vertex 4.1 -20 0.2
      vertex 6.1 -20 0.2
    endloop
  endfacet
  facet normal 0 0 1
    outer loop
      vertex 12.5 -18 0.2
      vertex 1.9 -20 0.2
      vertex 4.1 -20 0.2
    endloop
  endfacet
  facet normal 0 0 1
    outer loop
      vertex 1.9 -20 0.2
      vertex -0.1 -20 0.2
      vertex 1.9 -30 0.2
    endloop
  endfacet
  facet normal 0 0 1
    outer loop
      vertex 12.5 -18 0.2
      vertex -0.1 -20 0.2
      vertex 1.9 -20 0.2
    endloop
  endfacet
  facet normal 0 0 1
    outer loop
      vertex 12.5 -18 0.2
      vertex -2.3 -20 0.2
      vertex -0.1 -20 0.2
    endloop
  endfacet
  facet normal 0 0 1
    outer loop
      vertex -2.3 -20 0.2
      vertex -4.3 -20 0.2
      vertex -2.3 -30 0.2
    endloop
  endfacet
  facet normal 0 0 1
    outer loop
      vertex 12.5 -18 0.2
      vertex -4.3 -20 0.2
      vertex -2.3 -20 0.2
    endloop
  endfacet
  facet normal 0 0 1
    outer loop
      vertex 12.5 -18 0.2
      vertex -6.5 -20 0.2
      vertex -4.3 -20 0.2
    endloop
  endfacet
  facet normal 0 0 1
    outer loop
      vertex -6.5 -20 0.2
      vertex -8.5 -20 0.2
      vertex -6.5 -30 0.2
    endloop
  endfacet
  facet normal 0 0 1
    outer loop
      vertex 12.5 -18 0.2
      vertex -8.5 -20 0.2
      vertex -6.5 -20 0.2
    endloop
  endfacet
  facet normal -0 0 1
    outer loop
      vertex -29.5 -18 0.2
      vertex -8.5 -20 0.2
      vertex 12.5 -18 0.2
    endloop
  endfacet
  facet normal 0 0 1
    outer loop
      vertex -10.7 -20 0.2
      vertex -12.7 -20 0.2
      vertex -10.7 -30 0.2
    endloop
  endfacet
  facet normal 0 0 1
    outer loop
      vertex -8.5 -20 0.2
      vertex -29.5 -18 0.2
      vertex -10.7 -20 0.2
    endloop
  endfacet
  facet normal 0 0 1
    outer loop
      vertex -10.7 -20 0.2
      vertex -29.5 -18 0.2
      vertex -12.7 -20 0.2
    endloop
  endfacet
  facet normal 0 0 1
    outer loop
      vertex -14.9 -20 0.2
      vertex -16.9 -20 0.2
      vertex -14.9 -30 0.2
    endloop
  endfacet
  facet normal 0 0 1
    outer loop
      vertex -12.7 -20 0.2
      vertex -29.5 -18 0.2
      vertex -14.9 -20 0.2
    endloop
  endfacet
  facet normal 0 0 1
    outer loop
      vertex -14.9 -20 0.2
      vertex -29.5 -18 0.2
      vertex -16.9 -20 0.2
    endloop
  endfacet
  facet normal 0 0 1
    outer loop
      vertex -19.1 -20 0.2
      vertex -21.1 -20 0.2
      vertex -19.1 -30 0.2
    endloop
  endfacet
  facet normal 0 0 1
    outer loop
      vertex -16.9 -20 0.2
      vertex -29.5 -18 0.2
      vertex -19.1 -20 0.2
    endloop
  endfacet
  facet normal 0 0 1
    outer loop
      vertex -19.1 -20 0.2
      vertex -29.5 -18 0.2
      vertex -21.1 -20 0.2
    endloop
  endfacet
  facet normal 0 0 1
    outer loop
      vertex -23.3 -20 0.2
      vertex -25.3 -20 0.2
      vertex -23.3 -30 0.2
    endloop
  endfacet
  facet normal 0 0 1
    outer loop
      vertex -21.1 -20 0.2
      vertex -29.5 -18 0.2
      vertex -23.3 -20 0.2
    endloop
  endfacet
  facet normal 0 0 1
    outer loop
      vertex -23.3 -20 0.2
      vertex -29.5 -18 0.2
      vertex -25.3 -20 0.2
    endloop
  endfacet
  facet normal 0 0 1
    outer loop
      vertex -25.3 -20 0.2
      vertex -29.5 -18 0.2
      vertex -27.5 -20 0.2
    endloop
  endfacet
  facet normal 0 0 1
    outer loop
      vertex -29.5 -30 0.2
      vertex -27.5 -20 0.2
      vertex -29.5 -18 0.2
    endloop
  endfacet
  facet normal 0 0 1
    outer loop
      vertex -27.5 -20 0.2
      vertex -29.5 -30 0.2
      vertex -27.5 -30 0.2
    endloop
  endfacet
  facet normal 0 0 1
    outer loop
      vertex 10.3 -30 0.2
      vertex 8.3 -20 0.2
      vertex 8.3 -30 0.2
    endloop
  endfacet
  facet normal 0 0 1
    outer loop
      vertex 6.1 -30 0.2
      vertex 4.1 -20 0.2
      vertex 4.1 -30 0.2
    endloop
  endfacet
  facet normal 0 0 1
    outer loop
      vertex 1.9 -30 0.2
      vertex -0.1 -20 0.2
      vertex -0.1 -30 0.2
    endloop
  endfacet
  facet normal 0 0 1
    outer loop
      vertex -2.3 -30 0.2
      vertex -4.3 -20 0.2
      vertex -4.3 -30 0.2
    endloop
  endfacet
  facet normal 0 0 1
    outer loop
      vertex -6.5 -30 0.2
      vertex -8.5 -20 0.2
      vertex -8.5 -30 0.2
    endloop
  endfacet
  facet normal 0 0 1
    outer loop
      vertex -10.7 -30 0.2
      vertex -12.7 -20 0.2
      vertex -12.7 -30 0.2
    endloop
  endfacet
  facet normal 0 0 1
    outer loop
      vertex -14.9 -30 0.2
      vertex -16.9 -20 0.2
      vertex -16.9 -30 0.2
    endloop
  endfacet
  facet normal 0 0 1
    outer loop
      vertex -19.1 -30 0.2
      vertex -21.1 -20 0.2
      vertex -21.1 -30 0.2
    endloop
  endfacet
  facet normal 0 0 1
    outer loop
      vertex -23.3 -30 0.2
      vertex -25.3 -20 0.2
      vertex -25.3 -30 0.2
    endloop
  endfacet
  facet normal -0 0 1
    outer loop
      vertex 12.5 -25 0.2
      vertex 14.5 -30 0.2
      vertex 14.5 -25 0.2
    endloop
  endfacet
  facet normal 0 0 1
    outer loop
      vertex 14.5 -30 0.2
      vertex 12.5 -25 0.2
      vertex 12.5 -30 0.2
    endloop
  endfacet
  facet normal 1 0 0
    outer loop
      vertex 14.5 -18 0.4
      vertex 14.5 -20 0.2
      vertex 14.5 -18 0.2
    endloop
  endfacet
  facet normal 1 -0 0
    outer loop
      vertex 14.5 -25 0.4
      vertex 14.5 -20 0.2
      vertex 14.5 -18 0.4
    endloop
  endfacet
  facet normal 1 0 0
    outer loop
      vertex 14.5 -25 0.2
      vertex 14.5 -20 0.2
      vertex 14.5 -25 0.4
    endloop
  endfacet
  facet normal 1 0 0
    outer loop
      vertex 14.5 -20 0.2
      vertex 14.5 -25 0.2
      vertex 14.5 -20 0
    endloop
  endfacet
  facet normal 1 0 0
    outer loop
      vertex 14.5 -30 0
      vertex 14.5 -25 0.2
      vertex 14.5 -30 0.2
    endloop
  endfacet
  facet normal 1 0 0
    outer loop
      vertex 14.5 -25 0.2
      vertex 14.5 -30 0
      vertex 14.5 -20 0
    endloop
  endfacet
  facet normal 0 -1 0
    outer loop
      vertex 12.5 -30 0
      vertex 14.5 -30 0.2
      vertex 12.5 -30 0.2
    endloop
  endfacet
  facet normal 0 -1 -0
    outer loop
      vertex 14.5 -30 0.2
      vertex 12.5 -30 0
      vertex 14.5 -30 0
    endloop
  endfacet
  facet normal 0 0 -1
    outer loop
      vertex -27.5 -30 0
      vertex -29.5 -30 0
      vertex -27.5 -20 0
    endloop
  endfacet
  facet normal 0 0 -1
    outer loop
      vertex -23.3 -30 0
      vertex -25.3 -30 0
      vertex -23.3 -20 0
    endloop
  endfacet
  facet normal 0 0 -1
    outer loop
      vertex -19.1 -30 0
      vertex -21.1 -30 0
      vertex -19.1 -20 0
    endloop
  endfacet
  facet normal 0 0 -1
    outer loop
      vertex -14.9 -30 0
      vertex -16.9 -30 0
      vertex -14.9 -20 0
    endloop
  endfacet
  facet normal 0 0 -1
    outer loop
      vertex -10.7 -30 0
      vertex -12.7 -30 0
      vertex -10.7 -20 0
    endloop
  endfacet
  facet normal 0 0 -1
    outer loop
      vertex -6.5 -30 0
      vertex -8.5 -30 0
      vertex -6.5 -20 0
    endloop
  endfacet
  facet normal 0 0 -1
    outer loop
      vertex -2.3 -30 0
      vertex -4.3 -30 0
      vertex -2.3 -20 0
    endloop
  endfacet
  facet normal 0 0 -1
    outer loop
      vertex 1.9 -30 0
      vertex -0.1 -30 0
      vertex 1.9 -20 0
    endloop
  endfacet
  facet normal 0 0 -1
    outer loop
      vertex 6.1 -30 0
      vertex 4.1 -30 0
      vertex 6.1 -20 0
    endloop
  endfacet
  facet normal 0 0 -1
    outer loop
      vertex 10.3 -30 0
      vertex 8.3 -30 0
      vertex 10.3 -20 0
    endloop
  endfacet
  facet normal 0 0 -1
    outer loop
      vertex 14.5 -30 0
      vertex 12.5 -30 0
      vertex 14.5 -20 0
    endloop
  endfacet
  facet normal 0 0 -1
    outer loop
      vertex 18.7 -30 0
      vertex 16.7 -30 0
      vertex 18.7 -20 0
    endloop
  endfacet
  facet normal 0 0 -1
    outer loop
      vertex 22.9 -30 0
      vertex 20.9 -30 0
      vertex 22.9 -20 0
    endloop
  endfacet
  facet normal 0 0 -1
    outer loop
      vertex 27.1 -30 0
      vertex 25.1 -30 0
      vertex 27.1 -20 0
    endloop
  endfacet
  facet normal 0 0 -1
    outer loop
      vertex 31.3 -30 0
      vertex 29.3 -30 0
      vertex 31.3 -20 0
    endloop
  endfacet
  facet normal 0 0 -1
    outer loop
      vertex 35.5 -30 0
      vertex 33.5 -30 0
      vertex 35.5 -20 0
    endloop
  endfacet
  facet normal 0 0 -1
    outer loop
      vertex 39.7 -30 0
      vertex 37.7 -30 0
      vertex 39.7 -20 0
    endloop
  endfacet
  facet normal 0 0 -1
    outer loop
      vertex 43.9 -30 0
      vertex 41.9 -30 0
      vertex 43.9 -20 0
    endloop
  endfacet
  facet normal 0 0 -1
    outer loop
      vertex 48.1 -30 0
      vertex 46.1 -30 0
      vertex 48.1 -20 0
    endloop
  endfacet
  facet normal 0 0 -1
    outer loop
      vertex 52.3 -30 0
      vertex 50.3 -30 0
      vertex 52.3 -20 0
    endloop
  endfacet
  facet normal 0 0 -1
    outer loop
      vertex 54.5 -20 0
      vertex 56.5 -30 0
      vertex 54.5 -30 0
    endloop
  endfacet
  facet normal 0 0 -1
    outer loop
      vertex 56.5 -30 0
      vertex 54.5 -20 0
      vertex 56.5 -18 0
    endloop
  endfacet
  facet normal 0 0 -1
    outer loop
      vertex 52.3 -20 0
      vertex 56.5 -18 0
      vertex 54.5 -20 0
    endloop
  endfacet
  facet normal 0 0 -1
    outer loop
      vertex 50.3 -20 0
      vertex 52.3 -20 0
      vertex 50.3 -30 0
    endloop
  endfacet
  facet normal 0 0 -1
    outer loop
      vertex 50.3 -20 0
      vertex 56.5 -18 0
      vertex 52.3 -20 0
    endloop
  endfacet
  facet normal 0 0 -1
    outer loop
      vertex 48.1 -20 0
      vertex 56.5 -18 0
      vertex 50.3 -20 0
    endloop
  endfacet
  facet normal 0 0 -1
    outer loop
      vertex 46.1 -20 0
      vertex 48.1 -20 0
      vertex 46.1 -30 0
    endloop
  endfacet
  facet normal 0 0 -1
    outer loop
      vertex 46.1 -20 0
      vertex 56.5 -18 0
      vertex 48.1 -20 0
    endloop
  endfacet
  facet normal 0 0 -1
    outer loop
      vertex 43.9 -20 0
      vertex 56.5 -18 0
      vertex 46.1 -20 0
    endloop
  endfacet
  facet normal 0 0 -1
    outer loop
      vertex 41.9 -20 0
      vertex 43.9 -20 0
      vertex 41.9 -30 0
    endloop
  endfacet
  facet normal 0 0 -1
    outer loop
      vertex 41.9 -20 0
      vertex 56.5 -18 0
      vertex 43.9 -20 0
    endloop
  endfacet
  facet normal 0 0 -1
    outer loop
      vertex 39.7 -20 0
      vertex 56.5 -18 0
      vertex 41.9 -20 0
    endloop
  endfacet
  facet normal 0 0 -1
    outer loop
      vertex 37.7 -20 0
      vertex 39.7 -20 0
      vertex 37.7 -30 0
    endloop
  endfacet
  facet normal 0 0 -1
    outer loop
      vertex 37.7 -20 0
      vertex 56.5 -18 0
      vertex 39.7 -20 0
    endloop
  endfacet
  facet normal 0 0 -1
    outer loop
      vertex 35.5 -20 0
      vertex 56.5 -18 0
      vertex 37.7 -20 0
    endloop
  endfacet
  facet normal 0 0 -1
    outer loop
      vertex 33.5 -20 0
      vertex 35.5 -20 0
      vertex 33.5 -30 0
    endloop
  endfacet
  facet normal 0 0 -1
    outer loop
      vertex 33.5 -20 0
      vertex 56.5 -18 0
      vertex 35.5 -20 0
    endloop
  endfacet
  facet normal 0 0 -1
    outer loop
      vertex 31.3 -20 0
      vertex 56.5 -18 0
      vertex 33.5 -20 0
    endloop
  endfacet
  facet normal 0 0 -1
    outer loop
      vertex 29.3 -20 0
      vertex 31.3 -20 0
      vertex 29.3 -30 0
    endloop
  endfacet
  facet normal 0 0 -1
    outer loop
      vertex 29.3 -20 0
      vertex 56.5 -18 0
      vertex 31.3 -20 0
    endloop
  endfacet
  facet normal 0 0 -1
    outer loop
      vertex 27.1 -20 0
      vertex 56.5 -18 0
      vertex 29.3 -20 0
    endloop
  endfacet
  facet normal 0 0 -1
    outer loop
      vertex 25.1 -20 0
      vertex 27.1 -20 0
      vertex 25.1 -30 0
    endloop
  endfacet
  facet normal 0 0 -1
    outer loop
      vertex 25.1 -20 0
      vertex 56.5 -18 0
      vertex 27.1 -20 0
    endloop
  endfacet
  facet normal 0 0 -1
    outer loop
      vertex 22.9 -20 0
      vertex 56.5 -18 0
      vertex 25.1 -20 0
    endloop
  endfacet
  facet normal 0 0 -1
    outer loop
      vertex 20.9 -20 0
      vertex 22.9 -20 0
      vertex 20.9 -30 0
    endloop
  endfacet
  facet normal 0 0 -1
    outer loop
      vertex 20.9 -20 0
      vertex 56.5 -18 0
      vertex 22.9 -20 0
    endloop
  endfacet
  facet normal 0 0 -1
    outer loop
      vertex 18.7 -20 0
      vertex 56.5 -18 0
      vertex 20.9 -20 0
    endloop
  endfacet
  facet normal 0 0 -1
    outer loop
      vertex 16.7 -20 0
      vertex 18.7 -20 0
      vertex 16.7 -30 0
    endloop
  endfacet
  facet normal 0 0 -1
    outer loop
      vertex 16.7 -20 0
      vertex 56.5 -18 0
      vertex 18.7 -20 0
    endloop
  endfacet
  facet normal 0 0 -1
    outer loop
      vertex 14.5 -20 0
      vertex 56.5 -18 0
      vertex 16.7 -20 0
    endloop
  endfacet
  facet normal 0 0 -1
    outer loop
      vertex 12.5 -20 0
      vertex 14.5 -20 0
      vertex 12.5 -30 0
    endloop
  endfacet
  facet normal 0 0 -1
    outer loop
      vertex 12.5 -20 0
      vertex 56.5 -18 0
      vertex 14.5 -20 0
    endloop
  endfacet
  facet normal 0 0 -1
    outer loop
      vertex 10.3 -20 0
      vertex 56.5 -18 0
      vertex 12.5 -20 0
    endloop
  endfacet
  facet normal 0 0 -1
    outer loop
      vertex 8.3 -20 0
      vertex 10.3 -20 0
      vertex 8.3 -30 0
    endloop
  endfacet
  facet normal 0 0 -1
    outer loop
      vertex 8.3 -20 0
      vertex 56.5 -18 0
      vertex 10.3 -20 0
    endloop
  endfacet
  facet normal 0 0 -1
    outer loop
      vertex -29.5 -18 0
      vertex 8.3 -20 0
      vertex 6.1 -20 0
    endloop
  endfacet
  facet normal 0 0 -1
    outer loop
      vertex 4.1 -20 0
      vertex 6.1 -20 0
      vertex 4.1 -30 0
    endloop
  endfacet
  facet normal 0 0 -1
    outer loop
      vertex -29.5 -18 0
      vertex 6.1 -20 0
      vertex 4.1 -20 0
    endloop
  endfacet
  facet normal 0 0 -1
    outer loop
      vertex -29.5 -18 0
      vertex 4.1 -20 0
      vertex 1.9 -20 0
    endloop
  endfacet
  facet normal 0 0 -1
    outer loop
      vertex -0.1 -20 0
      vertex 1.9 -20 0
      vertex -0.1 -30 0
    endloop
  endfacet
  facet normal 0 0 -1
    outer loop
      vertex -29.5 -18 0
      vertex 1.9 -20 0
      vertex -0.1 -20 0
    endloop
  endfacet
  facet normal 0 0 -1
    outer loop
      vertex -29.5 -18 0
      vertex -0.1 -20 0
      vertex -2.3 -20 0
    endloop
  endfacet
  facet normal 0 0 -1
    outer loop
      vertex -4.3 -20 0
      vertex -2.3 -20 0
      vertex -4.3 -30 0
    endloop
  endfacet
  facet normal 0 0 -1
    outer loop
      vertex -29.5 -18 0
      vertex -2.3 -20 0
      vertex -4.3 -20 0
    endloop
  endfacet
  facet normal 0 0 -1
    outer loop
      vertex -29.5 -18 0
      vertex -4.3 -20 0
      vertex -6.5 -20 0
    endloop
  endfacet
  facet normal 0 0 -1
    outer loop
      vertex -8.5 -20 0
      vertex -6.5 -20 0
      vertex -8.5 -30 0
    endloop
  endfacet
  facet normal 0 0 -1
    outer loop
      vertex -29.5 -18 0
      vertex -6.5 -20 0
      vertex -8.5 -20 0
    endloop
  endfacet
  facet normal 0 0 -1
    outer loop
      vertex -29.5 -18 0
      vertex -8.5 -20 0
      vertex -10.7 -20 0
    endloop
  endfacet
  facet normal 0 0 -1
    outer loop
      vertex -12.7 -20 0
      vertex -10.7 -20 0
      vertex -12.7 -30 0
    endloop
  endfacet
  facet normal 0 0 -1
    outer loop
      vertex -29.5 -18 0
      vertex -10.7 -20 0
      vertex -12.7 -20 0
    endloop
  endfacet
  facet normal 0 0 -1
    outer loop
      vertex -29.5 -18 0
      vertex -12.7 -20 0
      vertex -14.9 -20 0
    endloop
  endfacet
  facet normal 0 0 -1
    outer loop
      vertex -16.9 -20 0
      vertex -14.9 -20 0
      vertex -16.9 -30 0
    endloop
  endfacet
  facet normal 0 0 -1
    outer loop
      vertex -29.5 -18 0
      vertex -14.9 -20 0
      vertex -16.9 -20 0
    endloop
  endfacet
  facet normal 0 0 -1
    outer loop
      vertex -29.5 -18 0
      vertex -16.9 -20 0
      vertex -19.1 -20 0
    endloop
  endfacet
  facet normal 0 0 -1
    outer loop
      vertex -21.1 -20 0
      vertex -19.1 -20 0
      vertex -21.1 -30 0
    endloop
  endfacet
  facet normal 0 0 -1
    outer loop
      vertex -29.5 -18 0
      vertex -19.1 -20 0
      vertex -21.1 -20 0
    endloop
  endfacet
  facet normal 0 0 -1
    outer loop
      vertex -29.5 -18 0
      vertex -21.1 -20 0
      vertex -23.3 -20 0
    endloop
  endfacet
  facet normal 0 0 -1
    outer loop
      vertex -25.3 -20 0
      vertex -23.3 -20 0
      vertex -25.3 -30 0
    endloop
  endfacet
  facet normal 0 0 -1
    outer loop
      vertex -29.5 -18 0
      vertex -23.3 -20 0
      vertex -25.3 -20 0
    endloop
  endfacet
  facet normal 0 0 -1
    outer loop
      vertex -29.5 -18 0
      vertex -25.3 -20 0
      vertex -27.5 -20 0
    endloop
  endfacet
  facet normal 0 0 -1
    outer loop
      vertex 8.3 -20 0
      vertex -29.5 -18 0
      vertex 56.5 -18 0
    endloop
  endfacet
  facet normal 0 0 -1
    outer loop
      vertex -29.5 -18 0
      vertex -27.5 -20 0
      vertex -29.5 -30 0
    endloop
  endfacet
  facet normal 0 -1 0
    outer loop
      vertex 52.3 -20 0
      vertex 54.5 -20 0.2
      vertex 52.3 -20 0.2
    endloop
  endfacet
  facet normal 0 -1 -0
    outer loop
      vertex 54.5 -20 0.2
      vertex 52.3 -20 0
      vertex 54.5 -20 0
    endloop
  endfacet
  facet normal 0 -1 0
    outer loop
      vertex 48.1 -20 0
      vertex 50.3 -20 0.2
      vertex 48.1 -20 0.2
    endloop
  endfacet
  facet normal 0 -1 -0
    outer loop
      vertex 50.3 -20 0.2
      vertex 48.1 -20 0
      vertex 50.3 -20 0
    endloop
  endfacet
  facet normal 0 -1 0
    outer loop
      vertex 43.9 -20 0
      vertex 46.1 -20 0.2
      vertex 43.9 -20 0.2
    endloop
  endfacet
  facet normal 0 -1 -0
    outer loop
      vertex 46.1 -20 0.2
      vertex 43.9 -20 0
      vertex 46.1 -20 0
    endloop
  endfacet
  facet normal 0 -1 0
    outer loop
      vertex 39.7 -20 0
      vertex 41.9 -20 0.2
      vertex 39.7 -20 0.2
    endloop
  endfacet
  facet normal 0 -1 -0
    outer loop
      vertex 41.9 -20 0.2
      vertex 39.7 -20 0
      vertex 41.9 -20 0
    endloop
  endfacet
  facet normal 0 -1 0
    outer loop
      vertex 35.5 -20 0
      vertex 37.7 -20 0.2
      vertex 35.5 -20 0.2
    endloop
  endfacet
  facet normal 0 -1 -0
    outer loop
      vertex 37.7 -20 0.2
      vertex 35.5 -20 0
      vertex 37.7 -20 0
    endloop
  endfacet
  facet normal 0 -1 0
    outer loop
      vertex 31.3 -20 0
      vertex 33.5 -20 0.2
      vertex 31.3 -20 0.2
    endloop
  endfacet
  facet normal 0 -1 -0
    outer loop
      vertex 33.5 -20 0.2
      vertex 31.3 -20 0
      vertex 33.5 -20 0
    endloop
  endfacet
  facet normal 0 -1 0
    outer loop
      vertex 27.1 -20 0
      vertex 29.3 -20 0.2
      vertex 27.1 -20 0.2
    endloop
  endfacet
  facet normal 0 -1 -0
    outer loop
      vertex 29.3 -20 0.2
      vertex 27.1 -20 0
      vertex 29.3 -20 0
    endloop
  endfacet
  facet normal 0 -1 0
    outer loop
      vertex 22.9 -20 0
      vertex 25.1 -20 0.2
      vertex 22.9 -20 0.2
    endloop
  endfacet
  facet normal 0 -1 -0
    outer loop
      vertex 25.1 -20 0.2
      vertex 22.9 -20 0
      vertex 25.1 -20 0
    endloop
  endfacet
  facet normal 0 -1 0
    outer loop
      vertex 18.7 -20 0
      vertex 20.9 -20 0.2
      vertex 18.7 -20 0.2
    endloop
  endfacet
  facet normal 0 -1 -0
    outer loop
      vertex 20.9 -20 0.2
      vertex 18.7 -20 0
      vertex 20.9 -20 0
    endloop
  endfacet
  facet normal 0 -1 0
    outer loop
      vertex 14.5 -20 0
      vertex 16.7 -20 0.2
      vertex 14.5 -20 0.2
    endloop
  endfacet
  facet normal 0 -1 -0
    outer loop
      vertex 16.7 -20 0.2
      vertex 14.5 -20 0
      vertex 16.7 -20 0
    endloop
  endfacet
  facet normal 0 -1 0
    outer loop
      vertex 10.3 -20 0
      vertex 12.5 -20 0.2
      vertex 10.3 -20 0.2
    endloop
  endfacet
  facet normal 0 -1 -0
    outer loop
      vertex 12.5 -20 0.2
      vertex 10.3 -20 0
      vertex 12.5 -20 0
    endloop
  endfacet
  facet normal 0 -1 0
    outer loop
      vertex 6.1 -20 0
      vertex 8.3 -20 0.2
      vertex 6.1 -20 0.2
    endloop
  endfacet
  facet normal 0 -1 -0
    outer loop
      vertex 8.3 -20 0.2
      vertex 6.1 -20 0
      vertex 8.3 -20 0
    endloop
  endfacet
  facet normal 0 -1 0
    outer loop
      vertex 1.9 -20 0
      vertex 4.1 -20 0.2
      vertex 1.9 -20 0.2
    endloop
  endfacet
  facet normal 0 -1 -0
    outer loop
      vertex 4.1 -20 0.2
      vertex 1.9 -20 0
      vertex 4.1 -20 0
    endloop
  endfacet
  facet normal 0 -1 0
    outer loop
      vertex -2.3 -20 0
      vertex -0.1 -20 0.2
      vertex -2.3 -20 0.2
    endloop
  endfacet
  facet normal 0 -1 -0
    outer loop
      vertex -0.1 -20 0.2
      vertex -2.3 -20 0
      vertex -0.1 -20 0
    endloop
  endfacet
  facet normal 0 -1 0
    outer loop
      vertex -6.5 -20 0
      vertex -4.3 -20 0.2
      vertex -6.5 -20 0.2
    endloop
  endfacet
  facet normal 0 -1 -0
    outer loop
      vertex -4.3 -20 0.2
      vertex -6.5 -20 0
      vertex -4.3 -20 0
    endloop
  endfacet
  facet normal 0 -1 0
    outer loop
      vertex -10.7 -20 0
      vertex -8.5 -20 0.2
      vertex -10.7 -20 0.2
    endloop
  endfacet
  facet normal 0 -1 -0
    outer loop
      vertex -8.5 -20 0.2
      vertex -10.7 -20 0
      vertex -8.5 -20 0
    endloop
  endfacet
  facet normal 0 -1 0
    outer loop
      vertex -14.9 -20 0
      vertex -12.7 -20 0.2
      vertex -14.9 -20 0.2
    endloop
  endfacet
  facet normal 0 -1 -0
    outer loop
      vertex -12.7 -20 0.2
      vertex -14.9 -20 0
      vertex -12.7 -20 0
    endloop
  endfacet
  facet normal 0 -1 0
    outer loop
      vertex -19.1 -20 0
      vertex -16.9 -20 0.2
      vertex -19.1 -20 0.2
    endloop
  endfacet
  facet normal 0 -1 -0
    outer loop
      vertex -16.9 -20 0.2
      vertex -19.1 -20 0
      vertex -16.9 -20 0
    endloop
  endfacet
  facet normal 0 -1 0
    outer loop
      vertex -23.3 -20 0
      vertex -21.1 -20 0.2
      vertex -23.3 -20 0.2
    endloop
  endfacet
  facet normal 0 -1 -0
    outer loop
      vertex -21.1 -20 0.2
      vertex -23.3 -20 0
      vertex -21.1 -20 0
    endloop
  endfacet
  facet normal 0 -1 0
    outer loop
      vertex -27.5 -20 0
      vertex -25.3 -20 0.2
      vertex -27.5 -20 0.2
    endloop
  endfacet
  facet normal 0 -1 -0
    outer loop
      vertex -25.3 -20 0.2
      vertex -27.5 -20 0
      vertex -25.3 -20 0
    endloop
  endfacet
  facet normal -0 0 1
    outer loop
      vertex 12.5 -18 0.4
      vertex 14.5 -25 0.4
      vertex 14.5 -18 0.4
    endloop
  endfacet
  facet normal 0 0 1
    outer loop
      vertex 14.5 -25 0.4
      vertex 12.5 -18 0.4
      vertex 12.5 -25 0.4
    endloop
  endfacet
  facet normal 0 1 -0
    outer loop
      vertex 56.5 -18 0
      vertex 14.5 -18 0.2
      vertex 56.5 -18 0.2
    endloop
  endfacet
  facet normal 0 1 0
    outer loop
      vertex 14.5 -18 0.2
      vertex 56.5 -18 0
      vertex 12.5 -18 0.2
    endloop
  endfacet
  facet normal 0 1 0
    outer loop
      vertex -29.5 -18 0
      vertex 12.5 -18 0.2
      vertex 56.5 -18 0
    endloop
  endfacet
  facet normal 0 1 0
    outer loop
      vertex 12.5 -18 0.2
      vertex -29.5 -18 0
      vertex -29.5 -18 0.2
    endloop
  endfacet
  facet normal 0 1 -0
    outer loop
      vertex 14.5 -18 0.2
      vertex 12.5 -18 0.4
      vertex 14.5 -18 0.4
    endloop
  endfacet
  facet normal 0 1 0
    outer loop
      vertex 12.5 -18 0.4
      vertex 14.5 -18 0.2
      vertex 12.5 -18 0.2
    endloop
  endfacet
  facet normal 0 -1 0
    outer loop
      vertex 12.5 -25 0.2
      vertex 14.5 -25 0.4
      vertex 12.5 -25 0.4
    endloop
  endfacet
  facet normal 0 -1 -0
    outer loop
      vertex 14.5 -25 0.4
      vertex 12.5 -25 0.2
      vertex 14.5 -25 0.2
    endloop
  endfacet
  facet normal -1 0 0
    outer loop
      vertex -29.5 -30 0
      vertex -29.5 -18 0.2
      vertex -29.5 -18 0
    endloop
  endfacet
  facet normal -1 -0 0
    outer loop
      vertex -29.5 -18 0.2
      vertex -29.5 -30 0
      vertex -29.5 -30 0.2
    endloop
  endfacet
  facet normal 1 -0 0
    outer loop
      vertex -27.5 -30 0.2
      vertex -27.5 -20 0
      vertex -27.5 -20 0.2
    endloop
  endfacet
  facet normal 1 0 0
    outer loop
      vertex -27.5 -20 0
      vertex -27.5 -30 0.2
      vertex -27.5 -30 0
    endloop
  endfacet
  facet normal 0 -1 0
    outer loop
      vertex -29.5 -30 0
      vertex -27.5 -30 0.2
      vertex -29.5 -30 0.2
    endloop
  endfacet
  facet normal 0 -1 -0
    outer loop
      vertex -27.5 -30 0.2
      vertex -29.5 -30 0
      vertex -27.5 -30 0
    endloop
  endfacet
  facet normal -1 0 0
    outer loop
      vertex -25.3 -30 0
      vertex -25.3 -20 0.2
      vertex -25.3 -20 0
    endloop
  endfacet
  facet normal -1 -0 0
    outer loop
      vertex -25.3 -20 0.2
      vertex -25.3 -30 0
      vertex -25.3 -30 0.2
    endloop
  endfacet
  facet normal 1 -0 0
    outer loop
      vertex -23.3 -30 0.2
      vertex -23.3 -20 0
      vertex -23.3 -20 0.2
    endloop
  endfacet
  facet normal 1 0 0
    outer loop
      vertex -23.3 -20 0
      vertex -23.3 -30 0.2
      vertex -23.3 -30 0
    endloop
  endfacet
  facet normal 0 -1 0
    outer loop
      vertex -25.3 -30 0
      vertex -23.3 -30 0.2
      vertex -25.3 -30 0.2
    endloop
  endfacet
  facet normal 0 -1 -0
    outer loop
      vertex -23.3 -30 0.2
      vertex -25.3 -30 0
      vertex -23.3 -30 0
    endloop
  endfacet
  facet normal -1 0 0
    outer loop
      vertex -21.1 -30 0
      vertex -21.1 -20 0.2
      vertex -21.1 -20 0
    endloop
  endfacet
  facet normal -1 -0 0
    outer loop
      vertex -21.1 -20 0.2
      vertex -21.1 -30 0
      vertex -21.1 -30 0.2
    endloop
  endfacet
  facet normal 1 -0 0
    outer loop
      vertex -19.1 -30 0.2
      vertex -19.1 -20 0
      vertex -19.1 -20 0.2
    endloop
  endfacet
  facet normal 1 0 0
    outer loop
      vertex -19.1 -20 0
      vertex -19.1 -30 0.2
      vertex -19.1 -30 0
    endloop
  endfacet
  facet normal 0 -1 0
    outer loop
      vertex -21.1 -30 0
      vertex -19.1 -30 0.2
      vertex -21.1 -30 0.2
    endloop
  endfacet
  facet normal 0 -1 -0
    outer loop
      vertex -19.1 -30 0.2
      vertex -21.1 -30 0
      vertex -19.1 -30 0
    endloop
  endfacet
  facet normal -1 0 0
    outer loop
      vertex -16.9 -30 0
      vertex -16.9 -20 0.2
      vertex -16.9 -20 0
    endloop
  endfacet
  facet normal -1 -0 0
    outer loop
      vertex -16.9 -20 0.2
      vertex -16.9 -30 0
      vertex -16.9 -30 0.2
    endloop
  endfacet
  facet normal 1 -0 0
    outer loop
      vertex -14.9 -30 0.2
      vertex -14.9 -20 0
      vertex -14.9 -20 0.2
    endloop
  endfacet
  facet normal 1 0 0
    outer loop
      vertex -14.9 -20 0
      vertex -14.9 -30 0.2
      vertex -14.9 -30 0
    endloop
  endfacet
  facet normal 0 -1 0
    outer loop
      vertex -16.9 -30 0
      vertex -14.9 -30 0.2
      vertex -16.9 -30 0.2
    endloop
  endfacet
  facet normal 0 -1 -0
    outer loop
      vertex -14.9 -30 0.2
      vertex -16.9 -30 0
      vertex -14.9 -30 0
    endloop
  endfacet
  facet normal -1 0 0
    outer loop
      vertex -12.7 -30 0
      vertex -12.7 -20 0.2
      vertex -12.7 -20 0
    endloop
  endfacet
  facet normal -1 -0 0
    outer loop
      vertex -12.7 -20 0.2
      vertex -12.7 -30 0
      vertex -12.7 -30 0.2
    endloop
  endfacet
  facet normal 1 -0 0
    outer loop
      vertex -10.7 -30 0.2
      vertex -10.7 -20 0
      vertex -10.7 -20 0.2
    endloop
  endfacet
  facet normal 1 0 0
    outer loop
      vertex -10.7 -20 0
      vertex -10.7 -30 0.2
      vertex -10.7 -30 0
    endloop
  endfacet
  facet normal 0 -1 0
    outer loop
      vertex -12.7 -30 0
      vertex -10.7 -30 0.2
      vertex -12.7 -30 0.2
    endloop
  endfacet
  facet normal 0 -1 -0
    outer loop
      vertex -10.7 -30 0.2
      vertex -12.7 -30 0
      vertex -10.7 -30 0
    endloop
  endfacet
  facet normal -1 0 0
    outer loop
      vertex -8.5 -30 0
      vertex -8.5 -20 0.2
      vertex -8.5 -20 0
    endloop
  endfacet
  facet normal -1 -0 0
    outer loop
      vertex -8.5 -20 0.2
      vertex -8.5 -30 0
      vertex -8.5 -30 0.2
    endloop
  endfacet
  facet normal 1 -0 0
    outer loop
      vertex -6.5 -30 0.2
      vertex -6.5 -20 0
      vertex -6.5 -20 0.2
    endloop
  endfacet
  facet normal 1 0 0
    outer loop
      vertex -6.5 -20 0
      vertex -6.5 -30 0.2
      vertex -6.5 -30 0
    endloop
  endfacet
  facet normal 0 -1 0
    outer loop
      vertex -8.5 -30 0
      vertex -6.5 -30 0.2
      vertex -8.5 -30 0.2
    endloop
  endfacet
  facet normal 0 -1 -0
    outer loop
      vertex -6.5 -30 0.2
      vertex -8.5 -30 0
      vertex -6.5 -30 0
    endloop
  endfacet
  facet normal -1 0 0
    outer loop
      vertex -4.3 -30 0
      vertex -4.3 -20 0.2
      vertex -4.3 -20 0
    endloop
  endfacet
  facet normal -1 -0 0
    outer loop
      vertex -4.3 -20 0.2
      vertex -4.3 -30 0
      vertex -4.3 -30 0.2
    endloop
  endfacet
  facet normal 1 -0 0
    outer loop
      vertex -2.3 -30 0.2
      vertex -2.3 -20 0
      vertex -2.3 -20 0.2
    endloop
  endfacet
  facet normal 1 0 0
    outer loop
      vertex -2.3 -20 0
      vertex -2.3 -30 0.2
      vertex -2.3 -30 0
    endloop
  endfacet
  facet normal 0 -1 0
    outer loop
      vertex -4.3 -30 0
      vertex -2.3 -30 0.2
      vertex -4.3 -30 0.2
    endloop
  endfacet
  facet normal 0 -1 -0
    outer loop
      vertex -2.3 -30 0.2
      vertex -4.3 -30 0
      vertex -2.3 -30 0
    endloop
  endfacet
  facet normal -1 0 0
    outer loop
      vertex -0.1 -30 0
      vertex -0.1 -20 0.2
      vertex -0.1 -20 0
    endloop
  endfacet
  facet normal -1 -0 0
    outer loop
      vertex -0.1 -20 0.2
      vertex -0.1 -30 0
      vertex -0.1 -30 0.2
    endloop
  endfacet
  facet normal 1 -0 0
    outer loop
      vertex 1.9 -30 0.2
      vertex 1.9 -20 0
      vertex 1.9 -20 0.2
    endloop
  endfacet
  facet normal 1 0 0
    outer loop
      vertex 1.9 -20 0
      vertex 1.9 -30 0.2
      vertex 1.9 -30 0
    endloop
  endfacet
  facet normal 0 -1 0
    outer loop
      vertex -0.1 -30 0
      vertex 1.9 -30 0.2
      vertex -0.1 -30 0.2
    endloop
  endfacet
  facet normal 0 -1 -0
    outer loop
      vertex 1.9 -30 0.2
      vertex -0.1 -30 0
      vertex 1.9 -30 0
    endloop
  endfacet
  facet normal -1 0 0
    outer loop
      vertex 4.1 -30 0
      vertex 4.1 -20 0.2
      vertex 4.1 -20 0
    endloop
  endfacet
  facet normal -1 -0 0
    outer loop
      vertex 4.1 -20 0.2
      vertex 4.1 -30 0
      vertex 4.1 -30 0.2
    endloop
  endfacet
  facet normal 1 -0 0
    outer loop
      vertex 6.1 -30 0.2
      vertex 6.1 -20 0
      vertex 6.1 -20 0.2
    endloop
  endfacet
  facet normal 1 0 0
    outer loop
      vertex 6.1 -20 0
      vertex 6.1 -30 0.2
      vertex 6.1 -30 0
    endloop
  endfacet
  facet normal 0 -1 0
    outer loop
      vertex 4.1 -30 0
      vertex 6.1 -30 0.2
      vertex 4.1 -30 0.2
    endloop
  endfacet
  facet normal 0 -1 -0
    outer loop
      vertex 6.1 -30 0.2
      vertex 4.1 -30 0
      vertex 6.1 -30 0
    endloop
  endfacet
  facet normal -1 0 0
    outer loop
      vertex 8.3 -30 0
      vertex 8.3 -20 0.2
      vertex 8.3 -20 0
    endloop
  endfacet
  facet normal -1 -0 0
    outer loop
      vertex 8.3 -20 0.2
      vertex 8.3 -30 0
      vertex 8.3 -30 0.2
    endloop
  endfacet
  facet normal 1 -0 0
    outer loop
      vertex 10.3 -30 0.2
      vertex 10.3 -20 0
      vertex 10.3 -20 0.2
    endloop
  endfacet
  facet normal 1 0 0
    outer loop
      vertex 10.3 -20 0
      vertex 10.3 -30 0.2
      vertex 10.3 -30 0
    endloop
  endfacet
  facet normal 0 -1 0
    outer loop
      vertex 8.3 -30 0
      vertex 10.3 -30 0.2
      vertex 8.3 -30 0.2
    endloop
  endfacet
  facet normal 0 -1 -0
    outer loop
      vertex 10.3 -30 0.2
      vertex 8.3 -30 0
      vertex 10.3 -30 0
    endloop
  endfacet
  facet normal -1 0 0
    outer loop
      vertex 16.7 -30 0
      vertex 16.7 -20 0.2
      vertex 16.7 -20 0
    endloop
  endfacet
  facet normal -1 -0 0
    outer loop
      vertex 16.7 -20 0.2
      vertex 16.7 -30 0
      vertex 16.7 -30 0.2
    endloop
  endfacet
  facet normal 1 -0 0
    outer loop
      vertex 18.7 -30 0.2
      vertex 18.7 -20 0
      vertex 18.7 -20 0.2
    endloop
  endfacet
  facet normal 1 0 0
    outer loop
      vertex 18.7 -20 0
      vertex 18.7 -30 0.2
      vertex 18.7 -30 0
    endloop
  endfacet
  facet normal 0 -1 0
    outer loop
      vertex 16.7 -30 0
      vertex 18.7 -30 0.2
      vertex 16.7 -30 0.2
    endloop
  endfacet
  facet normal 0 -1 -0
    outer loop
      vertex 18.7 -30 0.2
      vertex 16.7 -30 0
      vertex 18.7 -30 0
    endloop
  endfacet
  facet normal -1 0 0
    outer loop
      vertex 20.9 -30 0
      vertex 20.9 -20 0.2
      vertex 20.9 -20 0
    endloop
  endfacet
  facet normal -1 -0 0
    outer loop
      vertex 20.9 -20 0.2
      vertex 20.9 -30 0
      vertex 20.9 -30 0.2
    endloop
  endfacet
  facet normal 1 -0 0
    outer loop
      vertex 22.9 -30 0.2
      vertex 22.9 -20 0
      vertex 22.9 -20 0.2
    endloop
  endfacet
  facet normal 1 0 0
    outer loop
      vertex 22.9 -20 0
      vertex 22.9 -30 0.2
      vertex 22.9 -30 0
    endloop
  endfacet
  facet normal 0 -1 0
    outer loop
      vertex 20.9 -30 0
      vertex 22.9 -30 0.2
      vertex 20.9 -30 0.2
    endloop
  endfacet
  facet normal 0 -1 -0
    outer loop
      vertex 22.9 -30 0.2
      vertex 20.9 -30 0
      vertex 22.9 -30 0
    endloop
  endfacet
  facet normal -1 0 0
    outer loop
      vertex 25.1 -30 0
      vertex 25.1 -20 0.2
      vertex 25.1 -20 0
    endloop
  endfacet
  facet normal -1 -0 0
    outer loop
      vertex 25.1 -20 0.2
      vertex 25.1 -30 0
      vertex 25.1 -30 0.2
    endloop
  endfacet
  facet normal 1 -0 0
    outer loop
      vertex 27.1 -30 0.2
      vertex 27.1 -20 0
      vertex 27.1 -20 0.2
    endloop
  endfacet
  facet normal 1 0 0
    outer loop
      vertex 27.1 -20 0
      vertex 27.1 -30 0.2
      vertex 27.1 -30 0
    endloop
  endfacet
  facet normal 0 -1 0
    outer loop
      vertex 25.1 -30 0
      vertex 27.1 -30 0.2
      vertex 25.1 -30 0.2
    endloop
  endfacet
  facet normal 0 -1 -0
    outer loop
      vertex 27.1 -30 0.2
      vertex 25.1 -30 0
      vertex 27.1 -30 0
    endloop
  endfacet
  facet normal -1 0 0
    outer loop
      vertex 29.3 -30 0
      vertex 29.3 -20 0.2
      vertex 29.3 -20 0
    endloop
  endfacet
  facet normal -1 -0 0
    outer loop
      vertex 29.3 -20 0.2
      vertex 29.3 -30 0
      vertex 29.3 -30 0.2
    endloop
  endfacet
  facet normal 1 -0 0
    outer loop
      vertex 31.3 -30 0.2
      vertex 31.3 -20 0
      vertex 31.3 -20 0.2
    endloop
  endfacet
  facet normal 1 0 0
    outer loop
      vertex 31.3 -20 0
      vertex 31.3 -30 0.2
      vertex 31.3 -30 0
    endloop
  endfacet
  facet normal 0 -1 0
    outer loop
      vertex 29.3 -30 0
      vertex 31.3 -30 0.2
      vertex 29.3 -30 0.2
    endloop
  endfacet
  facet normal 0 -1 -0
    outer loop
      vertex 31.3 -30 0.2
      vertex 29.3 -30 0
      vertex 31.3 -30 0
    endloop
  endfacet
  facet normal -1 0 0
    outer loop
      vertex 33.5 -30 0
      vertex 33.5 -20 0.2
      vertex 33.5 -20 0
    endloop
  endfacet
  facet normal -1 -0 0
    outer loop
      vertex 33.5 -20 0.2
      vertex 33.5 -30 0
      vertex 33.5 -30 0.2
    endloop
  endfacet
  facet normal 1 -0 0
    outer loop
      vertex 35.5 -30 0.2
      vertex 35.5 -20 0
      vertex 35.5 -20 0.2
    endloop
  endfacet
  facet normal 1 0 0
    outer loop
      vertex 35.5 -20 0
      vertex 35.5 -30 0.2
      vertex 35.5 -30 0
    endloop
  endfacet
  facet normal 0 -1 0
    outer loop
      vertex 33.5 -30 0
      vertex 35.5 -30 0.2
      vertex 33.5 -30 0.2
    endloop
  endfacet
  facet normal 0 -1 -0
    outer loop
      vertex 35.5 -30 0.2
      vertex 33.5 -30 0
      vertex 35.5 -30 0
    endloop
  endfacet
  facet normal -1 0 0
    outer loop
      vertex 37.7 -30 0
      vertex 37.7 -20 0.2
      vertex 37.7 -20 0
    endloop
  endfacet
  facet normal -1 -0 0
    outer loop
      vertex 37.7 -20 0.2
      vertex 37.7 -30 0
      vertex 37.7 -30 0.2
    endloop
  endfacet
  facet normal 1 -0 0
    outer loop
      vertex 39.7 -30 0.2
      vertex 39.7 -20 0
      vertex 39.7 -20 0.2
    endloop
  endfacet
  facet normal 1 0 0
    outer loop
      vertex 39.7 -20 0
      vertex 39.7 -30 0.2
      vertex 39.7 -30 0
    endloop
  endfacet
  facet normal 0 -1 0
    outer loop
      vertex 37.7 -30 0
      vertex 39.7 -30 0.2
      vertex 37.7 -30 0.2
    endloop
  endfacet
  facet normal 0 -1 -0
    outer loop
      vertex 39.7 -30 0.2
      vertex 37.7 -30 0
      vertex 39.7 -30 0
    endloop
  endfacet
  facet normal -1 0 0
    outer loop
      vertex 41.9 -30 0
      vertex 41.9 -20 0.2
      vertex 41.9 -20 0
    endloop
  endfacet
  facet normal -1 -0 0
    outer loop
      vertex 41.9 -20 0.2
      vertex 41.9 -30 0
      vertex 41.9 -30 0.2
    endloop
  endfacet
  facet normal 1 -0 0
    outer loop
      vertex 43.9 -30 0.2
      vertex 43.9 -20 0
      vertex 43.9 -20 0.2
    endloop
  endfacet
  facet normal 1 0 0
    outer loop
      vertex 43.9 -20 0
      vertex 43.9 -30 0.2
      vertex 43.9 -30 0
    endloop
  endfacet
  facet normal 0 -1 0
    outer loop
      vertex 41.9 -30 0
      vertex 43.9 -30 0.2
      vertex 41.9 -30 0.2
    endloop
  endfacet
  facet normal 0 -1 -0
    outer loop
      vertex 43.9 -30 0.2
      vertex 41.9 -30 0
      vertex 43.9 -30 0
    endloop
  endfacet
  facet normal -1 0 0
    outer loop
      vertex 46.1 -30 0
      vertex 46.1 -20 0.2
      vertex 46.1 -20 0
    endloop
  endfacet
  facet normal -1 -0 0
    outer loop
      vertex 46.1 -20 0.2
      vertex 46.1 -30 0
      vertex 46.1 -30 0.2
    endloop
  endfacet
  facet normal 1 -0 0
    outer loop
      vertex 48.1 -30 0.2
      vertex 48.1 -20 0
      vertex 48.1 -20 0.2
    endloop
  endfacet
  facet normal 1 0 0
    outer loop
      vertex 48.1 -20 0
      vertex 48.1 -30 0.2
      vertex 48.1 -30 0
    endloop
  endfacet
  facet normal 0 -1 0
    outer loop
      vertex 46.1 -30 0
      vertex 48.1 -30 0.2
      vertex 46.1 -30 0.2
    endloop
  endfacet
  facet normal 0 -1 -0
    outer loop
      vertex 48.1 -30 0.2
      vertex 46.1 -30 0
      vertex 48.1 -30 0
    endloop
  endfacet
  facet normal -1 0 0
    outer loop
      vertex 50.3 -30 0
      vertex 50.3 -20 0.2
      vertex 50.3 -20 0
    endloop
  endfacet
  facet normal -1 -0 0
    outer loop
      vertex 50.3 -20 0.2
      vertex 50.3 -30 0
      vertex 50.3 -30 0.2
    endloop
  endfacet
  facet normal 1 -0 0
    outer loop
      vertex 52.3 -30 0.2
      vertex 52.3 -20 0
      vertex 52.3 -20 0.2
    endloop
  endfacet
  facet normal 1 0 0
    outer loop
      vertex 52.3 -20 0
      vertex 52.3 -30 0.2
      vertex 52.3 -30 0
    endloop
  endfacet
  facet normal 0 -1 0
    outer loop
      vertex 50.3 -30 0
      vertex 52.3 -30 0.2
      vertex 50.3 -30 0.2
    endloop
  endfacet
  facet normal 0 -1 -0
    outer loop
      vertex 52.3 -30 0.2
      vertex 50.3 -30 0
      vertex 52.3 -30 0
    endloop
  endfacet
  facet normal -1 0 0
    outer loop
      vertex 54.5 -30 0
      vertex 54.5 -20 0.2
      vertex 54.5 -20 0
    endloop
  endfacet
  facet normal -1 -0 0
    outer loop
      vertex 54.5 -20 0.2
      vertex 54.5 -30 0
      vertex 54.5 -30 0.2
    endloop
  endfacet
  facet normal 1 -0 0
    outer loop
      vertex 56.5 -30 0.2
      vertex 56.5 -18 0
      vertex 56.5 -18 0.2
    endloop
  endfacet
  facet normal 1 0 0
    outer loop
      vertex 56.5 -18 0
      vertex 56.5 -30 0.2
      vertex 56.5 -30 0
    endloop
  endfacet
  facet normal 0 -1 0
    outer loop
      vertex 54.5 -30 0
      vertex 56.5 -30 0.2
      vertex 54.5 -30 0.2
    endloop
  endfacet
  facet normal 0 -1 -0
    outer loop
      vertex 56.5 -30 0.2
      vertex 54.5 -30 0
      vertex 56.5 -30 0
    endloop
  endfacet
  facet normal 0 -1 0
    outer loop
      vertex -54.5 -1 0.2
      vertex -56.5 -1 0.4
      vertex -56.5 -1 0.2
    endloop
  endfacet
  facet normal 0 -1 0
    outer loop
      vertex -56.5 -1 0.4
      vertex -54.5 -1 0.2
      vertex -49.5 -1 0.4
    endloop
  endfacet
  facet normal 0 -1 0
    outer loop
      vertex -54.5 -1 0.2
      vertex -49.5 -1 0.2
      vertex -49.5 -1 0.4
    endloop
  endfacet
  facet normal 0 -1 0
    outer loop
      vertex -54.5 -1 0
      vertex -49.5 -1 0.2
      vertex -54.5 -1 0.2
    endloop
  endfacet
  facet normal 0 -1 0
    outer loop
      vertex -44.5 -1 0
      vertex -49.5 -1 0.2
      vertex -54.5 -1 0
    endloop
  endfacet
  facet normal 0 -1 0
    outer loop
      vertex -49.5 -1 0.2
      vertex -44.5 -1 0
      vertex -44.5 -1 0.2
    endloop
  endfacet
  facet normal 0 0 1
    outer loop
      vertex -44.5 43 0.2
      vertex -54.5 41 0.2
      vertex -44.5 41 0.2
    endloop
  endfacet
  facet normal 0 0 1
    outer loop
      vertex -56.5 43 0.2
      vertex -54.5 38.8 0.2
      vertex -54.5 41 0.2
    endloop
  endfacet
  facet normal 0 0 1
    outer loop
      vertex -54.5 38.8 0.2
      vertex -56.5 43 0.2
      vertex -54.5 36.8 0.2
    endloop
  endfacet
  facet normal 0 0 1
    outer loop
      vertex -54.5 36.8 0.2
      vertex -56.5 43 0.2
      vertex -54.5 34.6 0.2
    endloop
  endfacet
  facet normal 0 0 1
    outer loop
      vertex -54.5 34.6 0.2
      vertex -56.5 43 0.2
      vertex -54.5 32.6 0.2
    endloop
  endfacet
  facet normal 0 0 1
    outer loop
      vertex -54.5 32.6 0.2
      vertex -56.5 43 0.2
      vertex -54.5 30.4 0.2
    endloop
  endfacet
  facet normal 0 0 1
    outer loop
      vertex -54.5 30.4 0.2
      vertex -56.5 43 0.2
      vertex -54.5 28.4 0.2
    endloop
  endfacet
  facet normal 0 0 1
    outer loop
      vertex -54.5 28.4 0.2
      vertex -56.5 43 0.2
      vertex -54.5 26.2 0.2
    endloop
  endfacet
  facet normal 0 0 1
    outer loop
      vertex -54.5 26.2 0.2
      vertex -56.5 43 0.2
      vertex -54.5 24.2 0.2
    endloop
  endfacet
  facet normal 0 0 1
    outer loop
      vertex -54.5 24.2 0.2
      vertex -56.5 43 0.2
      vertex -54.5 22 0.2
    endloop
  endfacet
  facet normal 0 0 1
    outer loop
      vertex -54.5 22 0.2
      vertex -56.5 43 0.2
      vertex -54.5 20 0.2
    endloop
  endfacet
  facet normal 0 0 1
    outer loop
      vertex -56.5 1 0.2
      vertex -54.5 20 0.2
      vertex -56.5 43 0.2
    endloop
  endfacet
  facet normal 0 0 1
    outer loop
      vertex -54.5 20 0.2
      vertex -56.5 1 0.2
      vertex -54.5 17.8 0.2
    endloop
  endfacet
  facet normal 0 0 1
    outer loop
      vertex -54.5 17.8 0.2
      vertex -56.5 1 0.2
      vertex -54.5 15.8 0.2
    endloop
  endfacet
  facet normal 0 0 1
    outer loop
      vertex -54.5 15.8 0.2
      vertex -56.5 1 0.2
      vertex -54.5 13.6 0.2
    endloop
  endfacet
  facet normal 0 0 1
    outer loop
      vertex -54.5 13.6 0.2
      vertex -56.5 1 0.2
      vertex -54.5 11.6 0.2
    endloop
  endfacet
  facet normal 0 0 1
    outer loop
      vertex -54.5 11.6 0.2
      vertex -56.5 1 0.2
      vertex -54.5 9.4 0.2
    endloop
  endfacet
  facet normal 0 0 1
    outer loop
      vertex -54.5 9.4 0.2
      vertex -56.5 1 0.2
      vertex -54.5 7.4 0.2
    endloop
  endfacet
  facet normal 0 0 1
    outer loop
      vertex -54.5 7.4 0.2
      vertex -56.5 1 0.2
      vertex -54.5 5.2 0.2
    endloop
  endfacet
  facet normal -0 0 1
    outer loop
      vertex -56.5 43 0.2
      vertex -54.5 41 0.2
      vertex -44.5 43 0.2
    endloop
  endfacet
  facet normal 0 0 1
    outer loop
      vertex -54.5 5.2 0.2
      vertex -56.5 1 0.2
      vertex -54.5 3.2 0.2
    endloop
  endfacet
  facet normal 0 0 1
    outer loop
      vertex -54.5 3.2 0.2
      vertex -56.5 1 0.2
      vertex -54.5 1 0.2
    endloop
  endfacet
  facet normal -0 0 1
    outer loop
      vertex -54.5 38.8 0.2
      vertex -44.5 36.8 0.2
      vertex -44.5 38.8 0.2
    endloop
  endfacet
  facet normal 0 0 1
    outer loop
      vertex -44.5 36.8 0.2
      vertex -54.5 38.8 0.2
      vertex -54.5 36.8 0.2
    endloop
  endfacet
  facet normal -0 0 1
    outer loop
      vertex -54.5 34.6 0.2
      vertex -44.5 32.6 0.2
      vertex -44.5 34.6 0.2
    endloop
  endfacet
  facet normal 0 0 1
    outer loop
      vertex -44.5 32.6 0.2
      vertex -54.5 34.6 0.2
      vertex -54.5 32.6 0.2
    endloop
  endfacet
  facet normal -0 0 1
    outer loop
      vertex -54.5 30.4 0.2
      vertex -44.5 28.4 0.2
      vertex -44.5 30.4 0.2
    endloop
  endfacet
  facet normal 0 0 1
    outer loop
      vertex -44.5 28.4 0.2
      vertex -54.5 30.4 0.2
      vertex -54.5 28.4 0.2
    endloop
  endfacet
  facet normal -0 0 1
    outer loop
      vertex -54.5 26.2 0.2
      vertex -44.5 24.2 0.2
      vertex -44.5 26.2 0.2
    endloop
  endfacet
  facet normal 0 0 1
    outer loop
      vertex -44.5 24.2 0.2
      vertex -54.5 26.2 0.2
      vertex -54.5 24.2 0.2
    endloop
  endfacet
  facet normal -0 0 1
    outer loop
      vertex -54.5 22 0.2
      vertex -44.5 20 0.2
      vertex -44.5 22 0.2
    endloop
  endfacet
  facet normal 0 0 1
    outer loop
      vertex -44.5 20 0.2
      vertex -54.5 22 0.2
      vertex -54.5 20 0.2
    endloop
  endfacet
  facet normal -0 0 1
    outer loop
      vertex -54.5 17.8 0.2
      vertex -44.5 15.8 0.2
      vertex -44.5 17.8 0.2
    endloop
  endfacet
  facet normal 0 0 1
    outer loop
      vertex -44.5 15.8 0.2
      vertex -54.5 17.8 0.2
      vertex -54.5 15.8 0.2
    endloop
  endfacet
  facet normal -0 0 1
    outer loop
      vertex -54.5 13.6 0.2
      vertex -44.5 11.6 0.2
      vertex -44.5 13.6 0.2
    endloop
  endfacet
  facet normal 0 0 1
    outer loop
      vertex -44.5 11.6 0.2
      vertex -54.5 13.6 0.2
      vertex -54.5 11.6 0.2
    endloop
  endfacet
  facet normal -0 0 1
    outer loop
      vertex -54.5 9.4 0.2
      vertex -44.5 7.4 0.2
      vertex -44.5 9.4 0.2
    endloop
  endfacet
  facet normal 0 0 1
    outer loop
      vertex -44.5 7.4 0.2
      vertex -54.5 9.4 0.2
      vertex -54.5 7.4 0.2
    endloop
  endfacet
  facet normal -0 0 1
    outer loop
      vertex -54.5 5.2 0.2
      vertex -44.5 3.2 0.2
      vertex -44.5 5.2 0.2
    endloop
  endfacet
  facet normal 0 0 1
    outer loop
      vertex -44.5 3.2 0.2
      vertex -54.5 5.2 0.2
      vertex -54.5 3.2 0.2
    endloop
  endfacet
  facet normal -0 0 1
    outer loop
      vertex -56.5 -1 0.2
      vertex -54.5 -3.2 0.2
      vertex -54.5 -1 0.2
    endloop
  endfacet
  facet normal 0 0 1
    outer loop
      vertex -54.5 -3.2 0.2
      vertex -56.5 -1 0.2
      vertex -54.5 -5.2 0.2
    endloop
  endfacet
  facet normal 0 0 1
    outer loop
      vertex -54.5 -5.2 0.2
      vertex -56.5 -1 0.2
      vertex -54.5 -7.4 0.2
    endloop
  endfacet
  facet normal 0 0 1
    outer loop
      vertex -54.5 -7.4 0.2
      vertex -56.5 -1 0.2
      vertex -54.5 -9.4 0.2
    endloop
  endfacet
  facet normal 0 0 1
    outer loop
      vertex -54.5 -9.4 0.2
      vertex -56.5 -1 0.2
      vertex -54.5 -11.6 0.2
    endloop
  endfacet
  facet normal 0 0 1
    outer loop
      vertex -54.5 -11.6 0.2
      vertex -56.5 -1 0.2
      vertex -54.5 -13.6 0.2
    endloop
  endfacet
  facet normal 0 0 1
    outer loop
      vertex -54.5 -13.6 0.2
      vertex -56.5 -1 0.2
      vertex -54.5 -15.8 0.2
    endloop
  endfacet
  facet normal 0 0 1
    outer loop
      vertex -54.5 -15.8 0.2
      vertex -56.5 -1 0.2
      vertex -54.5 -17.8 0.2
    endloop
  endfacet
  facet normal 0 0 1
    outer loop
      vertex -54.5 -17.8 0.2
      vertex -56.5 -1 0.2
      vertex -54.5 -20 0.2
    endloop
  endfacet
  facet normal 0 0 1
    outer loop
      vertex -54.5 -20 0.2
      vertex -56.5 -1 0.2
      vertex -54.5 -22 0.2
    endloop
  endfacet
  facet normal 0 0 1
    outer loop
      vertex -56.5 -43 0.2
      vertex -54.5 -22 0.2
      vertex -56.5 -1 0.2
    endloop
  endfacet
  facet normal 0 0 1
    outer loop
      vertex -54.5 -22 0.2
      vertex -56.5 -43 0.2
      vertex -54.5 -24.2 0.2
    endloop
  endfacet
  facet normal 0 0 1
    outer loop
      vertex -54.5 -24.2 0.2
      vertex -56.5 -43 0.2
      vertex -54.5 -26.2 0.2
    endloop
  endfacet
  facet normal 0 0 1
    outer loop
      vertex -54.5 -26.2 0.2
      vertex -56.5 -43 0.2
      vertex -54.5 -28.4 0.2
    endloop
  endfacet
  facet normal 0 0 1
    outer loop
      vertex -54.5 -28.4 0.2
      vertex -56.5 -43 0.2
      vertex -54.5 -30.4 0.2
    endloop
  endfacet
  facet normal 0 0 1
    outer loop
      vertex -54.5 -30.4 0.2
      vertex -56.5 -43 0.2
      vertex -54.5 -32.6 0.2
    endloop
  endfacet
  facet normal 0 0 1
    outer loop
      vertex -54.5 -32.6 0.2
      vertex -56.5 -43 0.2
      vertex -54.5 -34.6 0.2
    endloop
  endfacet
  facet normal 0 0 1
    outer loop
      vertex -54.5 -34.6 0.2
      vertex -56.5 -43 0.2
      vertex -54.5 -36.8 0.2
    endloop
  endfacet
  facet normal 0 0 1
    outer loop
      vertex -54.5 -36.8 0.2
      vertex -56.5 -43 0.2
      vertex -54.5 -38.8 0.2
    endloop
  endfacet
  facet normal -0 0 1
    outer loop
      vertex -54.5 -3.2 0.2
      vertex -44.5 -5.2 0.2
      vertex -44.5 -3.2 0.2
    endloop
  endfacet
  facet normal 0 0 1
    outer loop
      vertex -44.5 -5.2 0.2
      vertex -54.5 -3.2 0.2
      vertex -54.5 -5.2 0.2
    endloop
  endfacet
  facet normal -0 0 1
    outer loop
      vertex -54.5 -7.4 0.2
      vertex -44.5 -9.4 0.2
      vertex -44.5 -7.4 0.2
    endloop
  endfacet
  facet normal 0 0 1
    outer loop
      vertex -44.5 -9.4 0.2
      vertex -54.5 -7.4 0.2
      vertex -54.5 -9.4 0.2
    endloop
  endfacet
  facet normal -0 0 1
    outer loop
      vertex -54.5 -11.6 0.2
      vertex -44.5 -13.6 0.2
      vertex -44.5 -11.6 0.2
    endloop
  endfacet
  facet normal 0 0 1
    outer loop
      vertex -44.5 -13.6 0.2
      vertex -54.5 -11.6 0.2
      vertex -54.5 -13.6 0.2
    endloop
  endfacet
  facet normal -0 0 1
    outer loop
      vertex -54.5 -15.8 0.2
      vertex -44.5 -17.8 0.2
      vertex -44.5 -15.8 0.2
    endloop
  endfacet
  facet normal 0 0 1
    outer loop
      vertex -44.5 -17.8 0.2
      vertex -54.5 -15.8 0.2
      vertex -54.5 -17.8 0.2
    endloop
  endfacet
  facet normal -0 0 1
    outer loop
      vertex -54.5 -20 0.2
      vertex -44.5 -22 0.2
      vertex -44.5 -20 0.2
    endloop
  endfacet
  facet normal 0 0 1
    outer loop
      vertex -44.5 -22 0.2
      vertex -54.5 -20 0.2
      vertex -54.5 -22 0.2
    endloop
  endfacet
  facet normal -0 0 1
    outer loop
      vertex -54.5 -24.2 0.2
      vertex -44.5 -26.2 0.2
      vertex -44.5 -24.2 0.2
    endloop
  endfacet
  facet normal 0 0 1
    outer loop
      vertex -44.5 -26.2 0.2
      vertex -54.5 -24.2 0.2
      vertex -54.5 -26.2 0.2
    endloop
  endfacet
  facet normal -0 0 1
    outer loop
      vertex -54.5 -28.4 0.2
      vertex -44.5 -30.4 0.2
      vertex -44.5 -28.4 0.2
    endloop
  endfacet
  facet normal 0 0 1
    outer loop
      vertex -44.5 -30.4 0.2
      vertex -54.5 -28.4 0.2
      vertex -54.5 -30.4 0.2
    endloop
  endfacet
  facet normal -0 0 1
    outer loop
      vertex -54.5 -32.6 0.2
      vertex -44.5 -34.6 0.2
      vertex -44.5 -32.6 0.2
    endloop
  endfacet
  facet normal 0 0 1
    outer loop
      vertex -44.5 -34.6 0.2
      vertex -54.5 -32.6 0.2
      vertex -54.5 -34.6 0.2
    endloop
  endfacet
  facet normal -0 0 1
    outer loop
      vertex -54.5 -36.8 0.2
      vertex -44.5 -38.8 0.2
      vertex -44.5 -36.8 0.2
    endloop
  endfacet
  facet normal 0 0 1
    outer loop
      vertex -44.5 -38.8 0.2
      vertex -54.5 -36.8 0.2
      vertex -54.5 -38.8 0.2
    endloop
  endfacet
  facet normal -0 0 1
    outer loop
      vertex -54.5 -41 0.2
      vertex -44.5 -43 0.2
      vertex -44.5 -41 0.2
    endloop
  endfacet
  facet normal 0 0 1
    outer loop
      vertex -54.5 -41 0.2
      vertex -56.5 -43 0.2
      vertex -44.5 -43 0.2
    endloop
  endfacet
  facet normal 0 0 1
    outer loop
      vertex -54.5 -38.8 0.2
      vertex -56.5 -43 0.2
      vertex -54.5 -41 0.2
    endloop
  endfacet
  facet normal -0 0 1
    outer loop
      vertex -49.5 1 0.2
      vertex -44.5 -1 0.2
      vertex -44.5 1 0.2
    endloop
  endfacet
  facet normal 0 0 1
    outer loop
      vertex -44.5 -1 0.2
      vertex -49.5 1 0.2
      vertex -49.5 -1 0.2
    endloop
  endfacet
  facet normal 0 1 0
    outer loop
      vertex -54.5 1 0.2
      vertex -49.5 1 0.4
      vertex -49.5 1 0.2
    endloop
  endfacet
  facet normal 0 1 0
    outer loop
      vertex -49.5 1 0.4
      vertex -54.5 1 0.2
      vertex -56.5 1 0.4
    endloop
  endfacet
  facet normal 0 1 0
    outer loop
      vertex -56.5 1 0.4
      vertex -54.5 1 0.2
      vertex -56.5 1 0.2
    endloop
  endfacet
  facet normal 0 1 -0
    outer loop
      vertex -44.5 1 0
      vertex -49.5 1 0.2
      vertex -44.5 1 0.2
    endloop
  endfacet
  facet normal 0 1 0
    outer loop
      vertex -54.5 1 0
      vertex -49.5 1 0.2
      vertex -44.5 1 0
    endloop
  endfacet
  facet normal 0 1 0
    outer loop
      vertex -49.5 1 0.2
      vertex -54.5 1 0
      vertex -54.5 1 0.2
    endloop
  endfacet
  facet normal 1 -0 0
    outer loop
      vertex -44.5 -1 0.2
      vertex -44.5 1 0
      vertex -44.5 1 0.2
    endloop
  endfacet
  facet normal 1 0 0
    outer loop
      vertex -44.5 1 0
      vertex -44.5 -1 0.2
      vertex -44.5 -1 0
    endloop
  endfacet
  facet normal 0 0 -1
    outer loop
      vertex -44.5 -43 0
      vertex -54.5 -41 0
      vertex -44.5 -41 0
    endloop
  endfacet
  facet normal 0 0 -1
    outer loop
      vertex -56.5 -43 0
      vertex -54.5 -38.8 0
      vertex -54.5 -41 0
    endloop
  endfacet
  facet normal -0 0 -1
    outer loop
      vertex -54.5 -38.8 0
      vertex -56.5 -43 0
      vertex -54.5 -36.8 0
    endloop
  endfacet
  facet normal -0 0 -1
    outer loop
      vertex -54.5 -36.8 0
      vertex -56.5 -43 0
      vertex -54.5 -34.6 0
    endloop
  endfacet
  facet normal -0 0 -1
    outer loop
      vertex -54.5 -34.6 0
      vertex -56.5 -43 0
      vertex -54.5 -32.6 0
    endloop
  endfacet
  facet normal -0 0 -1
    outer loop
      vertex -54.5 -32.6 0
      vertex -56.5 -43 0
      vertex -54.5 -30.4 0
    endloop
  endfacet
  facet normal -0 0 -1
    outer loop
      vertex -54.5 -30.4 0
      vertex -56.5 -43 0
      vertex -54.5 -28.4 0
    endloop
  endfacet
  facet normal -0 0 -1
    outer loop
      vertex -54.5 -28.4 0
      vertex -56.5 -43 0
      vertex -54.5 -26.2 0
    endloop
  endfacet
  facet normal -0 0 -1
    outer loop
      vertex -54.5 -26.2 0
      vertex -56.5 -43 0
      vertex -54.5 -24.2 0
    endloop
  endfacet
  facet normal -0 0 -1
    outer loop
      vertex -54.5 -24.2 0
      vertex -56.5 -43 0
      vertex -54.5 -22 0
    endloop
  endfacet
  facet normal -0 0 -1
    outer loop
      vertex -54.5 -22 0
      vertex -56.5 -43 0
      vertex -54.5 -20 0
    endloop
  endfacet
  facet normal -0 0 -1
    outer loop
      vertex -54.5 -20 0
      vertex -56.5 -43 0
      vertex -54.5 -17.8 0
    endloop
  endfacet
  facet normal -0 0 -1
    outer loop
      vertex -54.5 -17.8 0
      vertex -56.5 -43 0
      vertex -54.5 -15.8 0
    endloop
  endfacet
  facet normal -0 0 -1
    outer loop
      vertex -54.5 -15.8 0
      vertex -56.5 -43 0
      vertex -54.5 -13.6 0
    endloop
  endfacet
  facet normal -0 0 -1
    outer loop
      vertex -54.5 -13.6 0
      vertex -56.5 -43 0
      vertex -54.5 -11.6 0
    endloop
  endfacet
  facet normal -0 0 -1
    outer loop
      vertex -54.5 -11.6 0
      vertex -56.5 -43 0
      vertex -54.5 -9.4 0
    endloop
  endfacet
  facet normal -0 0 -1
    outer loop
      vertex -54.5 -9.4 0
      vertex -56.5 -43 0
      vertex -54.5 -7.4 0
    endloop
  endfacet
  facet normal -0 0 -1
    outer loop
      vertex -54.5 -7.4 0
      vertex -56.5 -43 0
      vertex -54.5 -5.2 0
    endloop
  endfacet
  facet normal -0 0 -1
    outer loop
      vertex -54.5 -5.2 0
      vertex -56.5 -43 0
      vertex -54.5 -3.2 0
    endloop
  endfacet
  facet normal -0 0 -1
    outer loop
      vertex -54.5 -3.2 0
      vertex -56.5 -43 0
      vertex -54.5 -1 0
    endloop
  endfacet
  facet normal -0 0 -1
    outer loop
      vertex -54.5 -1 0
      vertex -56.5 -43 0
      vertex -54.5 1 0
    endloop
  endfacet
  facet normal -0 0 -1
    outer loop
      vertex -54.5 1 0
      vertex -56.5 -43 0
      vertex -54.5 3.2 0
    endloop
  endfacet
  facet normal -0 0 -1
    outer loop
      vertex -54.5 3.2 0
      vertex -56.5 -43 0
      vertex -54.5 5.2 0
    endloop
  endfacet
  facet normal 0 0 -1
    outer loop
      vertex -56.5 43 0
      vertex -54.5 5.2 0
      vertex -56.5 -43 0
    endloop
  endfacet
  facet normal 0 0 -1
    outer loop
      vertex -54.5 5.2 0
      vertex -56.5 43 0
      vertex -54.5 7.4 0
    endloop
  endfacet
  facet normal 0 0 -1
    outer loop
      vertex -54.5 7.4 0
      vertex -56.5 43 0
      vertex -54.5 9.4 0
    endloop
  endfacet
  facet normal 0 0 -1
    outer loop
      vertex -54.5 9.4 0
      vertex -56.5 43 0
      vertex -54.5 11.6 0
    endloop
  endfacet
  facet normal 0 0 -1
    outer loop
      vertex -54.5 11.6 0
      vertex -56.5 43 0
      vertex -54.5 13.6 0
    endloop
  endfacet
  facet normal 0 0 -1
    outer loop
      vertex -54.5 13.6 0
      vertex -56.5 43 0
      vertex -54.5 15.8 0
    endloop
  endfacet
  facet normal 0 0 -1
    outer loop
      vertex -54.5 15.8 0
      vertex -56.5 43 0
      vertex -54.5 17.8 0
    endloop
  endfacet
  facet normal 0 0 -1
    outer loop
      vertex -54.5 17.8 0
      vertex -56.5 43 0
      vertex -54.5 20 0
    endloop
  endfacet
  facet normal 0 0 -1
    outer loop
      vertex -54.5 20 0
      vertex -56.5 43 0
      vertex -54.5 22 0
    endloop
  endfacet
  facet normal 0 0 -1
    outer loop
      vertex -54.5 22 0
      vertex -56.5 43 0
      vertex -54.5 24.2 0
    endloop
  endfacet
  facet normal 0 0 -1
    outer loop
      vertex -54.5 24.2 0
      vertex -56.5 43 0
      vertex -54.5 26.2 0
    endloop
  endfacet
  facet normal 0 0 -1
    outer loop
      vertex -54.5 26.2 0
      vertex -56.5 43 0
      vertex -54.5 28.4 0
    endloop
  endfacet
  facet normal 0 0 -1
    outer loop
      vertex -54.5 28.4 0
      vertex -56.5 43 0
      vertex -54.5 30.4 0
    endloop
  endfacet
  facet normal 0 0 -1
    outer loop
      vertex -54.5 30.4 0
      vertex -56.5 43 0
      vertex -54.5 32.6 0
    endloop
  endfacet
  facet normal 0 0 -1
    outer loop
      vertex -54.5 32.6 0
      vertex -56.5 43 0
      vertex -54.5 34.6 0
    endloop
  endfacet
  facet normal 0 0 -1
    outer loop
      vertex -54.5 34.6 0
      vertex -56.5 43 0
      vertex -54.5 36.8 0
    endloop
  endfacet
  facet normal 0 0 -1
    outer loop
      vertex -54.5 36.8 0
      vertex -56.5 43 0
      vertex -54.5 38.8 0
    endloop
  endfacet
  facet normal 0 0 -1
    outer loop
      vertex -56.5 -43 0
      vertex -54.5 -41 0
      vertex -44.5 -43 0
    endloop
  endfacet
  facet normal 0 0 -1
    outer loop
      vertex -54.5 -38.8 0
      vertex -44.5 -36.8 0
      vertex -44.5 -38.8 0
    endloop
  endfacet
  facet normal -0 0 -1
    outer loop
      vertex -44.5 -36.8 0
      vertex -54.5 -38.8 0
      vertex -54.5 -36.8 0
    endloop
  endfacet
  facet normal 0 0 -1
    outer loop
      vertex -54.5 -34.6 0
      vertex -44.5 -32.6 0
      vertex -44.5 -34.6 0
    endloop
  endfacet
  facet normal -0 0 -1
    outer loop
      vertex -44.5 -32.6 0
      vertex -54.5 -34.6 0
      vertex -54.5 -32.6 0
    endloop
  endfacet
  facet normal 0 0 -1
    outer loop
      vertex -54.5 -30.4 0
      vertex -44.5 -28.4 0
      vertex -44.5 -30.4 0
    endloop
  endfacet
  facet normal -0 0 -1
    outer loop
      vertex -44.5 -28.4 0
      vertex -54.5 -30.4 0
      vertex -54.5 -28.4 0
    endloop
  endfacet
  facet normal 0 0 -1
    outer loop
      vertex -54.5 -26.2 0
      vertex -44.5 -24.2 0
      vertex -44.5 -26.2 0
    endloop
  endfacet
  facet normal -0 0 -1
    outer loop
      vertex -44.5 -24.2 0
      vertex -54.5 -26.2 0
      vertex -54.5 -24.2 0
    endloop
  endfacet
  facet normal 0 0 -1
    outer loop
      vertex -54.5 -22 0
      vertex -44.5 -20 0
      vertex -44.5 -22 0
    endloop
  endfacet
  facet normal -0 0 -1
    outer loop
      vertex -44.5 -20 0
      vertex -54.5 -22 0
      vertex -54.5 -20 0
    endloop
  endfacet
  facet normal 0 0 -1
    outer loop
      vertex -54.5 -17.8 0
      vertex -44.5 -15.8 0
      vertex -44.5 -17.8 0
    endloop
  endfacet
  facet normal -0 0 -1
    outer loop
      vertex -44.5 -15.8 0
      vertex -54.5 -17.8 0
      vertex -54.5 -15.8 0
    endloop
  endfacet
  facet normal 0 0 -1
    outer loop
      vertex -54.5 -13.6 0
      vertex -44.5 -11.6 0
      vertex -44.5 -13.6 0
    endloop
  endfacet
  facet normal -0 0 -1
    outer loop
      vertex -44.5 -11.6 0
      vertex -54.5 -13.6 0
      vertex -54.5 -11.6 0
    endloop
  endfacet
  facet normal 0 0 -1
    outer loop
      vertex -54.5 -9.4 0
      vertex -44.5 -7.4 0
      vertex -44.5 -9.4 0
    endloop
  endfacet
  facet normal -0 0 -1
    outer loop
      vertex -44.5 -7.4 0
      vertex -54.5 -9.4 0
      vertex -54.5 -7.4 0
    endloop
  endfacet
  facet normal 0 0 -1
    outer loop
      vertex -54.5 -5.2 0
      vertex -44.5 -3.2 0
      vertex -44.5 -5.2 0
    endloop
  endfacet
  facet normal -0 0 -1
    outer loop
      vertex -44.5 -3.2 0
      vertex -54.5 -5.2 0
      vertex -54.5 -3.2 0
    endloop
  endfacet
  facet normal 0 0 -1
    outer loop
      vertex -54.5 -1 0
      vertex -44.5 1 0
      vertex -44.5 -1 0
    endloop
  endfacet
  facet normal -0 0 -1
    outer loop
      vertex -44.5 1 0
      vertex -54.5 -1 0
      vertex -54.5 1 0
    endloop
  endfacet
  facet normal 0 0 -1
    outer loop
      vertex -54.5 3.2 0
      vertex -44.5 5.2 0
      vertex -44.5 3.2 0
    endloop
  endfacet
  facet normal -0 0 -1
    outer loop
      vertex -44.5 5.2 0
      vertex -54.5 3.2 0
      vertex -54.5 5.2 0
    endloop
  endfacet
  facet normal 0 0 -1
    outer loop
      vertex -54.5 7.4 0
      vertex -44.5 9.4 0
      vertex -44.5 7.4 0
    endloop
  endfacet
  facet normal -0 0 -1
    outer loop
      vertex -44.5 9.4 0
      vertex -54.5 7.4 0
      vertex -54.5 9.4 0
    endloop
  endfacet
  facet normal 0 0 -1
    outer loop
      vertex -54.5 11.6 0
      vertex -44.5 13.6 0
      vertex -44.5 11.6 0
    endloop
  endfacet
  facet normal -0 0 -1
    outer loop
      vertex -44.5 13.6 0
      vertex -54.5 11.6 0
      vertex -54.5 13.6 0
    endloop
  endfacet
  facet normal 0 0 -1
    outer loop
      vertex -54.5 15.8 0
      vertex -44.5 17.8 0
      vertex -44.5 15.8 0
    endloop
  endfacet
  facet normal -0 0 -1
    outer loop
      vertex -44.5 17.8 0
      vertex -54.5 15.8 0
      vertex -54.5 17.8 0
    endloop
  endfacet
  facet normal 0 0 -1
    outer loop
      vertex -54.5 20 0
      vertex -44.5 22 0
      vertex -44.5 20 0
    endloop
  endfacet
  facet normal -0 0 -1
    outer loop
      vertex -44.5 22 0
      vertex -54.5 20 0
      vertex -54.5 22 0
    endloop
  endfacet
  facet normal 0 0 -1
    outer loop
      vertex -54.5 24.2 0
      vertex -44.5 26.2 0
      vertex -44.5 24.2 0
    endloop
  endfacet
  facet normal -0 0 -1
    outer loop
      vertex -44.5 26.2 0
      vertex -54.5 24.2 0
      vertex -54.5 26.2 0
    endloop
  endfacet
  facet normal 0 0 -1
    outer loop
      vertex -54.5 28.4 0
      vertex -44.5 30.4 0
      vertex -44.5 28.4 0
    endloop
  endfacet
  facet normal -0 0 -1
    outer loop
      vertex -44.5 30.4 0
      vertex -54.5 28.4 0
      vertex -54.5 30.4 0
    endloop
  endfacet
  facet normal 0 0 -1
    outer loop
      vertex -54.5 32.6 0
      vertex -44.5 34.6 0
      vertex -44.5 32.6 0
    endloop
  endfacet
  facet normal -0 0 -1
    outer loop
      vertex -44.5 34.6 0
      vertex -54.5 32.6 0
      vertex -54.5 34.6 0
    endloop
  endfacet
  facet normal 0 0 -1
    outer loop
      vertex -54.5 36.8 0
      vertex -44.5 38.8 0
      vertex -44.5 36.8 0
    endloop
  endfacet
  facet normal -0 0 -1
    outer loop
      vertex -44.5 38.8 0
      vertex -54.5 36.8 0
      vertex -54.5 38.8 0
    endloop
  endfacet
  facet normal 0 0 -1
    outer loop
      vertex -54.5 41 0
      vertex -44.5 43 0
      vertex -44.5 41 0
    endloop
  endfacet
  facet normal 0 0 -1
    outer loop
      vertex -54.5 41 0
      vertex -56.5 43 0
      vertex -44.5 43 0
    endloop
  endfacet
  facet normal 0 0 -1
    outer loop
      vertex -54.5 38.8 0
      vertex -56.5 43 0
      vertex -54.5 41 0
    endloop
  endfacet
  facet normal 1 -0 0
    outer loop
      vertex -54.5 38.8 0.2
      vertex -54.5 41 0
      vertex -54.5 41 0.2
    endloop
  endfacet
  facet normal 1 0 0
    outer loop
      vertex -54.5 41 0
      vertex -54.5 38.8 0.2
      vertex -54.5 38.8 0
    endloop
  endfacet
  facet normal 1 -0 0
    outer loop
      vertex -54.5 34.6 0.2
      vertex -54.5 36.8 0
      vertex -54.5 36.8 0.2
    endloop
  endfacet
  facet normal 1 0 0
    outer loop
      vertex -54.5 36.8 0
      vertex -54.5 34.6 0.2
      vertex -54.5 34.6 0
    endloop
  endfacet
  facet normal 1 -0 0
    outer loop
      vertex -54.5 30.4 0.2
      vertex -54.5 32.6 0
      vertex -54.5 32.6 0.2
    endloop
  endfacet
  facet normal 1 0 0
    outer loop
      vertex -54.5 32.6 0
      vertex -54.5 30.4 0.2
      vertex -54.5 30.4 0
    endloop
  endfacet
  facet normal 1 -0 0
    outer loop
      vertex -54.5 26.2 0.2
      vertex -54.5 28.4 0
      vertex -54.5 28.4 0.2
    endloop
  endfacet
  facet normal 1 0 0
    outer loop
      vertex -54.5 28.4 0
      vertex -54.5 26.2 0.2
      vertex -54.5 26.2 0
    endloop
  endfacet
  facet normal 1 -0 0
    outer loop
      vertex -54.5 22 0.2
      vertex -54.5 24.2 0
      vertex -54.5 24.2 0.2
    endloop
  endfacet
  facet normal 1 0 0
    outer loop
      vertex -54.5 24.2 0
      vertex -54.5 22 0.2
      vertex -54.5 22 0
    endloop
  endfacet
  facet normal 1 -0 0
    outer loop
      vertex -54.5 17.8 0.2
      vertex -54.5 20 0
      vertex -54.5 20 0.2
    endloop
  endfacet
  facet normal 1 0 0
    outer loop
      vertex -54.5 20 0
      vertex -54.5 17.8 0.2
      vertex -54.5 17.8 0
    endloop
  endfacet
  facet normal 1 -0 0
    outer loop
      vertex -54.5 13.6 0.2
      vertex -54.5 15.8 0
      vertex -54.5 15.8 0.2
    endloop
  endfacet
  facet normal 1 0 0
    outer loop
      vertex -54.5 15.8 0
      vertex -54.5 13.6 0.2
      vertex -54.5 13.6 0
    endloop
  endfacet
  facet normal 1 -0 0
    outer loop
      vertex -54.5 9.4 0.2
      vertex -54.5 11.6 0
      vertex -54.5 11.6 0.2
    endloop
  endfacet
  facet normal 1 0 0
    outer loop
      vertex -54.5 11.6 0
      vertex -54.5 9.4 0.2
      vertex -54.5 9.4 0
    endloop
  endfacet
  facet normal 1 -0 0
    outer loop
      vertex -54.5 5.2 0.2
      vertex -54.5 7.4 0
      vertex -54.5 7.4 0.2
    endloop
  endfacet
  facet normal 1 0 0
    outer loop
      vertex -54.5 7.4 0
      vertex -54.5 5.2 0.2
      vertex -54.5 5.2 0
    endloop
  endfacet
  facet normal 1 -0 0
    outer loop
      vertex -54.5 1 0.2
      vertex -54.5 3.2 0
      vertex -54.5 3.2 0.2
    endloop
  endfacet
  facet normal 1 0 0
    outer loop
      vertex -54.5 3.2 0
      vertex -54.5 1 0.2
      vertex -54.5 1 0
    endloop
  endfacet
  facet normal 1 -0 0
    outer loop
      vertex -54.5 -3.2 0.2
      vertex -54.5 -1 0
      vertex -54.5 -1 0.2
    endloop
  endfacet
  facet normal 1 0 0
    outer loop
      vertex -54.5 -1 0
      vertex -54.5 -3.2 0.2
      vertex -54.5 -3.2 0
    endloop
  endfacet
  facet normal 1 -0 0
    outer loop
      vertex -54.5 -7.4 0.2
      vertex -54.5 -5.2 0
      vertex -54.5 -5.2 0.2
    endloop
  endfacet
  facet normal 1 0 0
    outer loop
      vertex -54.5 -5.2 0
      vertex -54.5 -7.4 0.2
      vertex -54.5 -7.4 0
    endloop
  endfacet
  facet normal 1 -0 0
    outer loop
      vertex -54.5 -11.6 0.2
      vertex -54.5 -9.4 0
      vertex -54.5 -9.4 0.2
    endloop
  endfacet
  facet normal 1 0 0
    outer loop
      vertex -54.5 -9.4 0
      vertex -54.5 -11.6 0.2
      vertex -54.5 -11.6 0
    endloop
  endfacet
  facet normal 1 -0 0
    outer loop
      vertex -54.5 -15.8 0.2
      vertex -54.5 -13.6 0
      vertex -54.5 -13.6 0.2
    endloop
  endfacet
  facet normal 1 0 0
    outer loop
      vertex -54.5 -13.6 0
      vertex -54.5 -15.8 0.2
      vertex -54.5 -15.8 0
    endloop
  endfacet
  facet normal 1 -0 0
    outer loop
      vertex -54.5 -20 0.2
      vertex -54.5 -17.8 0
      vertex -54.5 -17.8 0.2
    endloop
  endfacet
  facet normal 1 0 0
    outer loop
      vertex -54.5 -17.8 0
      vertex -54.5 -20 0.2
      vertex -54.5 -20 0
    endloop
  endfacet
  facet normal 1 -0 0
    outer loop
      vertex -54.5 -24.2 0.2
      vertex -54.5 -22 0
      vertex -54.5 -22 0.2
    endloop
  endfacet
  facet normal 1 0 0
    outer loop
      vertex -54.5 -22 0
      vertex -54.5 -24.2 0.2
      vertex -54.5 -24.2 0
    endloop
  endfacet
  facet normal 1 -0 0
    outer loop
      vertex -54.5 -28.4 0.2
      vertex -54.5 -26.2 0
      vertex -54.5 -26.2 0.2
    endloop
  endfacet
  facet normal 1 0 0
    outer loop
      vertex -54.5 -26.2 0
      vertex -54.5 -28.4 0.2
      vertex -54.5 -28.4 0
    endloop
  endfacet
  facet normal 1 -0 0
    outer loop
      vertex -54.5 -32.6 0.2
      vertex -54.5 -30.4 0
      vertex -54.5 -30.4 0.2
    endloop
  endfacet
  facet normal 1 0 0
    outer loop
      vertex -54.5 -30.4 0
      vertex -54.5 -32.6 0.2
      vertex -54.5 -32.6 0
    endloop
  endfacet
  facet normal 1 -0 0
    outer loop
      vertex -54.5 -36.8 0.2
      vertex -54.5 -34.6 0
      vertex -54.5 -34.6 0.2
    endloop
  endfacet
  facet normal 1 0 0
    outer loop
      vertex -54.5 -34.6 0
      vertex -54.5 -36.8 0.2
      vertex -54.5 -36.8 0
    endloop
  endfacet
  facet normal 1 -0 0
    outer loop
      vertex -54.5 -41 0.2
      vertex -54.5 -38.8 0
      vertex -54.5 -38.8 0.2
    endloop
  endfacet
  facet normal 1 0 0
    outer loop
      vertex -54.5 -38.8 0
      vertex -54.5 -41 0.2
      vertex -54.5 -41 0
    endloop
  endfacet
  facet normal -0 0 1
    outer loop
      vertex -56.5 1 0.4
      vertex -49.5 -1 0.4
      vertex -49.5 1 0.4
    endloop
  endfacet
  facet normal 0 0 1
    outer loop
      vertex -49.5 -1 0.4
      vertex -56.5 1 0.4
      vertex -56.5 -1 0.4
    endloop
  endfacet
  facet normal -1 0 0
    outer loop
      vertex -56.5 43 0
      vertex -56.5 1 0.2
      vertex -56.5 43 0.2
    endloop
  endfacet
  facet normal -1 0 0
    outer loop
      vertex -56.5 1 0.2
      vertex -56.5 -1 0.2
      vertex -56.5 1 0.4
    endloop
  endfacet
  facet normal -1 0 0
    outer loop
      vertex -56.5 43 0
      vertex -56.5 -1 0.2
      vertex -56.5 1 0.2
    endloop
  endfacet
  facet normal -1 0 0
    outer loop
      vertex -56.5 -43 0
      vertex -56.5 -1 0.2
      vertex -56.5 43 0
    endloop
  endfacet
  facet normal -1 -0 0
    outer loop
      vertex -56.5 -1 0.2
      vertex -56.5 -43 0
      vertex -56.5 -43 0.2
    endloop
  endfacet
  facet normal -1 -0 0
    outer loop
      vertex -56.5 1 0.4
      vertex -56.5 -1 0.2
      vertex -56.5 -1 0.4
    endloop
  endfacet
  facet normal 1 -0 0
    outer loop
      vertex -49.5 -1 0.4
      vertex -49.5 1 0.2
      vertex -49.5 1 0.4
    endloop
  endfacet
  facet normal 1 0 0
    outer loop
      vertex -49.5 1 0.2
      vertex -49.5 -1 0.4
      vertex -49.5 -1 0.2
    endloop
  endfacet
  facet normal 0 -1 0
    outer loop
      vertex -56.5 -43 0
      vertex -44.5 -43 0.2
      vertex -56.5 -43 0.2
    endloop
  endfacet
  facet normal 0 -1 -0
    outer loop
      vertex -44.5 -43 0.2
      vertex -56.5 -43 0
      vertex -44.5 -43 0
    endloop
  endfacet
  facet normal 0 1 -0
    outer loop
      vertex -44.5 -41 0
      vertex -54.5 -41 0.2
      vertex -44.5 -41 0.2
    endloop
  endfacet
  facet normal 0 1 0
    outer loop
      vertex -54.5 -41 0.2
      vertex -44.5 -41 0
      vertex -54.5 -41 0
    endloop
  endfacet
  facet normal 1 -0 0
    outer loop
      vertex -44.5 -43 0.2
      vertex -44.5 -41 0
      vertex -44.5 -41 0.2
    endloop
  endfacet
  facet normal 1 0 0
    outer loop
      vertex -44.5 -41 0
      vertex -44.5 -43 0.2
      vertex -44.5 -43 0
    endloop
  endfacet
  facet normal 0 -1 0
    outer loop
      vertex -54.5 -38.8 0
      vertex -44.5 -38.8 0.2
      vertex -54.5 -38.8 0.2
    endloop
  endfacet
  facet normal 0 -1 -0
    outer loop
      vertex -44.5 -38.8 0.2
      vertex -54.5 -38.8 0
      vertex -44.5 -38.8 0
    endloop
  endfacet
  facet normal 0 1 -0
    outer loop
      vertex -44.5 -36.8 0
      vertex -54.5 -36.8 0.2
      vertex -44.5 -36.8 0.2
    endloop
  endfacet
  facet normal 0 1 0
    outer loop
      vertex -54.5 -36.8 0.2
      vertex -44.5 -36.8 0
      vertex -54.5 -36.8 0
    endloop
  endfacet
  facet normal 1 -0 0
    outer loop
      vertex -44.5 -38.8 0.2
      vertex -44.5 -36.8 0
      vertex -44.5 -36.8 0.2
    endloop
  endfacet
  facet normal 1 0 0
    outer loop
      vertex -44.5 -36.8 0
      vertex -44.5 -38.8 0.2
      vertex -44.5 -38.8 0
    endloop
  endfacet
  facet normal 0 -1 0
    outer loop
      vertex -54.5 -34.6 0
      vertex -44.5 -34.6 0.2
      vertex -54.5 -34.6 0.2
    endloop
  endfacet
  facet normal 0 -1 -0
    outer loop
      vertex -44.5 -34.6 0.2
      vertex -54.5 -34.6 0
      vertex -44.5 -34.6 0
    endloop
  endfacet
  facet normal 0 1 -0
    outer loop
      vertex -44.5 -32.6 0
      vertex -54.5 -32.6 0.2
      vertex -44.5 -32.6 0.2
    endloop
  endfacet
  facet normal 0 1 0
    outer loop
      vertex -54.5 -32.6 0.2
      vertex -44.5 -32.6 0
      vertex -54.5 -32.6 0
    endloop
  endfacet
  facet normal 1 -0 0
    outer loop
      vertex -44.5 -34.6 0.2
      vertex -44.5 -32.6 0
      vertex -44.5 -32.6 0.2
    endloop
  endfacet
  facet normal 1 0 0
    outer loop
      vertex -44.5 -32.6 0
      vertex -44.5 -34.6 0.2
      vertex -44.5 -34.6 0
    endloop
  endfacet
  facet normal 0 -1 0
    outer loop
      vertex -54.5 -30.4 0
      vertex -44.5 -30.4 0.2
      vertex -54.5 -30.4 0.2
    endloop
  endfacet
  facet normal 0 -1 -0
    outer loop
      vertex -44.5 -30.4 0.2
      vertex -54.5 -30.4 0
      vertex -44.5 -30.4 0
    endloop
  endfacet
  facet normal 0 1 -0
    outer loop
      vertex -44.5 -28.4 0
      vertex -54.5 -28.4 0.2
      vertex -44.5 -28.4 0.2
    endloop
  endfacet
  facet normal 0 1 0
    outer loop
      vertex -54.5 -28.4 0.2
      vertex -44.5 -28.4 0
      vertex -54.5 -28.4 0
    endloop
  endfacet
  facet normal 1 -0 0
    outer loop
      vertex -44.5 -30.4 0.2
      vertex -44.5 -28.4 0
      vertex -44.5 -28.4 0.2
    endloop
  endfacet
  facet normal 1 0 0
    outer loop
      vertex -44.5 -28.4 0
      vertex -44.5 -30.4 0.2
      vertex -44.5 -30.4 0
    endloop
  endfacet
  facet normal 0 -1 0
    outer loop
      vertex -54.5 -26.2 0
      vertex -44.5 -26.2 0.2
      vertex -54.5 -26.2 0.2
    endloop
  endfacet
  facet normal 0 -1 -0
    outer loop
      vertex -44.5 -26.2 0.2
      vertex -54.5 -26.2 0
      vertex -44.5 -26.2 0
    endloop
  endfacet
  facet normal 0 1 -0
    outer loop
      vertex -44.5 -24.2 0
      vertex -54.5 -24.2 0.2
      vertex -44.5 -24.2 0.2
    endloop
  endfacet
  facet normal 0 1 0
    outer loop
      vertex -54.5 -24.2 0.2
      vertex -44.5 -24.2 0
      vertex -54.5 -24.2 0
    endloop
  endfacet
  facet normal 1 -0 0
    outer loop
      vertex -44.5 -26.2 0.2
      vertex -44.5 -24.2 0
      vertex -44.5 -24.2 0.2
    endloop
  endfacet
  facet normal 1 0 0
    outer loop
      vertex -44.5 -24.2 0
      vertex -44.5 -26.2 0.2
      vertex -44.5 -26.2 0
    endloop
  endfacet
  facet normal 0 -1 0
    outer loop
      vertex -54.5 -22 0
      vertex -44.5 -22 0.2
      vertex -54.5 -22 0.2
    endloop
  endfacet
  facet normal 0 -1 -0
    outer loop
      vertex -44.5 -22 0.2
      vertex -54.5 -22 0
      vertex -44.5 -22 0
    endloop
  endfacet
  facet normal 0 1 -0
    outer loop
      vertex -44.5 -20 0
      vertex -54.5 -20 0.2
      vertex -44.5 -20 0.2
    endloop
  endfacet
  facet normal 0 1 0
    outer loop
      vertex -54.5 -20 0.2
      vertex -44.5 -20 0
      vertex -54.5 -20 0
    endloop
  endfacet
  facet normal 1 -0 0
    outer loop
      vertex -44.5 -22 0.2
      vertex -44.5 -20 0
      vertex -44.5 -20 0.2
    endloop
  endfacet
  facet normal 1 0 0
    outer loop
      vertex -44.5 -20 0
      vertex -44.5 -22 0.2
      vertex -44.5 -22 0
    endloop
  endfacet
  facet normal 0 -1 0
    outer loop
      vertex -54.5 -17.8 0
      vertex -44.5 -17.8 0.2
      vertex -54.5 -17.8 0.2
    endloop
  endfacet
  facet normal 0 -1 -0
    outer loop
      vertex -44.5 -17.8 0.2
      vertex -54.5 -17.8 0
      vertex -44.5 -17.8 0
    endloop
  endfacet
  facet normal 0 1 -0
    outer loop
      vertex -44.5 -15.8 0
      vertex -54.5 -15.8 0.2
      vertex -44.5 -15.8 0.2
    endloop
  endfacet
  facet normal 0 1 0
    outer loop
      vertex -54.5 -15.8 0.2
      vertex -44.5 -15.8 0
      vertex -54.5 -15.8 0
    endloop
  endfacet
  facet normal 1 -0 0
    outer loop
      vertex -44.5 -17.8 0.2
      vertex -44.5 -15.8 0
      vertex -44.5 -15.8 0.2
    endloop
  endfacet
  facet normal 1 0 0
    outer loop
      vertex -44.5 -15.8 0
      vertex -44.5 -17.8 0.2
      vertex -44.5 -17.8 0
    endloop
  endfacet
  facet normal 0 -1 0
    outer loop
      vertex -54.5 -13.6 0
      vertex -44.5 -13.6 0.2
      vertex -54.5 -13.6 0.2
    endloop
  endfacet
  facet normal 0 -1 -0
    outer loop
      vertex -44.5 -13.6 0.2
      vertex -54.5 -13.6 0
      vertex -44.5 -13.6 0
    endloop
  endfacet
  facet normal 0 1 -0
    outer loop
      vertex -44.5 -11.6 0
      vertex -54.5 -11.6 0.2
      vertex -44.5 -11.6 0.2
    endloop
  endfacet
  facet normal 0 1 0
    outer loop
      vertex -54.5 -11.6 0.2
      vertex -44.5 -11.6 0
      vertex -54.5 -11.6 0
    endloop
  endfacet
  facet normal 1 -0 0
    outer loop
      vertex -44.5 -13.6 0.2
      vertex -44.5 -11.6 0
      vertex -44.5 -11.6 0.2
    endloop
  endfacet
  facet normal 1 0 0
    outer loop
      vertex -44.5 -11.6 0
      vertex -44.5 -13.6 0.2
      vertex -44.5 -13.6 0
    endloop
  endfacet
  facet normal 0 -1 0
    outer loop
      vertex -54.5 -9.4 0
      vertex -44.5 -9.4 0.2
      vertex -54.5 -9.4 0.2
    endloop
  endfacet
  facet normal 0 -1 -0
    outer loop
      vertex -44.5 -9.4 0.2
      vertex -54.5 -9.4 0
      vertex -44.5 -9.4 0
    endloop
  endfacet
  facet normal 0 1 -0
    outer loop
      vertex -44.5 -7.4 0
      vertex -54.5 -7.4 0.2
      vertex -44.5 -7.4 0.2
    endloop
  endfacet
  facet normal 0 1 0
    outer loop
      vertex -54.5 -7.4 0.2
      vertex -44.5 -7.4 0
      vertex -54.5 -7.4 0
    endloop
  endfacet
  facet normal 1 -0 0
    outer loop
      vertex -44.5 -9.4 0.2
      vertex -44.5 -7.4 0
      vertex -44.5 -7.4 0.2
    endloop
  endfacet
  facet normal 1 0 0
    outer loop
      vertex -44.5 -7.4 0
      vertex -44.5 -9.4 0.2
      vertex -44.5 -9.4 0
    endloop
  endfacet
  facet normal 0 -1 0
    outer loop
      vertex -54.5 -5.2 0
      vertex -44.5 -5.2 0.2
      vertex -54.5 -5.2 0.2
    endloop
  endfacet
  facet normal 0 -1 -0
    outer loop
      vertex -44.5 -5.2 0.2
      vertex -54.5 -5.2 0
      vertex -44.5 -5.2 0
    endloop
  endfacet
  facet normal 0 1 -0
    outer loop
      vertex -44.5 -3.2 0
      vertex -54.5 -3.2 0.2
      vertex -44.5 -3.2 0.2
    endloop
  endfacet
  facet normal 0 1 0
    outer loop
      vertex -54.5 -3.2 0.2
      vertex -44.5 -3.2 0
      vertex -54.5 -3.2 0
    endloop
  endfacet
  facet normal 1 -0 0
    outer loop
      vertex -44.5 -5.2 0.2
      vertex -44.5 -3.2 0
      vertex -44.5 -3.2 0.2
    endloop
  endfacet
  facet normal 1 0 0
    outer loop
      vertex -44.5 -3.2 0
      vertex -44.5 -5.2 0.2
      vertex -44.5 -5.2 0
    endloop
  endfacet
  facet normal 0 -1 0
    outer loop
      vertex -54.5 3.2 0
      vertex -44.5 3.2 0.2
      vertex -54.5 3.2 0.2
    endloop
  endfacet
  facet normal 0 -1 -0
    outer loop
      vertex -44.5 3.2 0.2
      vertex -54.5 3.2 0
      vertex -44.5 3.2 0
    endloop
  endfacet
  facet normal 0 1 -0
    outer loop
      vertex -44.5 5.2 0
      vertex -54.5 5.2 0.2
      vertex -44.5 5.2 0.2
    endloop
  endfacet
  facet normal 0 1 0
    outer loop
      vertex -54.5 5.2 0.2
      vertex -44.5 5.2 0
      vertex -54.5 5.2 0
    endloop
  endfacet
  facet normal 1 -0 0
    outer loop
      vertex -44.5 3.2 0.2
      vertex -44.5 5.2 0
      vertex -44.5 5.2 0.2
    endloop
  endfacet
  facet normal 1 0 0
    outer loop
      vertex -44.5 5.2 0
      vertex -44.5 3.2 0.2
      vertex -44.5 3.2 0
    endloop
  endfacet
  facet normal 0 -1 0
    outer loop
      vertex -54.5 7.4 0
      vertex -44.5 7.4 0.2
      vertex -54.5 7.4 0.2
    endloop
  endfacet
  facet normal 0 -1 -0
    outer loop
      vertex -44.5 7.4 0.2
      vertex -54.5 7.4 0
      vertex -44.5 7.4 0
    endloop
  endfacet
  facet normal 0 1 -0
    outer loop
      vertex -44.5 9.4 0
      vertex -54.5 9.4 0.2
      vertex -44.5 9.4 0.2
    endloop
  endfacet
  facet normal 0 1 0
    outer loop
      vertex -54.5 9.4 0.2
      vertex -44.5 9.4 0
      vertex -54.5 9.4 0
    endloop
  endfacet
  facet normal 1 -0 0
    outer loop
      vertex -44.5 7.4 0.2
      vertex -44.5 9.4 0
      vertex -44.5 9.4 0.2
    endloop
  endfacet
  facet normal 1 0 0
    outer loop
      vertex -44.5 9.4 0
      vertex -44.5 7.4 0.2
      vertex -44.5 7.4 0
    endloop
  endfacet
  facet normal 0 -1 0
    outer loop
      vertex -54.5 11.6 0
      vertex -44.5 11.6 0.2
      vertex -54.5 11.6 0.2
    endloop
  endfacet
  facet normal 0 -1 -0
    outer loop
      vertex -44.5 11.6 0.2
      vertex -54.5 11.6 0
      vertex -44.5 11.6 0
    endloop
  endfacet
  facet normal 0 1 -0
    outer loop
      vertex -44.5 13.6 0
      vertex -54.5 13.6 0.2
      vertex -44.5 13.6 0.2
    endloop
  endfacet
  facet normal 0 1 0
    outer loop
      vertex -54.5 13.6 0.2
      vertex -44.5 13.6 0
      vertex -54.5 13.6 0
    endloop
  endfacet
  facet normal 1 -0 0
    outer loop
      vertex -44.5 11.6 0.2
      vertex -44.5 13.6 0
      vertex -44.5 13.6 0.2
    endloop
  endfacet
  facet normal 1 0 0
    outer loop
      vertex -44.5 13.6 0
      vertex -44.5 11.6 0.2
      vertex -44.5 11.6 0
    endloop
  endfacet
  facet normal 0 -1 0
    outer loop
      vertex -54.5 15.8 0
      vertex -44.5 15.8 0.2
      vertex -54.5 15.8 0.2
    endloop
  endfacet
  facet normal 0 -1 -0
    outer loop
      vertex -44.5 15.8 0.2
      vertex -54.5 15.8 0
      vertex -44.5 15.8 0
    endloop
  endfacet
  facet normal 0 1 -0
    outer loop
      vertex -44.5 17.8 0
      vertex -54.5 17.8 0.2
      vertex -44.5 17.8 0.2
    endloop
  endfacet
  facet normal 0 1 0
    outer loop
      vertex -54.5 17.8 0.2
      vertex -44.5 17.8 0
      vertex -54.5 17.8 0
    endloop
  endfacet
  facet normal 1 -0 0
    outer loop
      vertex -44.5 15.8 0.2
      vertex -44.5 17.8 0
      vertex -44.5 17.8 0.2
    endloop
  endfacet
  facet normal 1 0 0
    outer loop
      vertex -44.5 17.8 0
      vertex -44.5 15.8 0.2
      vertex -44.5 15.8 0
    endloop
  endfacet
  facet normal 0 -1 0
    outer loop
      vertex -54.5 20 0
      vertex -44.5 20 0.2
      vertex -54.5 20 0.2
    endloop
  endfacet
  facet normal 0 -1 -0
    outer loop
      vertex -44.5 20 0.2
      vertex -54.5 20 0
      vertex -44.5 20 0
    endloop
  endfacet
  facet normal 0 1 -0
    outer loop
      vertex -44.5 22 0
      vertex -54.5 22 0.2
      vertex -44.5 22 0.2
    endloop
  endfacet
  facet normal 0 1 0
    outer loop
      vertex -54.5 22 0.2
      vertex -44.5 22 0
      vertex -54.5 22 0
    endloop
  endfacet
  facet normal 1 -0 0
    outer loop
      vertex -44.5 20 0.2
      vertex -44.5 22 0
      vertex -44.5 22 0.2
    endloop
  endfacet
  facet normal 1 0 0
    outer loop
      vertex -44.5 22 0
      vertex -44.5 20 0.2
      vertex -44.5 20 0
    endloop
  endfacet
  facet normal 0 -1 0
    outer loop
      vertex -54.5 24.2 0
      vertex -44.5 24.2 0.2
      vertex -54.5 24.2 0.2
    endloop
  endfacet
  facet normal 0 -1 -0
    outer loop
      vertex -44.5 24.2 0.2
      vertex -54.5 24.2 0
      vertex -44.5 24.2 0
    endloop
  endfacet
  facet normal 0 1 -0
    outer loop
      vertex -44.5 26.2 0
      vertex -54.5 26.2 0.2
      vertex -44.5 26.2 0.2
    endloop
  endfacet
  facet normal 0 1 0
    outer loop
      vertex -54.5 26.2 0.2
      vertex -44.5 26.2 0
      vertex -54.5 26.2 0
    endloop
  endfacet
  facet normal 1 -0 0
    outer loop
      vertex -44.5 24.2 0.2
      vertex -44.5 26.2 0
      vertex -44.5 26.2 0.2
    endloop
  endfacet
  facet normal 1 0 0
    outer loop
      vertex -44.5 26.2 0
      vertex -44.5 24.2 0.2
      vertex -44.5 24.2 0
    endloop
  endfacet
  facet normal 0 -1 0
    outer loop
      vertex -54.5 28.4 0
      vertex -44.5 28.4 0.2
      vertex -54.5 28.4 0.2
    endloop
  endfacet
  facet normal 0 -1 -0
    outer loop
      vertex -44.5 28.4 0.2
      vertex -54.5 28.4 0
      vertex -44.5 28.4 0
    endloop
  endfacet
  facet normal 0 1 -0
    outer loop
      vertex -44.5 30.4 0
      vertex -54.5 30.4 0.2
      vertex -44.5 30.4 0.2
    endloop
  endfacet
  facet normal 0 1 0
    outer loop
      vertex -54.5 30.4 0.2
      vertex -44.5 30.4 0
      vertex -54.5 30.4 0
    endloop
  endfacet
  facet normal 1 -0 0
    outer loop
      vertex -44.5 28.4 0.2
      vertex -44.5 30.4 0
      vertex -44.5 30.4 0.2
    endloop
  endfacet
  facet normal 1 0 0
    outer loop
      vertex -44.5 30.4 0
      vertex -44.5 28.4 0.2
      vertex -44.5 28.4 0
    endloop
  endfacet
  facet normal 0 -1 0
    outer loop
      vertex -54.5 32.6 0
      vertex -44.5 32.6 0.2
      vertex -54.5 32.6 0.2
    endloop
  endfacet
  facet normal 0 -1 -0
    outer loop
      vertex -44.5 32.6 0.2
      vertex -54.5 32.6 0
      vertex -44.5 32.6 0
    endloop
  endfacet
  facet normal 0 1 -0
    outer loop
      vertex -44.5 34.6 0
      vertex -54.5 34.6 0.2
      vertex -44.5 34.6 0.2
    endloop
  endfacet
  facet normal 0 1 0
    outer loop
      vertex -54.5 34.6 0.2
      vertex -44.5 34.6 0
      vertex -54.5 34.6 0
    endloop
  endfacet
  facet normal 1 -0 0
    outer loop
      vertex -44.5 32.6 0.2
      vertex -44.5 34.6 0
      vertex -44.5 34.6 0.2
    endloop
  endfacet
  facet normal 1 0 0
    outer loop
      vertex -44.5 34.6 0
      vertex -44.5 32.6 0.2
      vertex -44.5 32.6 0
    endloop
  endfacet
  facet normal 0 -1 0
    outer loop
      vertex -54.5 36.8 0
      vertex -44.5 36.8 0.2
      vertex -54.5 36.8 0.2
    endloop
  endfacet
  facet normal 0 -1 -0
    outer loop
      vertex -44.5 36.8 0.2
      vertex -54.5 36.8 0
      vertex -44.5 36.8 0
    endloop
  endfacet
  facet normal 0 1 -0
    outer loop
      vertex -44.5 38.8 0
      vertex -54.5 38.8 0.2
      vertex -44.5 38.8 0.2
    endloop
  endfacet
  facet normal 0 1 0
    outer loop
      vertex -54.5 38.8 0.2
      vertex -44.5 38.8 0
      vertex -54.5 38.8 0
    endloop
  endfacet
  facet normal 1 -0 0
    outer loop
      vertex -44.5 36.8 0.2
      vertex -44.5 38.8 0
      vertex -44.5 38.8 0.2
    endloop
  endfacet
  facet normal 1 0 0
    outer loop
      vertex -44.5 38.8 0
      vertex -44.5 36.8 0.2
      vertex -44.5 36.8 0
    endloop
  endfacet
  facet normal 0 -1 0
    outer loop
      vertex -54.5 41 0
      vertex -44.5 41 0.2
      vertex -54.5 41 0.2
    endloop
  endfacet
  facet normal 0 -1 -0
    outer loop
      vertex -44.5 41 0.2
      vertex -54.5 41 0
      vertex -44.5 41 0
    endloop
  endfacet
  facet normal 0 1 -0
    outer loop
      vertex -44.5 43 0
      vertex -56.5 43 0.2
      vertex -44.5 43 0.2
    endloop
  endfacet
  facet normal 0 1 0
    outer loop
      vertex -56.5 43 0.2
      vertex -44.5 43 0
      vertex -56.5 43 0
    endloop
  endfacet
  facet normal 1 -0 0
    outer loop
      vertex -44.5 41 0.2
      vertex -44.5 43 0
      vertex -44.5 43 0.2
    endloop
  endfacet
  facet normal 1 0 0
    outer loop
      vertex -44.5 43 0
      vertex -44.5 41 0.2
      vertex -44.5 41 0
    endloop
  endfacet
endsolid OpenSCAD_Model
