solid OpenSCAD_Model
  facet normal -1 0 0
    outer loop
      vertex 7 -30 0
      vertex 7 -35 0.2
      vertex 7 -30 0.2
    endloop
  endfacet
  facet normal -1 0 0
    outer loop
      vertex 7 -40 0
      vertex 7 -35 0.2
      vertex 7 -30 0
    endloop
  endfacet
  facet normal -1 0 0
    outer loop
      vertex 7 -40 0.2
      vertex 7 -35 0.2
      vertex 7 -40 0
    endloop
  endfacet
  facet normal -1 0 0
    outer loop
      vertex 7 -35 0.2
      vertex 7 -40 0.2
      vertex 7 -35 0.4
    endloop
  endfacet
  facet normal -1 0 0
    outer loop
      vertex 7 -42 0.4
      vertex 7 -40 0.2
      vertex 7 -42 0.2
    endloop
  endfacet
  facet normal -1 0 0
    outer loop
      vertex 7 -40 0.2
      vertex 7 -42 0.4
      vertex 7 -35 0.4
    endloop
  endfacet
  facet normal 0 0 1
    outer loop
      vertex 13 -30 0.2
      vertex 11 -30 0.2
      vertex 13 -40 0.2
    endloop
  endfacet
  facet normal 0 0 1
    outer loop
      vertex 17 -30 0.2
      vertex 15 -30 0.2
      vertex 17 -40 0.2
    endloop
  endfacet
  facet normal 0 0 1
    outer loop
      vertex 21 -30 0.2
      vertex 19 -30 0.2
      vertex 21 -40 0.2
    endloop
  endfacet
  facet normal 0 0 1
    outer loop
      vertex 25 -30 0.2
      vertex 23 -30 0.2
      vertex 25 -40 0.2
    endloop
  endfacet
  facet normal 0 0 1
    outer loop
      vertex 29 -30 0.2
      vertex 27 -30 0.2
      vertex 29 -40 0.2
    endloop
  endfacet
  facet normal 0 0 1
    outer loop
      vertex 33 -30 0.2
      vertex 31 -30 0.2
      vertex 33 -40 0.2
    endloop
  endfacet
  facet normal 0 0 1
    outer loop
      vertex 37 -30 0.2
      vertex 35 -30 0.2
      vertex 37 -40 0.2
    endloop
  endfacet
  facet normal 0 0 1
    outer loop
      vertex 41 -30 0.2
      vertex 39 -30 0.2
      vertex 41 -40 0.2
    endloop
  endfacet
  facet normal 0 0 1
    outer loop
      vertex 45 -30 0.2
      vertex 43 -30 0.2
      vertex 45 -40 0.2
    endloop
  endfacet
  facet normal 0 0 1
    outer loop
      vertex 47 -40 0.2
      vertex 49 -30 0.2
      vertex 47 -30 0.2
    endloop
  endfacet
  facet normal 0 0 1
    outer loop
      vertex 49 -30 0.2
      vertex 47 -40 0.2
      vertex 49 -42 0.2
    endloop
  endfacet
  facet normal -0 0 1
    outer loop
      vertex 45 -40 0.2
      vertex 49 -42 0.2
      vertex 47 -40 0.2
    endloop
  endfacet
  facet normal 0 0 1
    outer loop
      vertex 43 -40 0.2
      vertex 45 -40 0.2
      vertex 43 -30 0.2
    endloop
  endfacet
  facet normal -0 0 1
    outer loop
      vertex 43 -40 0.2
      vertex 49 -42 0.2
      vertex 45 -40 0.2
    endloop
  endfacet
  facet normal -0 0 1
    outer loop
      vertex 41 -40 0.2
      vertex 49 -42 0.2
      vertex 43 -40 0.2
    endloop
  endfacet
  facet normal 0 0 1
    outer loop
      vertex 39 -40 0.2
      vertex 41 -40 0.2
      vertex 39 -30 0.2
    endloop
  endfacet
  facet normal -0 0 1
    outer loop
      vertex 39 -40 0.2
      vertex 49 -42 0.2
      vertex 41 -40 0.2
    endloop
  endfacet
  facet normal -0 0 1
    outer loop
      vertex 37 -40 0.2
      vertex 49 -42 0.2
      vertex 39 -40 0.2
    endloop
  endfacet
  facet normal 0 0 1
    outer loop
      vertex 35 -40 0.2
      vertex 37 -40 0.2
      vertex 35 -30 0.2
    endloop
  endfacet
  facet normal -0 0 1
    outer loop
      vertex 35 -40 0.2
      vertex 49 -42 0.2
      vertex 37 -40 0.2
    endloop
  endfacet
  facet normal -0 0 1
    outer loop
      vertex 33 -40 0.2
      vertex 49 -42 0.2
      vertex 35 -40 0.2
    endloop
  endfacet
  facet normal 0 0 1
    outer loop
      vertex 31 -40 0.2
      vertex 33 -40 0.2
      vertex 31 -30 0.2
    endloop
  endfacet
  facet normal -0 0 1
    outer loop
      vertex 31 -40 0.2
      vertex 49 -42 0.2
      vertex 33 -40 0.2
    endloop
  endfacet
  facet normal -0 0 1
    outer loop
      vertex 29 -40 0.2
      vertex 49 -42 0.2
      vertex 31 -40 0.2
    endloop
  endfacet
  facet normal 0 0 1
    outer loop
      vertex 27 -40 0.2
      vertex 29 -40 0.2
      vertex 27 -30 0.2
    endloop
  endfacet
  facet normal 0 0 1
    outer loop
      vertex 9 -42 0.2
      vertex 29 -40 0.2
      vertex 27 -40 0.2
    endloop
  endfacet
  facet normal 0 0 1
    outer loop
      vertex 9 -42 0.2
      vertex 27 -40 0.2
      vertex 25 -40 0.2
    endloop
  endfacet
  facet normal 0 0 1
    outer loop
      vertex 23 -40 0.2
      vertex 25 -40 0.2
      vertex 23 -30 0.2
    endloop
  endfacet
  facet normal 0 0 1
    outer loop
      vertex 9 -42 0.2
      vertex 25 -40 0.2
      vertex 23 -40 0.2
    endloop
  endfacet
  facet normal 0 0 1
    outer loop
      vertex 9 -42 0.2
      vertex 23 -40 0.2
      vertex 21 -40 0.2
    endloop
  endfacet
  facet normal 0 0 1
    outer loop
      vertex 19 -40 0.2
      vertex 21 -40 0.2
      vertex 19 -30 0.2
    endloop
  endfacet
  facet normal 0 0 1
    outer loop
      vertex 9 -42 0.2
      vertex 21 -40 0.2
      vertex 19 -40 0.2
    endloop
  endfacet
  facet normal 0 0 1
    outer loop
      vertex 9 -42 0.2
      vertex 19 -40 0.2
      vertex 17 -40 0.2
    endloop
  endfacet
  facet normal 0 0 1
    outer loop
      vertex 15 -40 0.2
      vertex 17 -40 0.2
      vertex 15 -30 0.2
    endloop
  endfacet
  facet normal 0 0 1
    outer loop
      vertex 9 -42 0.2
      vertex 17 -40 0.2
      vertex 15 -40 0.2
    endloop
  endfacet
  facet normal 0 0 1
    outer loop
      vertex 9 -42 0.2
      vertex 15 -40 0.2
      vertex 13 -40 0.2
    endloop
  endfacet
  facet normal 0 0 1
    outer loop
      vertex 11 -40 0.2
      vertex 13 -40 0.2
      vertex 11 -30 0.2
    endloop
  endfacet
  facet normal 0 0 1
    outer loop
      vertex 9 -42 0.2
      vertex 13 -40 0.2
      vertex 11 -40 0.2
    endloop
  endfacet
  facet normal 0 0 1
    outer loop
      vertex 9 -42 0.2
      vertex 11 -40 0.2
      vertex 9 -40 0.2
    endloop
  endfacet
  facet normal 0 0 1
    outer loop
      vertex 29 -40 0.2
      vertex 9 -42 0.2
      vertex 49 -42 0.2
    endloop
  endfacet
  facet normal 0 0 1
    outer loop
      vertex -31 -30 0.2
      vertex -33 -30 0.2
      vertex -31 -40 0.2
    endloop
  endfacet
  facet normal 0 0 1
    outer loop
      vertex -27 -30 0.2
      vertex -29 -30 0.2
      vertex -27 -40 0.2
    endloop
  endfacet
  facet normal 0 0 1
    outer loop
      vertex -23 -30 0.2
      vertex -25 -30 0.2
      vertex -23 -40 0.2
    endloop
  endfacet
  facet normal 0 0 1
    outer loop
      vertex -19 -30 0.2
      vertex -21 -30 0.2
      vertex -19 -40 0.2
    endloop
  endfacet
  facet normal 0 0 1
    outer loop
      vertex -15 -30 0.2
      vertex -17 -30 0.2
      vertex -15 -40 0.2
    endloop
  endfacet
  facet normal 0 0 1
    outer loop
      vertex -11 -30 0.2
      vertex -13 -30 0.2
      vertex -11 -40 0.2
    endloop
  endfacet
  facet normal 0 0 1
    outer loop
      vertex -7 -30 0.2
      vertex -9 -30 0.2
      vertex -7 -40 0.2
    endloop
  endfacet
  facet normal 0 0 1
    outer loop
      vertex -3 -30 0.2
      vertex -5 -30 0.2
      vertex -3 -40 0.2
    endloop
  endfacet
  facet normal 0 0 1
    outer loop
      vertex 1 -30 0.2
      vertex -1 -30 0.2
      vertex 1 -40 0.2
    endloop
  endfacet
  facet normal 0 0 1
    outer loop
      vertex 5 -30 0.2
      vertex 3 -30 0.2
      vertex 5 -40 0.2
    endloop
  endfacet
  facet normal -0 0 1
    outer loop
      vertex 5 -40 0.2
      vertex 7 -42 0.2
      vertex 7 -40 0.2
    endloop
  endfacet
  facet normal 0 0 1
    outer loop
      vertex 3 -40 0.2
      vertex 5 -40 0.2
      vertex 3 -30 0.2
    endloop
  endfacet
  facet normal -0 0 1
    outer loop
      vertex 3 -40 0.2
      vertex 7 -42 0.2
      vertex 5 -40 0.2
    endloop
  endfacet
  facet normal -0 0 1
    outer loop
      vertex 1 -40 0.2
      vertex 7 -42 0.2
      vertex 3 -40 0.2
    endloop
  endfacet
  facet normal 0 0 1
    outer loop
      vertex -1 -40 0.2
      vertex 1 -40 0.2
      vertex -1 -30 0.2
    endloop
  endfacet
  facet normal -0 0 1
    outer loop
      vertex -1 -40 0.2
      vertex 7 -42 0.2
      vertex 1 -40 0.2
    endloop
  endfacet
  facet normal -0 0 1
    outer loop
      vertex -3 -40 0.2
      vertex 7 -42 0.2
      vertex -1 -40 0.2
    endloop
  endfacet
  facet normal 0 0 1
    outer loop
      vertex -5 -40 0.2
      vertex -3 -40 0.2
      vertex -5 -30 0.2
    endloop
  endfacet
  facet normal -0 0 1
    outer loop
      vertex -5 -40 0.2
      vertex 7 -42 0.2
      vertex -3 -40 0.2
    endloop
  endfacet
  facet normal -0 0 1
    outer loop
      vertex -7 -40 0.2
      vertex 7 -42 0.2
      vertex -5 -40 0.2
    endloop
  endfacet
  facet normal 0 0 1
    outer loop
      vertex -9 -40 0.2
      vertex -7 -40 0.2
      vertex -9 -30 0.2
    endloop
  endfacet
  facet normal -0 0 1
    outer loop
      vertex -9 -40 0.2
      vertex 7 -42 0.2
      vertex -7 -40 0.2
    endloop
  endfacet
  facet normal -0 0 1
    outer loop
      vertex -11 -40 0.2
      vertex 7 -42 0.2
      vertex -9 -40 0.2
    endloop
  endfacet
  facet normal 0 0 1
    outer loop
      vertex -13 -40 0.2
      vertex -11 -40 0.2
      vertex -13 -30 0.2
    endloop
  endfacet
  facet normal -0 0 1
    outer loop
      vertex -13 -40 0.2
      vertex 7 -42 0.2
      vertex -11 -40 0.2
    endloop
  endfacet
  facet normal 0 0 1
    outer loop
      vertex -33 -42 0.2
      vertex -13 -40 0.2
      vertex -15 -40 0.2
    endloop
  endfacet
  facet normal 0 0 1
    outer loop
      vertex -17 -40 0.2
      vertex -15 -40 0.2
      vertex -17 -30 0.2
    endloop
  endfacet
  facet normal 0 0 1
    outer loop
      vertex -33 -42 0.2
      vertex -15 -40 0.2
      vertex -17 -40 0.2
    endloop
  endfacet
  facet normal 0 0 1
    outer loop
      vertex -33 -42 0.2
      vertex -17 -40 0.2
      vertex -19 -40 0.2
    endloop
  endfacet
  facet normal 0 0 1
    outer loop
      vertex -21 -40 0.2
      vertex -19 -40 0.2
      vertex -21 -30 0.2
    endloop
  endfacet
  facet normal 0 0 1
    outer loop
      vertex -33 -42 0.2
      vertex -19 -40 0.2
      vertex -21 -40 0.2
    endloop
  endfacet
  facet normal 0 0 1
    outer loop
      vertex -33 -42 0.2
      vertex -21 -40 0.2
      vertex -23 -40 0.2
    endloop
  endfacet
  facet normal 0 0 1
    outer loop
      vertex -25 -40 0.2
      vertex -23 -40 0.2
      vertex -25 -30 0.2
    endloop
  endfacet
  facet normal 0 0 1
    outer loop
      vertex -33 -42 0.2
      vertex -23 -40 0.2
      vertex -25 -40 0.2
    endloop
  endfacet
  facet normal 0 0 1
    outer loop
      vertex -33 -42 0.2
      vertex -25 -40 0.2
      vertex -27 -40 0.2
    endloop
  endfacet
  facet normal 0 0 1
    outer loop
      vertex -29 -40 0.2
      vertex -27 -40 0.2
      vertex -29 -30 0.2
    endloop
  endfacet
  facet normal 0 0 1
    outer loop
      vertex -33 -42 0.2
      vertex -27 -40 0.2
      vertex -29 -40 0.2
    endloop
  endfacet
  facet normal 0 0 1
    outer loop
      vertex -33 -42 0.2
      vertex -29 -40 0.2
      vertex -31 -40 0.2
    endloop
  endfacet
  facet normal 0 0 1
    outer loop
      vertex -13 -40 0.2
      vertex -33 -42 0.2
      vertex 7 -42 0.2
    endloop
  endfacet
  facet normal 0 0 1
    outer loop
      vertex -33 -42 0.2
      vertex -31 -40 0.2
      vertex -33 -30 0.2
    endloop
  endfacet
  facet normal -0 0 1
    outer loop
      vertex 7 -30 0.2
      vertex 9 -35 0.2
      vertex 9 -30 0.2
    endloop
  endfacet
  facet normal 0 0 1
    outer loop
      vertex 9 -35 0.2
      vertex 7 -30 0.2
      vertex 7 -35 0.2
    endloop
  endfacet
  facet normal 1 0 0
    outer loop
      vertex 9 -35 0.4
      vertex 9 -40 0.2
      vertex 9 -35 0.2
    endloop
  endfacet
  facet normal 1 -0 0
    outer loop
      vertex 9 -42 0.4
      vertex 9 -40 0.2
      vertex 9 -35 0.4
    endloop
  endfacet
  facet normal 1 0 0
    outer loop
      vertex 9 -40 0.2
      vertex 9 -42 0.4
      vertex 9 -42 0.2
    endloop
  endfacet
  facet normal 1 -0 0
    outer loop
      vertex 9 -35 0.2
      vertex 9 -30 0
      vertex 9 -30 0.2
    endloop
  endfacet
  facet normal 1 0 0
    outer loop
      vertex 9 -40 0
      vertex 9 -35 0.2
      vertex 9 -40 0.2
    endloop
  endfacet
  facet normal 1 0 0
    outer loop
      vertex 9 -35 0.2
      vertex 9 -40 0
      vertex 9 -30 0
    endloop
  endfacet
  facet normal 0 1 -0
    outer loop
      vertex 9 -30 0
      vertex 7 -30 0.2
      vertex 9 -30 0.2
    endloop
  endfacet
  facet normal 0 1 0
    outer loop
      vertex 7 -30 0.2
      vertex 9 -30 0
      vertex 7 -30 0
    endloop
  endfacet
  facet normal 0 0 -1
    outer loop
      vertex 49 -42 0
      vertex 47 -40 0
      vertex 49 -30 0
    endloop
  endfacet
  facet normal 0 0 -1
    outer loop
      vertex 49 -42 0
      vertex 45 -40 0
      vertex 47 -40 0
    endloop
  endfacet
  facet normal 0 0 -1
    outer loop
      vertex 45 -40 0
      vertex 43 -40 0
      vertex 45 -30 0
    endloop
  endfacet
  facet normal 0 0 -1
    outer loop
      vertex 49 -42 0
      vertex 43 -40 0
      vertex 45 -40 0
    endloop
  endfacet
  facet normal 0 0 -1
    outer loop
      vertex 49 -42 0
      vertex 41 -40 0
      vertex 43 -40 0
    endloop
  endfacet
  facet normal 0 0 -1
    outer loop
      vertex 41 -40 0
      vertex 39 -40 0
      vertex 41 -30 0
    endloop
  endfacet
  facet normal 0 0 -1
    outer loop
      vertex 49 -42 0
      vertex 39 -40 0
      vertex 41 -40 0
    endloop
  endfacet
  facet normal 0 0 -1
    outer loop
      vertex 49 -42 0
      vertex 37 -40 0
      vertex 39 -40 0
    endloop
  endfacet
  facet normal 0 0 -1
    outer loop
      vertex 37 -40 0
      vertex 35 -40 0
      vertex 37 -30 0
    endloop
  endfacet
  facet normal 0 0 -1
    outer loop
      vertex 49 -42 0
      vertex 35 -40 0
      vertex 37 -40 0
    endloop
  endfacet
  facet normal 0 0 -1
    outer loop
      vertex 49 -42 0
      vertex 33 -40 0
      vertex 35 -40 0
    endloop
  endfacet
  facet normal 0 0 -1
    outer loop
      vertex 33 -40 0
      vertex 31 -40 0
      vertex 33 -30 0
    endloop
  endfacet
  facet normal 0 0 -1
    outer loop
      vertex 49 -42 0
      vertex 31 -40 0
      vertex 33 -40 0
    endloop
  endfacet
  facet normal 0 0 -1
    outer loop
      vertex 49 -42 0
      vertex 29 -40 0
      vertex 31 -40 0
    endloop
  endfacet
  facet normal 0 0 -1
    outer loop
      vertex 29 -40 0
      vertex 27 -40 0
      vertex 29 -30 0
    endloop
  endfacet
  facet normal 0 0 -1
    outer loop
      vertex 49 -42 0
      vertex 27 -40 0
      vertex 29 -40 0
    endloop
  endfacet
  facet normal 0 0 -1
    outer loop
      vertex 49 -42 0
      vertex 25 -40 0
      vertex 27 -40 0
    endloop
  endfacet
  facet normal 0 0 -1
    outer loop
      vertex 25 -40 0
      vertex 23 -40 0
      vertex 25 -30 0
    endloop
  endfacet
  facet normal 0 0 -1
    outer loop
      vertex 49 -42 0
      vertex 23 -40 0
      vertex 25 -40 0
    endloop
  endfacet
  facet normal 0 0 -1
    outer loop
      vertex 49 -42 0
      vertex 21 -40 0
      vertex 23 -40 0
    endloop
  endfacet
  facet normal 0 0 -1
    outer loop
      vertex 21 -40 0
      vertex 19 -40 0
      vertex 21 -30 0
    endloop
  endfacet
  facet normal 0 0 -1
    outer loop
      vertex 49 -42 0
      vertex 19 -40 0
      vertex 21 -40 0
    endloop
  endfacet
  facet normal 0 0 -1
    outer loop
      vertex 49 -42 0
      vertex 17 -40 0
      vertex 19 -40 0
    endloop
  endfacet
  facet normal 0 0 -1
    outer loop
      vertex 17 -40 0
      vertex 15 -40 0
      vertex 17 -30 0
    endloop
  endfacet
  facet normal 0 0 -1
    outer loop
      vertex 49 -42 0
      vertex 15 -40 0
      vertex 17 -40 0
    endloop
  endfacet
  facet normal 0 0 -1
    outer loop
      vertex 49 -42 0
      vertex 13 -40 0
      vertex 15 -40 0
    endloop
  endfacet
  facet normal 0 0 -1
    outer loop
      vertex 13 -40 0
      vertex 11 -40 0
      vertex 13 -30 0
    endloop
  endfacet
  facet normal 0 0 -1
    outer loop
      vertex 49 -42 0
      vertex 11 -40 0
      vertex 13 -40 0
    endloop
  endfacet
  facet normal 0 0 -1
    outer loop
      vertex 49 -42 0
      vertex 9 -40 0
      vertex 11 -40 0
    endloop
  endfacet
  facet normal 0 0 -1
    outer loop
      vertex 9 -40 0
      vertex 7 -40 0
      vertex 9 -30 0
    endloop
  endfacet
  facet normal 0 0 -1
    outer loop
      vertex 49 -42 0
      vertex 7 -40 0
      vertex 9 -40 0
    endloop
  endfacet
  facet normal 0 0 -1
    outer loop
      vertex 49 -42 0
      vertex 5 -40 0
      vertex 7 -40 0
    endloop
  endfacet
  facet normal 0 0 -1
    outer loop
      vertex 5 -40 0
      vertex 3 -40 0
      vertex 5 -30 0
    endloop
  endfacet
  facet normal 0 0 -1
    outer loop
      vertex -33 -42 0
      vertex 5 -40 0
      vertex 49 -42 0
    endloop
  endfacet
  facet normal -0 0 -1
    outer loop
      vertex 5 -40 0
      vertex -33 -42 0
      vertex 3 -40 0
    endloop
  endfacet
  facet normal 0 0 -1
    outer loop
      vertex 1 -40 0
      vertex -1 -40 0
      vertex 1 -30 0
    endloop
  endfacet
  facet normal -0 0 -1
    outer loop
      vertex 3 -40 0
      vertex -33 -42 0
      vertex 1 -40 0
    endloop
  endfacet
  facet normal -0 0 -1
    outer loop
      vertex 1 -40 0
      vertex -33 -42 0
      vertex -1 -40 0
    endloop
  endfacet
  facet normal 0 0 -1
    outer loop
      vertex -3 -40 0
      vertex -5 -40 0
      vertex -3 -30 0
    endloop
  endfacet
  facet normal -0 0 -1
    outer loop
      vertex -1 -40 0
      vertex -33 -42 0
      vertex -3 -40 0
    endloop
  endfacet
  facet normal -0 0 -1
    outer loop
      vertex -3 -40 0
      vertex -33 -42 0
      vertex -5 -40 0
    endloop
  endfacet
  facet normal 0 0 -1
    outer loop
      vertex -7 -40 0
      vertex -9 -40 0
      vertex -7 -30 0
    endloop
  endfacet
  facet normal -0 0 -1
    outer loop
      vertex -5 -40 0
      vertex -33 -42 0
      vertex -7 -40 0
    endloop
  endfacet
  facet normal -0 0 -1
    outer loop
      vertex -7 -40 0
      vertex -33 -42 0
      vertex -9 -40 0
    endloop
  endfacet
  facet normal 0 0 -1
    outer loop
      vertex -11 -40 0
      vertex -13 -40 0
      vertex -11 -30 0
    endloop
  endfacet
  facet normal -0 0 -1
    outer loop
      vertex -9 -40 0
      vertex -33 -42 0
      vertex -11 -40 0
    endloop
  endfacet
  facet normal -0 0 -1
    outer loop
      vertex -11 -40 0
      vertex -33 -42 0
      vertex -13 -40 0
    endloop
  endfacet
  facet normal 0 0 -1
    outer loop
      vertex -15 -40 0
      vertex -17 -40 0
      vertex -15 -30 0
    endloop
  endfacet
  facet normal -0 0 -1
    outer loop
      vertex -13 -40 0
      vertex -33 -42 0
      vertex -15 -40 0
    endloop
  endfacet
  facet normal -0 0 -1
    outer loop
      vertex -15 -40 0
      vertex -33 -42 0
      vertex -17 -40 0
    endloop
  endfacet
  facet normal 0 0 -1
    outer loop
      vertex -19 -40 0
      vertex -21 -40 0
      vertex -19 -30 0
    endloop
  endfacet
  facet normal -0 0 -1
    outer loop
      vertex -17 -40 0
      vertex -33 -42 0
      vertex -19 -40 0
    endloop
  endfacet
  facet normal -0 0 -1
    outer loop
      vertex -19 -40 0
      vertex -33 -42 0
      vertex -21 -40 0
    endloop
  endfacet
  facet normal 0 0 -1
    outer loop
      vertex -23 -40 0
      vertex -25 -40 0
      vertex -23 -30 0
    endloop
  endfacet
  facet normal -0 0 -1
    outer loop
      vertex -21 -40 0
      vertex -33 -42 0
      vertex -23 -40 0
    endloop
  endfacet
  facet normal -0 0 -1
    outer loop
      vertex -23 -40 0
      vertex -33 -42 0
      vertex -25 -40 0
    endloop
  endfacet
  facet normal 0 0 -1
    outer loop
      vertex -27 -40 0
      vertex -29 -40 0
      vertex -27 -30 0
    endloop
  endfacet
  facet normal -0 0 -1
    outer loop
      vertex -25 -40 0
      vertex -33 -42 0
      vertex -27 -40 0
    endloop
  endfacet
  facet normal -0 0 -1
    outer loop
      vertex -27 -40 0
      vertex -33 -42 0
      vertex -29 -40 0
    endloop
  endfacet
  facet normal -0 0 -1
    outer loop
      vertex -29 -40 0
      vertex -33 -42 0
      vertex -31 -40 0
    endloop
  endfacet
  facet normal 0 0 -1
    outer loop
      vertex -33 -30 0
      vertex -31 -40 0
      vertex -33 -42 0
    endloop
  endfacet
  facet normal 0 0 -1
    outer loop
      vertex -31 -40 0
      vertex -33 -30 0
      vertex -31 -30 0
    endloop
  endfacet
  facet normal -0 0 -1
    outer loop
      vertex 49 -30 0
      vertex 47 -40 0
      vertex 47 -30 0
    endloop
  endfacet
  facet normal -0 0 -1
    outer loop
      vertex 45 -30 0
      vertex 43 -40 0
      vertex 43 -30 0
    endloop
  endfacet
  facet normal -0 0 -1
    outer loop
      vertex 41 -30 0
      vertex 39 -40 0
      vertex 39 -30 0
    endloop
  endfacet
  facet normal -0 0 -1
    outer loop
      vertex 37 -30 0
      vertex 35 -40 0
      vertex 35 -30 0
    endloop
  endfacet
  facet normal -0 0 -1
    outer loop
      vertex 33 -30 0
      vertex 31 -40 0
      vertex 31 -30 0
    endloop
  endfacet
  facet normal -0 0 -1
    outer loop
      vertex 29 -30 0
      vertex 27 -40 0
      vertex 27 -30 0
    endloop
  endfacet
  facet normal -0 0 -1
    outer loop
      vertex 25 -30 0
      vertex 23 -40 0
      vertex 23 -30 0
    endloop
  endfacet
  facet normal -0 0 -1
    outer loop
      vertex 21 -30 0
      vertex 19 -40 0
      vertex 19 -30 0
    endloop
  endfacet
  facet normal -0 0 -1
    outer loop
      vertex 17 -30 0
      vertex 15 -40 0
      vertex 15 -30 0
    endloop
  endfacet
  facet normal -0 0 -1
    outer loop
      vertex 13 -30 0
      vertex 11 -40 0
      vertex 11 -30 0
    endloop
  endfacet
  facet normal -0 0 -1
    outer loop
      vertex 9 -30 0
      vertex 7 -40 0
      vertex 7 -30 0
    endloop
  endfacet
  facet normal -0 0 -1
    outer loop
      vertex 5 -30 0
      vertex 3 -40 0
      vertex 3 -30 0
    endloop
  endfacet
  facet normal -0 0 -1
    outer loop
      vertex 1 -30 0
      vertex -1 -40 0
      vertex -1 -30 0
    endloop
  endfacet
  facet normal -0 0 -1
    outer loop
      vertex -3 -30 0
      vertex -5 -40 0
      vertex -5 -30 0
    endloop
  endfacet
  facet normal -0 0 -1
    outer loop
      vertex -7 -30 0
      vertex -9 -40 0
      vertex -9 -30 0
    endloop
  endfacet
  facet normal -0 0 -1
    outer loop
      vertex -11 -30 0
      vertex -13 -40 0
      vertex -13 -30 0
    endloop
  endfacet
  facet normal -0 0 -1
    outer loop
      vertex -15 -30 0
      vertex -17 -40 0
      vertex -17 -30 0
    endloop
  endfacet
  facet normal -0 0 -1
    outer loop
      vertex -19 -30 0
      vertex -21 -40 0
      vertex -21 -30 0
    endloop
  endfacet
  facet normal -0 0 -1
    outer loop
      vertex -23 -30 0
      vertex -25 -40 0
      vertex -25 -30 0
    endloop
  endfacet
  facet normal -0 0 -1
    outer loop
      vertex -27 -30 0
      vertex -29 -40 0
      vertex -29 -30 0
    endloop
  endfacet
  facet normal 0 1 -0
    outer loop
      vertex 47 -40 0
      vertex 45 -40 0.2
      vertex 47 -40 0.2
    endloop
  endfacet
  facet normal 0 1 0
    outer loop
      vertex 45 -40 0.2
      vertex 47 -40 0
      vertex 45 -40 0
    endloop
  endfacet
  facet normal 0 1 -0
    outer loop
      vertex 43 -40 0
      vertex 41 -40 0.2
      vertex 43 -40 0.2
    endloop
  endfacet
  facet normal 0 1 0
    outer loop
      vertex 41 -40 0.2
      vertex 43 -40 0
      vertex 41 -40 0
    endloop
  endfacet
  facet normal 0 1 -0
    outer loop
      vertex 39 -40 0
      vertex 37 -40 0.2
      vertex 39 -40 0.2
    endloop
  endfacet
  facet normal 0 1 0
    outer loop
      vertex 37 -40 0.2
      vertex 39 -40 0
      vertex 37 -40 0
    endloop
  endfacet
  facet normal 0 1 -0
    outer loop
      vertex 35 -40 0
      vertex 33 -40 0.2
      vertex 35 -40 0.2
    endloop
  endfacet
  facet normal 0 1 0
    outer loop
      vertex 33 -40 0.2
      vertex 35 -40 0
      vertex 33 -40 0
    endloop
  endfacet
  facet normal 0 1 -0
    outer loop
      vertex 31 -40 0
      vertex 29 -40 0.2
      vertex 31 -40 0.2
    endloop
  endfacet
  facet normal 0 1 0
    outer loop
      vertex 29 -40 0.2
      vertex 31 -40 0
      vertex 29 -40 0
    endloop
  endfacet
  facet normal 0 1 -0
    outer loop
      vertex 27 -40 0
      vertex 25 -40 0.2
      vertex 27 -40 0.2
    endloop
  endfacet
  facet normal 0 1 0
    outer loop
      vertex 25 -40 0.2
      vertex 27 -40 0
      vertex 25 -40 0
    endloop
  endfacet
  facet normal 0 1 -0
    outer loop
      vertex 23 -40 0
      vertex 21 -40 0.2
      vertex 23 -40 0.2
    endloop
  endfacet
  facet normal 0 1 0
    outer loop
      vertex 21 -40 0.2
      vertex 23 -40 0
      vertex 21 -40 0
    endloop
  endfacet
  facet normal 0 1 -0
    outer loop
      vertex 19 -40 0
      vertex 17 -40 0.2
      vertex 19 -40 0.2
    endloop
  endfacet
  facet normal 0 1 0
    outer loop
      vertex 17 -40 0.2
      vertex 19 -40 0
      vertex 17 -40 0
    endloop
  endfacet
  facet normal 0 1 -0
    outer loop
      vertex 15 -40 0
      vertex 13 -40 0.2
      vertex 15 -40 0.2
    endloop
  endfacet
  facet normal 0 1 0
    outer loop
      vertex 13 -40 0.2
      vertex 15 -40 0
      vertex 13 -40 0
    endloop
  endfacet
  facet normal 0 1 -0
    outer loop
      vertex 11 -40 0
      vertex 9 -40 0.2
      vertex 11 -40 0.2
    endloop
  endfacet
  facet normal 0 1 0
    outer loop
      vertex 9 -40 0.2
      vertex 11 -40 0
      vertex 9 -40 0
    endloop
  endfacet
  facet normal 0 1 -0
    outer loop
      vertex 7 -40 0
      vertex 5 -40 0.2
      vertex 7 -40 0.2
    endloop
  endfacet
  facet normal 0 1 0
    outer loop
      vertex 5 -40 0.2
      vertex 7 -40 0
      vertex 5 -40 0
    endloop
  endfacet
  facet normal 0 1 -0
    outer loop
      vertex 3 -40 0
      vertex 1 -40 0.2
      vertex 3 -40 0.2
    endloop
  endfacet
  facet normal 0 1 0
    outer loop
      vertex 1 -40 0.2
      vertex 3 -40 0
      vertex 1 -40 0
    endloop
  endfacet
  facet normal 0 1 -0
    outer loop
      vertex -1 -40 0
      vertex -3 -40 0.2
      vertex -1 -40 0.2
    endloop
  endfacet
  facet normal 0 1 0
    outer loop
      vertex -3 -40 0.2
      vertex -1 -40 0
      vertex -3 -40 0
    endloop
  endfacet
  facet normal 0 1 -0
    outer loop
      vertex -5 -40 0
      vertex -7 -40 0.2
      vertex -5 -40 0.2
    endloop
  endfacet
  facet normal 0 1 0
    outer loop
      vertex -7 -40 0.2
      vertex -5 -40 0
      vertex -7 -40 0
    endloop
  endfacet
  facet normal 0 1 -0
    outer loop
      vertex -9 -40 0
      vertex -11 -40 0.2
      vertex -9 -40 0.2
    endloop
  endfacet
  facet normal 0 1 0
    outer loop
      vertex -11 -40 0.2
      vertex -9 -40 0
      vertex -11 -40 0
    endloop
  endfacet
  facet normal 0 1 -0
    outer loop
      vertex -13 -40 0
      vertex -15 -40 0.2
      vertex -13 -40 0.2
    endloop
  endfacet
  facet normal 0 1 0
    outer loop
      vertex -15 -40 0.2
      vertex -13 -40 0
      vertex -15 -40 0
    endloop
  endfacet
  facet normal 0 1 -0
    outer loop
      vertex -17 -40 0
      vertex -19 -40 0.2
      vertex -17 -40 0.2
    endloop
  endfacet
  facet normal 0 1 0
    outer loop
      vertex -19 -40 0.2
      vertex -17 -40 0
      vertex -19 -40 0
    endloop
  endfacet
  facet normal 0 1 -0
    outer loop
      vertex -21 -40 0
      vertex -23 -40 0.2
      vertex -21 -40 0.2
    endloop
  endfacet
  facet normal 0 1 0
    outer loop
      vertex -23 -40 0.2
      vertex -21 -40 0
      vertex -23 -40 0
    endloop
  endfacet
  facet normal 0 1 -0
    outer loop
      vertex -25 -40 0
      vertex -27 -40 0.2
      vertex -25 -40 0.2
    endloop
  endfacet
  facet normal 0 1 0
    outer loop
      vertex -27 -40 0.2
      vertex -25 -40 0
      vertex -27 -40 0
    endloop
  endfacet
  facet normal 0 1 -0
    outer loop
      vertex -29 -40 0
      vertex -31 -40 0.2
      vertex -29 -40 0.2
    endloop
  endfacet
  facet normal 0 1 0
    outer loop
      vertex -31 -40 0.2
      vertex -29 -40 0
      vertex -31 -40 0
    endloop
  endfacet
  facet normal -0 0 1
    outer loop
      vertex 7 -35 0.4
      vertex 9 -42 0.4
      vertex 9 -35 0.4
    endloop
  endfacet
  facet normal 0 0 1
    outer loop
      vertex 9 -42 0.4
      vertex 7 -35 0.4
      vertex 7 -42 0.4
    endloop
  endfacet
  facet normal 0 -1 0
    outer loop
      vertex -33 -42 0
      vertex 7 -42 0.2
      vertex -33 -42 0.2
    endloop
  endfacet
  facet normal 0 -1 -0
    outer loop
      vertex 7 -42 0.2
      vertex -33 -42 0
      vertex 9 -42 0.2
    endloop
  endfacet
  facet normal 0 -1 0
    outer loop
      vertex 49 -42 0
      vertex 9 -42 0.2
      vertex -33 -42 0
    endloop
  endfacet
  facet normal 0 -1 0
    outer loop
      vertex 9 -42 0.2
      vertex 49 -42 0
      vertex 49 -42 0.2
    endloop
  endfacet
  facet normal 0 -1 0
    outer loop
      vertex 7 -42 0.2
      vertex 9 -42 0.4
      vertex 7 -42 0.4
    endloop
  endfacet
  facet normal 0 -1 -0
    outer loop
      vertex 9 -42 0.4
      vertex 7 -42 0.2
      vertex 9 -42 0.2
    endloop
  endfacet
  facet normal 0 1 -0
    outer loop
      vertex 9 -35 0.2
      vertex 7 -35 0.4
      vertex 9 -35 0.4
    endloop
  endfacet
  facet normal 0 1 0
    outer loop
      vertex 7 -35 0.4
      vertex 9 -35 0.2
      vertex 7 -35 0.2
    endloop
  endfacet
  facet normal -1 0 0
    outer loop
      vertex -33 -42 0
      vertex -33 -30 0.2
      vertex -33 -30 0
    endloop
  endfacet
  facet normal -1 -0 0
    outer loop
      vertex -33 -30 0.2
      vertex -33 -42 0
      vertex -33 -42 0.2
    endloop
  endfacet
  facet normal 1 -0 0
    outer loop
      vertex -31 -40 0.2
      vertex -31 -30 0
      vertex -31 -30 0.2
    endloop
  endfacet
  facet normal 1 0 0
    outer loop
      vertex -31 -30 0
      vertex -31 -40 0.2
      vertex -31 -40 0
    endloop
  endfacet
  facet normal 0 1 -0
    outer loop
      vertex -31 -30 0
      vertex -33 -30 0.2
      vertex -31 -30 0.2
    endloop
  endfacet
  facet normal 0 1 0
    outer loop
      vertex -33 -30 0.2
      vertex -31 -30 0
      vertex -33 -30 0
    endloop
  endfacet
  facet normal -1 0 0
    outer loop
      vertex -29 -40 0
      vertex -29 -30 0.2
      vertex -29 -30 0
    endloop
  endfacet
  facet normal -1 -0 0
    outer loop
      vertex -29 -30 0.2
      vertex -29 -40 0
      vertex -29 -40 0.2
    endloop
  endfacet
  facet normal 1 -0 0
    outer loop
      vertex -27 -40 0.2
      vertex -27 -30 0
      vertex -27 -30 0.2
    endloop
  endfacet
  facet normal 1 0 0
    outer loop
      vertex -27 -30 0
      vertex -27 -40 0.2
      vertex -27 -40 0
    endloop
  endfacet
  facet normal 0 1 -0
    outer loop
      vertex -27 -30 0
      vertex -29 -30 0.2
      vertex -27 -30 0.2
    endloop
  endfacet
  facet normal 0 1 0
    outer loop
      vertex -29 -30 0.2
      vertex -27 -30 0
      vertex -29 -30 0
    endloop
  endfacet
  facet normal -1 0 0
    outer loop
      vertex -25 -40 0
      vertex -25 -30 0.2
      vertex -25 -30 0
    endloop
  endfacet
  facet normal -1 -0 0
    outer loop
      vertex -25 -30 0.2
      vertex -25 -40 0
      vertex -25 -40 0.2
    endloop
  endfacet
  facet normal 1 -0 0
    outer loop
      vertex -23 -40 0.2
      vertex -23 -30 0
      vertex -23 -30 0.2
    endloop
  endfacet
  facet normal 1 0 0
    outer loop
      vertex -23 -30 0
      vertex -23 -40 0.2
      vertex -23 -40 0
    endloop
  endfacet
  facet normal 0 1 -0
    outer loop
      vertex -23 -30 0
      vertex -25 -30 0.2
      vertex -23 -30 0.2
    endloop
  endfacet
  facet normal 0 1 0
    outer loop
      vertex -25 -30 0.2
      vertex -23 -30 0
      vertex -25 -30 0
    endloop
  endfacet
  facet normal -1 0 0
    outer loop
      vertex -21 -40 0
      vertex -21 -30 0.2
      vertex -21 -30 0
    endloop
  endfacet
  facet normal -1 -0 0
    outer loop
      vertex -21 -30 0.2
      vertex -21 -40 0
      vertex -21 -40 0.2
    endloop
  endfacet
  facet normal 1 -0 0
    outer loop
      vertex -19 -40 0.2
      vertex -19 -30 0
      vertex -19 -30 0.2
    endloop
  endfacet
  facet normal 1 0 0
    outer loop
      vertex -19 -30 0
      vertex -19 -40 0.2
      vertex -19 -40 0
    endloop
  endfacet
  facet normal 0 1 -0
    outer loop
      vertex -19 -30 0
      vertex -21 -30 0.2
      vertex -19 -30 0.2
    endloop
  endfacet
  facet normal 0 1 0
    outer loop
      vertex -21 -30 0.2
      vertex -19 -30 0
      vertex -21 -30 0
    endloop
  endfacet
  facet normal -1 0 0
    outer loop
      vertex -17 -40 0
      vertex -17 -30 0.2
      vertex -17 -30 0
    endloop
  endfacet
  facet normal -1 -0 0
    outer loop
      vertex -17 -30 0.2
      vertex -17 -40 0
      vertex -17 -40 0.2
    endloop
  endfacet
  facet normal 1 -0 0
    outer loop
      vertex -15 -40 0.2
      vertex -15 -30 0
      vertex -15 -30 0.2
    endloop
  endfacet
  facet normal 1 0 0
    outer loop
      vertex -15 -30 0
      vertex -15 -40 0.2
      vertex -15 -40 0
    endloop
  endfacet
  facet normal 0 1 -0
    outer loop
      vertex -15 -30 0
      vertex -17 -30 0.2
      vertex -15 -30 0.2
    endloop
  endfacet
  facet normal 0 1 0
    outer loop
      vertex -17 -30 0.2
      vertex -15 -30 0
      vertex -17 -30 0
    endloop
  endfacet
  facet normal -1 0 0
    outer loop
      vertex -13 -40 0
      vertex -13 -30 0.2
      vertex -13 -30 0
    endloop
  endfacet
  facet normal -1 -0 0
    outer loop
      vertex -13 -30 0.2
      vertex -13 -40 0
      vertex -13 -40 0.2
    endloop
  endfacet
  facet normal 1 -0 0
    outer loop
      vertex -11 -40 0.2
      vertex -11 -30 0
      vertex -11 -30 0.2
    endloop
  endfacet
  facet normal 1 0 0
    outer loop
      vertex -11 -30 0
      vertex -11 -40 0.2
      vertex -11 -40 0
    endloop
  endfacet
  facet normal 0 1 -0
    outer loop
      vertex -11 -30 0
      vertex -13 -30 0.2
      vertex -11 -30 0.2
    endloop
  endfacet
  facet normal 0 1 0
    outer loop
      vertex -13 -30 0.2
      vertex -11 -30 0
      vertex -13 -30 0
    endloop
  endfacet
  facet normal -1 0 0
    outer loop
      vertex -9 -40 0
      vertex -9 -30 0.2
      vertex -9 -30 0
    endloop
  endfacet
  facet normal -1 -0 0
    outer loop
      vertex -9 -30 0.2
      vertex -9 -40 0
      vertex -9 -40 0.2
    endloop
  endfacet
  facet normal 1 -0 0
    outer loop
      vertex -7 -40 0.2
      vertex -7 -30 0
      vertex -7 -30 0.2
    endloop
  endfacet
  facet normal 1 0 0
    outer loop
      vertex -7 -30 0
      vertex -7 -40 0.2
      vertex -7 -40 0
    endloop
  endfacet
  facet normal 0 1 -0
    outer loop
      vertex -7 -30 0
      vertex -9 -30 0.2
      vertex -7 -30 0.2
    endloop
  endfacet
  facet normal 0 1 0
    outer loop
      vertex -9 -30 0.2
      vertex -7 -30 0
      vertex -9 -30 0
    endloop
  endfacet
  facet normal -1 0 0
    outer loop
      vertex -5 -40 0
      vertex -5 -30 0.2
      vertex -5 -30 0
    endloop
  endfacet
  facet normal -1 -0 0
    outer loop
      vertex -5 -30 0.2
      vertex -5 -40 0
      vertex -5 -40 0.2
    endloop
  endfacet
  facet normal 1 -0 0
    outer loop
      vertex -3 -40 0.2
      vertex -3 -30 0
      vertex -3 -30 0.2
    endloop
  endfacet
  facet normal 1 0 0
    outer loop
      vertex -3 -30 0
      vertex -3 -40 0.2
      vertex -3 -40 0
    endloop
  endfacet
  facet normal 0 1 -0
    outer loop
      vertex -3 -30 0
      vertex -5 -30 0.2
      vertex -3 -30 0.2
    endloop
  endfacet
  facet normal 0 1 0
    outer loop
      vertex -5 -30 0.2
      vertex -3 -30 0
      vertex -5 -30 0
    endloop
  endfacet
  facet normal -1 0 0
    outer loop
      vertex -1 -40 0
      vertex -1 -30 0.2
      vertex -1 -30 0
    endloop
  endfacet
  facet normal -1 -0 0
    outer loop
      vertex -1 -30 0.2
      vertex -1 -40 0
      vertex -1 -40 0.2
    endloop
  endfacet
  facet normal 1 -0 0
    outer loop
      vertex 1 -40 0.2
      vertex 1 -30 0
      vertex 1 -30 0.2
    endloop
  endfacet
  facet normal 1 0 0
    outer loop
      vertex 1 -30 0
      vertex 1 -40 0.2
      vertex 1 -40 0
    endloop
  endfacet
  facet normal 0 1 -0
    outer loop
      vertex 1 -30 0
      vertex -1 -30 0.2
      vertex 1 -30 0.2
    endloop
  endfacet
  facet normal 0 1 0
    outer loop
      vertex -1 -30 0.2
      vertex 1 -30 0
      vertex -1 -30 0
    endloop
  endfacet
  facet normal -1 0 0
    outer loop
      vertex 3 -40 0
      vertex 3 -30 0.2
      vertex 3 -30 0
    endloop
  endfacet
  facet normal -1 -0 0
    outer loop
      vertex 3 -30 0.2
      vertex 3 -40 0
      vertex 3 -40 0.2
    endloop
  endfacet
  facet normal 1 -0 0
    outer loop
      vertex 5 -40 0.2
      vertex 5 -30 0
      vertex 5 -30 0.2
    endloop
  endfacet
  facet normal 1 0 0
    outer loop
      vertex 5 -30 0
      vertex 5 -40 0.2
      vertex 5 -40 0
    endloop
  endfacet
  facet normal 0 1 -0
    outer loop
      vertex 5 -30 0
      vertex 3 -30 0.2
      vertex 5 -30 0.2
    endloop
  endfacet
  facet normal 0 1 0
    outer loop
      vertex 3 -30 0.2
      vertex 5 -30 0
      vertex 3 -30 0
    endloop
  endfacet
  facet normal -1 0 0
    outer loop
      vertex 11 -40 0
      vertex 11 -30 0.2
      vertex 11 -30 0
    endloop
  endfacet
  facet normal -1 -0 0
    outer loop
      vertex 11 -30 0.2
      vertex 11 -40 0
      vertex 11 -40 0.2
    endloop
  endfacet
  facet normal 1 -0 0
    outer loop
      vertex 13 -40 0.2
      vertex 13 -30 0
      vertex 13 -30 0.2
    endloop
  endfacet
  facet normal 1 0 0
    outer loop
      vertex 13 -30 0
      vertex 13 -40 0.2
      vertex 13 -40 0
    endloop
  endfacet
  facet normal 0 1 -0
    outer loop
      vertex 13 -30 0
      vertex 11 -30 0.2
      vertex 13 -30 0.2
    endloop
  endfacet
  facet normal 0 1 0
    outer loop
      vertex 11 -30 0.2
      vertex 13 -30 0
      vertex 11 -30 0
    endloop
  endfacet
  facet normal -1 0 0
    outer loop
      vertex 15 -40 0
      vertex 15 -30 0.2
      vertex 15 -30 0
    endloop
  endfacet
  facet normal -1 -0 0
    outer loop
      vertex 15 -30 0.2
      vertex 15 -40 0
      vertex 15 -40 0.2
    endloop
  endfacet
  facet normal 1 -0 0
    outer loop
      vertex 17 -40 0.2
      vertex 17 -30 0
      vertex 17 -30 0.2
    endloop
  endfacet
  facet normal 1 0 0
    outer loop
      vertex 17 -30 0
      vertex 17 -40 0.2
      vertex 17 -40 0
    endloop
  endfacet
  facet normal 0 1 -0
    outer loop
      vertex 17 -30 0
      vertex 15 -30 0.2
      vertex 17 -30 0.2
    endloop
  endfacet
  facet normal 0 1 0
    outer loop
      vertex 15 -30 0.2
      vertex 17 -30 0
      vertex 15 -30 0
    endloop
  endfacet
  facet normal -1 0 0
    outer loop
      vertex 19 -40 0
      vertex 19 -30 0.2
      vertex 19 -30 0
    endloop
  endfacet
  facet normal -1 -0 0
    outer loop
      vertex 19 -30 0.2
      vertex 19 -40 0
      vertex 19 -40 0.2
    endloop
  endfacet
  facet normal 1 -0 0
    outer loop
      vertex 21 -40 0.2
      vertex 21 -30 0
      vertex 21 -30 0.2
    endloop
  endfacet
  facet normal 1 0 0
    outer loop
      vertex 21 -30 0
      vertex 21 -40 0.2
      vertex 21 -40 0
    endloop
  endfacet
  facet normal 0 1 -0
    outer loop
      vertex 21 -30 0
      vertex 19 -30 0.2
      vertex 21 -30 0.2
    endloop
  endfacet
  facet normal 0 1 0
    outer loop
      vertex 19 -30 0.2
      vertex 21 -30 0
      vertex 19 -30 0
    endloop
  endfacet
  facet normal -1 0 0
    outer loop
      vertex 23 -40 0
      vertex 23 -30 0.2
      vertex 23 -30 0
    endloop
  endfacet
  facet normal -1 -0 0
    outer loop
      vertex 23 -30 0.2
      vertex 23 -40 0
      vertex 23 -40 0.2
    endloop
  endfacet
  facet normal 1 -0 0
    outer loop
      vertex 25 -40 0.2
      vertex 25 -30 0
      vertex 25 -30 0.2
    endloop
  endfacet
  facet normal 1 0 0
    outer loop
      vertex 25 -30 0
      vertex 25 -40 0.2
      vertex 25 -40 0
    endloop
  endfacet
  facet normal 0 1 -0
    outer loop
      vertex 25 -30 0
      vertex 23 -30 0.2
      vertex 25 -30 0.2
    endloop
  endfacet
  facet normal 0 1 0
    outer loop
      vertex 23 -30 0.2
      vertex 25 -30 0
      vertex 23 -30 0
    endloop
  endfacet
  facet normal -1 0 0
    outer loop
      vertex 27 -40 0
      vertex 27 -30 0.2
      vertex 27 -30 0
    endloop
  endfacet
  facet normal -1 -0 0
    outer loop
      vertex 27 -30 0.2
      vertex 27 -40 0
      vertex 27 -40 0.2
    endloop
  endfacet
  facet normal 1 -0 0
    outer loop
      vertex 29 -40 0.2
      vertex 29 -30 0
      vertex 29 -30 0.2
    endloop
  endfacet
  facet normal 1 0 0
    outer loop
      vertex 29 -30 0
      vertex 29 -40 0.2
      vertex 29 -40 0
    endloop
  endfacet
  facet normal 0 1 -0
    outer loop
      vertex 29 -30 0
      vertex 27 -30 0.2
      vertex 29 -30 0.2
    endloop
  endfacet
  facet normal 0 1 0
    outer loop
      vertex 27 -30 0.2
      vertex 29 -30 0
      vertex 27 -30 0
    endloop
  endfacet
  facet normal -1 0 0
    outer loop
      vertex 31 -40 0
      vertex 31 -30 0.2
      vertex 31 -30 0
    endloop
  endfacet
  facet normal -1 -0 0
    outer loop
      vertex 31 -30 0.2
      vertex 31 -40 0
      vertex 31 -40 0.2
    endloop
  endfacet
  facet normal 1 -0 0
    outer loop
      vertex 33 -40 0.2
      vertex 33 -30 0
      vertex 33 -30 0.2
    endloop
  endfacet
  facet normal 1 0 0
    outer loop
      vertex 33 -30 0
      vertex 33 -40 0.2
      vertex 33 -40 0
    endloop
  endfacet
  facet normal 0 1 -0
    outer loop
      vertex 33 -30 0
      vertex 31 -30 0.2
      vertex 33 -30 0.2
    endloop
  endfacet
  facet normal 0 1 0
    outer loop
      vertex 31 -30 0.2
      vertex 33 -30 0
      vertex 31 -30 0
    endloop
  endfacet
  facet normal -1 0 0
    outer loop
      vertex 35 -40 0
      vertex 35 -30 0.2
      vertex 35 -30 0
    endloop
  endfacet
  facet normal -1 -0 0
    outer loop
      vertex 35 -30 0.2
      vertex 35 -40 0
      vertex 35 -40 0.2
    endloop
  endfacet
  facet normal 1 -0 0
    outer loop
      vertex 37 -40 0.2
      vertex 37 -30 0
      vertex 37 -30 0.2
    endloop
  endfacet
  facet normal 1 0 0
    outer loop
      vertex 37 -30 0
      vertex 37 -40 0.2
      vertex 37 -40 0
    endloop
  endfacet
  facet normal 0 1 -0
    outer loop
      vertex 37 -30 0
      vertex 35 -30 0.2
      vertex 37 -30 0.2
    endloop
  endfacet
  facet normal 0 1 0
    outer loop
      vertex 35 -30 0.2
      vertex 37 -30 0
      vertex 35 -30 0
    endloop
  endfacet
  facet normal -1 0 0
    outer loop
      vertex 39 -40 0
      vertex 39 -30 0.2
      vertex 39 -30 0
    endloop
  endfacet
  facet normal -1 -0 0
    outer loop
      vertex 39 -30 0.2
      vertex 39 -40 0
      vertex 39 -40 0.2
    endloop
  endfacet
  facet normal 1 -0 0
    outer loop
      vertex 41 -40 0.2
      vertex 41 -30 0
      vertex 41 -30 0.2
    endloop
  endfacet
  facet normal 1 0 0
    outer loop
      vertex 41 -30 0
      vertex 41 -40 0.2
      vertex 41 -40 0
    endloop
  endfacet
  facet normal 0 1 -0
    outer loop
      vertex 41 -30 0
      vertex 39 -30 0.2
      vertex 41 -30 0.2
    endloop
  endfacet
  facet normal 0 1 0
    outer loop
      vertex 39 -30 0.2
      vertex 41 -30 0
      vertex 39 -30 0
    endloop
  endfacet
  facet normal -1 0 0
    outer loop
      vertex 43 -40 0
      vertex 43 -30 0.2
      vertex 43 -30 0
    endloop
  endfacet
  facet normal -1 -0 0
    outer loop
      vertex 43 -30 0.2
      vertex 43 -40 0
      vertex 43 -40 0.2
    endloop
  endfacet
  facet normal 1 -0 0
    outer loop
      vertex 45 -40 0.2
      vertex 45 -30 0
      vertex 45 -30 0.2
    endloop
  endfacet
  facet normal 1 0 0
    outer loop
      vertex 45 -30 0
      vertex 45 -40 0.2
      vertex 45 -40 0
    endloop
  endfacet
  facet normal 0 1 -0
    outer loop
      vertex 45 -30 0
      vertex 43 -30 0.2
      vertex 45 -30 0.2
    endloop
  endfacet
  facet normal 0 1 0
    outer loop
      vertex 43 -30 0.2
      vertex 45 -30 0
      vertex 43 -30 0
    endloop
  endfacet
  facet normal -1 0 0
    outer loop
      vertex 47 -40 0
      vertex 47 -30 0.2
      vertex 47 -30 0
    endloop
  endfacet
  facet normal -1 -0 0
    outer loop
      vertex 47 -30 0.2
      vertex 47 -40 0
      vertex 47 -40 0.2
    endloop
  endfacet
  facet normal 1 -0 0
    outer loop
      vertex 49 -42 0.2
      vertex 49 -30 0
      vertex 49 -30 0.2
    endloop
  endfacet
  facet normal 1 0 0
    outer loop
      vertex 49 -30 0
      vertex 49 -42 0.2
      vertex 49 -42 0
    endloop
  endfacet
  facet normal 0 1 -0
    outer loop
      vertex 49 -30 0
      vertex 47 -30 0.2
      vertex 49 -30 0.2
    endloop
  endfacet
  facet normal 0 1 0
    outer loop
      vertex 47 -30 0.2
      vertex 49 -30 0
      vertex 47 -30 0
    endloop
  endfacet
  facet normal 0 -1 0
    outer loop
      vertex -39 0 0.2
      vertex -44 0 0.4
      vertex -44 0 0.2
    endloop
  endfacet
  facet normal 0 -1 0
    outer loop
      vertex -44 0 0.4
      vertex -39 0 0.2
      vertex -37 0 0.4
    endloop
  endfacet
  facet normal 0 -1 -0
    outer loop
      vertex -37 0 0.4
      vertex -39 0 0.2
      vertex -37 0 0.2
    endloop
  endfacet
  facet normal 0 -1 0
    outer loop
      vertex -49 0 0
      vertex -44 0 0.2
      vertex -49 0 0.2
    endloop
  endfacet
  facet normal 0 -1 0
    outer loop
      vertex -39 0 0
      vertex -44 0 0.2
      vertex -49 0 0
    endloop
  endfacet
  facet normal 0 -1 0
    outer loop
      vertex -44 0 0.2
      vertex -39 0 0
      vertex -39 0 0.2
    endloop
  endfacet
  facet normal -0 0 1
    outer loop
      vertex -49 6 0.2
      vertex -39 4 0.2
      vertex -39 6 0.2
    endloop
  endfacet
  facet normal 0 0 1
    outer loop
      vertex -39 4 0.2
      vertex -49 6 0.2
      vertex -49 4 0.2
    endloop
  endfacet
  facet normal -0 0 1
    outer loop
      vertex -49 10 0.2
      vertex -39 8 0.2
      vertex -39 10 0.2
    endloop
  endfacet
  facet normal 0 0 1
    outer loop
      vertex -39 8 0.2
      vertex -49 10 0.2
      vertex -49 8 0.2
    endloop
  endfacet
  facet normal -0 0 1
    outer loop
      vertex -49 14 0.2
      vertex -39 12 0.2
      vertex -39 14 0.2
    endloop
  endfacet
  facet normal 0 0 1
    outer loop
      vertex -39 12 0.2
      vertex -49 14 0.2
      vertex -49 12 0.2
    endloop
  endfacet
  facet normal -0 0 1
    outer loop
      vertex -49 18 0.2
      vertex -39 16 0.2
      vertex -39 18 0.2
    endloop
  endfacet
  facet normal 0 0 1
    outer loop
      vertex -39 16 0.2
      vertex -49 18 0.2
      vertex -49 16 0.2
    endloop
  endfacet
  facet normal -0 0 1
    outer loop
      vertex -49 22 0.2
      vertex -39 20 0.2
      vertex -39 22 0.2
    endloop
  endfacet
  facet normal 0 0 1
    outer loop
      vertex -39 20 0.2
      vertex -49 22 0.2
      vertex -49 20 0.2
    endloop
  endfacet
  facet normal -0 0 1
    outer loop
      vertex -49 26 0.2
      vertex -39 24 0.2
      vertex -39 26 0.2
    endloop
  endfacet
  facet normal 0 0 1
    outer loop
      vertex -39 24 0.2
      vertex -49 26 0.2
      vertex -49 24 0.2
    endloop
  endfacet
  facet normal -0 0 1
    outer loop
      vertex -49 30 0.2
      vertex -39 28 0.2
      vertex -39 30 0.2
    endloop
  endfacet
  facet normal 0 0 1
    outer loop
      vertex -39 28 0.2
      vertex -49 30 0.2
      vertex -49 28 0.2
    endloop
  endfacet
  facet normal -0 0 1
    outer loop
      vertex -49 34 0.2
      vertex -39 32 0.2
      vertex -39 34 0.2
    endloop
  endfacet
  facet normal 0 0 1
    outer loop
      vertex -39 32 0.2
      vertex -49 34 0.2
      vertex -49 32 0.2
    endloop
  endfacet
  facet normal -0 0 1
    outer loop
      vertex -49 38 0.2
      vertex -39 36 0.2
      vertex -39 38 0.2
    endloop
  endfacet
  facet normal 0 0 1
    outer loop
      vertex -39 36 0.2
      vertex -49 38 0.2
      vertex -49 36 0.2
    endloop
  endfacet
  facet normal 0 0 1
    outer loop
      vertex -39 38 0.2
      vertex -37 42 0.2
      vertex -39 40 0.2
    endloop
  endfacet
  facet normal -0 0 1
    outer loop
      vertex -49 42 0.2
      vertex -39 40 0.2
      vertex -37 42 0.2
    endloop
  endfacet
  facet normal 0 0 1
    outer loop
      vertex -39 40 0.2
      vertex -49 42 0.2
      vertex -49 40 0.2
    endloop
  endfacet
  facet normal 0 0 1
    outer loop
      vertex -39 36 0.2
      vertex -37 42 0.2
      vertex -39 38 0.2
    endloop
  endfacet
  facet normal 0 0 1
    outer loop
      vertex -39 34 0.2
      vertex -37 42 0.2
      vertex -39 36 0.2
    endloop
  endfacet
  facet normal 0 0 1
    outer loop
      vertex -39 32 0.2
      vertex -37 42 0.2
      vertex -39 34 0.2
    endloop
  endfacet
  facet normal 0 0 1
    outer loop
      vertex -39 30 0.2
      vertex -37 42 0.2
      vertex -39 32 0.2
    endloop
  endfacet
  facet normal 0 0 1
    outer loop
      vertex -39 28 0.2
      vertex -37 42 0.2
      vertex -39 30 0.2
    endloop
  endfacet
  facet normal 0 0 1
    outer loop
      vertex -39 26 0.2
      vertex -37 42 0.2
      vertex -39 28 0.2
    endloop
  endfacet
  facet normal 0 0 1
    outer loop
      vertex -39 24 0.2
      vertex -37 42 0.2
      vertex -39 26 0.2
    endloop
  endfacet
  facet normal 0 0 1
    outer loop
      vertex -39 22 0.2
      vertex -37 42 0.2
      vertex -39 24 0.2
    endloop
  endfacet
  facet normal 0 0 1
    outer loop
      vertex -37 42 0.2
      vertex -39 22 0.2
      vertex -37 2 0.2
    endloop
  endfacet
  facet normal -0 0 1
    outer loop
      vertex -39 20 0.2
      vertex -37 2 0.2
      vertex -39 22 0.2
    endloop
  endfacet
  facet normal -0 0 1
    outer loop
      vertex -39 18 0.2
      vertex -37 2 0.2
      vertex -39 20 0.2
    endloop
  endfacet
  facet normal -0 0 1
    outer loop
      vertex -39 16 0.2
      vertex -37 2 0.2
      vertex -39 18 0.2
    endloop
  endfacet
  facet normal -0 0 1
    outer loop
      vertex -39 14 0.2
      vertex -37 2 0.2
      vertex -39 16 0.2
    endloop
  endfacet
  facet normal -0 0 1
    outer loop
      vertex -39 12 0.2
      vertex -37 2 0.2
      vertex -39 14 0.2
    endloop
  endfacet
  facet normal -0 0 1
    outer loop
      vertex -39 10 0.2
      vertex -37 2 0.2
      vertex -39 12 0.2
    endloop
  endfacet
  facet normal -0 0 1
    outer loop
      vertex -39 8 0.2
      vertex -37 2 0.2
      vertex -39 10 0.2
    endloop
  endfacet
  facet normal -0 0 1
    outer loop
      vertex -39 6 0.2
      vertex -37 2 0.2
      vertex -39 8 0.2
    endloop
  endfacet
  facet normal -0 0 1
    outer loop
      vertex -39 4 0.2
      vertex -37 2 0.2
      vertex -39 6 0.2
    endloop
  endfacet
  facet normal 0 0 1
    outer loop
      vertex -37 2 0.2
      vertex -39 4 0.2
      vertex -39 2 0.2
    endloop
  endfacet
  facet normal -0 0 1
    outer loop
      vertex -49 -34 0.2
      vertex -39 -36 0.2
      vertex -39 -34 0.2
    endloop
  endfacet
  facet normal 0 0 1
    outer loop
      vertex -39 -36 0.2
      vertex -49 -34 0.2
      vertex -49 -36 0.2
    endloop
  endfacet
  facet normal -0 0 1
    outer loop
      vertex -49 -30 0.2
      vertex -39 -32 0.2
      vertex -39 -30 0.2
    endloop
  endfacet
  facet normal 0 0 1
    outer loop
      vertex -39 -32 0.2
      vertex -49 -30 0.2
      vertex -49 -32 0.2
    endloop
  endfacet
  facet normal -0 0 1
    outer loop
      vertex -49 -26 0.2
      vertex -39 -28 0.2
      vertex -39 -26 0.2
    endloop
  endfacet
  facet normal 0 0 1
    outer loop
      vertex -39 -28 0.2
      vertex -49 -26 0.2
      vertex -49 -28 0.2
    endloop
  endfacet
  facet normal -0 0 1
    outer loop
      vertex -49 -22 0.2
      vertex -39 -24 0.2
      vertex -39 -22 0.2
    endloop
  endfacet
  facet normal 0 0 1
    outer loop
      vertex -39 -24 0.2
      vertex -49 -22 0.2
      vertex -49 -24 0.2
    endloop
  endfacet
  facet normal -0 0 1
    outer loop
      vertex -49 -18 0.2
      vertex -39 -20 0.2
      vertex -39 -18 0.2
    endloop
  endfacet
  facet normal 0 0 1
    outer loop
      vertex -39 -20 0.2
      vertex -49 -18 0.2
      vertex -49 -20 0.2
    endloop
  endfacet
  facet normal -0 0 1
    outer loop
      vertex -49 -14 0.2
      vertex -39 -16 0.2
      vertex -39 -14 0.2
    endloop
  endfacet
  facet normal 0 0 1
    outer loop
      vertex -39 -16 0.2
      vertex -49 -14 0.2
      vertex -49 -16 0.2
    endloop
  endfacet
  facet normal -0 0 1
    outer loop
      vertex -49 -10 0.2
      vertex -39 -12 0.2
      vertex -39 -10 0.2
    endloop
  endfacet
  facet normal 0 0 1
    outer loop
      vertex -39 -12 0.2
      vertex -49 -10 0.2
      vertex -49 -12 0.2
    endloop
  endfacet
  facet normal -0 0 1
    outer loop
      vertex -49 -6 0.2
      vertex -39 -8 0.2
      vertex -39 -6 0.2
    endloop
  endfacet
  facet normal 0 0 1
    outer loop
      vertex -39 -8 0.2
      vertex -49 -6 0.2
      vertex -49 -8 0.2
    endloop
  endfacet
  facet normal -0 0 1
    outer loop
      vertex -49 -2 0.2
      vertex -39 -4 0.2
      vertex -39 -2 0.2
    endloop
  endfacet
  facet normal 0 0 1
    outer loop
      vertex -39 -4 0.2
      vertex -49 -2 0.2
      vertex -49 -4 0.2
    endloop
  endfacet
  facet normal 0 0 1
    outer loop
      vertex -39 -2 0.2
      vertex -37 0 0.2
      vertex -39 0 0.2
    endloop
  endfacet
  facet normal 0 0 1
    outer loop
      vertex -39 -4 0.2
      vertex -37 0 0.2
      vertex -39 -2 0.2
    endloop
  endfacet
  facet normal 0 0 1
    outer loop
      vertex -39 -6 0.2
      vertex -37 0 0.2
      vertex -39 -4 0.2
    endloop
  endfacet
  facet normal 0 0 1
    outer loop
      vertex -39 -8 0.2
      vertex -37 0 0.2
      vertex -39 -6 0.2
    endloop
  endfacet
  facet normal 0 0 1
    outer loop
      vertex -39 -10 0.2
      vertex -37 0 0.2
      vertex -39 -8 0.2
    endloop
  endfacet
  facet normal 0 0 1
    outer loop
      vertex -39 -12 0.2
      vertex -37 0 0.2
      vertex -39 -10 0.2
    endloop
  endfacet
  facet normal 0 0 1
    outer loop
      vertex -39 -14 0.2
      vertex -37 0 0.2
      vertex -39 -12 0.2
    endloop
  endfacet
  facet normal 0 0 1
    outer loop
      vertex -39 -16 0.2
      vertex -37 0 0.2
      vertex -39 -14 0.2
    endloop
  endfacet
  facet normal 0 0 1
    outer loop
      vertex -39 -18 0.2
      vertex -37 0 0.2
      vertex -39 -16 0.2
    endloop
  endfacet
  facet normal 0 0 1
    outer loop
      vertex -39 -20 0.2
      vertex -37 0 0.2
      vertex -39 -18 0.2
    endloop
  endfacet
  facet normal 0 0 1
    outer loop
      vertex -37 0 0.2
      vertex -39 -20 0.2
      vertex -37 -40 0.2
    endloop
  endfacet
  facet normal -0 0 1
    outer loop
      vertex -39 -22 0.2
      vertex -37 -40 0.2
      vertex -39 -20 0.2
    endloop
  endfacet
  facet normal -0 0 1
    outer loop
      vertex -39 -24 0.2
      vertex -37 -40 0.2
      vertex -39 -22 0.2
    endloop
  endfacet
  facet normal -0 0 1
    outer loop
      vertex -39 -26 0.2
      vertex -37 -40 0.2
      vertex -39 -24 0.2
    endloop
  endfacet
  facet normal -0 0 1
    outer loop
      vertex -39 -28 0.2
      vertex -37 -40 0.2
      vertex -39 -26 0.2
    endloop
  endfacet
  facet normal -0 0 1
    outer loop
      vertex -39 -30 0.2
      vertex -37 -40 0.2
      vertex -39 -28 0.2
    endloop
  endfacet
  facet normal -0 0 1
    outer loop
      vertex -39 -32 0.2
      vertex -37 -40 0.2
      vertex -39 -30 0.2
    endloop
  endfacet
  facet normal -0 0 1
    outer loop
      vertex -39 -34 0.2
      vertex -37 -40 0.2
      vertex -39 -32 0.2
    endloop
  endfacet
  facet normal -0 0 1
    outer loop
      vertex -39 -36 0.2
      vertex -37 -40 0.2
      vertex -39 -34 0.2
    endloop
  endfacet
  facet normal -0 0 1
    outer loop
      vertex -39 -38 0.2
      vertex -37 -40 0.2
      vertex -39 -36 0.2
    endloop
  endfacet
  facet normal 0 0 1
    outer loop
      vertex -49 -40 0.2
      vertex -39 -38 0.2
      vertex -49 -38 0.2
    endloop
  endfacet
  facet normal 0 0 1
    outer loop
      vertex -39 -38 0.2
      vertex -49 -40 0.2
      vertex -37 -40 0.2
    endloop
  endfacet
  facet normal -0 0 1
    outer loop
      vertex -49 2 0.2
      vertex -44 0 0.2
      vertex -44 2 0.2
    endloop
  endfacet
  facet normal 0 0 1
    outer loop
      vertex -44 0 0.2
      vertex -49 2 0.2
      vertex -49 0 0.2
    endloop
  endfacet
  facet normal 0 1 0
    outer loop
      vertex -39 2 0.2
      vertex -37 2 0.4
      vertex -37 2 0.2
    endloop
  endfacet
  facet normal 0 1 0
    outer loop
      vertex -37 2 0.4
      vertex -39 2 0.2
      vertex -44 2 0.4
    endloop
  endfacet
  facet normal 0 1 0
    outer loop
      vertex -39 2 0.2
      vertex -44 2 0.2
      vertex -44 2 0.4
    endloop
  endfacet
  facet normal 0 1 -0
    outer loop
      vertex -39 2 0
      vertex -44 2 0.2
      vertex -39 2 0.2
    endloop
  endfacet
  facet normal 0 1 0
    outer loop
      vertex -49 2 0
      vertex -44 2 0.2
      vertex -39 2 0
    endloop
  endfacet
  facet normal 0 1 0
    outer loop
      vertex -44 2 0.2
      vertex -49 2 0
      vertex -49 2 0.2
    endloop
  endfacet
  facet normal -1 0 0
    outer loop
      vertex -49 0 0
      vertex -49 2 0.2
      vertex -49 2 0
    endloop
  endfacet
  facet normal -1 -0 0
    outer loop
      vertex -49 2 0.2
      vertex -49 0 0
      vertex -49 0 0.2
    endloop
  endfacet
  facet normal 0 0 -1
    outer loop
      vertex -49 36 0
      vertex -39 38 0
      vertex -39 36 0
    endloop
  endfacet
  facet normal -0 0 -1
    outer loop
      vertex -39 38 0
      vertex -49 36 0
      vertex -49 38 0
    endloop
  endfacet
  facet normal 0 0 -1
    outer loop
      vertex -49 32 0
      vertex -39 34 0
      vertex -39 32 0
    endloop
  endfacet
  facet normal -0 0 -1
    outer loop
      vertex -39 34 0
      vertex -49 32 0
      vertex -49 34 0
    endloop
  endfacet
  facet normal 0 0 -1
    outer loop
      vertex -49 28 0
      vertex -39 30 0
      vertex -39 28 0
    endloop
  endfacet
  facet normal -0 0 -1
    outer loop
      vertex -39 30 0
      vertex -49 28 0
      vertex -49 30 0
    endloop
  endfacet
  facet normal 0 0 -1
    outer loop
      vertex -49 24 0
      vertex -39 26 0
      vertex -39 24 0
    endloop
  endfacet
  facet normal -0 0 -1
    outer loop
      vertex -39 26 0
      vertex -49 24 0
      vertex -49 26 0
    endloop
  endfacet
  facet normal 0 0 -1
    outer loop
      vertex -49 20 0
      vertex -39 22 0
      vertex -39 20 0
    endloop
  endfacet
  facet normal -0 0 -1
    outer loop
      vertex -39 22 0
      vertex -49 20 0
      vertex -49 22 0
    endloop
  endfacet
  facet normal 0 0 -1
    outer loop
      vertex -49 16 0
      vertex -39 18 0
      vertex -39 16 0
    endloop
  endfacet
  facet normal -0 0 -1
    outer loop
      vertex -39 18 0
      vertex -49 16 0
      vertex -49 18 0
    endloop
  endfacet
  facet normal 0 0 -1
    outer loop
      vertex -49 12 0
      vertex -39 14 0
      vertex -39 12 0
    endloop
  endfacet
  facet normal -0 0 -1
    outer loop
      vertex -39 14 0
      vertex -49 12 0
      vertex -49 14 0
    endloop
  endfacet
  facet normal 0 0 -1
    outer loop
      vertex -49 8 0
      vertex -39 10 0
      vertex -39 8 0
    endloop
  endfacet
  facet normal -0 0 -1
    outer loop
      vertex -39 10 0
      vertex -49 8 0
      vertex -49 10 0
    endloop
  endfacet
  facet normal 0 0 -1
    outer loop
      vertex -49 4 0
      vertex -39 6 0
      vertex -39 4 0
    endloop
  endfacet
  facet normal -0 0 -1
    outer loop
      vertex -39 6 0
      vertex -49 4 0
      vertex -49 6 0
    endloop
  endfacet
  facet normal 0 0 -1
    outer loop
      vertex -49 0 0
      vertex -39 2 0
      vertex -39 0 0
    endloop
  endfacet
  facet normal -0 0 -1
    outer loop
      vertex -39 2 0
      vertex -49 0 0
      vertex -49 2 0
    endloop
  endfacet
  facet normal 0 0 -1
    outer loop
      vertex -49 -4 0
      vertex -39 -2 0
      vertex -39 -4 0
    endloop
  endfacet
  facet normal -0 0 -1
    outer loop
      vertex -39 -2 0
      vertex -49 -4 0
      vertex -49 -2 0
    endloop
  endfacet
  facet normal 0 0 -1
    outer loop
      vertex -49 -8 0
      vertex -39 -6 0
      vertex -39 -8 0
    endloop
  endfacet
  facet normal -0 0 -1
    outer loop
      vertex -39 -6 0
      vertex -49 -8 0
      vertex -49 -6 0
    endloop
  endfacet
  facet normal 0 0 -1
    outer loop
      vertex -49 -12 0
      vertex -39 -10 0
      vertex -39 -12 0
    endloop
  endfacet
  facet normal -0 0 -1
    outer loop
      vertex -39 -10 0
      vertex -49 -12 0
      vertex -49 -10 0
    endloop
  endfacet
  facet normal 0 0 -1
    outer loop
      vertex -49 -16 0
      vertex -39 -14 0
      vertex -39 -16 0
    endloop
  endfacet
  facet normal -0 0 -1
    outer loop
      vertex -39 -14 0
      vertex -49 -16 0
      vertex -49 -14 0
    endloop
  endfacet
  facet normal 0 0 -1
    outer loop
      vertex -49 -20 0
      vertex -39 -18 0
      vertex -39 -20 0
    endloop
  endfacet
  facet normal -0 0 -1
    outer loop
      vertex -39 -18 0
      vertex -49 -20 0
      vertex -49 -18 0
    endloop
  endfacet
  facet normal 0 0 -1
    outer loop
      vertex -49 -24 0
      vertex -39 -22 0
      vertex -39 -24 0
    endloop
  endfacet
  facet normal -0 0 -1
    outer loop
      vertex -39 -22 0
      vertex -49 -24 0
      vertex -49 -22 0
    endloop
  endfacet
  facet normal 0 0 -1
    outer loop
      vertex -49 -28 0
      vertex -39 -26 0
      vertex -39 -28 0
    endloop
  endfacet
  facet normal -0 0 -1
    outer loop
      vertex -39 -26 0
      vertex -49 -28 0
      vertex -49 -26 0
    endloop
  endfacet
  facet normal 0 0 -1
    outer loop
      vertex -49 -32 0
      vertex -39 -30 0
      vertex -39 -32 0
    endloop
  endfacet
  facet normal -0 0 -1
    outer loop
      vertex -39 -30 0
      vertex -49 -32 0
      vertex -49 -30 0
    endloop
  endfacet
  facet normal 0 0 -1
    outer loop
      vertex -49 -36 0
      vertex -39 -34 0
      vertex -39 -36 0
    endloop
  endfacet
  facet normal -0 0 -1
    outer loop
      vertex -39 -34 0
      vertex -49 -36 0
      vertex -49 -34 0
    endloop
  endfacet
  facet normal 0 0 -1
    outer loop
      vertex -39 -36 0
      vertex -37 -40 0
      vertex -39 -38 0
    endloop
  endfacet
  facet normal 0 0 -1
    outer loop
      vertex -49 -40 0
      vertex -39 -38 0
      vertex -37 -40 0
    endloop
  endfacet
  facet normal -0 0 -1
    outer loop
      vertex -39 -38 0
      vertex -49 -40 0
      vertex -49 -38 0
    endloop
  endfacet
  facet normal 0 0 -1
    outer loop
      vertex -39 -34 0
      vertex -37 -40 0
      vertex -39 -36 0
    endloop
  endfacet
  facet normal 0 0 -1
    outer loop
      vertex -39 -32 0
      vertex -37 -40 0
      vertex -39 -34 0
    endloop
  endfacet
  facet normal 0 0 -1
    outer loop
      vertex -39 -30 0
      vertex -37 -40 0
      vertex -39 -32 0
    endloop
  endfacet
  facet normal 0 0 -1
    outer loop
      vertex -39 -28 0
      vertex -37 -40 0
      vertex -39 -30 0
    endloop
  endfacet
  facet normal 0 0 -1
    outer loop
      vertex -39 -26 0
      vertex -37 -40 0
      vertex -39 -28 0
    endloop
  endfacet
  facet normal 0 0 -1
    outer loop
      vertex -39 -24 0
      vertex -37 -40 0
      vertex -39 -26 0
    endloop
  endfacet
  facet normal 0 0 -1
    outer loop
      vertex -39 -22 0
      vertex -37 -40 0
      vertex -39 -24 0
    endloop
  endfacet
  facet normal 0 0 -1
    outer loop
      vertex -39 -20 0
      vertex -37 -40 0
      vertex -39 -22 0
    endloop
  endfacet
  facet normal 0 0 -1
    outer loop
      vertex -39 -18 0
      vertex -37 -40 0
      vertex -39 -20 0
    endloop
  endfacet
  facet normal 0 0 -1
    outer loop
      vertex -39 -16 0
      vertex -37 -40 0
      vertex -39 -18 0
    endloop
  endfacet
  facet normal 0 0 -1
    outer loop
      vertex -39 -14 0
      vertex -37 -40 0
      vertex -39 -16 0
    endloop
  endfacet
  facet normal 0 0 -1
    outer loop
      vertex -39 -12 0
      vertex -37 -40 0
      vertex -39 -14 0
    endloop
  endfacet
  facet normal 0 0 -1
    outer loop
      vertex -39 -10 0
      vertex -37 -40 0
      vertex -39 -12 0
    endloop
  endfacet
  facet normal 0 0 -1
    outer loop
      vertex -39 -8 0
      vertex -37 -40 0
      vertex -39 -10 0
    endloop
  endfacet
  facet normal 0 0 -1
    outer loop
      vertex -39 -6 0
      vertex -37 -40 0
      vertex -39 -8 0
    endloop
  endfacet
  facet normal 0 0 -1
    outer loop
      vertex -39 -4 0
      vertex -37 -40 0
      vertex -39 -6 0
    endloop
  endfacet
  facet normal 0 0 -1
    outer loop
      vertex -39 -2 0
      vertex -37 -40 0
      vertex -39 -4 0
    endloop
  endfacet
  facet normal 0 0 -1
    outer loop
      vertex -37 -40 0
      vertex -39 -2 0
      vertex -37 42 0
    endloop
  endfacet
  facet normal 0 0 -1
    outer loop
      vertex -39 0 0
      vertex -37 42 0
      vertex -39 -2 0
    endloop
  endfacet
  facet normal 0 0 -1
    outer loop
      vertex -39 2 0
      vertex -37 42 0
      vertex -39 0 0
    endloop
  endfacet
  facet normal 0 0 -1
    outer loop
      vertex -39 4 0
      vertex -37 42 0
      vertex -39 2 0
    endloop
  endfacet
  facet normal 0 0 -1
    outer loop
      vertex -39 6 0
      vertex -37 42 0
      vertex -39 4 0
    endloop
  endfacet
  facet normal 0 0 -1
    outer loop
      vertex -39 8 0
      vertex -37 42 0
      vertex -39 6 0
    endloop
  endfacet
  facet normal 0 0 -1
    outer loop
      vertex -39 10 0
      vertex -37 42 0
      vertex -39 8 0
    endloop
  endfacet
  facet normal 0 0 -1
    outer loop
      vertex -39 12 0
      vertex -37 42 0
      vertex -39 10 0
    endloop
  endfacet
  facet normal 0 0 -1
    outer loop
      vertex -39 14 0
      vertex -37 42 0
      vertex -39 12 0
    endloop
  endfacet
  facet normal 0 0 -1
    outer loop
      vertex -39 16 0
      vertex -37 42 0
      vertex -39 14 0
    endloop
  endfacet
  facet normal 0 0 -1
    outer loop
      vertex -39 18 0
      vertex -37 42 0
      vertex -39 16 0
    endloop
  endfacet
  facet normal 0 0 -1
    outer loop
      vertex -39 20 0
      vertex -37 42 0
      vertex -39 18 0
    endloop
  endfacet
  facet normal 0 0 -1
    outer loop
      vertex -39 22 0
      vertex -37 42 0
      vertex -39 20 0
    endloop
  endfacet
  facet normal 0 0 -1
    outer loop
      vertex -39 24 0
      vertex -37 42 0
      vertex -39 22 0
    endloop
  endfacet
  facet normal 0 0 -1
    outer loop
      vertex -39 26 0
      vertex -37 42 0
      vertex -39 24 0
    endloop
  endfacet
  facet normal 0 0 -1
    outer loop
      vertex -39 28 0
      vertex -37 42 0
      vertex -39 26 0
    endloop
  endfacet
  facet normal 0 0 -1
    outer loop
      vertex -39 30 0
      vertex -37 42 0
      vertex -39 28 0
    endloop
  endfacet
  facet normal 0 0 -1
    outer loop
      vertex -39 32 0
      vertex -37 42 0
      vertex -39 30 0
    endloop
  endfacet
  facet normal 0 0 -1
    outer loop
      vertex -39 34 0
      vertex -37 42 0
      vertex -39 32 0
    endloop
  endfacet
  facet normal 0 0 -1
    outer loop
      vertex -39 36 0
      vertex -37 42 0
      vertex -39 34 0
    endloop
  endfacet
  facet normal 0 0 -1
    outer loop
      vertex -39 38 0
      vertex -37 42 0
      vertex -39 36 0
    endloop
  endfacet
  facet normal 0 0 -1
    outer loop
      vertex -39 40 0
      vertex -37 42 0
      vertex -39 38 0
    endloop
  endfacet
  facet normal 0 0 -1
    outer loop
      vertex -49 42 0
      vertex -39 40 0
      vertex -49 40 0
    endloop
  endfacet
  facet normal 0 0 -1
    outer loop
      vertex -39 40 0
      vertex -49 42 0
      vertex -37 42 0
    endloop
  endfacet
  facet normal -1 0 0
    outer loop
      vertex -39 38 0
      vertex -39 40 0.2
      vertex -39 40 0
    endloop
  endfacet
  facet normal -1 -0 0
    outer loop
      vertex -39 40 0.2
      vertex -39 38 0
      vertex -39 38 0.2
    endloop
  endfacet
  facet normal -1 0 0
    outer loop
      vertex -39 34 0
      vertex -39 36 0.2
      vertex -39 36 0
    endloop
  endfacet
  facet normal -1 -0 0
    outer loop
      vertex -39 36 0.2
      vertex -39 34 0
      vertex -39 34 0.2
    endloop
  endfacet
  facet normal -1 0 0
    outer loop
      vertex -39 30 0
      vertex -39 32 0.2
      vertex -39 32 0
    endloop
  endfacet
  facet normal -1 -0 0
    outer loop
      vertex -39 32 0.2
      vertex -39 30 0
      vertex -39 30 0.2
    endloop
  endfacet
  facet normal -1 0 0
    outer loop
      vertex -39 26 0
      vertex -39 28 0.2
      vertex -39 28 0
    endloop
  endfacet
  facet normal -1 -0 0
    outer loop
      vertex -39 28 0.2
      vertex -39 26 0
      vertex -39 26 0.2
    endloop
  endfacet
  facet normal -1 0 0
    outer loop
      vertex -39 22 0
      vertex -39 24 0.2
      vertex -39 24 0
    endloop
  endfacet
  facet normal -1 -0 0
    outer loop
      vertex -39 24 0.2
      vertex -39 22 0
      vertex -39 22 0.2
    endloop
  endfacet
  facet normal -1 0 0
    outer loop
      vertex -39 18 0
      vertex -39 20 0.2
      vertex -39 20 0
    endloop
  endfacet
  facet normal -1 -0 0
    outer loop
      vertex -39 20 0.2
      vertex -39 18 0
      vertex -39 18 0.2
    endloop
  endfacet
  facet normal -1 0 0
    outer loop
      vertex -39 14 0
      vertex -39 16 0.2
      vertex -39 16 0
    endloop
  endfacet
  facet normal -1 -0 0
    outer loop
      vertex -39 16 0.2
      vertex -39 14 0
      vertex -39 14 0.2
    endloop
  endfacet
  facet normal -1 0 0
    outer loop
      vertex -39 10 0
      vertex -39 12 0.2
      vertex -39 12 0
    endloop
  endfacet
  facet normal -1 -0 0
    outer loop
      vertex -39 12 0.2
      vertex -39 10 0
      vertex -39 10 0.2
    endloop
  endfacet
  facet normal -1 0 0
    outer loop
      vertex -39 6 0
      vertex -39 8 0.2
      vertex -39 8 0
    endloop
  endfacet
  facet normal -1 -0 0
    outer loop
      vertex -39 8 0.2
      vertex -39 6 0
      vertex -39 6 0.2
    endloop
  endfacet
  facet normal -1 0 0
    outer loop
      vertex -39 2 0
      vertex -39 4 0.2
      vertex -39 4 0
    endloop
  endfacet
  facet normal -1 -0 0
    outer loop
      vertex -39 4 0.2
      vertex -39 2 0
      vertex -39 2 0.2
    endloop
  endfacet
  facet normal -1 0 0
    outer loop
      vertex -39 -2 0
      vertex -39 0 0.2
      vertex -39 0 0
    endloop
  endfacet
  facet normal -1 -0 0
    outer loop
      vertex -39 0 0.2
      vertex -39 -2 0
      vertex -39 -2 0.2
    endloop
  endfacet
  facet normal -1 0 0
    outer loop
      vertex -39 -6 0
      vertex -39 -4 0.2
      vertex -39 -4 0
    endloop
  endfacet
  facet normal -1 -0 0
    outer loop
      vertex -39 -4 0.2
      vertex -39 -6 0
      vertex -39 -6 0.2
    endloop
  endfacet
  facet normal -1 0 0
    outer loop
      vertex -39 -10 0
      vertex -39 -8 0.2
      vertex -39 -8 0
    endloop
  endfacet
  facet normal -1 -0 0
    outer loop
      vertex -39 -8 0.2
      vertex -39 -10 0
      vertex -39 -10 0.2
    endloop
  endfacet
  facet normal -1 0 0
    outer loop
      vertex -39 -14 0
      vertex -39 -12 0.2
      vertex -39 -12 0
    endloop
  endfacet
  facet normal -1 -0 0
    outer loop
      vertex -39 -12 0.2
      vertex -39 -14 0
      vertex -39 -14 0.2
    endloop
  endfacet
  facet normal -1 0 0
    outer loop
      vertex -39 -18 0
      vertex -39 -16 0.2
      vertex -39 -16 0
    endloop
  endfacet
  facet normal -1 -0 0
    outer loop
      vertex -39 -16 0.2
      vertex -39 -18 0
      vertex -39 -18 0.2
    endloop
  endfacet
  facet normal -1 0 0
    outer loop
      vertex -39 -22 0
      vertex -39 -20 0.2
      vertex -39 -20 0
    endloop
  endfacet
  facet normal -1 -0 0
    outer loop
      vertex -39 -20 0.2
      vertex -39 -22 0
      vertex -39 -22 0.2
    endloop
  endfacet
  facet normal -1 0 0
    outer loop
      vertex -39 -26 0
      vertex -39 -24 0.2
      vertex -39 -24 0
    endloop
  endfacet
  facet normal -1 -0 0
    outer loop
      vertex -39 -24 0.2
      vertex -39 -26 0
      vertex -39 -26 0.2
    endloop
  endfacet
  facet normal -1 0 0
    outer loop
      vertex -39 -30 0
      vertex -39 -28 0.2
      vertex -39 -28 0
    endloop
  endfacet
  facet normal -1 -0 0
    outer loop
      vertex -39 -28 0.2
      vertex -39 -30 0
      vertex -39 -30 0.2
    endloop
  endfacet
  facet normal -1 0 0
    outer loop
      vertex -39 -34 0
      vertex -39 -32 0.2
      vertex -39 -32 0
    endloop
  endfacet
  facet normal -1 -0 0
    outer loop
      vertex -39 -32 0.2
      vertex -39 -34 0
      vertex -39 -34 0.2
    endloop
  endfacet
  facet normal -1 0 0
    outer loop
      vertex -39 -38 0
      vertex -39 -36 0.2
      vertex -39 -36 0
    endloop
  endfacet
  facet normal -1 -0 0
    outer loop
      vertex -39 -36 0.2
      vertex -39 -38 0
      vertex -39 -38 0.2
    endloop
  endfacet
  facet normal -0 0 1
    outer loop
      vertex -44 2 0.4
      vertex -37 0 0.4
      vertex -37 2 0.4
    endloop
  endfacet
  facet normal 0 0 1
    outer loop
      vertex -37 0 0.4
      vertex -44 2 0.4
      vertex -44 0 0.4
    endloop
  endfacet
  facet normal 1 0 0
    outer loop
      vertex -37 2 0.4
      vertex -37 0 0.4
      vertex -37 2 0.2
    endloop
  endfacet
  facet normal 1 -0 0
    outer loop
      vertex -37 2 0.2
      vertex -37 42 0
      vertex -37 42 0.2
    endloop
  endfacet
  facet normal 1 0 0
    outer loop
      vertex -37 0 0.2
      vertex -37 2 0.2
      vertex -37 0 0.4
    endloop
  endfacet
  facet normal 1 -0 0
    outer loop
      vertex -37 0 0.2
      vertex -37 42 0
      vertex -37 2 0.2
    endloop
  endfacet
  facet normal 1 0 0
    outer loop
      vertex -37 -40 0
      vertex -37 0 0.2
      vertex -37 -40 0.2
    endloop
  endfacet
  facet normal 1 0 0
    outer loop
      vertex -37 0 0.2
      vertex -37 -40 0
      vertex -37 42 0
    endloop
  endfacet
  facet normal -1 0 0
    outer loop
      vertex -44 0 0.2
      vertex -44 2 0.4
      vertex -44 2 0.2
    endloop
  endfacet
  facet normal -1 -0 0
    outer loop
      vertex -44 2 0.4
      vertex -44 0 0.2
      vertex -44 0 0.4
    endloop
  endfacet
  facet normal 0 -1 0
    outer loop
      vertex -49 -40 0
      vertex -37 -40 0.2
      vertex -49 -40 0.2
    endloop
  endfacet
  facet normal 0 -1 -0
    outer loop
      vertex -37 -40 0.2
      vertex -49 -40 0
      vertex -37 -40 0
    endloop
  endfacet
  facet normal 0 1 -0
    outer loop
      vertex -39 -38 0
      vertex -49 -38 0.2
      vertex -39 -38 0.2
    endloop
  endfacet
  facet normal 0 1 0
    outer loop
      vertex -49 -38 0.2
      vertex -39 -38 0
      vertex -49 -38 0
    endloop
  endfacet
  facet normal -1 0 0
    outer loop
      vertex -49 -40 0
      vertex -49 -38 0.2
      vertex -49 -38 0
    endloop
  endfacet
  facet normal -1 -0 0
    outer loop
      vertex -49 -38 0.2
      vertex -49 -40 0
      vertex -49 -40 0.2
    endloop
  endfacet
  facet normal 0 -1 0
    outer loop
      vertex -49 -36 0
      vertex -39 -36 0.2
      vertex -49 -36 0.2
    endloop
  endfacet
  facet normal 0 -1 -0
    outer loop
      vertex -39 -36 0.2
      vertex -49 -36 0
      vertex -39 -36 0
    endloop
  endfacet
  facet normal 0 1 -0
    outer loop
      vertex -39 -34 0
      vertex -49 -34 0.2
      vertex -39 -34 0.2
    endloop
  endfacet
  facet normal 0 1 0
    outer loop
      vertex -49 -34 0.2
      vertex -39 -34 0
      vertex -49 -34 0
    endloop
  endfacet
  facet normal -1 0 0
    outer loop
      vertex -49 -36 0
      vertex -49 -34 0.2
      vertex -49 -34 0
    endloop
  endfacet
  facet normal -1 -0 0
    outer loop
      vertex -49 -34 0.2
      vertex -49 -36 0
      vertex -49 -36 0.2
    endloop
  endfacet
  facet normal 0 -1 0
    outer loop
      vertex -49 -32 0
      vertex -39 -32 0.2
      vertex -49 -32 0.2
    endloop
  endfacet
  facet normal 0 -1 -0
    outer loop
      vertex -39 -32 0.2
      vertex -49 -32 0
      vertex -39 -32 0
    endloop
  endfacet
  facet normal 0 1 -0
    outer loop
      vertex -39 -30 0
      vertex -49 -30 0.2
      vertex -39 -30 0.2
    endloop
  endfacet
  facet normal 0 1 0
    outer loop
      vertex -49 -30 0.2
      vertex -39 -30 0
      vertex -49 -30 0
    endloop
  endfacet
  facet normal -1 0 0
    outer loop
      vertex -49 -32 0
      vertex -49 -30 0.2
      vertex -49 -30 0
    endloop
  endfacet
  facet normal -1 -0 0
    outer loop
      vertex -49 -30 0.2
      vertex -49 -32 0
      vertex -49 -32 0.2
    endloop
  endfacet
  facet normal 0 -1 0
    outer loop
      vertex -49 -28 0
      vertex -39 -28 0.2
      vertex -49 -28 0.2
    endloop
  endfacet
  facet normal 0 -1 -0
    outer loop
      vertex -39 -28 0.2
      vertex -49 -28 0
      vertex -39 -28 0
    endloop
  endfacet
  facet normal 0 1 -0
    outer loop
      vertex -39 -26 0
      vertex -49 -26 0.2
      vertex -39 -26 0.2
    endloop
  endfacet
  facet normal 0 1 0
    outer loop
      vertex -49 -26 0.2
      vertex -39 -26 0
      vertex -49 -26 0
    endloop
  endfacet
  facet normal -1 0 0
    outer loop
      vertex -49 -28 0
      vertex -49 -26 0.2
      vertex -49 -26 0
    endloop
  endfacet
  facet normal -1 -0 0
    outer loop
      vertex -49 -26 0.2
      vertex -49 -28 0
      vertex -49 -28 0.2
    endloop
  endfacet
  facet normal 0 -1 0
    outer loop
      vertex -49 -24 0
      vertex -39 -24 0.2
      vertex -49 -24 0.2
    endloop
  endfacet
  facet normal 0 -1 -0
    outer loop
      vertex -39 -24 0.2
      vertex -49 -24 0
      vertex -39 -24 0
    endloop
  endfacet
  facet normal 0 1 -0
    outer loop
      vertex -39 -22 0
      vertex -49 -22 0.2
      vertex -39 -22 0.2
    endloop
  endfacet
  facet normal 0 1 0
    outer loop
      vertex -49 -22 0.2
      vertex -39 -22 0
      vertex -49 -22 0
    endloop
  endfacet
  facet normal -1 0 0
    outer loop
      vertex -49 -24 0
      vertex -49 -22 0.2
      vertex -49 -22 0
    endloop
  endfacet
  facet normal -1 -0 0
    outer loop
      vertex -49 -22 0.2
      vertex -49 -24 0
      vertex -49 -24 0.2
    endloop
  endfacet
  facet normal 0 -1 0
    outer loop
      vertex -49 -20 0
      vertex -39 -20 0.2
      vertex -49 -20 0.2
    endloop
  endfacet
  facet normal 0 -1 -0
    outer loop
      vertex -39 -20 0.2
      vertex -49 -20 0
      vertex -39 -20 0
    endloop
  endfacet
  facet normal 0 1 -0
    outer loop
      vertex -39 -18 0
      vertex -49 -18 0.2
      vertex -39 -18 0.2
    endloop
  endfacet
  facet normal 0 1 0
    outer loop
      vertex -49 -18 0.2
      vertex -39 -18 0
      vertex -49 -18 0
    endloop
  endfacet
  facet normal -1 0 0
    outer loop
      vertex -49 -20 0
      vertex -49 -18 0.2
      vertex -49 -18 0
    endloop
  endfacet
  facet normal -1 -0 0
    outer loop
      vertex -49 -18 0.2
      vertex -49 -20 0
      vertex -49 -20 0.2
    endloop
  endfacet
  facet normal 0 -1 0
    outer loop
      vertex -49 -16 0
      vertex -39 -16 0.2
      vertex -49 -16 0.2
    endloop
  endfacet
  facet normal 0 -1 -0
    outer loop
      vertex -39 -16 0.2
      vertex -49 -16 0
      vertex -39 -16 0
    endloop
  endfacet
  facet normal 0 1 -0
    outer loop
      vertex -39 -14 0
      vertex -49 -14 0.2
      vertex -39 -14 0.2
    endloop
  endfacet
  facet normal 0 1 0
    outer loop
      vertex -49 -14 0.2
      vertex -39 -14 0
      vertex -49 -14 0
    endloop
  endfacet
  facet normal -1 0 0
    outer loop
      vertex -49 -16 0
      vertex -49 -14 0.2
      vertex -49 -14 0
    endloop
  endfacet
  facet normal -1 -0 0
    outer loop
      vertex -49 -14 0.2
      vertex -49 -16 0
      vertex -49 -16 0.2
    endloop
  endfacet
  facet normal 0 -1 0
    outer loop
      vertex -49 -12 0
      vertex -39 -12 0.2
      vertex -49 -12 0.2
    endloop
  endfacet
  facet normal 0 -1 -0
    outer loop
      vertex -39 -12 0.2
      vertex -49 -12 0
      vertex -39 -12 0
    endloop
  endfacet
  facet normal 0 1 -0
    outer loop
      vertex -39 -10 0
      vertex -49 -10 0.2
      vertex -39 -10 0.2
    endloop
  endfacet
  facet normal 0 1 0
    outer loop
      vertex -49 -10 0.2
      vertex -39 -10 0
      vertex -49 -10 0
    endloop
  endfacet
  facet normal -1 0 0
    outer loop
      vertex -49 -12 0
      vertex -49 -10 0.2
      vertex -49 -10 0
    endloop
  endfacet
  facet normal -1 -0 0
    outer loop
      vertex -49 -10 0.2
      vertex -49 -12 0
      vertex -49 -12 0.2
    endloop
  endfacet
  facet normal 0 -1 0
    outer loop
      vertex -49 -8 0
      vertex -39 -8 0.2
      vertex -49 -8 0.2
    endloop
  endfacet
  facet normal 0 -1 -0
    outer loop
      vertex -39 -8 0.2
      vertex -49 -8 0
      vertex -39 -8 0
    endloop
  endfacet
  facet normal 0 1 -0
    outer loop
      vertex -39 -6 0
      vertex -49 -6 0.2
      vertex -39 -6 0.2
    endloop
  endfacet
  facet normal 0 1 0
    outer loop
      vertex -49 -6 0.2
      vertex -39 -6 0
      vertex -49 -6 0
    endloop
  endfacet
  facet normal -1 0 0
    outer loop
      vertex -49 -8 0
      vertex -49 -6 0.2
      vertex -49 -6 0
    endloop
  endfacet
  facet normal -1 -0 0
    outer loop
      vertex -49 -6 0.2
      vertex -49 -8 0
      vertex -49 -8 0.2
    endloop
  endfacet
  facet normal 0 -1 0
    outer loop
      vertex -49 -4 0
      vertex -39 -4 0.2
      vertex -49 -4 0.2
    endloop
  endfacet
  facet normal 0 -1 -0
    outer loop
      vertex -39 -4 0.2
      vertex -49 -4 0
      vertex -39 -4 0
    endloop
  endfacet
  facet normal 0 1 -0
    outer loop
      vertex -39 -2 0
      vertex -49 -2 0.2
      vertex -39 -2 0.2
    endloop
  endfacet
  facet normal 0 1 0
    outer loop
      vertex -49 -2 0.2
      vertex -39 -2 0
      vertex -49 -2 0
    endloop
  endfacet
  facet normal -1 0 0
    outer loop
      vertex -49 -4 0
      vertex -49 -2 0.2
      vertex -49 -2 0
    endloop
  endfacet
  facet normal -1 -0 0
    outer loop
      vertex -49 -2 0.2
      vertex -49 -4 0
      vertex -49 -4 0.2
    endloop
  endfacet
  facet normal 0 -1 0
    outer loop
      vertex -49 4 0
      vertex -39 4 0.2
      vertex -49 4 0.2
    endloop
  endfacet
  facet normal 0 -1 -0
    outer loop
      vertex -39 4 0.2
      vertex -49 4 0
      vertex -39 4 0
    endloop
  endfacet
  facet normal 0 1 -0
    outer loop
      vertex -39 6 0
      vertex -49 6 0.2
      vertex -39 6 0.2
    endloop
  endfacet
  facet normal 0 1 0
    outer loop
      vertex -49 6 0.2
      vertex -39 6 0
      vertex -49 6 0
    endloop
  endfacet
  facet normal -1 0 0
    outer loop
      vertex -49 4 0
      vertex -49 6 0.2
      vertex -49 6 0
    endloop
  endfacet
  facet normal -1 -0 0
    outer loop
      vertex -49 6 0.2
      vertex -49 4 0
      vertex -49 4 0.2
    endloop
  endfacet
  facet normal 0 -1 0
    outer loop
      vertex -49 8 0
      vertex -39 8 0.2
      vertex -49 8 0.2
    endloop
  endfacet
  facet normal 0 -1 -0
    outer loop
      vertex -39 8 0.2
      vertex -49 8 0
      vertex -39 8 0
    endloop
  endfacet
  facet normal 0 1 -0
    outer loop
      vertex -39 10 0
      vertex -49 10 0.2
      vertex -39 10 0.2
    endloop
  endfacet
  facet normal 0 1 0
    outer loop
      vertex -49 10 0.2
      vertex -39 10 0
      vertex -49 10 0
    endloop
  endfacet
  facet normal -1 0 0
    outer loop
      vertex -49 8 0
      vertex -49 10 0.2
      vertex -49 10 0
    endloop
  endfacet
  facet normal -1 -0 0
    outer loop
      vertex -49 10 0.2
      vertex -49 8 0
      vertex -49 8 0.2
    endloop
  endfacet
  facet normal 0 -1 0
    outer loop
      vertex -49 12 0
      vertex -39 12 0.2
      vertex -49 12 0.2
    endloop
  endfacet
  facet normal 0 -1 -0
    outer loop
      vertex -39 12 0.2
      vertex -49 12 0
      vertex -39 12 0
    endloop
  endfacet
  facet normal 0 1 -0
    outer loop
      vertex -39 14 0
      vertex -49 14 0.2
      vertex -39 14 0.2
    endloop
  endfacet
  facet normal 0 1 0
    outer loop
      vertex -49 14 0.2
      vertex -39 14 0
      vertex -49 14 0
    endloop
  endfacet
  facet normal -1 0 0
    outer loop
      vertex -49 12 0
      vertex -49 14 0.2
      vertex -49 14 0
    endloop
  endfacet
  facet normal -1 -0 0
    outer loop
      vertex -49 14 0.2
      vertex -49 12 0
      vertex -49 12 0.2
    endloop
  endfacet
  facet normal 0 -1 0
    outer loop
      vertex -49 16 0
      vertex -39 16 0.2
      vertex -49 16 0.2
    endloop
  endfacet
  facet normal 0 -1 -0
    outer loop
      vertex -39 16 0.2
      vertex -49 16 0
      vertex -39 16 0
    endloop
  endfacet
  facet normal 0 1 -0
    outer loop
      vertex -39 18 0
      vertex -49 18 0.2
      vertex -39 18 0.2
    endloop
  endfacet
  facet normal 0 1 0
    outer loop
      vertex -49 18 0.2
      vertex -39 18 0
      vertex -49 18 0
    endloop
  endfacet
  facet normal -1 0 0
    outer loop
      vertex -49 16 0
      vertex -49 18 0.2
      vertex -49 18 0
    endloop
  endfacet
  facet normal -1 -0 0
    outer loop
      vertex -49 18 0.2
      vertex -49 16 0
      vertex -49 16 0.2
    endloop
  endfacet
  facet normal 0 -1 0
    outer loop
      vertex -49 20 0
      vertex -39 20 0.2
      vertex -49 20 0.2
    endloop
  endfacet
  facet normal 0 -1 -0
    outer loop
      vertex -39 20 0.2
      vertex -49 20 0
      vertex -39 20 0
    endloop
  endfacet
  facet normal 0 1 -0
    outer loop
      vertex -39 22 0
      vertex -49 22 0.2
      vertex -39 22 0.2
    endloop
  endfacet
  facet normal 0 1 0
    outer loop
      vertex -49 22 0.2
      vertex -39 22 0
      vertex -49 22 0
    endloop
  endfacet
  facet normal -1 0 0
    outer loop
      vertex -49 20 0
      vertex -49 22 0.2
      vertex -49 22 0
    endloop
  endfacet
  facet normal -1 -0 0
    outer loop
      vertex -49 22 0.2
      vertex -49 20 0
      vertex -49 20 0.2
    endloop
  endfacet
  facet normal 0 -1 0
    outer loop
      vertex -49 24 0
      vertex -39 24 0.2
      vertex -49 24 0.2
    endloop
  endfacet
  facet normal 0 -1 -0
    outer loop
      vertex -39 24 0.2
      vertex -49 24 0
      vertex -39 24 0
    endloop
  endfacet
  facet normal 0 1 -0
    outer loop
      vertex -39 26 0
      vertex -49 26 0.2
      vertex -39 26 0.2
    endloop
  endfacet
  facet normal 0 1 0
    outer loop
      vertex -49 26 0.2
      vertex -39 26 0
      vertex -49 26 0
    endloop
  endfacet
  facet normal -1 0 0
    outer loop
      vertex -49 24 0
      vertex -49 26 0.2
      vertex -49 26 0
    endloop
  endfacet
  facet normal -1 -0 0
    outer loop
      vertex -49 26 0.2
      vertex -49 24 0
      vertex -49 24 0.2
    endloop
  endfacet
  facet normal 0 -1 0
    outer loop
      vertex -49 28 0
      vertex -39 28 0.2
      vertex -49 28 0.2
    endloop
  endfacet
  facet normal 0 -1 -0
    outer loop
      vertex -39 28 0.2
      vertex -49 28 0
      vertex -39 28 0
    endloop
  endfacet
  facet normal 0 1 -0
    outer loop
      vertex -39 30 0
      vertex -49 30 0.2
      vertex -39 30 0.2
    endloop
  endfacet
  facet normal 0 1 0
    outer loop
      vertex -49 30 0.2
      vertex -39 30 0
      vertex -49 30 0
    endloop
  endfacet
  facet normal -1 0 0
    outer loop
      vertex -49 28 0
      vertex -49 30 0.2
      vertex -49 30 0
    endloop
  endfacet
  facet normal -1 -0 0
    outer loop
      vertex -49 30 0.2
      vertex -49 28 0
      vertex -49 28 0.2
    endloop
  endfacet
  facet normal 0 -1 0
    outer loop
      vertex -49 32 0
      vertex -39 32 0.2
      vertex -49 32 0.2
    endloop
  endfacet
  facet normal 0 -1 -0
    outer loop
      vertex -39 32 0.2
      vertex -49 32 0
      vertex -39 32 0
    endloop
  endfacet
  facet normal 0 1 -0
    outer loop
      vertex -39 34 0
      vertex -49 34 0.2
      vertex -39 34 0.2
    endloop
  endfacet
  facet normal 0 1 0
    outer loop
      vertex -49 34 0.2
      vertex -39 34 0
      vertex -49 34 0
    endloop
  endfacet
  facet normal -1 0 0
    outer loop
      vertex -49 32 0
      vertex -49 34 0.2
      vertex -49 34 0
    endloop
  endfacet
  facet normal -1 -0 0
    outer loop
      vertex -49 34 0.2
      vertex -49 32 0
      vertex -49 32 0.2
    endloop
  endfacet
  facet normal 0 -1 0
    outer loop
      vertex -49 36 0
      vertex -39 36 0.2
      vertex -49 36 0.2
    endloop
  endfacet
  facet normal 0 -1 -0
    outer loop
      vertex -39 36 0.2
      vertex -49 36 0
      vertex -39 36 0
    endloop
  endfacet
  facet normal 0 1 -0
    outer loop
      vertex -39 38 0
      vertex -49 38 0.2
      vertex -39 38 0.2
    endloop
  endfacet
  facet normal 0 1 0
    outer loop
      vertex -49 38 0.2
      vertex -39 38 0
      vertex -49 38 0
    endloop
  endfacet
  facet normal -1 0 0
    outer loop
      vertex -49 36 0
      vertex -49 38 0.2
      vertex -49 38 0
    endloop
  endfacet
  facet normal -1 -0 0
    outer loop
      vertex -49 38 0.2
      vertex -49 36 0
      vertex -49 36 0.2
    endloop
  endfacet
  facet normal 0 -1 0
    outer loop
      vertex -49 40 0
      vertex -39 40 0.2
      vertex -49 40 0.2
    endloop
  endfacet
  facet normal 0 -1 -0
    outer loop
      vertex -39 40 0.2
      vertex -49 40 0
      vertex -39 40 0
    endloop
  endfacet
  facet normal 0 1 -0
    outer loop
      vertex -37 42 0
      vertex -49 42 0.2
      vertex -37 42 0.2
    endloop
  endfacet
  facet normal 0 1 0
    outer loop
      vertex -49 42 0.2
      vertex -37 42 0
      vertex -49 42 0
    endloop
  endfacet
  facet normal -1 0 0
    outer loop
      vertex -49 40 0
      vertex -49 42 0.2
      vertex -49 42 0
    endloop
  endfacet
  facet normal -1 -0 0
    outer loop
      vertex -49 42 0.2
      vertex -49 40 0
      vertex -49 40 0.2
    endloop
  endfacet
endsolid OpenSCAD_Model
