solid OpenSCAD_Model
  facet normal 0 -1 0
    outer loop
      vertex 38 0 5
      vertex 38 0 0.400009
      vertex 42.6 0 5
    endloop
  endfacet
  facet normal 0 -1 0
    outer loop
      vertex -43.4 0 -5
      vertex -42.6 0 -5
      vertex -42.6 0 5
    endloop
  endfacet
  facet normal 0 -1 0
    outer loop
      vertex -5 0 43.4
      vertex 5 0 48
      vertex -5 0 48
    endloop
  endfacet
  facet normal 0 -1 0
    outer loop
      vertex -5 0 43.4
      vertex 5 0 43.4
      vertex 5 0 48
    endloop
  endfacet
  facet normal 0 -1 0
    outer loop
      vertex 43.4 0 38
      vertex 48 0 48
      vertex 38 0 43.4
    endloop
  endfacet
  facet normal 0 -1 0
    outer loop
      vertex 43.4 0 -5
      vertex 48 0 5
      vertex 43.4 0 5
    endloop
  endfacet
  facet normal 0 -1 0
    outer loop
      vertex 38 0 43.4
      vertex 48 0 48
      vertex 38 0 48
    endloop
  endfacet
  facet normal 0 -1 0
    outer loop
      vertex 43.4 0 38
      vertex 48 0 38
      vertex 48 0 48
    endloop
  endfacet
  facet normal 0 -1 0
    outer loop
      vertex -5 0 -0.399994
      vertex 0.399994 0 -5
      vertex 0.399994 0 5
    endloop
  endfacet
  facet normal 0 -1 0
    outer loop
      vertex 38 0 -48
      vertex 48 0 -48
      vertex 38 0 -43.4
    endloop
  endfacet
  facet normal 0 -1 0
    outer loop
      vertex 43.4 0 -5
      vertex 48 0 -5
      vertex 48 0 5
    endloop
  endfacet
  facet normal 0 -1 0
    outer loop
      vertex -48 0 -38
      vertex -48 0 -48
      vertex -43.4 0 -38
    endloop
  endfacet
  facet normal 0 -1 0
    outer loop
      vertex 48 0 -48
      vertex 43.4 0 -38
      vertex 38 0 -43.4
    endloop
  endfacet
  facet normal 0 -1 0
    outer loop
      vertex 43.4 0 -38
      vertex 48 0 -48
      vertex 48 0 -38
    endloop
  endfacet
  facet normal 0 -1 0
    outer loop
      vertex -0.400009 0 -38
      vertex -5 0 -42.6
      vertex -5 0 -43.4
    endloop
  endfacet
  facet normal -0 -1 -0
    outer loop
      vertex 5 0 -38
      vertex 0.399994 0 -38
      vertex 5 0 -42.6
    endloop
  endfacet
  facet normal 0 -1 0
    outer loop
      vertex -5 0 -48
      vertex 5 0 -43.4
      vertex -5 0 -43.4
    endloop
  endfacet
  facet normal 0 -1 0
    outer loop
      vertex -5 0 -48
      vertex 5 0 -48
      vertex 5 0 -43.4
    endloop
  endfacet
  facet normal -0 -1 0
    outer loop
      vertex -38 0 -43.4
      vertex -43.4 0 -38
      vertex -48 0 -48
    endloop
  endfacet
  facet normal 0 -1 0
    outer loop
      vertex 0.399994 0 -5
      vertex 5 0 -0.399994
      vertex 0.399994 0 5
    endloop
  endfacet
  facet normal 0 -1 0
    outer loop
      vertex -43.4 0 5
      vertex -43.4 0 -5
      vertex -42.6 0 5
    endloop
  endfacet
  facet normal 0 -1 -0
    outer loop
      vertex -38 0 -43.4
      vertex -48 0 -48
      vertex -38 0 -48
    endloop
  endfacet
  facet normal 0 -1 0
    outer loop
      vertex -48 0 -5
      vertex -43.4 0 5
      vertex -48 0 5
    endloop
  endfacet
  facet normal -0 -1 0
    outer loop
      vertex 5 0 43.4
      vertex -5 0 43.4
      vertex 0.399994 0 38
    endloop
  endfacet
  facet normal 0 -1 0
    outer loop
      vertex -5 0 42.6
      vertex -5 0 43.4
      vertex -38 0 42.6
    endloop
  endfacet
  facet normal 0 -1 0
    outer loop
      vertex -43.4 0 -5
      vertex -43.4 0 5
      vertex -48 0 -5
    endloop
  endfacet
  facet normal 0 -1 0
    outer loop
      vertex -48 0 48
      vertex -43.4 0 38
      vertex -38 0 43.4
    endloop
  endfacet
  facet normal 0 -1 0
    outer loop
      vertex -48 0 48
      vertex -48 0 38
      vertex -43.4 0 38
    endloop
  endfacet
  facet normal -0 -1 -0
    outer loop
      vertex -38 0 48
      vertex -48 0 48
      vertex -38 0 43.4
    endloop
  endfacet
  facet normal 0 -1 0
    outer loop
      vertex -5 0 0.400009
      vertex -0.400009 0 5
      vertex -5 0 5
    endloop
  endfacet
  facet normal 0 -1 0
    outer loop
      vertex -42.6 0 -38
      vertex -38 0 -43.4
      vertex -38 0 -42.6
    endloop
  endfacet
  facet normal 0 -1 0
    outer loop
      vertex -38 0 38
      vertex -38 0 42.6
      vertex -42.6 0 38
    endloop
  endfacet
  facet normal 0 -1 0
    outer loop
      vertex -38 0 -43.4
      vertex -5 0 -43.4
      vertex -5 0 -42.6
    endloop
  endfacet
  facet normal -0 -1 0
    outer loop
      vertex -42.6 0 -5
      vertex -43.4 0 -5
      vertex -43.4 0 -38
    endloop
  endfacet
  facet normal 0 -1 -0
    outer loop
      vertex -38 0 -0.399994
      vertex -42.6 0 -5
      vertex -38 0 -5
    endloop
  endfacet
  facet normal 0 -1 0
    outer loop
      vertex -38 0 -43.4
      vertex -42.6 0 -38
      vertex -43.4 0 -38
    endloop
  endfacet
  facet normal 0 -1 0
    outer loop
      vertex -42.6 0 -38
      vertex -42.6 0 -5
      vertex -43.4 0 -38
    endloop
  endfacet
  facet normal -0 -1 0
    outer loop
      vertex -5 0 -42.6
      vertex -38 0 -42.6
      vertex -38 0 -43.4
    endloop
  endfacet
  facet normal 0 -1 0
    outer loop
      vertex -42.6 0 -38
      vertex -38 0 -42.6
      vertex -38 0 -38
    endloop
  endfacet
  facet normal 0 -1 0
    outer loop
      vertex -5 0 -42.6
      vertex -0.400009 0 -38
      vertex -5 0 -38
    endloop
  endfacet
  facet normal 0 -1 -0
    outer loop
      vertex -0.400009 0 -38
      vertex -5 0 -43.4
      vertex 0.399994 0 -38
    endloop
  endfacet
  facet normal 0 -1 0
    outer loop
      vertex -5 0 -43.4
      vertex 5 0 -43.4
      vertex 0.399994 0 -38
    endloop
  endfacet
  facet normal 0 -1 0
    outer loop
      vertex -5 0 -0.399994
      vertex -5 0 -5
      vertex -0.400009 0 -5
    endloop
  endfacet
  facet normal 0 -1 -0
    outer loop
      vertex 43.4 0 5
      vertex 38 0 -0.399994
      vertex 43.4 0 -5
    endloop
  endfacet
  facet normal 0 -1 0
    outer loop
      vertex 38 0 -42.6
      vertex 42.6 0 -38
      vertex 38 0 -38
    endloop
  endfacet
  facet normal 0 -1 0
    outer loop
      vertex -5 0 -0.399994
      vertex -0.400009 0 5
      vertex -5 0 0.400009
    endloop
  endfacet
  facet normal 0 -1 0
    outer loop
      vertex 38 0 42.6
      vertex 38 0 43.4
      vertex 5 0 42.6
    endloop
  endfacet
  facet normal 0 -1 0
    outer loop
      vertex -0.400009 0 -38
      vertex 0.399994 0 -5
      vertex -0.400009 0 -5
    endloop
  endfacet
  facet normal 0 -1 0
    outer loop
      vertex -0.400009 0 -5
      vertex 0.399994 0 -5
      vertex -5 0 -0.399994
    endloop
  endfacet
  facet normal 0 -1 0
    outer loop
      vertex 0.399994 0 -5
      vertex 5 0 -5
      vertex 5 0 -0.399994
    endloop
  endfacet
  facet normal 0 -1 0
    outer loop
      vertex -0.400009 0 -38
      vertex 0.399994 0 -38
      vertex 0.399994 0 -5
    endloop
  endfacet
  facet normal 0 -1 0
    outer loop
      vertex 5 0 -43.4
      vertex 38 0 -42.6
      vertex 5 0 -42.6
    endloop
  endfacet
  facet normal 0 -1 0
    outer loop
      vertex 43.4 0 -5
      vertex 38 0 -0.399994
      vertex 42.6 0 -5
    endloop
  endfacet
  facet normal -0 -1 -0
    outer loop
      vertex 5 0 -42.6
      vertex 0.399994 0 -38
      vertex 5 0 -43.4
    endloop
  endfacet
  facet normal 0 -1 0
    outer loop
      vertex 42.6 0 -38
      vertex 38 0 -42.6
      vertex 38 0 -43.4
    endloop
  endfacet
  facet normal 0 -1 -0
    outer loop
      vertex 38 0 -42.6
      vertex 5 0 -43.4
      vertex 38 0 -43.4
    endloop
  endfacet
  facet normal 0 -1 0
    outer loop
      vertex 42.6 0 -5
      vertex 38 0 -0.399994
      vertex 38 0 -5
    endloop
  endfacet
  facet normal 0 -1 -0
    outer loop
      vertex 43.4 0 -5
      vertex 42.6 0 -38
      vertex 43.4 0 -38
    endloop
  endfacet
  facet normal 0 -1 -0
    outer loop
      vertex 42.6 0 -38
      vertex 38 0 -43.4
      vertex 43.4 0 -38
    endloop
  endfacet
  facet normal -0 -1 0
    outer loop
      vertex 43.4 0 -5
      vertex 42.6 0 -5
      vertex 42.6 0 -38
    endloop
  endfacet
  facet normal -0 -1 -0
    outer loop
      vertex -38 0 5
      vertex -42.6 0 5
      vertex -38 0 0.400009
    endloop
  endfacet
  facet normal 0 -1 0
    outer loop
      vertex -43.4 0 38
      vertex -43.4 0 5
      vertex -42.6 0 38
    endloop
  endfacet
  facet normal 0 -1 0
    outer loop
      vertex -42.6 0 38
      vertex -38 0 42.6
      vertex -38 0 43.4
    endloop
  endfacet
  facet normal 0 -1 0
    outer loop
      vertex -38 0 42.6
      vertex -5 0 43.4
      vertex -38 0 43.4
    endloop
  endfacet
  facet normal 0 -1 -0
    outer loop
      vertex -42.6 0 38
      vertex -43.4 0 5
      vertex -42.6 0 5
    endloop
  endfacet
  facet normal 0 -1 0
    outer loop
      vertex -42.6 0 38
      vertex -38 0 43.4
      vertex -43.4 0 38
    endloop
  endfacet
  facet normal 0 -1 0
    outer loop
      vertex -42.6 0 5
      vertex -42.6 0 -5
      vertex -38 0 -0.399994
    endloop
  endfacet
  facet normal 0 -1 0
    outer loop
      vertex -38 0 0.400009
      vertex -38 0 -0.399994
      vertex -5 0 0.400009
    endloop
  endfacet
  facet normal -0 -1 -0
    outer loop
      vertex -38 0 0.400009
      vertex -42.6 0 5
      vertex -38 0 -0.399994
    endloop
  endfacet
  facet normal 0 -1 0
    outer loop
      vertex -5 0 -0.399994
      vertex -5 0 0.400009
      vertex -38 0 -0.399994
    endloop
  endfacet
  facet normal -0 -1 0
    outer loop
      vertex 38 0 43.4
      vertex 5 0 43.4
      vertex 5 0 42.6
    endloop
  endfacet
  facet normal 0 -1 -0
    outer loop
      vertex -0.400009 0 5
      vertex -5 0 -0.399994
      vertex 0.399994 0 5
    endloop
  endfacet
  facet normal -0 -1 0
    outer loop
      vertex 5 0 42.6
      vertex 5 0 43.4
      vertex 0.399994 0 38
    endloop
  endfacet
  facet normal 0 -1 0
    outer loop
      vertex -5 0 38
      vertex -0.400009 0 38
      vertex -5 0 42.6
    endloop
  endfacet
  facet normal 0 -1 0
    outer loop
      vertex 38 0 43.4
      vertex 38 0 42.6
      vertex 43.4 0 38
    endloop
  endfacet
  facet normal 0 -1 0
    outer loop
      vertex 0.399994 0 5
      vertex 5 0 -0.399994
      vertex 5 0 0.400009
    endloop
  endfacet
  facet normal 0 -1 0
    outer loop
      vertex 38 0 -0.399994
      vertex 43.4 0 5
      vertex 42.6 0 5
    endloop
  endfacet
  facet normal 0 -1 0
    outer loop
      vertex -5 0 43.4
      vertex -5 0 42.6
      vertex 0.399994 0 38
    endloop
  endfacet
  facet normal 0 -1 0
    outer loop
      vertex -0.400009 0 5
      vertex 0.399994 0 38
      vertex -0.400009 0 38
    endloop
  endfacet
  facet normal 0 -1 0
    outer loop
      vertex -0.400009 0 38
      vertex 0.399994 0 38
      vertex -5 0 42.6
    endloop
  endfacet
  facet normal 0 -1 0
    outer loop
      vertex 0.399994 0 38
      vertex 5 0 38
      vertex 5 0 42.6
    endloop
  endfacet
  facet normal 0 -1 0
    outer loop
      vertex -0.400009 0 5
      vertex 0.399994 0 5
      vertex 0.399994 0 38
    endloop
  endfacet
  facet normal 0 -1 0
    outer loop
      vertex 5 0 -0.399994
      vertex 38 0 0.400009
      vertex 5 0 0.400009
    endloop
  endfacet
  facet normal 0 -1 0
    outer loop
      vertex 43.4 0 38
      vertex 38 0 42.6
      vertex 42.6 0 38
    endloop
  endfacet
  facet normal 0 -1 0
    outer loop
      vertex 0.399994 0 5
      vertex 5 0 0.400009
      vertex 5 0 5
    endloop
  endfacet
  facet normal 0 -1 0
    outer loop
      vertex 42.6 0 5
      vertex 38 0 0.400009
      vertex 38 0 -0.399994
    endloop
  endfacet
  facet normal 0 -1 -0
    outer loop
      vertex 38 0 0.400009
      vertex 5 0 -0.399994
      vertex 38 0 -0.399994
    endloop
  endfacet
  facet normal 0 -1 0
    outer loop
      vertex 42.6 0 38
      vertex 38 0 42.6
      vertex 38 0 38
    endloop
  endfacet
  facet normal 0 -1 0
    outer loop
      vertex 42.6 0 5
      vertex 43.4 0 5
      vertex 43.4 0 38
    endloop
  endfacet
  facet normal -0 -1 0
    outer loop
      vertex 43.4 0 38
      vertex 42.6 0 38
      vertex 42.6 0 5
    endloop
  endfacet
  facet normal 0 1 0
    outer loop
      vertex 42.6 0.2 5
      vertex 38 0.2 0.400009
      vertex 38 0.2 5
    endloop
  endfacet
  facet normal 0 1 0
    outer loop
      vertex -42.6 0.2 5
      vertex -42.6 0.2 -5
      vertex -43.4 0.2 -5
    endloop
  endfacet
  facet normal -0 1 0
    outer loop
      vertex -5 0.2 48
      vertex 5 0.2 48
      vertex -5 0.2 43.4
    endloop
  endfacet
  facet normal 0 1 0
    outer loop
      vertex 5 0.2 48
      vertex 5 0.2 43.4
      vertex -5 0.2 43.4
    endloop
  endfacet
  facet normal -0 1 0
    outer loop
      vertex 38 0.2 43.4
      vertex 48 0.2 48
      vertex 43.4 0.2 38
    endloop
  endfacet
  facet normal -0 1 0
    outer loop
      vertex 43.4 0.2 5
      vertex 48 0.2 5
      vertex 43.4 0.2 -5
    endloop
  endfacet
  facet normal -0 1 0
    outer loop
      vertex 38 0.2 48
      vertex 48 0.2 48
      vertex 38 0.2 43.4
    endloop
  endfacet
  facet normal 0 1 0
    outer loop
      vertex 48 0.2 48
      vertex 48 0.2 38
      vertex 43.4 0.2 38
    endloop
  endfacet
  facet normal 0 1 0
    outer loop
      vertex 0.399994 0.2 5
      vertex 0.399994 0.2 -5
      vertex -5 0.2 -0.399994
    endloop
  endfacet
  facet normal 0 1 0
    outer loop
      vertex 38 0.2 -43.4
      vertex 48 0.2 -48
      vertex 38 0.2 -48
    endloop
  endfacet
  facet normal 0 1 0
    outer loop
      vertex 48 0.2 5
      vertex 48 0.2 -5
      vertex 43.4 0.2 -5
    endloop
  endfacet
  facet normal 0 1 0
    outer loop
      vertex -43.4 0.2 -38
      vertex -48 0.2 -48
      vertex -48 0.2 -38
    endloop
  endfacet
  facet normal -0 1 0
    outer loop
      vertex 38 0.2 -43.4
      vertex 43.4 0.2 -38
      vertex 48 0.2 -48
    endloop
  endfacet
  facet normal 0 1 0
    outer loop
      vertex 48 0.2 -38
      vertex 48 0.2 -48
      vertex 43.4 0.2 -38
    endloop
  endfacet
  facet normal 0 1 0
    outer loop
      vertex -5 0.2 -43.4
      vertex -5 0.2 -42.6
      vertex -0.400009 0.2 -38
    endloop
  endfacet
  facet normal 0 1 -0
    outer loop
      vertex 5 0.2 -42.6
      vertex 0.399994 0.2 -38
      vertex 5 0.2 -38
    endloop
  endfacet
  facet normal -0 1 0
    outer loop
      vertex -5 0.2 -43.4
      vertex 5 0.2 -43.4
      vertex -5 0.2 -48
    endloop
  endfacet
  facet normal 0 1 0
    outer loop
      vertex 5 0.2 -43.4
      vertex 5 0.2 -48
      vertex -5 0.2 -48
    endloop
  endfacet
  facet normal 0 1 0
    outer loop
      vertex -48 0.2 -48
      vertex -43.4 0.2 -38
      vertex -38 0.2 -43.4
    endloop
  endfacet
  facet normal 0 1 0
    outer loop
      vertex 0.399994 0.2 5
      vertex 5 0.2 -0.399994
      vertex 0.399994 0.2 -5
    endloop
  endfacet
  facet normal 0 1 0
    outer loop
      vertex -42.6 0.2 5
      vertex -43.4 0.2 -5
      vertex -43.4 0.2 5
    endloop
  endfacet
  facet normal 0 1 -0
    outer loop
      vertex -38 0.2 -48
      vertex -48 0.2 -48
      vertex -38 0.2 -43.4
    endloop
  endfacet
  facet normal -0 1 0
    outer loop
      vertex -48 0.2 5
      vertex -43.4 0.2 5
      vertex -48 0.2 -5
    endloop
  endfacet
  facet normal 0 1 -0
    outer loop
      vertex 0.399994 0.2 38
      vertex -5 0.2 43.4
      vertex 5 0.2 43.4
    endloop
  endfacet
  facet normal 0 1 0
    outer loop
      vertex -38 0.2 42.6
      vertex -5 0.2 43.4
      vertex -5 0.2 42.6
    endloop
  endfacet
  facet normal 0 1 0
    outer loop
      vertex -48 0.2 -5
      vertex -43.4 0.2 5
      vertex -43.4 0.2 -5
    endloop
  endfacet
  facet normal 0 1 0
    outer loop
      vertex -38 0.2 43.4
      vertex -43.4 0.2 38
      vertex -48 0.2 48
    endloop
  endfacet
  facet normal 0 1 0
    outer loop
      vertex -43.4 0.2 38
      vertex -48 0.2 38
      vertex -48 0.2 48
    endloop
  endfacet
  facet normal 0 1 -0
    outer loop
      vertex -38 0.2 43.4
      vertex -48 0.2 48
      vertex -38 0.2 48
    endloop
  endfacet
  facet normal -0 1 0
    outer loop
      vertex -5 0.2 5
      vertex -0.400009 0.2 5
      vertex -5 0.2 0.400009
    endloop
  endfacet
  facet normal 0 1 0
    outer loop
      vertex -38 0.2 -42.6
      vertex -38 0.2 -43.4
      vertex -42.6 0.2 -38
    endloop
  endfacet
  facet normal 0 1 0
    outer loop
      vertex -42.6 0.2 38
      vertex -38 0.2 42.6
      vertex -38 0.2 38
    endloop
  endfacet
  facet normal 0 1 0
    outer loop
      vertex -5 0.2 -42.6
      vertex -5 0.2 -43.4
      vertex -38 0.2 -43.4
    endloop
  endfacet
  facet normal 0 1 0
    outer loop
      vertex -43.4 0.2 -38
      vertex -43.4 0.2 -5
      vertex -42.6 0.2 -5
    endloop
  endfacet
  facet normal 0 1 -0
    outer loop
      vertex -38 0.2 -5
      vertex -42.6 0.2 -5
      vertex -38 0.2 -0.399994
    endloop
  endfacet
  facet normal -0 1 0
    outer loop
      vertex -43.4 0.2 -38
      vertex -42.6 0.2 -38
      vertex -38 0.2 -43.4
    endloop
  endfacet
  facet normal 0 1 0
    outer loop
      vertex -43.4 0.2 -38
      vertex -42.6 0.2 -5
      vertex -42.6 0.2 -38
    endloop
  endfacet
  facet normal 0 1 0
    outer loop
      vertex -38 0.2 -43.4
      vertex -38 0.2 -42.6
      vertex -5 0.2 -42.6
    endloop
  endfacet
  facet normal 0 1 0
    outer loop
      vertex -38 0.2 -38
      vertex -38 0.2 -42.6
      vertex -42.6 0.2 -38
    endloop
  endfacet
  facet normal -0 1 0
    outer loop
      vertex -5 0.2 -38
      vertex -0.400009 0.2 -38
      vertex -5 0.2 -42.6
    endloop
  endfacet
  facet normal 0 1 0
    outer loop
      vertex 0.399994 0.2 -38
      vertex -5 0.2 -43.4
      vertex -0.400009 0.2 -38
    endloop
  endfacet
  facet normal 0 1 0
    outer loop
      vertex 0.399994 0.2 -38
      vertex 5 0.2 -43.4
      vertex -5 0.2 -43.4
    endloop
  endfacet
  facet normal 0 1 0
    outer loop
      vertex -0.400009 0.2 -5
      vertex -5 0.2 -5
      vertex -5 0.2 -0.399994
    endloop
  endfacet
  facet normal 0 1 -0
    outer loop
      vertex 43.4 0.2 -5
      vertex 38 0.2 -0.399994
      vertex 43.4 0.2 5
    endloop
  endfacet
  facet normal -0 1 0
    outer loop
      vertex 38 0.2 -38
      vertex 42.6 0.2 -38
      vertex 38 0.2 -42.6
    endloop
  endfacet
  facet normal -0 1 0
    outer loop
      vertex -5 0.2 0.400009
      vertex -0.400009 0.2 5
      vertex -5 0.2 -0.399994
    endloop
  endfacet
  facet normal 0 1 0
    outer loop
      vertex 5 0.2 42.6
      vertex 38 0.2 43.4
      vertex 38 0.2 42.6
    endloop
  endfacet
  facet normal -0 1 0
    outer loop
      vertex -0.400009 0.2 -5
      vertex 0.399994 0.2 -5
      vertex -0.400009 0.2 -38
    endloop
  endfacet
  facet normal 0 1 0
    outer loop
      vertex -5 0.2 -0.399994
      vertex 0.399994 0.2 -5
      vertex -0.400009 0.2 -5
    endloop
  endfacet
  facet normal 0 1 0
    outer loop
      vertex 5 0.2 -0.399994
      vertex 5 0.2 -5
      vertex 0.399994 0.2 -5
    endloop
  endfacet
  facet normal 0 1 0
    outer loop
      vertex 0.399994 0.2 -5
      vertex 0.399994 0.2 -38
      vertex -0.400009 0.2 -38
    endloop
  endfacet
  facet normal -0 1 0
    outer loop
      vertex 5 0.2 -42.6
      vertex 38 0.2 -42.6
      vertex 5 0.2 -43.4
    endloop
  endfacet
  facet normal 0 1 -0
    outer loop
      vertex 42.6 0.2 -5
      vertex 38 0.2 -0.399994
      vertex 43.4 0.2 -5
    endloop
  endfacet
  facet normal 0 1 -0
    outer loop
      vertex 5 0.2 -43.4
      vertex 0.399994 0.2 -38
      vertex 5 0.2 -42.6
    endloop
  endfacet
  facet normal 0 1 0
    outer loop
      vertex 38 0.2 -43.4
      vertex 38 0.2 -42.6
      vertex 42.6 0.2 -38
    endloop
  endfacet
  facet normal 0 1 -0
    outer loop
      vertex 38 0.2 -43.4
      vertex 5 0.2 -43.4
      vertex 38 0.2 -42.6
    endloop
  endfacet
  facet normal 0 1 0
    outer loop
      vertex 38 0.2 -5
      vertex 38 0.2 -0.399994
      vertex 42.6 0.2 -5
    endloop
  endfacet
  facet normal 0 1 -0
    outer loop
      vertex 43.4 0.2 -38
      vertex 42.6 0.2 -38
      vertex 43.4 0.2 -5
    endloop
  endfacet
  facet normal 0 1 0
    outer loop
      vertex 43.4 0.2 -38
      vertex 38 0.2 -43.4
      vertex 42.6 0.2 -38
    endloop
  endfacet
  facet normal 0 1 0
    outer loop
      vertex 42.6 0.2 -38
      vertex 42.6 0.2 -5
      vertex 43.4 0.2 -5
    endloop
  endfacet
  facet normal 0 1 -0
    outer loop
      vertex -38 0.2 0.400009
      vertex -42.6 0.2 5
      vertex -38 0.2 5
    endloop
  endfacet
  facet normal 0 1 0
    outer loop
      vertex -42.6 0.2 38
      vertex -43.4 0.2 5
      vertex -43.4 0.2 38
    endloop
  endfacet
  facet normal 0 1 0
    outer loop
      vertex -38 0.2 43.4
      vertex -38 0.2 42.6
      vertex -42.6 0.2 38
    endloop
  endfacet
  facet normal -0 1 0
    outer loop
      vertex -38 0.2 43.4
      vertex -5 0.2 43.4
      vertex -38 0.2 42.6
    endloop
  endfacet
  facet normal 0 1 -0
    outer loop
      vertex -42.6 0.2 5
      vertex -43.4 0.2 5
      vertex -42.6 0.2 38
    endloop
  endfacet
  facet normal 0 1 0
    outer loop
      vertex -43.4 0.2 38
      vertex -38 0.2 43.4
      vertex -42.6 0.2 38
    endloop
  endfacet
  facet normal 0 1 0
    outer loop
      vertex -38 0.2 -0.399994
      vertex -42.6 0.2 -5
      vertex -42.6 0.2 5
    endloop
  endfacet
  facet normal 0 1 0
    outer loop
      vertex -5 0.2 0.400009
      vertex -38 0.2 -0.399994
      vertex -38 0.2 0.400009
    endloop
  endfacet
  facet normal 0 1 -0
    outer loop
      vertex -38 0.2 -0.399994
      vertex -42.6 0.2 5
      vertex -38 0.2 0.400009
    endloop
  endfacet
  facet normal 0 1 0
    outer loop
      vertex -38 0.2 -0.399994
      vertex -5 0.2 0.400009
      vertex -5 0.2 -0.399994
    endloop
  endfacet
  facet normal 0 1 0
    outer loop
      vertex 5 0.2 42.6
      vertex 5 0.2 43.4
      vertex 38 0.2 43.4
    endloop
  endfacet
  facet normal 0 1 0
    outer loop
      vertex 0.399994 0.2 5
      vertex -5 0.2 -0.399994
      vertex -0.400009 0.2 5
    endloop
  endfacet
  facet normal 0 1 0
    outer loop
      vertex 0.399994 0.2 38
      vertex 5 0.2 43.4
      vertex 5 0.2 42.6
    endloop
  endfacet
  facet normal 0 1 0
    outer loop
      vertex -5 0.2 42.6
      vertex -0.400009 0.2 38
      vertex -5 0.2 38
    endloop
  endfacet
  facet normal 0 1 0
    outer loop
      vertex 43.4 0.2 38
      vertex 38 0.2 42.6
      vertex 38 0.2 43.4
    endloop
  endfacet
  facet normal 0 1 0
    outer loop
      vertex 5 0.2 0.400009
      vertex 5 0.2 -0.399994
      vertex 0.399994 0.2 5
    endloop
  endfacet
  facet normal -0 1 0
    outer loop
      vertex 42.6 0.2 5
      vertex 43.4 0.2 5
      vertex 38 0.2 -0.399994
    endloop
  endfacet
  facet normal 0 1 0
    outer loop
      vertex 0.399994 0.2 38
      vertex -5 0.2 42.6
      vertex -5 0.2 43.4
    endloop
  endfacet
  facet normal -0 1 0
    outer loop
      vertex -0.400009 0.2 38
      vertex 0.399994 0.2 38
      vertex -0.400009 0.2 5
    endloop
  endfacet
  facet normal 0 1 0
    outer loop
      vertex -5 0.2 42.6
      vertex 0.399994 0.2 38
      vertex -0.400009 0.2 38
    endloop
  endfacet
  facet normal 0 1 0
    outer loop
      vertex 5 0.2 42.6
      vertex 5 0.2 38
      vertex 0.399994 0.2 38
    endloop
  endfacet
  facet normal 0 1 0
    outer loop
      vertex 0.399994 0.2 38
      vertex 0.399994 0.2 5
      vertex -0.400009 0.2 5
    endloop
  endfacet
  facet normal -0 1 0
    outer loop
      vertex 5 0.2 0.400009
      vertex 38 0.2 0.400009
      vertex 5 0.2 -0.399994
    endloop
  endfacet
  facet normal 0 1 -0
    outer loop
      vertex 42.6 0.2 38
      vertex 38 0.2 42.6
      vertex 43.4 0.2 38
    endloop
  endfacet
  facet normal 0 1 0
    outer loop
      vertex 5 0.2 5
      vertex 5 0.2 0.400009
      vertex 0.399994 0.2 5
    endloop
  endfacet
  facet normal 0 1 0
    outer loop
      vertex 38 0.2 -0.399994
      vertex 38 0.2 0.400009
      vertex 42.6 0.2 5
    endloop
  endfacet
  facet normal 0 1 -0
    outer loop
      vertex 38 0.2 -0.399994
      vertex 5 0.2 -0.399994
      vertex 38 0.2 0.400009
    endloop
  endfacet
  facet normal 0 1 0
    outer loop
      vertex 38 0.2 38
      vertex 38 0.2 42.6
      vertex 42.6 0.2 38
    endloop
  endfacet
  facet normal 0 1 0
    outer loop
      vertex 43.4 0.2 38
      vertex 43.4 0.2 5
      vertex 42.6 0.2 5
    endloop
  endfacet
  facet normal 0 1 0
    outer loop
      vertex 42.6 0.2 5
      vertex 42.6 0.2 38
      vertex 43.4 0.2 38
    endloop
  endfacet
  facet normal 0 0 1
    outer loop
      vertex -5 0 43.4
      vertex -38 0.2 43.4
      vertex -38 0 43.4
    endloop
  endfacet
  facet normal 0 -0 1
    outer loop
      vertex -5 0 43.4
      vertex -5 0.2 43.4
      vertex -38 0.2 43.4
    endloop
  endfacet
  facet normal -1 0 0
    outer loop
      vertex -5 0 48
      vertex -5 0.2 43.4
      vertex -5 0 43.4
    endloop
  endfacet
  facet normal -1 0 0
    outer loop
      vertex -5 0 48
      vertex -5 0.2 48
      vertex -5 0.2 43.4
    endloop
  endfacet
  facet normal 0 0 1
    outer loop
      vertex 5 0 48
      vertex -5 0.2 48
      vertex -5 0 48
    endloop
  endfacet
  facet normal 0 -0 1
    outer loop
      vertex 5 0 48
      vertex 5 0.2 48
      vertex -5 0.2 48
    endloop
  endfacet
  facet normal 1 0 0
    outer loop
      vertex 5 0 43.4
      vertex 5 0.2 48
      vertex 5 0 48
    endloop
  endfacet
  facet normal 1 0 0
    outer loop
      vertex 5 0 43.4
      vertex 5 0.2 43.4
      vertex 5 0.2 48
    endloop
  endfacet
  facet normal 0 0 1
    outer loop
      vertex 38 0 43.4
      vertex 5 0.2 43.4
      vertex 5 0 43.4
    endloop
  endfacet
  facet normal 0 -0 1
    outer loop
      vertex 38 0 43.4
      vertex 38 0.2 43.4
      vertex 5 0.2 43.4
    endloop
  endfacet
  facet normal -1 0 0
    outer loop
      vertex 38 0 48
      vertex 38 0.2 43.4
      vertex 38 0 43.4
    endloop
  endfacet
  facet normal -1 0 0
    outer loop
      vertex 38 0 48
      vertex 38 0.2 48
      vertex 38 0.2 43.4
    endloop
  endfacet
  facet normal 0 0 1
    outer loop
      vertex 48 0 48
      vertex 38 0.2 48
      vertex 38 0 48
    endloop
  endfacet
  facet normal 0 -0 1
    outer loop
      vertex 48 0 48
      vertex 48 0.2 48
      vertex 38 0.2 48
    endloop
  endfacet
  facet normal 1 0 0
    outer loop
      vertex 48 0 38
      vertex 48 0.2 48
      vertex 48 0 48
    endloop
  endfacet
  facet normal 1 0 0
    outer loop
      vertex 48 0 38
      vertex 48 0.2 38
      vertex 48 0.2 48
    endloop
  endfacet
  facet normal 0 0 -1
    outer loop
      vertex 43.4 0 38
      vertex 48 0.2 38
      vertex 48 0 38
    endloop
  endfacet
  facet normal 0 0 -1
    outer loop
      vertex 43.4 0 38
      vertex 43.4 0.2 38
      vertex 48 0.2 38
    endloop
  endfacet
  facet normal 1 0 0
    outer loop
      vertex 43.4 0 5
      vertex 43.4 0.2 38
      vertex 43.4 0 38
    endloop
  endfacet
  facet normal 1 0 0
    outer loop
      vertex 43.4 0 5
      vertex 43.4 0.2 5
      vertex 43.4 0.2 38
    endloop
  endfacet
  facet normal 0 0 1
    outer loop
      vertex 48 0 5
      vertex 43.4 0.2 5
      vertex 43.4 0 5
    endloop
  endfacet
  facet normal 0 -0 1
    outer loop
      vertex 48 0 5
      vertex 48 0.2 5
      vertex 43.4 0.2 5
    endloop
  endfacet
  facet normal 1 0 0
    outer loop
      vertex 48 0 -5
      vertex 48 0.2 5
      vertex 48 0 5
    endloop
  endfacet
  facet normal 1 0 0
    outer loop
      vertex 48 0 -5
      vertex 48 0.2 -5
      vertex 48 0.2 5
    endloop
  endfacet
  facet normal 0 0 -1
    outer loop
      vertex 43.4 0 -5
      vertex 48 0.2 -5
      vertex 48 0 -5
    endloop
  endfacet
  facet normal 0 0 -1
    outer loop
      vertex 43.4 0 -5
      vertex 43.4 0.2 -5
      vertex 48 0.2 -5
    endloop
  endfacet
  facet normal 1 0 0
    outer loop
      vertex 43.4 0 -38
      vertex 43.4 0.2 -5
      vertex 43.4 0 -5
    endloop
  endfacet
  facet normal 1 0 0
    outer loop
      vertex 43.4 0 -38
      vertex 43.4 0.2 -38
      vertex 43.4 0.2 -5
    endloop
  endfacet
  facet normal 0 0 1
    outer loop
      vertex 48 0 -38
      vertex 43.4 0.2 -38
      vertex 43.4 0 -38
    endloop
  endfacet
  facet normal 0 -0 1
    outer loop
      vertex 48 0 -38
      vertex 48 0.2 -38
      vertex 43.4 0.2 -38
    endloop
  endfacet
  facet normal 1 0 0
    outer loop
      vertex 48 0 -48
      vertex 48 0.2 -38
      vertex 48 0 -38
    endloop
  endfacet
  facet normal 1 0 0
    outer loop
      vertex 48 0 -48
      vertex 48 0.2 -48
      vertex 48 0.2 -38
    endloop
  endfacet
  facet normal 0 0 -1
    outer loop
      vertex 38 0 -48
      vertex 48 0.2 -48
      vertex 48 0 -48
    endloop
  endfacet
  facet normal 0 0 -1
    outer loop
      vertex 38 0 -48
      vertex 38 0.2 -48
      vertex 48 0.2 -48
    endloop
  endfacet
  facet normal -1 0 0
    outer loop
      vertex 38 0 -43.4
      vertex 38 0.2 -48
      vertex 38 0 -48
    endloop
  endfacet
  facet normal -1 0 0
    outer loop
      vertex 38 0 -43.4
      vertex 38 0.2 -43.4
      vertex 38 0.2 -48
    endloop
  endfacet
  facet normal 0 0 -1
    outer loop
      vertex 5 0 -43.4
      vertex 38 0.2 -43.4
      vertex 38 0 -43.4
    endloop
  endfacet
  facet normal 0 0 -1
    outer loop
      vertex 5 0 -43.4
      vertex 5 0.2 -43.4
      vertex 38 0.2 -43.4
    endloop
  endfacet
  facet normal 1 0 0
    outer loop
      vertex 5 0 -48
      vertex 5 0.2 -43.4
      vertex 5 0 -43.4
    endloop
  endfacet
  facet normal 1 0 0
    outer loop
      vertex 5 0 -48
      vertex 5 0.2 -48
      vertex 5 0.2 -43.4
    endloop
  endfacet
  facet normal 0 0 -1
    outer loop
      vertex -5 0 -48
      vertex 5 0.2 -48
      vertex 5 0 -48
    endloop
  endfacet
  facet normal 0 0 -1
    outer loop
      vertex -5 0 -48
      vertex -5 0.2 -48
      vertex 5 0.2 -48
    endloop
  endfacet
  facet normal -1 0 0
    outer loop
      vertex -5 0 -43.4
      vertex -5 0.2 -48
      vertex -5 0 -48
    endloop
  endfacet
  facet normal -1 0 0
    outer loop
      vertex -5 0 -43.4
      vertex -5 0.2 -43.4
      vertex -5 0.2 -48
    endloop
  endfacet
  facet normal 0 0 -1
    outer loop
      vertex -38 0 -43.4
      vertex -5 0.2 -43.4
      vertex -5 0 -43.4
    endloop
  endfacet
  facet normal 0 0 -1
    outer loop
      vertex -38 0 -43.4
      vertex -38 0.2 -43.4
      vertex -5 0.2 -43.4
    endloop
  endfacet
  facet normal 1 0 0
    outer loop
      vertex -38 0 -48
      vertex -38 0.2 -43.4
      vertex -38 0 -43.4
    endloop
  endfacet
  facet normal 1 0 0
    outer loop
      vertex -38 0 -48
      vertex -38 0.2 -48
      vertex -38 0.2 -43.4
    endloop
  endfacet
  facet normal 0 0 -1
    outer loop
      vertex -48 0 -48
      vertex -38 0.2 -48
      vertex -38 0 -48
    endloop
  endfacet
  facet normal 0 0 -1
    outer loop
      vertex -48 0 -48
      vertex -48 0.2 -48
      vertex -38 0.2 -48
    endloop
  endfacet
  facet normal -1 0 0
    outer loop
      vertex -48 0 -38
      vertex -48 0.2 -48
      vertex -48 0 -48
    endloop
  endfacet
  facet normal -1 0 0
    outer loop
      vertex -48 0 -38
      vertex -48 0.2 -38
      vertex -48 0.2 -48
    endloop
  endfacet
  facet normal 0 0 1
    outer loop
      vertex -43.4 0 -38
      vertex -48 0.2 -38
      vertex -48 0 -38
    endloop
  endfacet
  facet normal 0 -0 1
    outer loop
      vertex -43.4 0 -38
      vertex -43.4 0.2 -38
      vertex -48 0.2 -38
    endloop
  endfacet
  facet normal -1 0 0
    outer loop
      vertex -43.4 0 -5
      vertex -43.4 0.2 -38
      vertex -43.4 0 -38
    endloop
  endfacet
  facet normal -1 0 0
    outer loop
      vertex -43.4 0 -5
      vertex -43.4 0.2 -5
      vertex -43.4 0.2 -38
    endloop
  endfacet
  facet normal 0 0 -1
    outer loop
      vertex -48 0 -5
      vertex -43.4 0.2 -5
      vertex -43.4 0 -5
    endloop
  endfacet
  facet normal 0 0 -1
    outer loop
      vertex -48 0 -5
      vertex -48 0.2 -5
      vertex -43.4 0.2 -5
    endloop
  endfacet
  facet normal -1 0 0
    outer loop
      vertex -48 0 5
      vertex -48 0.2 -5
      vertex -48 0 -5
    endloop
  endfacet
  facet normal -1 0 0
    outer loop
      vertex -48 0 5
      vertex -48 0.2 5
      vertex -48 0.2 -5
    endloop
  endfacet
  facet normal 0 0 1
    outer loop
      vertex -43.4 0 5
      vertex -48 0.2 5
      vertex -48 0 5
    endloop
  endfacet
  facet normal 0 -0 1
    outer loop
      vertex -43.4 0 5
      vertex -43.4 0.2 5
      vertex -48 0.2 5
    endloop
  endfacet
  facet normal -1 0 0
    outer loop
      vertex -43.4 0 38
      vertex -43.4 0.2 5
      vertex -43.4 0 5
    endloop
  endfacet
  facet normal -1 0 0
    outer loop
      vertex -43.4 0 38
      vertex -43.4 0.2 38
      vertex -43.4 0.2 5
    endloop
  endfacet
  facet normal 0 0 -1
    outer loop
      vertex -48 0 38
      vertex -43.4 0.2 38
      vertex -43.4 0 38
    endloop
  endfacet
  facet normal 0 0 -1
    outer loop
      vertex -48 0 38
      vertex -48 0.2 38
      vertex -43.4 0.2 38
    endloop
  endfacet
  facet normal -1 0 0
    outer loop
      vertex -48 0 48
      vertex -48 0.2 38
      vertex -48 0 38
    endloop
  endfacet
  facet normal -1 0 0
    outer loop
      vertex -48 0 48
      vertex -48 0.2 48
      vertex -48 0.2 38
    endloop
  endfacet
  facet normal 0 0 1
    outer loop
      vertex -38 0 48
      vertex -48 0.2 48
      vertex -48 0 48
    endloop
  endfacet
  facet normal 0 -0 1
    outer loop
      vertex -38 0 48
      vertex -38 0.2 48
      vertex -48 0.2 48
    endloop
  endfacet
  facet normal 1 0 0
    outer loop
      vertex -38 0 43.4
      vertex -38 0.2 48
      vertex -38 0 48
    endloop
  endfacet
  facet normal 1 0 0
    outer loop
      vertex -38 0 43.4
      vertex -38 0.2 43.4
      vertex -38 0.2 48
    endloop
  endfacet
  facet normal 1 0 0
    outer loop
      vertex -38 0 -5
      vertex -38 0.2 -5
      vertex -38 0 -0.399994
    endloop
  endfacet
  facet normal 1 0 0
    outer loop
      vertex -38 0.2 -0.399994
      vertex -38 0 -0.399994
      vertex -38 0.2 -5
    endloop
  endfacet
  facet normal 0 0 -1
    outer loop
      vertex -42.6 0 -5
      vertex -42.6 0.2 -5
      vertex -38 0 -5
    endloop
  endfacet
  facet normal -0 -0 -1
    outer loop
      vertex -38 0.2 -5
      vertex -38 0 -5
      vertex -42.6 0.2 -5
    endloop
  endfacet
  facet normal 1 0 0
    outer loop
      vertex -42.6 0 -38
      vertex -42.6 0.2 -38
      vertex -42.6 0 -5
    endloop
  endfacet
  facet normal 1 0 0
    outer loop
      vertex -42.6 0.2 -5
      vertex -42.6 0 -5
      vertex -42.6 0.2 -38
    endloop
  endfacet
  facet normal 0 -0 1
    outer loop
      vertex -38 0 -38
      vertex -38 0.2 -38
      vertex -42.6 0 -38
    endloop
  endfacet
  facet normal -0 0 1
    outer loop
      vertex -42.6 0.2 -38
      vertex -42.6 0 -38
      vertex -38 0.2 -38
    endloop
  endfacet
  facet normal 1 0 0
    outer loop
      vertex -38 0 -42.6
      vertex -38 0.2 -42.6
      vertex -38 0 -38
    endloop
  endfacet
  facet normal 1 0 0
    outer loop
      vertex -38 0.2 -38
      vertex -38 0 -38
      vertex -38 0.2 -42.6
    endloop
  endfacet
  facet normal 0 -0 1
    outer loop
      vertex -5 0 -42.6
      vertex -5 0.2 -42.6
      vertex -38 0 -42.6
    endloop
  endfacet
  facet normal -0 0 1
    outer loop
      vertex -38 0.2 -42.6
      vertex -38 0 -42.6
      vertex -5 0.2 -42.6
    endloop
  endfacet
  facet normal -1 0 0
    outer loop
      vertex -5 0 -38
      vertex -5 0.2 -38
      vertex -5 0 -42.6
    endloop
  endfacet
  facet normal -1 0 0
    outer loop
      vertex -5 0.2 -42.6
      vertex -5 0 -42.6
      vertex -5 0.2 -38
    endloop
  endfacet
  facet normal 0 -0 1
    outer loop
      vertex -0.400009 0 -38
      vertex -0.400009 0.2 -38
      vertex -5 0 -38
    endloop
  endfacet
  facet normal -0 0 1
    outer loop
      vertex -5 0.2 -38
      vertex -5 0 -38
      vertex -0.400009 0.2 -38
    endloop
  endfacet
  facet normal -1 0 0
    outer loop
      vertex -0.400009 0 -5
      vertex -0.400009 0.2 -5
      vertex -0.400009 0 -38
    endloop
  endfacet
  facet normal -1 0 0
    outer loop
      vertex -0.400009 0.2 -38
      vertex -0.400009 0 -38
      vertex -0.400009 0.2 -5
    endloop
  endfacet
  facet normal 0 0 -1
    outer loop
      vertex -5 0 -5
      vertex -5 0.2 -5
      vertex -0.400009 0 -5
    endloop
  endfacet
  facet normal -0 -0 -1
    outer loop
      vertex -0.400009 0.2 -5
      vertex -0.400009 0 -5
      vertex -5 0.2 -5
    endloop
  endfacet
  facet normal -1 0 0
    outer loop
      vertex -5 0 -0.399994
      vertex -5 0.2 -0.399994
      vertex -5 0 -5
    endloop
  endfacet
  facet normal -1 0 0
    outer loop
      vertex -5 0.2 -5
      vertex -5 0 -5
      vertex -5 0.2 -0.399994
    endloop
  endfacet
  facet normal 0 0 -1
    outer loop
      vertex -38 0 -0.399994
      vertex -38 0.2 -0.399994
      vertex -5 0 -0.399994
    endloop
  endfacet
  facet normal -0 -0 -1
    outer loop
      vertex -5 0.2 -0.399994
      vertex -5 0 -0.399994
      vertex -38 0.2 -0.399994
    endloop
  endfacet
  facet normal 1 0 0
    outer loop
      vertex 5 0 -5
      vertex 5 0.2 -5
      vertex 5 0 -0.399994
    endloop
  endfacet
  facet normal 1 0 0
    outer loop
      vertex 5 0.2 -0.399994
      vertex 5 0 -0.399994
      vertex 5 0.2 -5
    endloop
  endfacet
  facet normal 0 0 -1
    outer loop
      vertex 0.399994 0 -5
      vertex 0.399994 0.2 -5
      vertex 5 0 -5
    endloop
  endfacet
  facet normal -0 -0 -1
    outer loop
      vertex 5 0.2 -5
      vertex 5 0 -5
      vertex 0.399994 0.2 -5
    endloop
  endfacet
  facet normal 1 0 0
    outer loop
      vertex 0.399994 0 -38
      vertex 0.399994 0.2 -38
      vertex 0.399994 0 -5
    endloop
  endfacet
  facet normal 1 0 0
    outer loop
      vertex 0.399994 0.2 -5
      vertex 0.399994 0 -5
      vertex 0.399994 0.2 -38
    endloop
  endfacet
  facet normal 0 -0 1
    outer loop
      vertex 5 0 -38
      vertex 5 0.2 -38
      vertex 0.399994 0 -38
    endloop
  endfacet
  facet normal -0 0 1
    outer loop
      vertex 0.399994 0.2 -38
      vertex 0.399994 0 -38
      vertex 5 0.2 -38
    endloop
  endfacet
  facet normal 1 0 0
    outer loop
      vertex 5 0 -42.6
      vertex 5 0.2 -42.6
      vertex 5 0 -38
    endloop
  endfacet
  facet normal 1 0 0
    outer loop
      vertex 5 0.2 -38
      vertex 5 0 -38
      vertex 5 0.2 -42.6
    endloop
  endfacet
  facet normal 0 -0 1
    outer loop
      vertex 38 0 -42.6
      vertex 38 0.2 -42.6
      vertex 5 0 -42.6
    endloop
  endfacet
  facet normal -0 0 1
    outer loop
      vertex 5 0.2 -42.6
      vertex 5 0 -42.6
      vertex 38 0.2 -42.6
    endloop
  endfacet
  facet normal -1 0 0
    outer loop
      vertex 38 0 -38
      vertex 38 0.2 -38
      vertex 38 0 -42.6
    endloop
  endfacet
  facet normal -1 0 0
    outer loop
      vertex 38 0.2 -42.6
      vertex 38 0 -42.6
      vertex 38 0.2 -38
    endloop
  endfacet
  facet normal 0 -0 1
    outer loop
      vertex 42.6 0 -38
      vertex 42.6 0.2 -38
      vertex 38 0 -38
    endloop
  endfacet
  facet normal -0 0 1
    outer loop
      vertex 38 0.2 -38
      vertex 38 0 -38
      vertex 42.6 0.2 -38
    endloop
  endfacet
  facet normal -1 0 0
    outer loop
      vertex 42.6 0 -5
      vertex 42.6 0.2 -5
      vertex 42.6 0 -38
    endloop
  endfacet
  facet normal -1 0 0
    outer loop
      vertex 42.6 0.2 -38
      vertex 42.6 0 -38
      vertex 42.6 0.2 -5
    endloop
  endfacet
  facet normal 0 0 -1
    outer loop
      vertex 38 0 -5
      vertex 38 0.2 -5
      vertex 42.6 0 -5
    endloop
  endfacet
  facet normal -0 -0 -1
    outer loop
      vertex 42.6 0.2 -5
      vertex 42.6 0 -5
      vertex 38 0.2 -5
    endloop
  endfacet
  facet normal -1 0 0
    outer loop
      vertex 38 0 -0.399994
      vertex 38 0.2 -0.399994
      vertex 38 0 -5
    endloop
  endfacet
  facet normal -1 0 0
    outer loop
      vertex 38 0.2 -5
      vertex 38 0 -5
      vertex 38 0.2 -0.399994
    endloop
  endfacet
  facet normal 0 0 -1
    outer loop
      vertex 5 0 -0.399994
      vertex 5 0.2 -0.399994
      vertex 38 0 -0.399994
    endloop
  endfacet
  facet normal -0 -0 -1
    outer loop
      vertex 38 0.2 -0.399994
      vertex 38 0 -0.399994
      vertex 5 0.2 -0.399994
    endloop
  endfacet
  facet normal 1 0 0
    outer loop
      vertex -38 0 38
      vertex -38 0.2 38
      vertex -38 0 42.6
    endloop
  endfacet
  facet normal 1 0 0
    outer loop
      vertex -38 0.2 42.6
      vertex -38 0 42.6
      vertex -38 0.2 38
    endloop
  endfacet
  facet normal 0 0 -1
    outer loop
      vertex -42.6 0 38
      vertex -42.6 0.2 38
      vertex -38 0 38
    endloop
  endfacet
  facet normal -0 -0 -1
    outer loop
      vertex -38 0.2 38
      vertex -38 0 38
      vertex -42.6 0.2 38
    endloop
  endfacet
  facet normal 1 0 0
    outer loop
      vertex -42.6 0 5
      vertex -42.6 0.2 5
      vertex -42.6 0 38
    endloop
  endfacet
  facet normal 1 0 0
    outer loop
      vertex -42.6 0.2 38
      vertex -42.6 0 38
      vertex -42.6 0.2 5
    endloop
  endfacet
  facet normal 0 -0 1
    outer loop
      vertex -38 0 5
      vertex -38 0.2 5
      vertex -42.6 0 5
    endloop
  endfacet
  facet normal -0 0 1
    outer loop
      vertex -42.6 0.2 5
      vertex -42.6 0 5
      vertex -38 0.2 5
    endloop
  endfacet
  facet normal 1 0 0
    outer loop
      vertex -38 0 0.400009
      vertex -38 0.2 0.400009
      vertex -38 0 5
    endloop
  endfacet
  facet normal 1 0 0
    outer loop
      vertex -38 0.2 5
      vertex -38 0 5
      vertex -38 0.2 0.400009
    endloop
  endfacet
  facet normal 0 -0 1
    outer loop
      vertex -5 0 0.400009
      vertex -5 0.2 0.400009
      vertex -38 0 0.400009
    endloop
  endfacet
  facet normal -0 0 1
    outer loop
      vertex -38 0.2 0.400009
      vertex -38 0 0.400009
      vertex -5 0.2 0.400009
    endloop
  endfacet
  facet normal -1 0 0
    outer loop
      vertex -5 0 5
      vertex -5 0.2 5
      vertex -5 0 0.400009
    endloop
  endfacet
  facet normal -1 0 0
    outer loop
      vertex -5 0.2 0.400009
      vertex -5 0 0.400009
      vertex -5 0.2 5
    endloop
  endfacet
  facet normal 0 -0 1
    outer loop
      vertex -0.400009 0 5
      vertex -0.400009 0.2 5
      vertex -5 0 5
    endloop
  endfacet
  facet normal -0 0 1
    outer loop
      vertex -5 0.2 5
      vertex -5 0 5
      vertex -0.400009 0.2 5
    endloop
  endfacet
  facet normal -1 0 0
    outer loop
      vertex -0.400009 0 38
      vertex -0.400009 0.2 38
      vertex -0.400009 0 5
    endloop
  endfacet
  facet normal -1 0 0
    outer loop
      vertex -0.400009 0.2 5
      vertex -0.400009 0 5
      vertex -0.400009 0.2 38
    endloop
  endfacet
  facet normal 0 0 -1
    outer loop
      vertex -5 0 38
      vertex -5 0.2 38
      vertex -0.400009 0 38
    endloop
  endfacet
  facet normal -0 -0 -1
    outer loop
      vertex -0.400009 0.2 38
      vertex -0.400009 0 38
      vertex -5 0.2 38
    endloop
  endfacet
  facet normal -1 0 0
    outer loop
      vertex -5 0 42.6
      vertex -5 0.2 42.6
      vertex -5 0 38
    endloop
  endfacet
  facet normal -1 0 0
    outer loop
      vertex -5 0.2 38
      vertex -5 0 38
      vertex -5 0.2 42.6
    endloop
  endfacet
  facet normal 0 0 -1
    outer loop
      vertex -38 0 42.6
      vertex -38 0.2 42.6
      vertex -5 0 42.6
    endloop
  endfacet
  facet normal -0 -0 -1
    outer loop
      vertex -5 0.2 42.6
      vertex -5 0 42.6
      vertex -38 0.2 42.6
    endloop
  endfacet
  facet normal 1 0 0
    outer loop
      vertex 5 0 38
      vertex 5 0.2 38
      vertex 5 0 42.6
    endloop
  endfacet
  facet normal 1 0 0
    outer loop
      vertex 5 0.2 42.6
      vertex 5 0 42.6
      vertex 5 0.2 38
    endloop
  endfacet
  facet normal 0 0 -1
    outer loop
      vertex 0.399994 0 38
      vertex 0.399994 0.2 38
      vertex 5 0 38
    endloop
  endfacet
  facet normal -0 -0 -1
    outer loop
      vertex 5 0.2 38
      vertex 5 0 38
      vertex 0.399994 0.2 38
    endloop
  endfacet
  facet normal 1 0 0
    outer loop
      vertex 0.399994 0 5
      vertex 0.399994 0.2 5
      vertex 0.399994 0 38
    endloop
  endfacet
  facet normal 1 0 0
    outer loop
      vertex 0.399994 0.2 38
      vertex 0.399994 0 38
      vertex 0.399994 0.2 5
    endloop
  endfacet
  facet normal 0 -0 1
    outer loop
      vertex 5 0 5
      vertex 5 0.2 5
      vertex 0.399994 0 5
    endloop
  endfacet
  facet normal -0 0 1
    outer loop
      vertex 0.399994 0.2 5
      vertex 0.399994 0 5
      vertex 5 0.2 5
    endloop
  endfacet
  facet normal 1 0 0
    outer loop
      vertex 5 0 0.400009
      vertex 5 0.2 0.400009
      vertex 5 0 5
    endloop
  endfacet
  facet normal 1 0 0
    outer loop
      vertex 5 0.2 5
      vertex 5 0 5
      vertex 5 0.2 0.400009
    endloop
  endfacet
  facet normal 0 -0 1
    outer loop
      vertex 38 0 0.400009
      vertex 38 0.2 0.400009
      vertex 5 0 0.400009
    endloop
  endfacet
  facet normal -0 0 1
    outer loop
      vertex 5 0.2 0.400009
      vertex 5 0 0.400009
      vertex 38 0.2 0.400009
    endloop
  endfacet
  facet normal -1 0 0
    outer loop
      vertex 38 0 5
      vertex 38 0.2 5
      vertex 38 0 0.400009
    endloop
  endfacet
  facet normal -1 0 0
    outer loop
      vertex 38 0.2 0.400009
      vertex 38 0 0.400009
      vertex 38 0.2 5
    endloop
  endfacet
  facet normal 0 -0 1
    outer loop
      vertex 42.6 0 5
      vertex 42.6 0.2 5
      vertex 38 0 5
    endloop
  endfacet
  facet normal -0 0 1
    outer loop
      vertex 38 0.2 5
      vertex 38 0 5
      vertex 42.6 0.2 5
    endloop
  endfacet
  facet normal -1 0 0
    outer loop
      vertex 42.6 0 38
      vertex 42.6 0.2 38
      vertex 42.6 0 5
    endloop
  endfacet
  facet normal -1 0 0
    outer loop
      vertex 42.6 0.2 5
      vertex 42.6 0 5
      vertex 42.6 0.2 38
    endloop
  endfacet
  facet normal 0 0 -1
    outer loop
      vertex 38 0 38
      vertex 38 0.2 38
      vertex 42.6 0 38
    endloop
  endfacet
  facet normal -0 -0 -1
    outer loop
      vertex 42.6 0.2 38
      vertex 42.6 0 38
      vertex 38 0.2 38
    endloop
  endfacet
  facet normal -1 0 0
    outer loop
      vertex 38 0 42.6
      vertex 38 0.2 42.6
      vertex 38 0 38
    endloop
  endfacet
  facet normal -1 0 0
    outer loop
      vertex 38 0.2 38
      vertex 38 0 38
      vertex 38 0.2 42.6
    endloop
  endfacet
  facet normal 0 0 -1
    outer loop
      vertex 5 0 42.6
      vertex 5 0.2 42.6
      vertex 38 0 42.6
    endloop
  endfacet
  facet normal -0 -0 -1
    outer loop
      vertex 38 0.2 42.6
      vertex 38 0 42.6
      vertex 5 0.2 42.6
    endloop
  endfacet
endsolid OpenSCAD_Model
